<?xml version="1.0" standalone="no"?>
 <!DOCTYPE svg PUBLIC "-//W3C//DTD SVG 1.1//EN" 
 "http://www.w3.org/Graphics/SVG/1.1/DTD/svg11.dtd"> 
<svg xmlns="http://www.w3.org/2000/svg" version="1.1" 
    width="29.7002cm" height="21.0007cm" viewBox="0 0 116930 82680 ">
<title>SVG Picture created as prueba-F.Mask.svg date 2018/06/20 16:15:27 </title>
  <desc>Picture generated by PCBNEW </desc>
<g style="fill:#000000; fill-opacity:1;stroke:#000000; stroke-opacity:1;
stroke-linecap:round; stroke-linejoin:round; "
 transform="translate(0 0) scale(1 1)">
</g>
<g style="fill:#000000; fill-opacity:0.0; 
stroke:#000000; stroke-width:-0.000393701; stroke-opacity:1; 
stroke-linecap:round; stroke-linejoin:round;">
</g>
<g style="fill:#000000; fill-opacity:0.0; 
stroke:#000000; stroke-width:39.3701; stroke-opacity:1; 
stroke-linecap:round; stroke-linejoin:round;">
</g>
<g style="fill:#000000; fill-opacity:0.0; 
stroke:#000000; stroke-width:59.0551; stroke-opacity:1; 
stroke-linecap:round; stroke-linejoin:round;">
<rect x="69685.9" y="65357.2" width="42519.7" height="12598.4" rx="0" />
</g>
<g style="fill:#000000; fill-opacity:0.0; 
stroke:#000000; stroke-width:39.3701; stroke-opacity:1; 
stroke-linecap:round; stroke-linejoin:round;">
</g>
<g style="fill:#000000; fill-opacity:0.0; 
stroke:#000000; stroke-width:59.0551; stroke-opacity:1; 
stroke-linecap:round; stroke-linejoin:round;">
<rect x="3937.01" y="3937.01" width="109056" height="74806" rx="0" />
</g>
<g style="fill:#000000; fill-opacity:0.0; 
stroke:#000000; stroke-width:39.3701; stroke-opacity:1; 
stroke-linecap:round; stroke-linejoin:round;">
</g>
<g style="fill:#000000; fill-opacity:0.0; 
stroke:#000000; stroke-width:59.0551; stroke-opacity:1; 
stroke-linecap:round; stroke-linejoin:round;">
<rect x="4724.41" y="4724.41" width="107481" height="73231.2" rx="0" />
</g>
<g style="fill:#000000; fill-opacity:0.0; 
stroke:#000000; stroke-width:39.3701; stroke-opacity:1; 
stroke-linecap:round; stroke-linejoin:round;">
</g>
<g style="fill:#000000; fill-opacity:0.0; 
stroke:#000000; stroke-width:59.0551; stroke-opacity:1; 
stroke-linecap:round; stroke-linejoin:round;">
<path d="M23622 4724
L23622 3937
" />
</g>
<g style="fill:#000000; fill-opacity:0.0; 
stroke:#000000; stroke-width:39.3701; stroke-opacity:1; 
stroke-linecap:round; stroke-linejoin:round;">
</g>
<g style="fill:#000000; fill-opacity:0.0; 
stroke:#000000; stroke-width:59.0551; stroke-opacity:1; 
stroke-linecap:round; stroke-linejoin:round;">
<path d="M43307 4724
L43307 3937
" />
</g>
<g style="fill:#000000; fill-opacity:0.0; 
stroke:#000000; stroke-width:39.3701; stroke-opacity:1; 
stroke-linecap:round; stroke-linejoin:round;">
</g>
<g style="fill:#000000; fill-opacity:0.0; 
stroke:#000000; stroke-width:59.0551; stroke-opacity:1; 
stroke-linecap:round; stroke-linejoin:round;">
<path d="M62992 4724
L62992 3937
" />
</g>
<g style="fill:#000000; fill-opacity:0.0; 
stroke:#000000; stroke-width:39.3701; stroke-opacity:1; 
stroke-linecap:round; stroke-linejoin:round;">
</g>
<g style="fill:#000000; fill-opacity:0.0; 
stroke:#000000; stroke-width:59.0551; stroke-opacity:1; 
stroke-linecap:round; stroke-linejoin:round;">
<path d="M82677 4724
L82677 3937
" />
</g>
<g style="fill:#000000; fill-opacity:0.0; 
stroke:#000000; stroke-width:39.3701; stroke-opacity:1; 
stroke-linecap:round; stroke-linejoin:round;">
</g>
<g style="fill:#000000; fill-opacity:0.0; 
stroke:#000000; stroke-width:59.0551; stroke-opacity:1; 
stroke-linecap:round; stroke-linejoin:round;">
<path d="M102362 4724
L102362 3937
" />
</g>
<g style="fill:#000000; fill-opacity:0.0; 
stroke:#000000; stroke-width:39.3701; stroke-opacity:1; 
stroke-linecap:round; stroke-linejoin:round;">
</g>
<g style="fill:#000000; fill-opacity:0.0; 
stroke:#000000; stroke-width:59.0551; stroke-opacity:1; 
stroke-linecap:round; stroke-linejoin:round;">
<path d="M14169 4562
L13877 4562
" />
<path d="M14023 4562
L14023 4050
L13974 4123
L13925 4172
L13877 4196
" />
</g>
<g style="fill:#000000; fill-opacity:0.0; 
stroke:#000000; stroke-width:39.3701; stroke-opacity:1; 
stroke-linecap:round; stroke-linejoin:round;">
</g>
<g style="fill:#000000; fill-opacity:0.0; 
stroke:#000000; stroke-width:59.0551; stroke-opacity:1; 
stroke-linecap:round; stroke-linejoin:round;">
<path d="M33562 4099
L33586 4074
L33635 4050
L33757 4050
L33805 4074
L33830 4099
L33854 4147
L33854 4196
L33830 4269
L33537 4562
L33854 4562
" />
</g>
<g style="fill:#000000; fill-opacity:0.0; 
stroke:#000000; stroke-width:39.3701; stroke-opacity:1; 
stroke-linecap:round; stroke-linejoin:round;">
</g>
<g style="fill:#000000; fill-opacity:0.0; 
stroke:#000000; stroke-width:59.0551; stroke-opacity:1; 
stroke-linecap:round; stroke-linejoin:round;">
<path d="M53222 4050
L53539 4050
L53368 4245
L53442 4245
L53490 4269
L53515 4294
L53539 4342
L53539 4464
L53515 4513
L53490 4537
L53442 4562
L53295 4562
L53247 4537
L53222 4513
" />
</g>
<g style="fill:#000000; fill-opacity:0.0; 
stroke:#000000; stroke-width:39.3701; stroke-opacity:1; 
stroke-linecap:round; stroke-linejoin:round;">
</g>
<g style="fill:#000000; fill-opacity:0.0; 
stroke:#000000; stroke-width:59.0551; stroke-opacity:1; 
stroke-linecap:round; stroke-linejoin:round;">
<path d="M73175 4221
L73175 4562
" />
<path d="M73053 4026
L72932 4391
L73248 4391
" />
</g>
<g style="fill:#000000; fill-opacity:0.0; 
stroke:#000000; stroke-width:39.3701; stroke-opacity:1; 
stroke-linecap:round; stroke-linejoin:round;">
</g>
<g style="fill:#000000; fill-opacity:0.0; 
stroke:#000000; stroke-width:59.0551; stroke-opacity:1; 
stroke-linecap:round; stroke-linejoin:round;">
<path d="M92885 4050
L92641 4050
L92617 4294
L92641 4269
L92690 4245
L92812 4245
L92860 4269
L92885 4294
L92909 4342
L92909 4464
L92885 4513
L92860 4537
L92812 4562
L92690 4562
L92641 4537
L92617 4513
" />
</g>
<g style="fill:#000000; fill-opacity:0.0; 
stroke:#000000; stroke-width:39.3701; stroke-opacity:1; 
stroke-linecap:round; stroke-linejoin:round;">
</g>
<g style="fill:#000000; fill-opacity:0.0; 
stroke:#000000; stroke-width:59.0551; stroke-opacity:1; 
stroke-linecap:round; stroke-linejoin:round;">
<path d="M112545 4050
L112448 4050
L112399 4074
L112375 4099
L112326 4172
L112302 4269
L112302 4464
L112326 4513
L112350 4537
L112399 4562
L112497 4562
L112545 4537
L112570 4513
L112594 4464
L112594 4342
L112570 4294
L112545 4269
L112497 4245
L112399 4245
L112350 4269
L112326 4294
L112302 4342
" />
</g>
<g style="fill:#000000; fill-opacity:0.0; 
stroke:#000000; stroke-width:39.3701; stroke-opacity:1; 
stroke-linecap:round; stroke-linejoin:round;">
</g>
<g style="fill:#000000; fill-opacity:0.0; 
stroke:#000000; stroke-width:59.0551; stroke-opacity:1; 
stroke-linecap:round; stroke-linejoin:round;">
<path d="M23622 77955
L23622 78742
" />
</g>
<g style="fill:#000000; fill-opacity:0.0; 
stroke:#000000; stroke-width:39.3701; stroke-opacity:1; 
stroke-linecap:round; stroke-linejoin:round;">
</g>
<g style="fill:#000000; fill-opacity:0.0; 
stroke:#000000; stroke-width:59.0551; stroke-opacity:1; 
stroke-linecap:round; stroke-linejoin:round;">
<path d="M43307 77955
L43307 78742
" />
</g>
<g style="fill:#000000; fill-opacity:0.0; 
stroke:#000000; stroke-width:39.3701; stroke-opacity:1; 
stroke-linecap:round; stroke-linejoin:round;">
</g>
<g style="fill:#000000; fill-opacity:0.0; 
stroke:#000000; stroke-width:59.0551; stroke-opacity:1; 
stroke-linecap:round; stroke-linejoin:round;">
<path d="M62992 77955
L62992 78742
" />
</g>
<g style="fill:#000000; fill-opacity:0.0; 
stroke:#000000; stroke-width:39.3701; stroke-opacity:1; 
stroke-linecap:round; stroke-linejoin:round;">
</g>
<g style="fill:#000000; fill-opacity:0.0; 
stroke:#000000; stroke-width:59.0551; stroke-opacity:1; 
stroke-linecap:round; stroke-linejoin:round;">
<path d="M82677 77955
L82677 78742
" />
</g>
<g style="fill:#000000; fill-opacity:0.0; 
stroke:#000000; stroke-width:39.3701; stroke-opacity:1; 
stroke-linecap:round; stroke-linejoin:round;">
</g>
<g style="fill:#000000; fill-opacity:0.0; 
stroke:#000000; stroke-width:59.0551; stroke-opacity:1; 
stroke-linecap:round; stroke-linejoin:round;">
<path d="M102362 77955
L102362 78742
" />
</g>
<g style="fill:#000000; fill-opacity:0.0; 
stroke:#000000; stroke-width:39.3701; stroke-opacity:1; 
stroke-linecap:round; stroke-linejoin:round;">
</g>
<g style="fill:#000000; fill-opacity:0.0; 
stroke:#000000; stroke-width:59.0551; stroke-opacity:1; 
stroke-linecap:round; stroke-linejoin:round;">
<path d="M14169 78580
L13877 78580
" />
<path d="M14023 78580
L14023 78069
L13974 78142
L13925 78190
L13877 78215
" />
</g>
<g style="fill:#000000; fill-opacity:0.0; 
stroke:#000000; stroke-width:39.3701; stroke-opacity:1; 
stroke-linecap:round; stroke-linejoin:round;">
</g>
<g style="fill:#000000; fill-opacity:0.0; 
stroke:#000000; stroke-width:59.0551; stroke-opacity:1; 
stroke-linecap:round; stroke-linejoin:round;">
<path d="M33562 78117
L33586 78093
L33635 78069
L33757 78069
L33805 78093
L33830 78117
L33854 78166
L33854 78215
L33830 78288
L33537 78580
L33854 78580
" />
</g>
<g style="fill:#000000; fill-opacity:0.0; 
stroke:#000000; stroke-width:39.3701; stroke-opacity:1; 
stroke-linecap:round; stroke-linejoin:round;">
</g>
<g style="fill:#000000; fill-opacity:0.0; 
stroke:#000000; stroke-width:59.0551; stroke-opacity:1; 
stroke-linecap:round; stroke-linejoin:round;">
<path d="M53222 78069
L53539 78069
L53368 78263
L53442 78263
L53490 78288
L53515 78312
L53539 78361
L53539 78483
L53515 78532
L53490 78556
L53442 78580
L53295 78580
L53247 78556
L53222 78532
" />
</g>
<g style="fill:#000000; fill-opacity:0.0; 
stroke:#000000; stroke-width:39.3701; stroke-opacity:1; 
stroke-linecap:round; stroke-linejoin:round;">
</g>
<g style="fill:#000000; fill-opacity:0.0; 
stroke:#000000; stroke-width:59.0551; stroke-opacity:1; 
stroke-linecap:round; stroke-linejoin:round;">
<path d="M73175 78239
L73175 78580
" />
<path d="M73053 78044
L72932 78410
L73248 78410
" />
</g>
<g style="fill:#000000; fill-opacity:0.0; 
stroke:#000000; stroke-width:39.3701; stroke-opacity:1; 
stroke-linecap:round; stroke-linejoin:round;">
</g>
<g style="fill:#000000; fill-opacity:0.0; 
stroke:#000000; stroke-width:59.0551; stroke-opacity:1; 
stroke-linecap:round; stroke-linejoin:round;">
<path d="M92885 78069
L92641 78069
L92617 78312
L92641 78288
L92690 78263
L92812 78263
L92860 78288
L92885 78312
L92909 78361
L92909 78483
L92885 78532
L92860 78556
L92812 78580
L92690 78580
L92641 78556
L92617 78532
" />
</g>
<g style="fill:#000000; fill-opacity:0.0; 
stroke:#000000; stroke-width:39.3701; stroke-opacity:1; 
stroke-linecap:round; stroke-linejoin:round;">
</g>
<g style="fill:#000000; fill-opacity:0.0; 
stroke:#000000; stroke-width:59.0551; stroke-opacity:1; 
stroke-linecap:round; stroke-linejoin:round;">
<path d="M112545 78069
L112448 78069
L112399 78093
L112375 78117
L112326 78190
L112302 78288
L112302 78483
L112326 78532
L112350 78556
L112399 78580
L112497 78580
L112545 78556
L112570 78532
L112594 78483
L112594 78361
L112570 78312
L112545 78288
L112497 78263
L112399 78263
L112350 78288
L112326 78312
L112302 78361
" />
</g>
<g style="fill:#000000; fill-opacity:0.0; 
stroke:#000000; stroke-width:39.3701; stroke-opacity:1; 
stroke-linecap:round; stroke-linejoin:round;">
</g>
<g style="fill:#000000; fill-opacity:0.0; 
stroke:#000000; stroke-width:59.0551; stroke-opacity:1; 
stroke-linecap:round; stroke-linejoin:round;">
<path d="M3937 23622
L4724 23622
" />
</g>
<g style="fill:#000000; fill-opacity:0.0; 
stroke:#000000; stroke-width:39.3701; stroke-opacity:1; 
stroke-linecap:round; stroke-linejoin:round;">
</g>
<g style="fill:#000000; fill-opacity:0.0; 
stroke:#000000; stroke-width:59.0551; stroke-opacity:1; 
stroke-linecap:round; stroke-linejoin:round;">
<path d="M3937 43307
L4724 43307
" />
</g>
<g style="fill:#000000; fill-opacity:0.0; 
stroke:#000000; stroke-width:39.3701; stroke-opacity:1; 
stroke-linecap:round; stroke-linejoin:round;">
</g>
<g style="fill:#000000; fill-opacity:0.0; 
stroke:#000000; stroke-width:59.0551; stroke-opacity:1; 
stroke-linecap:round; stroke-linejoin:round;">
<path d="M3937 62992
L4724 62992
" />
</g>
<g style="fill:#000000; fill-opacity:0.0; 
stroke:#000000; stroke-width:39.3701; stroke-opacity:1; 
stroke-linecap:round; stroke-linejoin:round;">
</g>
<g style="fill:#000000; fill-opacity:0.0; 
stroke:#000000; stroke-width:59.0551; stroke-opacity:1; 
stroke-linecap:round; stroke-linejoin:round;">
<path d="M4208 13864
L4452 13864
" />
<path d="M4160 14011
L4330 13499
L4501 14011
" />
</g>
<g style="fill:#000000; fill-opacity:0.0; 
stroke:#000000; stroke-width:39.3701; stroke-opacity:1; 
stroke-linecap:round; stroke-linejoin:round;">
</g>
<g style="fill:#000000; fill-opacity:0.0; 
stroke:#000000; stroke-width:59.0551; stroke-opacity:1; 
stroke-linecap:round; stroke-linejoin:round;">
<path d="M4367 33428
L4440 33452
L4464 33476
L4489 33525
L4489 33598
L4464 33647
L4440 33671
L4391 33696
L4196 33696
L4196 33184
L4367 33184
L4416 33208
L4440 33233
L4464 33281
L4464 33330
L4440 33379
L4416 33403
L4367 33428
L4196 33428
" />
</g>
<g style="fill:#000000; fill-opacity:0.0; 
stroke:#000000; stroke-width:39.3701; stroke-opacity:1; 
stroke-linecap:round; stroke-linejoin:round;">
</g>
<g style="fill:#000000; fill-opacity:0.0; 
stroke:#000000; stroke-width:59.0551; stroke-opacity:1; 
stroke-linecap:round; stroke-linejoin:round;">
<path d="M4489 53332
L4464 53356
L4391 53381
L4342 53381
L4269 53356
L4221 53308
L4196 53259
L4172 53161
L4172 53088
L4196 52991
L4221 52942
L4269 52893
L4342 52869
L4391 52869
L4464 52893
L4489 52918
" />
</g>
<g style="fill:#000000; fill-opacity:0.0; 
stroke:#000000; stroke-width:39.3701; stroke-opacity:1; 
stroke-linecap:round; stroke-linejoin:round;">
</g>
<g style="fill:#000000; fill-opacity:0.0; 
stroke:#000000; stroke-width:59.0551; stroke-opacity:1; 
stroke-linecap:round; stroke-linejoin:round;">
<path d="M4196 73066
L4196 72554
L4318 72554
L4391 72578
L4440 72627
L4464 72676
L4489 72773
L4489 72846
L4464 72944
L4440 72993
L4391 73041
L4318 73066
L4196 73066
" />
</g>
<g style="fill:#000000; fill-opacity:0.0; 
stroke:#000000; stroke-width:39.3701; stroke-opacity:1; 
stroke-linecap:round; stroke-linejoin:round;">
</g>
<g style="fill:#000000; fill-opacity:0.0; 
stroke:#000000; stroke-width:59.0551; stroke-opacity:1; 
stroke-linecap:round; stroke-linejoin:round;">
<path d="M112992 23622
L112205 23622
" />
</g>
<g style="fill:#000000; fill-opacity:0.0; 
stroke:#000000; stroke-width:39.3701; stroke-opacity:1; 
stroke-linecap:round; stroke-linejoin:round;">
</g>
<g style="fill:#000000; fill-opacity:0.0; 
stroke:#000000; stroke-width:59.0551; stroke-opacity:1; 
stroke-linecap:round; stroke-linejoin:round;">
<path d="M112992 43307
L112205 43307
" />
</g>
<g style="fill:#000000; fill-opacity:0.0; 
stroke:#000000; stroke-width:39.3701; stroke-opacity:1; 
stroke-linecap:round; stroke-linejoin:round;">
</g>
<g style="fill:#000000; fill-opacity:0.0; 
stroke:#000000; stroke-width:59.0551; stroke-opacity:1; 
stroke-linecap:round; stroke-linejoin:round;">
<path d="M112992 62992
L112205 62992
" />
</g>
<g style="fill:#000000; fill-opacity:0.0; 
stroke:#000000; stroke-width:39.3701; stroke-opacity:1; 
stroke-linecap:round; stroke-linejoin:round;">
</g>
<g style="fill:#000000; fill-opacity:0.0; 
stroke:#000000; stroke-width:59.0551; stroke-opacity:1; 
stroke-linecap:round; stroke-linejoin:round;">
<path d="M112477 13864
L112721 13864
" />
<path d="M112428 14011
L112599 13499
L112769 14011
" />
</g>
<g style="fill:#000000; fill-opacity:0.0; 
stroke:#000000; stroke-width:39.3701; stroke-opacity:1; 
stroke-linecap:round; stroke-linejoin:round;">
</g>
<g style="fill:#000000; fill-opacity:0.0; 
stroke:#000000; stroke-width:59.0551; stroke-opacity:1; 
stroke-linecap:round; stroke-linejoin:round;">
<path d="M112635 33428
L112708 33452
L112733 33476
L112757 33525
L112757 33598
L112733 33647
L112708 33671
L112660 33696
L112465 33696
L112465 33184
L112635 33184
L112684 33208
L112708 33233
L112733 33281
L112733 33330
L112708 33379
L112684 33403
L112635 33428
L112465 33428
" />
</g>
<g style="fill:#000000; fill-opacity:0.0; 
stroke:#000000; stroke-width:39.3701; stroke-opacity:1; 
stroke-linecap:round; stroke-linejoin:round;">
</g>
<g style="fill:#000000; fill-opacity:0.0; 
stroke:#000000; stroke-width:59.0551; stroke-opacity:1; 
stroke-linecap:round; stroke-linejoin:round;">
<path d="M112757 53332
L112733 53356
L112660 53381
L112611 53381
L112538 53356
L112489 53308
L112465 53259
L112440 53161
L112440 53088
L112465 52991
L112489 52942
L112538 52893
L112611 52869
L112660 52869
L112733 52893
L112757 52918
" />
</g>
<g style="fill:#000000; fill-opacity:0.0; 
stroke:#000000; stroke-width:39.3701; stroke-opacity:1; 
stroke-linecap:round; stroke-linejoin:round;">
</g>
<g style="fill:#000000; fill-opacity:0.0; 
stroke:#000000; stroke-width:59.0551; stroke-opacity:1; 
stroke-linecap:round; stroke-linejoin:round;">
<path d="M112465 73066
L112465 72554
L112587 72554
L112660 72578
L112708 72627
L112733 72676
L112757 72773
L112757 72846
L112733 72944
L112708 72993
L112660 73041
L112587 73066
L112465 73066
" />
</g>
<g style="fill:#000000; fill-opacity:0.0; 
stroke:#000000; stroke-width:39.3701; stroke-opacity:1; 
stroke-linecap:round; stroke-linejoin:round;">
</g>
<g style="fill:#000000; fill-opacity:0.0; 
stroke:#000000; stroke-width:59.0551; stroke-opacity:1; 
stroke-linecap:round; stroke-linejoin:round;">
<path d="M78881 76293
L78881 75703
L79022 75703
L79106 75731
L79162 75787
L79190 75843
L79219 75956
L79219 76040
L79190 76153
L79162 76209
L79106 76265
L79022 76293
L78881 76293
" />
<path d="M79725 76293
L79725 75984
L79697 75928
L79640 75899
L79528 75899
L79472 75928
" />
<path d="M79725 76265
L79669 76293
L79528 76293
L79472 76265
L79444 76209
L79444 76153
L79472 76096
L79528 76068
L79669 76068
L79725 76040
" />
<path d="M79922 75899
L80147 75899
" />
<path d="M80006 75703
L80006 76209
L80034 76265
L80090 76293
L80147 76293
" />
<path d="M80568 76265
L80512 76293
L80400 76293
L80343 76265
L80315 76209
L80315 75984
L80343 75928
L80400 75899
L80512 75899
L80568 75928
L80597 75984
L80597 76040
L80315 76096
" />
<path d="M80850 76237
L80878 76265
L80850 76293
L80822 76265
L80850 76237
L80850 76293
" />
<path d="M80850 75928
L80878 75956
L80850 75984
L80822 75956
L80850 75928
L80850 75984
" />
</g>
<g style="fill:#000000; fill-opacity:0.0; 
stroke:#000000; stroke-width:39.3701; stroke-opacity:1; 
stroke-linecap:round; stroke-linejoin:round;">
</g>
<g style="fill:#000000; fill-opacity:0.0; 
stroke:#000000; stroke-width:59.0551; stroke-opacity:1; 
stroke-linecap:round; stroke-linejoin:round;">
<path d="M69685 76577
L112205 76577
" />
</g>
<g style="fill:#000000; fill-opacity:0.0; 
stroke:#000000; stroke-width:39.3701; stroke-opacity:1; 
stroke-linecap:round; stroke-linejoin:round;">
</g>
<g style="fill:#000000; fill-opacity:0.0; 
stroke:#000000; stroke-width:59.0551; stroke-opacity:1; 
stroke-linecap:round; stroke-linejoin:round;">
<path d="M70220 77395
L70220 76805
" />
<path d="M70557 77395
L70304 77058
" />
<path d="M70557 76805
L70220 77142
" />
<path d="M70810 77395
L70810 77002
" />
<path d="M70810 76805
L70782 76833
L70810 76861
L70838 76833
L70810 76805
L70810 76861
" />
<path d="M71429 77339
L71401 77367
L71316 77395
L71260 77395
L71176 77367
L71120 77311
L71091 77255
L71063 77142
L71063 77058
L71091 76946
L71120 76889
L71176 76833
L71260 76805
L71316 76805
L71401 76833
L71429 76861
" />
<path d="M71935 77395
L71935 77086
L71907 77030
L71851 77002
L71738 77002
L71682 77030
" />
<path d="M71935 77367
L71879 77395
L71738 77395
L71682 77367
L71654 77311
L71654 77255
L71682 77199
L71738 77171
L71879 77171
L71935 77142
" />
<path d="M72469 77395
L72469 76805
" />
<path d="M72469 77367
L72413 77395
L72301 77395
L72244 77367
L72216 77339
L72188 77283
L72188 77114
L72216 77058
L72244 77030
L72301 77002
L72413 77002
L72469 77030
" />
<path d="M73201 77086
L73397 77086
" />
<path d="M73482 77395
L73201 77395
L73201 76805
L73482 76805
" />
<path d="M73735 77339
L73763 77367
L73735 77395
L73707 77367
L73735 77339
L73735 77395
" />
<path d="M74016 77395
L74016 76805
L74157 76805
L74241 76833
L74297 76889
L74325 76946
L74354 77058
L74354 77142
L74325 77255
L74297 77311
L74241 77367
L74157 77395
L74016 77395
" />
<path d="M74607 77339
L74635 77367
L74607 77395
L74579 77367
L74607 77339
L74607 77395
" />
<path d="M74860 77227
L75141 77227
" />
<path d="M74804 77395
L75000 76805
L75197 77395
" />
<path d="M75394 77339
L75422 77367
L75394 77395
L75366 77367
L75394 77339
L75394 77395
" />
<path d="M76575 77395
L76575 76805
" />
<path d="M76631 77171
L76800 77395
" />
<path d="M76800 77002
L76575 77227
" />
<path d="M77053 77395
L77053 77002
" />
<path d="M77053 76805
L77025 76833
L77053 76861
L77081 76833
L77053 76805
L77053 76861
" />
<path d="M77588 77367
L77531 77395
L77419 77395
L77363 77367
L77334 77339
L77306 77283
L77306 77114
L77334 77058
L77363 77030
L77419 77002
L77531 77002
L77588 77030
" />
<path d="M78094 77395
L78094 77086
L78066 77030
L78009 77002
L77897 77002
L77841 77030
" />
<path d="M78094 77367
L78037 77395
L77897 77395
L77841 77367
L77813 77311
L77813 77255
L77841 77199
L77897 77171
L78037 77171
L78094 77142
" />
<path d="M78628 77395
L78628 76805
" />
<path d="M78628 77367
L78572 77395
L78459 77395
L78403 77367
L78375 77339
L78347 77283
L78347 77114
L78375 77058
L78403 77030
L78459 77002
L78572 77002
L78628 77030
" />
<path d="M79612 77002
L79612 77395
" />
<path d="M79472 76777
L79331 77199
L79697 77199
" />
<path d="M79922 77339
L79950 77367
L79922 77395
L79894 77367
L79922 77339
L79922 77395
" />
<path d="M80315 76805
L80372 76805
L80428 76833
L80456 76861
L80484 76917
L80512 77030
L80512 77171
L80484 77283
L80456 77339
L80428 77367
L80372 77395
L80315 77395
L80259 77367
L80231 77339
L80203 77283
L80175 77171
L80175 77030
L80203 76917
L80231 76861
L80259 76833
L80315 76805
" />
<path d="M80765 77339
L80793 77367
L80765 77395
L80737 77367
L80765 77339
L80765 77395
" />
<path d="M80990 76805
L81384 76805
L81131 77395
" />
</g>
<g style="fill:#000000; fill-opacity:0.0; 
stroke:#000000; stroke-width:39.3701; stroke-opacity:1; 
stroke-linecap:round; stroke-linejoin:round;">
</g>
<g style="fill:#000000; fill-opacity:0.0; 
stroke:#000000; stroke-width:59.0551; stroke-opacity:1; 
stroke-linecap:round; stroke-linejoin:round;">
<path d="M69685 75396
L112205 75396
" />
</g>
<g style="fill:#000000; fill-opacity:0.0; 
stroke:#000000; stroke-width:39.3701; stroke-opacity:1; 
stroke-linecap:round; stroke-linejoin:round;">
</g>
<g style="fill:#000000; fill-opacity:0.0; 
stroke:#000000; stroke-width:118.11; stroke-opacity:1; 
stroke-linecap:round; stroke-linejoin:round;">
<path d="M104022 76293
L103825 76012
" />
<path d="M103684 76293
L103684 75703
L103909 75703
L103965 75731
L103994 75759
L104022 75815
L104022 75899
L103994 75956
L103965 75984
L103909 76012
L103684 76012
" />
<path d="M104500 76265
L104444 76293
L104331 76293
L104275 76265
L104247 76209
L104247 75984
L104275 75928
L104331 75899
L104444 75899
L104500 75928
L104528 75984
L104528 76040
L104247 76096
" />
<path d="M104725 75899
L104865 76293
L105006 75899
" />
<path d="M105231 76237
L105259 76265
L105231 76293
L105203 76265
L105231 76237
L105231 76293
" />
<path d="M105231 75928
L105259 75956
L105231 75984
L105203 75956
L105231 75928
L105231 75984
" />
</g>
<g style="fill:#000000; fill-opacity:0.0; 
stroke:#000000; stroke-width:39.3701; stroke-opacity:1; 
stroke-linecap:round; stroke-linejoin:round;">
</g>
<g style="fill:#000000; fill-opacity:0.0; 
stroke:#000000; stroke-width:59.0551; stroke-opacity:1; 
stroke-linecap:round; stroke-linejoin:round;">
<path d="M70192 76265
L70276 76293
L70417 76293
L70473 76265
L70501 76237
L70529 76181
L70529 76124
L70501 76068
L70473 76040
L70417 76012
L70304 75984
L70248 75956
L70220 75928
L70192 75871
L70192 75815
L70220 75759
L70248 75731
L70304 75703
L70445 75703
L70529 75731
" />
<path d="M70782 76293
L70782 75899
" />
<path d="M70782 75703
L70754 75731
L70782 75759
L70810 75731
L70782 75703
L70782 75759
" />
<path d="M71007 75899
L71316 75899
L71007 76293
L71316 76293
" />
<path d="M71766 76265
L71710 76293
L71598 76293
L71541 76265
L71513 76209
L71513 75984
L71541 75928
L71598 75899
L71710 75899
L71766 75928
L71795 75984
L71795 76040
L71513 76096
" />
<path d="M72048 76237
L72076 76265
L72048 76293
L72019 76265
L72048 76237
L72048 76293
" />
<path d="M72048 75928
L72076 75956
L72048 75984
L72019 75956
L72048 75928
L72048 75984
" />
<path d="M72751 76124
L73032 76124
" />
<path d="M72694 76293
L72891 75703
L73088 76293
" />
<path d="M73538 75899
L73538 76293
" />
<path d="M73397 75674
L73257 76096
L73622 76096
" />
</g>
<g style="fill:#000000; fill-opacity:0.0; 
stroke:#000000; stroke-width:39.3701; stroke-opacity:1; 
stroke-linecap:round; stroke-linejoin:round;">
</g>
<g style="fill:#000000; fill-opacity:0.0; 
stroke:#000000; stroke-width:59.0551; stroke-opacity:1; 
stroke-linecap:round; stroke-linejoin:round;">
<path d="M103684 77395
L103684 76805
" />
<path d="M104219 77395
L104219 76805
" />
<path d="M104219 77367
L104162 77395
L104050 77395
L103994 77367
L103965 77339
L103937 77283
L103937 77114
L103965 77058
L103994 77030
L104050 77002
L104162 77002
L104219 77030
" />
<path d="M104500 77339
L104528 77367
L104500 77395
L104472 77367
L104500 77339
L104500 77395
" />
<path d="M104500 77030
L104528 77058
L104500 77086
L104472 77058
L104500 77030
L104500 77086
" />
<path d="M105540 77395
L105203 77395
" />
<path d="M105372 77395
L105372 76805
L105315 76889
L105259 76946
L105203 76974
" />
<path d="M106215 76777
L105709 77536
" />
<path d="M106721 77395
L106384 77395
" />
<path d="M106553 77395
L106553 76805
L106496 76889
L106440 76946
L106384 76974
" />
</g>
<g style="fill:#000000; fill-opacity:0.0; 
stroke:#000000; stroke-width:39.3701; stroke-opacity:1; 
stroke-linecap:round; stroke-linejoin:round;">
</g>
<g style="fill:#000000; fill-opacity:0.0; 
stroke:#000000; stroke-width:59.0551; stroke-opacity:1; 
stroke-linecap:round; stroke-linejoin:round;">
<path d="M69685 73821
L112205 73821
" />
</g>
<g style="fill:#000000; fill-opacity:0.0; 
stroke:#000000; stroke-width:39.3701; stroke-opacity:1; 
stroke-linecap:round; stroke-linejoin:round;">
</g>
<g style="fill:#000000; fill-opacity:0.0; 
stroke:#000000; stroke-width:157.48; stroke-opacity:1; 
stroke-linecap:round; stroke-linejoin:round;">
<path d="M70257 74099
L70707 74099
" />
<path d="M70384 74886
L70482 74099
" />
<path d="M70871 74886
L70937 74361
" />
<path d="M70970 74099
L70927 74136
L70960 74174
L71002 74136
L70970 74099
L70960 74174
" />
<path d="M71199 74361
L71499 74361
" />
<path d="M71345 74099
L71260 74774
L71288 74849
L71359 74886
L71434 74886
" />
<path d="M71809 74886
L71738 74849
L71710 74774
L71795 74099
" />
<path d="M72413 74849
L72334 74886
L72184 74886
L72113 74849
L72085 74774
L72123 74474
L72169 74399
L72249 74361
L72399 74361
L72469 74399
L72498 74474
L72488 74549
L72104 74624
" />
<path d="M72793 74811
L72826 74849
L72783 74886
L72751 74849
L72793 74811
L72783 74886
" />
<path d="M72844 74399
L72877 74436
L72835 74474
L72802 74436
L72844 74399
L72835 74474
" />
</g>
<g style="fill:#000000; fill-opacity:0.0; 
stroke:#000000; stroke-width:39.3701; stroke-opacity:1; 
stroke-linecap:round; stroke-linejoin:round;">
</g>
<g style="fill:#000000; fill-opacity:0.0; 
stroke:#000000; stroke-width:59.0551; stroke-opacity:1; 
stroke-linecap:round; stroke-linejoin:round;">
<path d="M70417 73070
L70220 73070
" />
<path d="M70220 73380
L70220 72789
L70501 72789
" />
<path d="M70726 73380
L70726 72986
" />
<path d="M70726 72789
L70698 72817
L70726 72845
L70754 72817
L70726 72789
L70726 72845
" />
<path d="M71091 73380
L71035 73352
L71007 73295
L71007 72789
" />
<path d="M71541 73352
L71485 73380
L71373 73380
L71316 73352
L71288 73295
L71288 73070
L71316 73014
L71373 72986
L71485 72986
L71541 73014
L71570 73070
L71570 73127
L71288 73183
" />
<path d="M71823 73323
L71851 73352
L71823 73380
L71795 73352
L71823 73323
L71823 73380
" />
<path d="M71823 73014
L71851 73042
L71823 73070
L71795 73042
L71823 73014
L71823 73070
" />
<path d="M72554 72986
L72554 73577
" />
<path d="M72554 73014
L72610 72986
L72723 72986
L72779 73014
L72807 73042
L72835 73099
L72835 73267
L72807 73323
L72779 73352
L72723 73380
L72610 73380
L72554 73352
" />
<path d="M73088 73380
L73088 72986
" />
<path d="M73088 73099
L73116 73042
L73144 73014
L73201 72986
L73257 72986
" />
<path d="M73707 72986
L73707 73380
" />
<path d="M73454 72986
L73454 73295
L73482 73352
L73538 73380
L73622 73380
L73679 73352
L73707 73323
" />
<path d="M74213 73352
L74157 73380
L74044 73380
L73988 73352
L73960 73295
L73960 73070
L73988 73014
L74044 72986
L74157 72986
L74213 73014
L74241 73070
L74241 73127
L73960 73183
" />
<path d="M74494 73380
L74494 72789
" />
<path d="M74494 73014
L74550 72986
L74663 72986
L74719 73014
L74747 73042
L74775 73099
L74775 73267
L74747 73323
L74719 73352
L74663 73380
L74550 73380
L74494 73352
" />
<path d="M75282 73380
L75282 73070
L75253 73014
L75197 72986
L75085 72986
L75028 73014
" />
<path d="M75282 73352
L75225 73380
L75085 73380
L75028 73352
L75000 73295
L75000 73239
L75028 73183
L75085 73155
L75225 73155
L75282 73127
" />
<path d="M75563 73323
L75591 73352
L75563 73380
L75535 73352
L75563 73323
L75563 73380
" />
<path d="M75844 73380
L75844 72789
" />
<path d="M75900 73155
L76069 73380
" />
<path d="M76069 72986
L75844 73211
" />
<path d="M76322 73380
L76322 72986
" />
<path d="M76322 72789
L76294 72817
L76322 72845
L76350 72817
L76322 72789
L76322 72845
" />
<path d="M76856 73352
L76800 73380
L76688 73380
L76631 73352
L76603 73323
L76575 73267
L76575 73099
L76603 73042
L76631 73014
L76688 72986
L76800 72986
L76856 73014
" />
<path d="M77363 73380
L77363 73070
L77334 73014
L77278 72986
L77166 72986
L77109 73014
" />
<path d="M77363 73352
L77306 73380
L77166 73380
L77109 73352
L77081 73295
L77081 73239
L77109 73183
L77166 73155
L77306 73155
L77363 73127
" />
<path d="M77897 73380
L77897 72789
" />
<path d="M77897 73352
L77841 73380
L77728 73380
L77672 73352
L77644 73323
L77616 73267
L77616 73099
L77644 73042
L77672 73014
L77728 72986
L77841 72986
L77897 73014
" />
<path d="M78037 73436
L78487 73436
" />
<path d="M78628 72986
L78628 73577
" />
<path d="M78628 73014
L78684 72986
L78797 72986
L78853 73014
L78881 73042
L78909 73099
L78909 73267
L78881 73323
L78853 73352
L78797 73380
L78684 73380
L78628 73352
" />
<path d="M79415 73352
L79359 73380
L79247 73380
L79190 73352
L79162 73323
L79134 73267
L79134 73099
L79162 73042
L79190 73014
L79247 72986
L79359 72986
L79415 73014
" />
<path d="M79669 73380
L79669 72789
" />
<path d="M79669 73014
L79725 72986
L79837 72986
L79894 73014
L79922 73042
L79950 73099
L79950 73267
L79922 73323
L79894 73352
L79837 73380
L79725 73380
L79669 73352
" />
</g>
<g style="fill:#000000; fill-opacity:0.0; 
stroke:#000000; stroke-width:39.3701; stroke-opacity:1; 
stroke-linecap:round; stroke-linejoin:round;">
</g>
<g style="fill:#000000; fill-opacity:0.0; 
stroke:#000000; stroke-width:59.0551; stroke-opacity:1; 
stroke-linecap:round; stroke-linejoin:round;">
<path d="M69685 71459
L112205 71459
" />
</g>
<g style="fill:#000000; fill-opacity:0.0; 
stroke:#000000; stroke-width:39.3701; stroke-opacity:1; 
stroke-linecap:round; stroke-linejoin:round;">
</g>
<g style="fill:#000000; fill-opacity:0.0; 
stroke:#000000; stroke-width:59.0551; stroke-opacity:1; 
stroke-linecap:round; stroke-linejoin:round;">
<path d="M70192 72289
L70276 72317
L70417 72317
L70473 72289
L70501 72260
L70529 72204
L70529 72148
L70501 72092
L70473 72064
L70417 72036
L70304 72007
L70248 71979
L70220 71951
L70192 71895
L70192 71839
L70220 71782
L70248 71754
L70304 71726
L70445 71726
L70529 71754
" />
<path d="M70782 72317
L70782 71726
" />
<path d="M71035 72317
L71035 72007
L71007 71951
L70951 71923
L70867 71923
L70810 71951
L70782 71979
" />
<path d="M71541 72289
L71485 72317
L71373 72317
L71316 72289
L71288 72232
L71288 72007
L71316 71951
L71373 71923
L71485 71923
L71541 71951
L71570 72007
L71570 72064
L71288 72120
" />
<path d="M72048 72289
L71991 72317
L71879 72317
L71823 72289
L71795 72232
L71795 72007
L71823 71951
L71879 71923
L71991 71923
L72048 71951
L72076 72007
L72076 72064
L71795 72120
" />
<path d="M72244 71923
L72469 71923
" />
<path d="M72329 71726
L72329 72232
L72357 72289
L72413 72317
L72469 72317
" />
<path d="M72666 72260
L72694 72289
L72666 72317
L72638 72289
L72666 72260
L72666 72317
" />
<path d="M72666 71951
L72694 71979
L72666 72007
L72638 71979
L72666 71951
L72666 72007
" />
</g>
<g style="fill:#000000; fill-opacity:0.0; 
stroke:#000000; stroke-width:39.3701; stroke-opacity:1; 
stroke-linecap:round; stroke-linejoin:round;">
</g>
<g style="fill:#000000; fill-opacity:0.0; 
stroke:#000000; stroke-width:59.0551; stroke-opacity:1; 
stroke-linecap:round; stroke-linejoin:round;">
<path d="M77559 75396
L77559 76577
" />
</g>
<g style="fill:#000000; fill-opacity:0.0; 
stroke:#000000; stroke-width:39.3701; stroke-opacity:1; 
stroke-linecap:round; stroke-linejoin:round;">
</g>
<g style="fill:#000000; fill-opacity:0.0; 
stroke:#000000; stroke-width:59.0551; stroke-opacity:1; 
stroke-linecap:round; stroke-linejoin:round;">
<path d="M102756 75396
L102756 77955
" />
</g>
<g style="fill:#C2C200; fill-opacity:0.0; 
stroke:#C2C200; stroke-width:59.0551; stroke-opacity:1; 
stroke-linecap:round; stroke-linejoin:round;">
<path d="M41500 54000
L64500 54000
" />
<path d="M41500 18500
L41500 54000
" />
<path d="M42000 18500
L41500 18500
" />
<path d="M64500 18500
L42000 18500
" />
<path d="M64500 54000
L64500 18500
" />
</g>
<g style="fill:#840084; fill-opacity:0.0; 
stroke:#840084; stroke-width:59.0551; stroke-opacity:1; 
stroke-linecap:round; stroke-linejoin:round;">
</g>
<g style="fill:#840084; fill-opacity:1.0; 
stroke:#840084; stroke-width:150; stroke-opacity:1; 
stroke-linecap:round; stroke-linejoin:round;">
<polyline style="fill-rule:evenodd;"
points="51201,53413
50708,53413
50708,52842
51201,52842
" /> 
<polyline style="fill-rule:evenodd;"
points="49289,53413
48799,53413
48799,52842
49289,52842
" /> 
<polyline style="fill-rule:evenodd;"
points="51891,52360
50984,52360
50984,51531
51891,51531
" /> 
<polyline style="fill-rule:evenodd;"
points="49013,52360
48110,52360
48110,51529
49013,51529
" /> 
</g>
<g style="fill:#840000; fill-opacity:1.0; 
stroke:#840000; stroke-width:150; stroke-opacity:1; 
stroke-linecap:round; stroke-linejoin:round;">
</g>
<g style="fill:#840000; fill-opacity:1.0; 
stroke:#840000; stroke-width:0; stroke-opacity:1; 
stroke-linecap:round; stroke-linejoin:round;">
<polyline style="fill-rule:evenodd;"
points="60751,37147
60751,36852
61027,36852
61027,37147
60751,37147
" /> 
<polyline style="fill-rule:evenodd;"
points="60972,37147
60972,36852
61248,36852
61248,37147
60972,37147
" /> 
<polyline style="fill-rule:evenodd;"
points="60763,37663
60763,37336
61031,37336
61031,37663
60763,37663
" /> 
<polyline style="fill-rule:evenodd;"
points="60968,37663
60968,37336
61236,37336
61236,37663
60968,37663
" /> 
<polyline style="fill-rule:evenodd;"
points="60763,38663
60763,38336
61031,38336
61031,38663
60763,38663
" /> 
<polyline style="fill-rule:evenodd;"
points="60968,38663
60968,38336
61236,38336
61236,38663
60968,38663
" /> 
<polyline style="fill-rule:evenodd;"
points="61248,38852
61248,39147
60972,39147
60972,38852
61248,38852
" /> 
<polyline style="fill-rule:evenodd;"
points="61027,38852
61027,39147
60751,39147
60751,38852
61027,38852
" /> 
<polyline style="fill-rule:evenodd;"
points="62303,36874
63444,36874
63444,37267
62303,37267
62303,36874
" /> 
<polyline style="fill-rule:evenodd;"
points="62303,37267
63444,37267
63444,37661
62303,37661
62303,37267
" /> 
<polyline style="fill-rule:evenodd;"
points="62303,37661
63444,37661
63444,38055
62303,38055
62303,37661
" /> 
<polyline style="fill-rule:evenodd;"
points="62303,38055
63444,38055
63444,38448
62303,38448
62303,38055
" /> 
<polyline style="fill-rule:evenodd;"
points="62303,38448
63444,38448
63444,38842
62303,38842
62303,38448
" /> 
<polyline style="fill-rule:evenodd;"
points="62303,38842
63444,38842
63444,39236
62303,39236
62303,38842
" /> 
<polyline style="fill-rule:evenodd;"
points="62303,39236
63444,39236
63444,39629
62303,39629
62303,39236
" /> 
<polyline style="fill-rule:evenodd;"
points="62303,39629
63444,39629
63444,40023
62303,40023
62303,39629
" /> 
<polyline style="fill-rule:evenodd;"
points="43696,42125
42555,42125
42555,41732
43696,41732
43696,42125
" /> 
<polyline style="fill-rule:evenodd;"
points="43696,41732
42555,41732
42555,41338
43696,41338
43696,41732
" /> 
<polyline style="fill-rule:evenodd;"
points="43696,41338
42555,41338
42555,40944
43696,40944
43696,41338
" /> 
<polyline style="fill-rule:evenodd;"
points="43696,40944
42555,40944
42555,40551
43696,40551
43696,40944
" /> 
<polyline style="fill-rule:evenodd;"
points="43696,40551
42555,40551
42555,40157
43696,40157
43696,40551
" /> 
<polyline style="fill-rule:evenodd;"
points="43696,40157
42555,40157
42555,39763
43696,39763
43696,40157
" /> 
<polyline style="fill-rule:evenodd;"
points="43696,39763
42555,39763
42555,39370
43696,39370
43696,39763
" /> 
<polyline style="fill-rule:evenodd;"
points="43696,39370
42555,39370
42555,38976
43696,38976
43696,39370
" /> 
<polyline style="fill-rule:evenodd;"
points="44352,39751
44647,39751
44647,40027
44352,40027
44352,39751
" /> 
<polyline style="fill-rule:evenodd;"
points="44352,39972
44647,39972
44647,40248
44352,40248
44352,39972
" /> 
<polyline style="fill-rule:evenodd;"
points="45251,40147
45251,39852
45527,39852
45527,40147
45251,40147
" /> 
<polyline style="fill-rule:evenodd;"
points="45472,40147
45472,39852
45748,39852
45748,40147
45472,40147
" /> 
<polyline style="fill-rule:evenodd;"
points="44263,42663
44263,42336
44531,42336
44531,42663
44263,42663
" /> 
<polyline style="fill-rule:evenodd;"
points="44468,42663
44468,42336
44736,42336
44736,42663
44468,42663
" /> 
<polyline style="fill-rule:evenodd;"
points="44663,41236
44336,41236
44336,40968
44663,40968
44663,41236
" /> 
<polyline style="fill-rule:evenodd;"
points="44663,41031
44336,41031
44336,40763
44663,40763
44663,41031
" /> 
<polyline style="fill-rule:evenodd;"
points="59913,53486
59586,53486
59586,53218
59913,53218
59913,53486
" /> 
<polyline style="fill-rule:evenodd;"
points="59913,53281
59586,53281
59586,53013
59913,53013
59913,53281
" /> 
<polyline style="fill-rule:evenodd;"
points="61608,52259
61301,52259
61301,51885
61608,51885
61608,52259
" /> 
<polyline style="fill-rule:evenodd;"
points="61608,52614
61301,52614
61301,52240
61608,52240
61608,52614
" /> 
<polyline style="fill-rule:evenodd;"
points="61360,52604
60730,52604
60730,51895
61360,51895
61360,52604
" /> 
<polyline style="fill-rule:evenodd;"
points="53751,49647
53751,49352
54027,49352
54027,49647
53751,49647
" /> 
<polyline style="fill-rule:evenodd;"
points="53972,49647
53972,49352
54248,49352
54248,49647
53972,49647
" /> 
<polyline style="fill-rule:evenodd;"
points="56248,48852
56248,49147
55972,49147
55972,48852
56248,48852
" /> 
<polyline style="fill-rule:evenodd;"
points="56027,48852
56027,49147
55751,49147
55751,48852
56027,48852
" /> 
<polyline style="fill-rule:evenodd;"
points="56248,49352
56248,49647
55972,49647
55972,49352
56248,49352
" /> 
<polyline style="fill-rule:evenodd;"
points="56027,49352
56027,49647
55751,49647
55751,49352
56027,49352
" /> 
<polyline style="fill-rule:evenodd;"
points="49751,22147
49751,21852
50027,21852
50027,22147
49751,22147
" /> 
<polyline style="fill-rule:evenodd;"
points="49972,22147
49972,21852
50248,21852
50248,22147
49972,22147
" /> 
<polyline style="fill-rule:evenodd;"
points="51751,22147
51751,21852
52027,21852
52027,22147
51751,22147
" /> 
<polyline style="fill-rule:evenodd;"
points="51972,22147
51972,21852
52248,21852
52248,22147
51972,22147
" /> 
<polyline style="fill-rule:evenodd;"
points="52647,50248
52352,50248
52352,49972
52647,49972
52647,50248
" /> 
<polyline style="fill-rule:evenodd;"
points="52647,50027
52352,50027
52352,49751
52647,49751
52647,50027
" /> 
<polyline style="fill-rule:evenodd;"
points="51647,50248
51352,50248
51352,49972
51647,49972
51647,50248
" /> 
<polyline style="fill-rule:evenodd;"
points="51647,50027
51352,50027
51352,49751
51647,49751
51647,50027
" /> 
<polyline style="fill-rule:evenodd;"
points="53248,46852
53248,47147
52972,47147
52972,46852
53248,46852
" /> 
<polyline style="fill-rule:evenodd;"
points="53027,46852
53027,47147
52751,47147
52751,46852
53027,46852
" /> 
<polyline style="fill-rule:evenodd;"
points="51751,47147
51751,46852
52027,46852
52027,47147
51751,47147
" /> 
<polyline style="fill-rule:evenodd;"
points="51972,47147
51972,46852
52248,46852
52248,47147
51972,47147
" /> 
<polyline style="fill-rule:evenodd;"
points="51751,46647
51751,46352
52027,46352
52027,46647
51751,46647
" /> 
<polyline style="fill-rule:evenodd;"
points="51972,46647
51972,46352
52248,46352
52248,46647
51972,46647
" /> 
<polyline style="fill-rule:evenodd;"
points="46251,49647
46251,49352
46527,49352
46527,49647
46251,49647
" /> 
<polyline style="fill-rule:evenodd;"
points="46472,49647
46472,49352
46748,49352
46748,49647
46472,49647
" /> 
<polyline style="fill-rule:evenodd;"
points="48751,48147
48751,47852
49027,47852
49027,48147
48751,48147
" /> 
<polyline style="fill-rule:evenodd;"
points="48972,48147
48972,47852
49248,47852
49248,48147
48972,48147
" /> 
<polyline style="fill-rule:evenodd;"
points="47748,49352
47748,49647
47472,49647
47472,49352
47748,49352
" /> 
<polyline style="fill-rule:evenodd;"
points="47527,49352
47527,49647
47251,49647
47251,49352
47527,49352
" /> 
<polyline style="fill-rule:evenodd;"
points="55251,43147
55251,42852
55527,42852
55527,43147
55251,43147
" /> 
<polyline style="fill-rule:evenodd;"
points="55472,43147
55472,42852
55748,42852
55748,43147
55472,43147
" /> 
<polyline style="fill-rule:evenodd;"
points="52251,41147
52251,40852
52527,40852
52527,41147
52251,41147
" /> 
<polyline style="fill-rule:evenodd;"
points="52472,41147
52472,40852
52748,40852
52748,41147
52472,41147
" /> 
<polyline style="fill-rule:evenodd;"
points="57751,43147
57751,42852
58027,42852
58027,43147
57751,43147
" /> 
<polyline style="fill-rule:evenodd;"
points="57972,43147
57972,42852
58248,42852
58248,43147
57972,43147
" /> 
<polyline style="fill-rule:evenodd;"
points="52736,53531
52263,53531
52263,53137
52736,53137
52736,53531
" /> 
<polyline style="fill-rule:evenodd;"
points="52736,52862
52263,52862
52263,52468
52736,52468
52736,52862
" /> 
<polyline style="fill-rule:evenodd;"
points="49968,48736
49968,48263
50362,48263
50362,48736
49968,48736
" /> 
<polyline style="fill-rule:evenodd;"
points="50637,48736
50637,48263
51031,48263
51031,48736
50637,48736
" /> 
<polyline style="fill-rule:evenodd;"
points="61608,47259
61301,47259
61301,46885
61608,46885
61608,47259
" /> 
<polyline style="fill-rule:evenodd;"
points="61608,47614
61301,47614
61301,47240
61608,47240
61608,47614
" /> 
<polyline style="fill-rule:evenodd;"
points="61360,47604
60730,47604
60730,46895
61360,46895
61360,47604
" /> 
<polyline style="fill-rule:evenodd;"
points="61608,44759
61301,44759
61301,44385
61608,44385
61608,44759
" /> 
<polyline style="fill-rule:evenodd;"
points="61608,45114
61301,45114
61301,44740
61608,44740
61608,45114
" /> 
<polyline style="fill-rule:evenodd;"
points="61360,45104
60730,45104
60730,44395
61360,44395
61360,45104
" /> 
<polyline style="fill-rule:evenodd;"
points="61608,42259
61301,42259
61301,41885
61608,41885
61608,42259
" /> 
<polyline style="fill-rule:evenodd;"
points="61608,42614
61301,42614
61301,42240
61608,42240
61608,42614
" /> 
<polyline style="fill-rule:evenodd;"
points="61360,42604
60730,42604
60730,41895
61360,41895
61360,42604
" /> 
<polyline style="fill-rule:evenodd;"
points="61608,49759
61301,49759
61301,49385
61608,49385
61608,49759
" /> 
<polyline style="fill-rule:evenodd;"
points="61608,50114
61301,50114
61301,49740
61608,49740
61608,50114
" /> 
<polyline style="fill-rule:evenodd;"
points="61360,50104
60730,50104
60730,49395
61360,49395
61360,50104
" /> 
<polyline style="fill-rule:evenodd;"
points="42893,50393
42106,50393
42106,49606
42893,49606
42893,50393
" /> 
</g>
<g style="fill:#840000; fill-opacity:1.0; 
stroke:#840000; stroke-width:787.402; stroke-opacity:1; 
stroke-linecap:round; stroke-linejoin:round;">
</g>
<g style="fill:#840000; fill-opacity:0.0; 
stroke:#840000; stroke-width:787.402; stroke-opacity:1; 
stroke-linecap:round; stroke-linejoin:round;">
<path d="M43500 47000
L43500 47000
" />
<path d="M43500 50000
L43500 50000
" />
<path d="M42500 47000
L42500 47000
" />
</g>
<g style="fill:#840000; fill-opacity:0.0; 
stroke:#840000; stroke-width:0; stroke-opacity:1; 
stroke-linecap:round; stroke-linejoin:round;">
</g>
<g style="fill:#840000; fill-opacity:1.0; 
stroke:#840000; stroke-width:0; stroke-opacity:1; 
stroke-linecap:round; stroke-linejoin:round;">
<polyline style="fill-rule:evenodd;"
points="52224,50870
52775,50870
52775,51460
52224,51460
52224,50870
" /> 
<polyline style="fill-rule:evenodd;"
points="52224,51539
52775,51539
52775,52129
52224,52129
52224,51539
" /> 
<polyline style="fill-rule:evenodd;"
points="55163,46736
54836,46736
54836,46468
55163,46468
55163,46736
" /> 
<polyline style="fill-rule:evenodd;"
points="55163,46531
54836,46531
54836,46263
55163,46263
55163,46531
" /> 
<polyline style="fill-rule:evenodd;"
points="56263,48163
56263,47836
56531,47836
56531,48163
56263,48163
" /> 
<polyline style="fill-rule:evenodd;"
points="56468,48163
56468,47836
56736,47836
56736,48163
56468,48163
" /> 
<polyline style="fill-rule:evenodd;"
points="56263,47663
56263,47336
56531,47336
56531,47663
56263,47663
" /> 
<polyline style="fill-rule:evenodd;"
points="56468,47663
56468,47336
56736,47336
56736,47663
56468,47663
" /> 
<polyline style="fill-rule:evenodd;"
points="55236,49336
55236,49663
54968,49663
54968,49336
55236,49336
" /> 
<polyline style="fill-rule:evenodd;"
points="55031,49336
55031,49663
54763,49663
54763,49336
55031,49336
" /> 
<polyline style="fill-rule:evenodd;"
points="48763,22163
48763,21836
49031,21836
49031,22163
48763,22163
" /> 
<polyline style="fill-rule:evenodd;"
points="48968,22163
48968,21836
49236,21836
49236,22163
48968,22163
" /> 
<polyline style="fill-rule:evenodd;"
points="50763,22163
50763,21836
51031,21836
51031,22163
50763,22163
" /> 
<polyline style="fill-rule:evenodd;"
points="50968,22163
50968,21836
51236,21836
51236,22163
50968,22163
" /> 
<polyline style="fill-rule:evenodd;"
points="48663,48736
48336,48736
48336,48468
48663,48468
48663,48736
" /> 
<polyline style="fill-rule:evenodd;"
points="48663,48531
48336,48531
48336,48263
48663,48263
48663,48531
" /> 
<polyline style="fill-rule:evenodd;"
points="48763,49663
48763,49336
49031,49336
49031,49663
48763,49663
" /> 
<polyline style="fill-rule:evenodd;"
points="48968,49663
48968,49336
49236,49336
49236,49663
48968,49663
" /> 
<polyline style="fill-rule:evenodd;"
points="55663,37236
55336,37236
55336,36968
55663,36968
55663,37236
" /> 
<polyline style="fill-rule:evenodd;"
points="55663,37031
55336,37031
55336,36763
55663,36763
55663,37031
" /> 
<polyline style="fill-rule:evenodd;"
points="55163,37236
54836,37236
54836,36968
55163,36968
55163,37236
" /> 
<polyline style="fill-rule:evenodd;"
points="55163,37031
54836,37031
54836,36763
55163,36763
55163,37031
" /> 
<polyline style="fill-rule:evenodd;"
points="63163,24236
62836,24236
62836,23968
63163,23968
63163,24236
" /> 
<polyline style="fill-rule:evenodd;"
points="63163,24031
62836,24031
62836,23763
63163,23763
63163,24031
" /> 
<polyline style="fill-rule:evenodd;"
points="59163,24236
58836,24236
58836,23968
59163,23968
59163,24236
" /> 
<polyline style="fill-rule:evenodd;"
points="59163,24031
58836,24031
58836,23763
59163,23763
59163,24031
" /> 
<polyline style="fill-rule:evenodd;"
points="59913,48486
59586,48486
59586,48218
59913,48218
59913,48486
" /> 
<polyline style="fill-rule:evenodd;"
points="59913,48281
59586,48281
59586,48013
59913,48013
59913,48281
" /> 
<polyline style="fill-rule:evenodd;"
points="59913,45986
59586,45986
59586,45718
59913,45718
59913,45986
" /> 
<polyline style="fill-rule:evenodd;"
points="59913,45781
59586,45781
59586,45513
59913,45513
59913,45781
" /> 
<polyline style="fill-rule:evenodd;"
points="59913,43486
59586,43486
59586,43218
59913,43218
59913,43486
" /> 
<polyline style="fill-rule:evenodd;"
points="59913,43281
59586,43281
59586,43013
59913,43013
59913,43281
" /> 
<polyline style="fill-rule:evenodd;"
points="59913,50986
59586,50986
59586,50718
59913,50718
59913,50986
" /> 
<polyline style="fill-rule:evenodd;"
points="59913,50781
59586,50781
59586,50513
59913,50513
59913,50781
" /> 
<polyline style="fill-rule:evenodd;"
points="51263,42163
51263,41836
51531,41836
51531,42163
51263,42163
" /> 
<polyline style="fill-rule:evenodd;"
points="51468,42163
51468,41836
51736,41836
51736,42163
51468,42163
" /> 
<polyline style="fill-rule:evenodd;"
points="56663,43236
56336,43236
56336,42968
56663,42968
56663,43236
" /> 
<polyline style="fill-rule:evenodd;"
points="56663,43031
56336,43031
56336,42763
56663,42763
56663,43031
" /> 
<polyline style="fill-rule:evenodd;"
points="57163,43236
56836,43236
56836,42968
57163,42968
57163,43236
" /> 
<polyline style="fill-rule:evenodd;"
points="57163,43031
56836,43031
56836,42763
57163,42763
57163,43031
" /> 
<polyline style="fill-rule:evenodd;"
points="48481,37988
48481,37691
49218,37691
49218,37988
48481,37988
" /> 
<polyline style="fill-rule:evenodd;"
points="48481,38238
48481,37941
49218,37941
49218,38238
48481,38238
" /> 
<polyline style="fill-rule:evenodd;"
points="48481,38498
48481,38201
49218,38201
49218,38498
48481,38498
" /> 
<polyline style="fill-rule:evenodd;"
points="48481,38748
48481,38451
49218,38451
49218,38748
48481,38748
" /> 
<polyline style="fill-rule:evenodd;"
points="48481,39008
48481,38711
49218,38711
49218,39008
48481,39008
" /> 
<polyline style="fill-rule:evenodd;"
points="48481,39268
48481,38971
49218,38971
49218,39268
48481,39268
" /> 
<polyline style="fill-rule:evenodd;"
points="48481,39518
48481,39221
49218,39221
49218,39518
48481,39518
" /> 
<polyline style="fill-rule:evenodd;"
points="48481,39778
48481,39481
49218,39481
49218,39778
48481,39778
" /> 
<polyline style="fill-rule:evenodd;"
points="48481,40028
48481,39731
49218,39731
49218,40028
48481,40028
" /> 
<polyline style="fill-rule:evenodd;"
points="48481,40288
48481,39991
49218,39991
49218,40288
48481,40288
" /> 
<polyline style="fill-rule:evenodd;"
points="48481,40548
48481,40251
49218,40251
49218,40548
48481,40548
" /> 
<polyline style="fill-rule:evenodd;"
points="48481,40798
48481,40501
49218,40501
49218,40798
48481,40798
" /> 
<polyline style="fill-rule:evenodd;"
points="48481,41058
48481,40761
49218,40761
49218,41058
48481,41058
" /> 
<polyline style="fill-rule:evenodd;"
points="48481,41308
48481,41011
49218,41011
49218,41308
48481,41308
" /> 
<polyline style="fill-rule:evenodd;"
points="50781,41308
50781,41011
51518,41011
51518,41308
50781,41308
" /> 
<polyline style="fill-rule:evenodd;"
points="50781,41058
50781,40761
51518,40761
51518,41058
50781,41058
" /> 
<polyline style="fill-rule:evenodd;"
points="50781,40798
50781,40501
51518,40501
51518,40798
50781,40798
" /> 
<polyline style="fill-rule:evenodd;"
points="50781,40548
50781,40251
51518,40251
51518,40548
50781,40548
" /> 
<polyline style="fill-rule:evenodd;"
points="50781,40288
50781,39991
51518,39991
51518,40288
50781,40288
" /> 
<polyline style="fill-rule:evenodd;"
points="50781,40028
50781,39731
51518,39731
51518,40028
50781,40028
" /> 
<polyline style="fill-rule:evenodd;"
points="50781,39778
50781,39481
51518,39481
51518,39778
50781,39778
" /> 
<polyline style="fill-rule:evenodd;"
points="50781,39518
50781,39221
51518,39221
51518,39518
50781,39518
" /> 
<polyline style="fill-rule:evenodd;"
points="50781,39268
50781,38971
51518,38971
51518,39268
50781,39268
" /> 
<polyline style="fill-rule:evenodd;"
points="50781,39008
50781,38711
51518,38711
51518,39008
50781,39008
" /> 
<polyline style="fill-rule:evenodd;"
points="50781,38748
50781,38451
51518,38451
51518,38748
50781,38748
" /> 
<polyline style="fill-rule:evenodd;"
points="50781,38498
50781,38201
51518,38201
51518,38498
50781,38498
" /> 
<polyline style="fill-rule:evenodd;"
points="50781,38238
50781,37941
51518,37941
51518,38238
50781,38238
" /> 
<polyline style="fill-rule:evenodd;"
points="50781,37988
50781,37691
51518,37691
51518,37988
50781,37988
" /> 
<polyline style="fill-rule:evenodd;"
points="56525,23100
55974,23100
55974,21958
56525,21958
56525,23100
" /> 
<polyline style="fill-rule:evenodd;"
points="56525,20541
55974,20541
55974,19399
56525,19399
56525,20541
" /> 
<polyline style="fill-rule:evenodd;"
points="57525,23100
56974,23100
56974,21958
57525,21958
57525,23100
" /> 
<polyline style="fill-rule:evenodd;"
points="57525,20541
56974,20541
56974,19399
57525,19399
57525,20541
" /> 
<polyline style="fill-rule:evenodd;"
points="58525,23100
57974,23100
57974,21958
58525,21958
58525,23100
" /> 
<polyline style="fill-rule:evenodd;"
points="58525,20541
57974,20541
57974,19399
58525,19399
58525,20541
" /> 
<polyline style="fill-rule:evenodd;"
points="60525,23100
59974,23100
59974,21958
60525,21958
60525,23100
" /> 
<polyline style="fill-rule:evenodd;"
points="60525,20541
59974,20541
59974,19399
60525,19399
60525,20541
" /> 
<polyline style="fill-rule:evenodd;"
points="61525,23100
60974,23100
60974,21958
61525,21958
61525,23100
" /> 
<polyline style="fill-rule:evenodd;"
points="61525,20541
60974,20541
60974,19399
61525,19399
61525,20541
" /> 
<polyline style="fill-rule:evenodd;"
points="62525,23100
61974,23100
61974,21958
62525,21958
62525,23100
" /> 
<polyline style="fill-rule:evenodd;"
points="62525,20541
61974,20541
61974,19399
62525,19399
62525,20541
" /> 
<polyline style="fill-rule:evenodd;"
points="54336,47753
54336,47458
54698,47458
54698,47753
54336,47753
" /> 
<polyline style="fill-rule:evenodd;"
points="54336,47950
54336,47655
54698,47655
54698,47950
54336,47950
" /> 
<polyline style="fill-rule:evenodd;"
points="54336,48147
54336,47852
54698,47852
54698,48147
54336,48147
" /> 
<polyline style="fill-rule:evenodd;"
points="54336,48344
54336,48049
54698,48049
54698,48344
54336,48344
" /> 
<polyline style="fill-rule:evenodd;"
points="54336,48541
54336,48246
54698,48246
54698,48541
54336,48541
" /> 
<polyline style="fill-rule:evenodd;"
points="54950,48663
54655,48663
54655,48301
54950,48301
54950,48663
" /> 
<polyline style="fill-rule:evenodd;"
points="55147,48663
54852,48663
54852,48301
55147,48301
55147,48663
" /> 
<polyline style="fill-rule:evenodd;"
points="55344,48663
55049,48663
55049,48301
55344,48301
55344,48663
" /> 
<polyline style="fill-rule:evenodd;"
points="55663,48246
55663,48541
55301,48541
55301,48246
55663,48246
" /> 
<polyline style="fill-rule:evenodd;"
points="55663,48049
55663,48344
55301,48344
55301,48049
55663,48049
" /> 
<polyline style="fill-rule:evenodd;"
points="55663,47852
55663,48147
55301,48147
55301,47852
55663,47852
" /> 
<polyline style="fill-rule:evenodd;"
points="55663,47655
55663,47950
55301,47950
55301,47655
55663,47655
" /> 
<polyline style="fill-rule:evenodd;"
points="55663,47458
55663,47753
55301,47753
55301,47458
55663,47458
" /> 
<polyline style="fill-rule:evenodd;"
points="55344,47698
55049,47698
55049,47336
55344,47336
55344,47698
" /> 
<polyline style="fill-rule:evenodd;"
points="55147,47698
54852,47698
54852,47336
55147,47336
55147,47698
" /> 
<polyline style="fill-rule:evenodd;"
points="54950,47698
54655,47698
54655,47336
54950,47336
54950,47698
" /> 
<polyline style="fill-rule:evenodd;"
points="48874,21196
48874,20055
49267,20055
49267,21196
48874,21196
" /> 
<polyline style="fill-rule:evenodd;"
points="49267,21196
49267,20055
49661,20055
49661,21196
49267,21196
" /> 
<polyline style="fill-rule:evenodd;"
points="49661,21196
49661,20055
50055,20055
50055,21196
49661,21196
" /> 
<polyline style="fill-rule:evenodd;"
points="50055,21196
50055,20055
50448,20055
50448,21196
50055,21196
" /> 
<polyline style="fill-rule:evenodd;"
points="50448,21196
50448,20055
50842,20055
50842,21196
50448,21196
" /> 
<polyline style="fill-rule:evenodd;"
points="50842,21196
50842,20055
51236,20055
51236,21196
50842,21196
" /> 
<polyline style="fill-rule:evenodd;"
points="51236,21196
51236,20055
51629,20055
51629,21196
51236,21196
" /> 
<polyline style="fill-rule:evenodd;"
points="51629,21196
51629,20055
52023,20055
52023,21196
51629,21196
" /> 
</g>
<g style="fill:#840000; fill-opacity:1.0; 
stroke:#840000; stroke-width:837.48; stroke-opacity:1; 
stroke-linecap:round; stroke-linejoin:round;">
</g>
<g style="fill:#840000; fill-opacity:0.0; 
stroke:#840000; stroke-width:837.48; stroke-opacity:1; 
stroke-linecap:round; stroke-linejoin:round;">
<path d="M46000 34560
L46000 34440
" />
<path d="M47000 34560
L47000 34440
" />
<path d="M48000 34560
L48000 34440
" />
<path d="M49000 34560
L49000 34440
" />
<path d="M50000 34560
L50000 34440
" />
<path d="M51000 34560
L51000 34440
" />
<path d="M52000 34560
L52000 34440
" />
<path d="M53000 34560
L53000 34440
" />
<path d="M54000 34560
L54000 34440
" />
<path d="M55000 34560
L55000 34440
" />
<path d="M56000 34560
L56000 34440
" />
<path d="M57000 34560
L57000 34440
" />
<path d="M58000 34560
L58000 34440
" />
<path d="M59000 34560
L59000 34440
" />
<path d="M60000 34560
L60000 34440
" />
<path d="M46000 25560
L46000 25440
" />
<path d="M58000 25560
L58000 25440
" />
<path d="M59000 25560
L59000 25440
" />
<path d="M57000 25560
L57000 25440
" />
<path d="M51000 25560
L51000 25440
" />
<path d="M50000 25560
L50000 25440
" />
<path d="M52000 25560
L52000 25440
" />
<path d="M60000 25560
L60000 25440
" />
<path d="M54000 25560
L54000 25440
" />
<path d="M53000 25560
L53000 25440
" />
<path d="M55000 25560
L55000 25440
" />
<path d="M56000 25560
L56000 25440
" />
<path d="M48000 25560
L48000 25440
" />
<path d="M49000 25560
L49000 25440
" />
<path d="M47000 25560
L47000 25440
" />
</g>
<g style="fill:#840000; fill-opacity:1.0; 
stroke:#840000; stroke-width:0; stroke-opacity:1; 
stroke-linecap:round; stroke-linejoin:round;">
<circle cx="61503.9" cy="34185" r="708.661" /> 
</g>
<g style="fill:#840000; fill-opacity:1.0; 
stroke:#840000; stroke-width:39.3701; stroke-opacity:1; 
stroke-linecap:round; stroke-linejoin:round;">
</g>
<g style="fill:#840000; fill-opacity:1.0; 
stroke:#840000; stroke-width:0; stroke-opacity:1; 
stroke-linecap:round; stroke-linejoin:round;">
<circle cx="61503.9" cy="25838.6" r="708.661" /> 
</g>
<g style="fill:#840000; fill-opacity:1.0; 
stroke:#840000; stroke-width:39.3701; stroke-opacity:1; 
stroke-linecap:round; stroke-linejoin:round;">
</g>
<g style="fill:#840000; fill-opacity:1.0; 
stroke:#840000; stroke-width:0; stroke-opacity:1; 
stroke-linecap:round; stroke-linejoin:round;">
<circle cx="44326.8" cy="25838.6" r="708.661" /> 
</g>
<g style="fill:#840000; fill-opacity:1.0; 
stroke:#840000; stroke-width:39.3701; stroke-opacity:1; 
stroke-linecap:round; stroke-linejoin:round;">
</g>
<g style="fill:#840000; fill-opacity:1.0; 
stroke:#840000; stroke-width:0; stroke-opacity:1; 
stroke-linecap:round; stroke-linejoin:round;">
<circle cx="44326.8" cy="34204.7" r="708.661" /> 
</g>
<g style="fill:#840000; fill-opacity:1.0; 
stroke:#840000; stroke-width:39.3701; stroke-opacity:1; 
stroke-linecap:round; stroke-linejoin:round;">
</g>
<g style="fill:#840000; fill-opacity:1.0; 
stroke:#840000; stroke-width:0; stroke-opacity:1; 
stroke-linecap:round; stroke-linejoin:round;">
<polyline style="fill-rule:evenodd;"
points="51929,49311
51929,48606
52322,48606
52322,49311
51929,49311
" /> 
<polyline style="fill-rule:evenodd;"
points="52303,49311
52303,48606
52696,48606
52696,49311
52303,49311
" /> 
<polyline style="fill-rule:evenodd;"
points="52677,49311
52677,48606
53070,48606
53070,49311
52677,49311
" /> 
<polyline style="fill-rule:evenodd;"
points="52677,48393
52677,47688
53070,47688
53070,48393
52677,48393
" /> 
<polyline style="fill-rule:evenodd;"
points="51929,48393
51929,47688
52322,47688
52322,48393
51929,48393
" /> 
<polyline style="fill-rule:evenodd;"
points="47838,48686
47838,49053
47321,49053
47321,48686
47838,48686
" /> 
<polyline style="fill-rule:evenodd;"
points="47838,48316
47838,48683
47321,48683
47321,48316
47838,48316
" /> 
<polyline style="fill-rule:evenodd;"
points="47838,47946
47838,48313
47321,48313
47321,47946
47838,47946
" /> 
<polyline style="fill-rule:evenodd;"
points="46678,47946
46678,48313
46161,48313
46161,47946
46678,47946
" /> 
<polyline style="fill-rule:evenodd;"
points="46678,48686
46678,49053
46161,49053
46161,48686
46678,48686
" /> 
<polyline style="fill-rule:evenodd;"
points="54151,42600
53895,42600
53895,41864
54151,41864
54151,42600
" /> 
<polyline style="fill-rule:evenodd;"
points="54348,42600
54092,42600
54092,41864
54348,41864
54348,42600
" /> 
<polyline style="fill-rule:evenodd;"
points="54545,42600
54289,42600
54289,41864
54545,41864
54545,42600
" /> 
<polyline style="fill-rule:evenodd;"
points="54742,42600
54486,42600
54486,41864
54742,41864
54742,42600
" /> 
<polyline style="fill-rule:evenodd;"
points="54938,42600
54683,42600
54683,41864
54938,41864
54938,42600
" /> 
<polyline style="fill-rule:evenodd;"
points="55135,42600
54879,42600
54879,41864
55135,41864
55135,42600
" /> 
<polyline style="fill-rule:evenodd;"
points="55332,42600
55076,42600
55076,41864
55332,41864
55332,42600
" /> 
<polyline style="fill-rule:evenodd;"
points="55529,42600
55273,42600
55273,41864
55529,41864
55529,42600
" /> 
<polyline style="fill-rule:evenodd;"
points="55726,42600
55470,42600
55470,41864
55726,41864
55726,42600
" /> 
<polyline style="fill-rule:evenodd;"
points="55923,42600
55667,42600
55667,41864
55923,41864
55923,42600
" /> 
<polyline style="fill-rule:evenodd;"
points="56120,42600
55864,42600
55864,41864
56120,41864
56120,42600
" /> 
<polyline style="fill-rule:evenodd;"
points="56316,42600
56061,42600
56061,41864
56316,41864
56316,42600
" /> 
<polyline style="fill-rule:evenodd;"
points="56513,42600
56257,42600
56257,41864
56513,41864
56513,42600
" /> 
<polyline style="fill-rule:evenodd;"
points="56710,42600
56454,42600
56454,41864
56710,41864
56710,42600
" /> 
<polyline style="fill-rule:evenodd;"
points="56907,42600
56651,42600
56651,41864
56907,41864
56907,42600
" /> 
<polyline style="fill-rule:evenodd;"
points="57104,42600
56848,42600
56848,41864
57104,41864
57104,42600
" /> 
<polyline style="fill-rule:evenodd;"
points="57104,38135
56848,38135
56848,37399
57104,37399
57104,38135
" /> 
<polyline style="fill-rule:evenodd;"
points="56907,38135
56651,38135
56651,37399
56907,37399
56907,38135
" /> 
<polyline style="fill-rule:evenodd;"
points="56710,38135
56454,38135
56454,37399
56710,37399
56710,38135
" /> 
<polyline style="fill-rule:evenodd;"
points="56513,38135
56257,38135
56257,37399
56513,37399
56513,38135
" /> 
<polyline style="fill-rule:evenodd;"
points="56316,38135
56061,38135
56061,37399
56316,37399
56316,38135
" /> 
<polyline style="fill-rule:evenodd;"
points="56120,38135
55864,38135
55864,37399
56120,37399
56120,38135
" /> 
<polyline style="fill-rule:evenodd;"
points="55923,38135
55667,38135
55667,37399
55923,37399
55923,38135
" /> 
<polyline style="fill-rule:evenodd;"
points="55726,38135
55470,38135
55470,37399
55726,37399
55726,38135
" /> 
<polyline style="fill-rule:evenodd;"
points="55529,38135
55273,38135
55273,37399
55529,37399
55529,38135
" /> 
<polyline style="fill-rule:evenodd;"
points="55332,38135
55076,38135
55076,37399
55332,37399
55332,38135
" /> 
<polyline style="fill-rule:evenodd;"
points="55135,38135
54879,38135
54879,37399
55135,37399
55135,38135
" /> 
<polyline style="fill-rule:evenodd;"
points="54938,38135
54683,38135
54683,37399
54938,37399
54938,38135
" /> 
<polyline style="fill-rule:evenodd;"
points="54742,38135
54486,38135
54486,37399
54742,37399
54742,38135
" /> 
<polyline style="fill-rule:evenodd;"
points="54545,38135
54289,38135
54289,37399
54545,37399
54545,38135
" /> 
<polyline style="fill-rule:evenodd;"
points="54348,38135
54092,38135
54092,37399
54348,37399
54348,38135
" /> 
<polyline style="fill-rule:evenodd;"
points="54151,38135
53895,38135
53895,37399
54151,37399
54151,38135
" /> 
<polyline style="fill-rule:evenodd;"
points="52899,38651
52899,38395
53635,38395
53635,38651
52899,38651
" /> 
<polyline style="fill-rule:evenodd;"
points="52899,38848
52899,38592
53635,38592
53635,38848
52899,38848
" /> 
<polyline style="fill-rule:evenodd;"
points="52899,39045
52899,38789
53635,38789
53635,39045
52899,39045
" /> 
<polyline style="fill-rule:evenodd;"
points="52899,39242
52899,38986
53635,38986
53635,39242
52899,39242
" /> 
<polyline style="fill-rule:evenodd;"
points="52899,39438
52899,39183
53635,39183
53635,39438
52899,39438
" /> 
<polyline style="fill-rule:evenodd;"
points="52899,39635
52899,39379
53635,39379
53635,39635
52899,39635
" /> 
<polyline style="fill-rule:evenodd;"
points="52899,39832
52899,39576
53635,39576
53635,39832
52899,39832
" /> 
<polyline style="fill-rule:evenodd;"
points="52899,40029
52899,39773
53635,39773
53635,40029
52899,40029
" /> 
<polyline style="fill-rule:evenodd;"
points="52899,40226
52899,39970
53635,39970
53635,40226
52899,40226
" /> 
<polyline style="fill-rule:evenodd;"
points="52899,40423
52899,40167
53635,40167
53635,40423
52899,40423
" /> 
<polyline style="fill-rule:evenodd;"
points="52899,40620
52899,40364
53635,40364
53635,40620
52899,40620
" /> 
<polyline style="fill-rule:evenodd;"
points="52899,40816
52899,40561
53635,40561
53635,40816
52899,40816
" /> 
<polyline style="fill-rule:evenodd;"
points="52899,41013
52899,40757
53635,40757
53635,41013
52899,41013
" /> 
<polyline style="fill-rule:evenodd;"
points="52899,41210
52899,40954
53635,40954
53635,41210
52899,41210
" /> 
<polyline style="fill-rule:evenodd;"
points="52899,41407
52899,41151
53635,41151
53635,41407
52899,41407
" /> 
<polyline style="fill-rule:evenodd;"
points="52899,41604
52899,41348
53635,41348
53635,41604
52899,41604
" /> 
<polyline style="fill-rule:evenodd;"
points="57364,41604
57364,41348
58100,41348
58100,41604
57364,41604
" /> 
<polyline style="fill-rule:evenodd;"
points="57364,41407
57364,41151
58100,41151
58100,41407
57364,41407
" /> 
<polyline style="fill-rule:evenodd;"
points="57364,41210
57364,40954
58100,40954
58100,41210
57364,41210
" /> 
<polyline style="fill-rule:evenodd;"
points="57364,41013
57364,40757
58100,40757
58100,41013
57364,41013
" /> 
<polyline style="fill-rule:evenodd;"
points="57364,40816
57364,40561
58100,40561
58100,40816
57364,40816
" /> 
<polyline style="fill-rule:evenodd;"
points="57364,40620
57364,40364
58100,40364
58100,40620
57364,40620
" /> 
<polyline style="fill-rule:evenodd;"
points="57364,40423
57364,40167
58100,40167
58100,40423
57364,40423
" /> 
<polyline style="fill-rule:evenodd;"
points="57364,40226
57364,39970
58100,39970
58100,40226
57364,40226
" /> 
<polyline style="fill-rule:evenodd;"
points="57364,40029
57364,39773
58100,39773
58100,40029
57364,40029
" /> 
<polyline style="fill-rule:evenodd;"
points="57364,39832
57364,39576
58100,39576
58100,39832
57364,39832
" /> 
<polyline style="fill-rule:evenodd;"
points="57364,39635
57364,39379
58100,39379
58100,39635
57364,39635
" /> 
<polyline style="fill-rule:evenodd;"
points="57364,39438
57364,39183
58100,39183
58100,39438
57364,39438
" /> 
<polyline style="fill-rule:evenodd;"
points="57364,39242
57364,38986
58100,38986
58100,39242
57364,39242
" /> 
<polyline style="fill-rule:evenodd;"
points="57364,39045
57364,38789
58100,38789
58100,39045
57364,39045
" /> 
<polyline style="fill-rule:evenodd;"
points="57364,38848
57364,38592
58100,38592
58100,38848
57364,38848
" /> 
<polyline style="fill-rule:evenodd;"
points="57364,38651
57364,38395
58100,38395
58100,38651
57364,38651
" /> 
<polyline style="fill-rule:evenodd;"
points="50157,52655
50157,53344
49842,53344
49842,52655
50157,52655
" /> 
<polyline style="fill-rule:evenodd;"
points="50413,52655
50413,53344
50098,53344
50098,52655
50413,52655
" /> 
<polyline style="fill-rule:evenodd;"
points="49901,52655
49901,53344
49586,53344
49586,52655
49901,52655
" /> 
<polyline style="fill-rule:evenodd;"
points="50669,52655
50669,53344
50354,53344
50354,52655
50669,52655
" /> 
<polyline style="fill-rule:evenodd;"
points="49645,52655
49645,53344
49330,53344
49330,52655
49645,52655
" /> 
<polyline style="fill-rule:evenodd;"
points="50885,51494
50885,52399
50019,52399
50019,51494
50885,51494
" /> 
<polyline style="fill-rule:evenodd;"
points="49980,51494
49980,52399
49114,52399
49114,51494
49980,51494
" /> 
<polyline style="fill-rule:evenodd;"
points="51053,53236
51053,53433
50856,53433
50856,53236
51053,53236
" /> 
<polyline style="fill-rule:evenodd;"
points="49143,53231
49143,53428
48946,53428
48946,53231
49143,53231
" /> 
<polyline style="fill-rule:evenodd;"
points="51875,51833
51875,52030
51678,52030
51678,51833
51875,51833
" /> 
<polyline style="fill-rule:evenodd;"
points="48321,51843
48321,52040
48125,52040
48125,51843
48321,51843
" /> 
</g> 
</svg>
