G04 #@! TF.FileFunction,Legend,Top*
%FSLAX46Y46*%
G04 Gerber Fmt 4.6, Leading zero omitted, Abs format (unit mm)*
G04 Created by KiCad (PCBNEW 4.0.7) date 07/02/18 07:29:01*
%MOMM*%
%LPD*%
G01*
G04 APERTURE LIST*
%ADD10C,0.100000*%
%ADD11C,0.127000*%
%ADD12C,0.150000*%
%ADD13C,0.254000*%
%ADD14C,0.120000*%
%ADD15C,0.152400*%
%ADD16C,0.200000*%
%ADD17C,0.050000*%
G04 APERTURE END LIST*
D10*
D11*
X129734000Y-141449000D02*
X129284000Y-141449000D01*
X122684000Y-141449000D02*
X122234000Y-141449000D01*
X122234000Y-141449000D02*
X122234000Y-139849000D01*
X122234000Y-137249000D02*
X122234000Y-135799000D01*
X122234000Y-135799000D02*
X129734000Y-135799000D01*
X129734000Y-135799000D02*
X129734000Y-137249000D01*
X129734000Y-139849000D02*
X129734000Y-141449000D01*
D10*
X127611000Y-142474000D02*
G75*
G03X127611000Y-142474000I-127000J0D01*
G01*
D12*
X119634000Y-83058000D02*
X119634000Y-47498000D01*
X119634000Y-47498000D02*
X117094000Y-47498000D01*
X117094000Y-47498000D02*
X117094000Y-83058000D01*
X116814000Y-85878000D02*
X116814000Y-84328000D01*
X117094000Y-83058000D02*
X119634000Y-83058000D01*
X119914000Y-84328000D02*
X119914000Y-85878000D01*
X119914000Y-85878000D02*
X116814000Y-85878000D01*
X96774000Y-47498000D02*
X94234000Y-47498000D01*
X96774000Y-85598000D02*
X96774000Y-47498000D01*
X94234000Y-85598000D02*
X96774000Y-85598000D01*
X94234000Y-47498000D02*
X94234000Y-85598000D01*
D13*
X128778000Y-44196000D02*
X128778000Y-40196000D01*
X128778000Y-40196000D02*
X138678000Y-40196000D01*
X138678000Y-40196000D02*
X138678000Y-44196000D01*
X130247300Y-45144330D02*
G75*
G03X130247300Y-45144330I-119300J0D01*
G01*
D14*
X170796000Y-96262000D02*
X170796000Y-95762000D01*
X171596000Y-95762000D02*
X171596000Y-96262000D01*
X168536000Y-93912000D02*
X168776000Y-93912000D01*
X168776000Y-93032000D02*
X168536000Y-93032000D01*
X168536000Y-98992000D02*
X168776000Y-98992000D01*
X168776000Y-98112000D02*
X168536000Y-98112000D01*
X169930000Y-101708000D02*
X170430000Y-101708000D01*
X170430000Y-102508000D02*
X169930000Y-102508000D01*
D13*
X174498000Y-93218000D02*
X178498000Y-93218000D01*
X178498000Y-93218000D02*
X178498000Y-103118000D01*
X178498000Y-103118000D02*
X174498000Y-103118000D01*
X173668970Y-94568000D02*
G75*
G03X173668970Y-94568000I-119300J0D01*
G01*
X95758000Y-103886000D02*
X91758000Y-103886000D01*
X91758000Y-103886000D02*
X91758000Y-93986000D01*
X91758000Y-93986000D02*
X95758000Y-93986000D01*
X96825630Y-102536000D02*
G75*
G03X96825630Y-102536000I-119300J0D01*
G01*
D14*
X99818000Y-97936000D02*
X99318000Y-97936000D01*
X99318000Y-97136000D02*
X99818000Y-97136000D01*
X99818000Y-101746000D02*
X99318000Y-101746000D01*
X99318000Y-100946000D02*
X99818000Y-100946000D01*
X97148000Y-102176000D02*
X96908000Y-102176000D01*
X96908000Y-103056000D02*
X97148000Y-103056000D01*
X101278000Y-100196000D02*
X101278000Y-99956000D01*
X100398000Y-99956000D02*
X100398000Y-100196000D01*
X173348000Y-138752000D02*
X173108000Y-138752000D01*
X173108000Y-139632000D02*
X173348000Y-139632000D01*
X175363000Y-137693000D02*
X171513000Y-137693000D01*
X171513000Y-137693000D02*
X171513000Y-133833000D01*
X171513000Y-133833000D02*
X175363000Y-133833000D01*
X175363000Y-134363000D02*
X175363000Y-137693000D01*
X122170000Y-126130000D02*
X121670000Y-126130000D01*
X121670000Y-125330000D02*
X122170000Y-125330000D01*
X135894000Y-122536000D02*
X136394000Y-122536000D01*
X136394000Y-123336000D02*
X135894000Y-123336000D01*
X130814000Y-126600000D02*
X131314000Y-126600000D01*
X131314000Y-127400000D02*
X130814000Y-127400000D01*
X130298000Y-54756000D02*
X129798000Y-54756000D01*
X129798000Y-53956000D02*
X130298000Y-53956000D01*
X137918000Y-51708000D02*
X137418000Y-51708000D01*
X137418000Y-50908000D02*
X137918000Y-50908000D01*
X124352000Y-129290000D02*
X124352000Y-129790000D01*
X123552000Y-129790000D02*
X123552000Y-129290000D01*
X118764000Y-128782000D02*
X118764000Y-129282000D01*
X117964000Y-129282000D02*
X117964000Y-128782000D01*
X117606000Y-116440000D02*
X118106000Y-116440000D01*
X118106000Y-117240000D02*
X117606000Y-117240000D01*
X114192000Y-119638000D02*
X114192000Y-120138000D01*
X113392000Y-120138000D02*
X113392000Y-119638000D01*
X111652000Y-119638000D02*
X111652000Y-120138000D01*
X110852000Y-120138000D02*
X110852000Y-119638000D01*
X104540000Y-136910000D02*
X104540000Y-137410000D01*
X103740000Y-137410000D02*
X103740000Y-136910000D01*
X119272000Y-135894000D02*
X119272000Y-136394000D01*
X118472000Y-136394000D02*
X118472000Y-135894000D01*
X115716000Y-132846000D02*
X115716000Y-133346000D01*
X114916000Y-133346000D02*
X114916000Y-132846000D01*
X148586000Y-116732000D02*
X148086000Y-116732000D01*
X148086000Y-115932000D02*
X148586000Y-115932000D01*
X117606000Y-112884000D02*
X118106000Y-112884000D01*
X118106000Y-113684000D02*
X117606000Y-113684000D01*
X148586000Y-118764000D02*
X148086000Y-118764000D01*
X148086000Y-117964000D02*
X148586000Y-117964000D01*
X136082000Y-142524000D02*
X137222000Y-142524000D01*
X137222000Y-142524000D02*
X137222000Y-140424000D01*
X136082000Y-142524000D02*
X136082000Y-140424000D01*
X105380000Y-120842000D02*
X105380000Y-121982000D01*
X105380000Y-121982000D02*
X107480000Y-121982000D01*
X105380000Y-120842000D02*
X107480000Y-120842000D01*
X175363000Y-124993000D02*
X171513000Y-124993000D01*
X171513000Y-124993000D02*
X171513000Y-121133000D01*
X171513000Y-121133000D02*
X175363000Y-121133000D01*
X175363000Y-121663000D02*
X175363000Y-124993000D01*
X175363000Y-118643000D02*
X171513000Y-118643000D01*
X171513000Y-118643000D02*
X171513000Y-114783000D01*
X171513000Y-114783000D02*
X175363000Y-114783000D01*
X175363000Y-115313000D02*
X175363000Y-118643000D01*
X175363000Y-112293000D02*
X171513000Y-112293000D01*
X171513000Y-112293000D02*
X171513000Y-108433000D01*
X171513000Y-108433000D02*
X175363000Y-108433000D01*
X175363000Y-108963000D02*
X175363000Y-112293000D01*
X175363000Y-131343000D02*
X171513000Y-131343000D01*
X171513000Y-131343000D02*
X171513000Y-127483000D01*
X171513000Y-127483000D02*
X175363000Y-127483000D01*
X175363000Y-128013000D02*
X175363000Y-131343000D01*
X148574000Y-124146000D02*
G75*
G02X146574000Y-124146000I-1000000J0D01*
G01*
X146574000Y-124146000D02*
X144924000Y-124146000D01*
X144924000Y-124146000D02*
X144924000Y-129346000D01*
X144924000Y-129346000D02*
X150224000Y-129346000D01*
X150224000Y-129346000D02*
X150224000Y-124146000D01*
X150224000Y-124146000D02*
X148574000Y-124146000D01*
X125544000Y-110624000D02*
X125544000Y-110864000D01*
X126424000Y-110864000D02*
X126424000Y-110624000D01*
X136264000Y-119448000D02*
X136024000Y-119448000D01*
X136024000Y-120328000D02*
X136264000Y-120328000D01*
X136264000Y-116400000D02*
X136024000Y-116400000D01*
X136024000Y-117280000D02*
X136264000Y-117280000D01*
X126104000Y-124020000D02*
X125864000Y-124020000D01*
X125864000Y-124900000D02*
X126104000Y-124900000D01*
X130168000Y-50868000D02*
X129928000Y-50868000D01*
X129928000Y-51748000D02*
X130168000Y-51748000D01*
X135248000Y-50868000D02*
X135008000Y-50868000D01*
X135008000Y-51748000D02*
X135248000Y-51748000D01*
X116772000Y-139312000D02*
X116772000Y-139072000D01*
X115892000Y-139072000D02*
X115892000Y-139312000D01*
X129420000Y-122868000D02*
X129660000Y-122868000D01*
X129660000Y-121988000D02*
X129420000Y-121988000D01*
X112844000Y-104528000D02*
X112844000Y-104768000D01*
X113724000Y-104768000D02*
X113724000Y-104528000D01*
X115756000Y-107308000D02*
X115756000Y-107068000D01*
X114876000Y-107068000D02*
X114876000Y-107308000D01*
X175192000Y-63112000D02*
X175192000Y-62872000D01*
X174312000Y-62872000D02*
X174312000Y-63112000D01*
X164712000Y-62552000D02*
X164472000Y-62552000D01*
X164472000Y-63432000D02*
X164712000Y-63432000D01*
X173348000Y-125544000D02*
X173108000Y-125544000D01*
X173108000Y-126424000D02*
X173348000Y-126424000D01*
X173348000Y-119448000D02*
X173108000Y-119448000D01*
X173108000Y-120328000D02*
X173348000Y-120328000D01*
X173348000Y-113098000D02*
X173108000Y-113098000D01*
X173108000Y-113978000D02*
X173348000Y-113978000D01*
X173348000Y-132148000D02*
X173108000Y-132148000D01*
X173108000Y-133028000D02*
X173348000Y-133028000D01*
X114876000Y-112656000D02*
X114876000Y-112896000D01*
X115756000Y-112896000D02*
X115756000Y-112656000D01*
X155060000Y-75252000D02*
X154820000Y-75252000D01*
X154820000Y-76132000D02*
X155060000Y-76132000D01*
X155060000Y-72204000D02*
X154820000Y-72204000D01*
X154820000Y-73084000D02*
X155060000Y-73084000D01*
D15*
X159232600Y-79095600D02*
X159232600Y-78917800D01*
X154711400Y-88544400D02*
X154711400Y-88722200D01*
X154711400Y-88722200D02*
X159232600Y-88722200D01*
X159232600Y-88722200D02*
X159232600Y-88544400D01*
X159232600Y-78917800D02*
X157276800Y-78917800D01*
X157276800Y-78917800D02*
X156667200Y-78917800D01*
X156667200Y-78917800D02*
X154711400Y-78917800D01*
X154711400Y-78917800D02*
X154711400Y-79095600D01*
X157276800Y-78917800D02*
G75*
G02X156667200Y-78917800I-304800J0D01*
G01*
D14*
X156907000Y-59677000D02*
X156377000Y-59677000D01*
X156377000Y-59677000D02*
X156377000Y-52337000D01*
X156377000Y-52337000D02*
X156907000Y-52337000D01*
X163387000Y-59677000D02*
X163917000Y-59677000D01*
X163917000Y-59677000D02*
X163917000Y-52337000D01*
X163917000Y-52337000D02*
X163387000Y-52337000D01*
X158307000Y-59677000D02*
X159447000Y-59677000D01*
X160847000Y-59677000D02*
X161987000Y-59677000D01*
X158307000Y-52337000D02*
X159447000Y-52337000D01*
X160847000Y-52337000D02*
X161987000Y-52337000D01*
X157497000Y-60877000D02*
X156127000Y-60877000D01*
X156127000Y-60877000D02*
X156127000Y-59507000D01*
X167067000Y-59677000D02*
X166537000Y-59677000D01*
X166537000Y-59677000D02*
X166537000Y-52337000D01*
X166537000Y-52337000D02*
X167067000Y-52337000D01*
X173547000Y-59677000D02*
X174077000Y-59677000D01*
X174077000Y-59677000D02*
X174077000Y-52337000D01*
X174077000Y-52337000D02*
X173547000Y-52337000D01*
X168467000Y-59677000D02*
X169607000Y-59677000D01*
X171007000Y-59677000D02*
X172147000Y-59677000D01*
X168467000Y-52337000D02*
X169607000Y-52337000D01*
X171007000Y-52337000D02*
X172147000Y-52337000D01*
X167657000Y-60877000D02*
X166287000Y-60877000D01*
X166287000Y-60877000D02*
X166287000Y-59507000D01*
D10*
X124181000Y-116368000D02*
G75*
G03X124181000Y-116368000I-100000J0D01*
G01*
D11*
X124484000Y-115948000D02*
X124484000Y-115848000D01*
X124484000Y-115848000D02*
X125084000Y-115848000D01*
X126884000Y-115848000D02*
X127484000Y-115848000D01*
X127484000Y-115848000D02*
X127484000Y-115948000D01*
X124484000Y-118748000D02*
X124484000Y-118848000D01*
X124484000Y-118848000D02*
X125084000Y-118848000D01*
X126884000Y-118848000D02*
X127484000Y-118848000D01*
X127484000Y-118848000D02*
X127484000Y-118748000D01*
X110768000Y-125818000D02*
X110768000Y-124118000D01*
X113768000Y-124118000D02*
X113768000Y-125818000D01*
D16*
X111298000Y-127308000D02*
G75*
G03X111298000Y-127308000I-100000J0D01*
G01*
D15*
X107924600Y-138861800D02*
X108407200Y-138861800D01*
X108407200Y-138861800D02*
X109016800Y-138861800D01*
X109016800Y-138861800D02*
X109499400Y-138861800D01*
X108407200Y-138861800D02*
G75*
G02X109016800Y-138861800I304800J0D01*
G01*
D16*
X139228000Y-95984000D02*
G75*
G03X139228000Y-95984000I-100000J0D01*
G01*
D11*
X130128000Y-98124000D02*
X130128000Y-98999000D01*
X140128000Y-98124000D02*
X140128000Y-98999000D01*
X130128000Y-108124000D02*
X130128000Y-107216500D01*
X140128000Y-108124000D02*
X140128000Y-107249000D01*
X130128000Y-98124000D02*
X131003000Y-98124000D01*
X140128000Y-98124000D02*
X139253000Y-98124000D01*
X130128000Y-108124000D02*
X131003000Y-108124000D01*
X140128000Y-108124000D02*
X139253000Y-108124000D01*
D17*
X125705033Y-143067279D02*
X125705033Y-143879393D01*
X125752805Y-143974936D01*
X125800576Y-144022707D01*
X125896119Y-144070479D01*
X126087205Y-144070479D01*
X126182747Y-144022707D01*
X126230519Y-143974936D01*
X126278290Y-143879393D01*
X126278290Y-143067279D01*
X126708233Y-144022707D02*
X126851547Y-144070479D01*
X127090404Y-144070479D01*
X127185947Y-144022707D01*
X127233718Y-143974936D01*
X127281490Y-143879393D01*
X127281490Y-143783850D01*
X127233718Y-143688307D01*
X127185947Y-143640536D01*
X127090404Y-143592764D01*
X126899318Y-143544993D01*
X126803776Y-143497221D01*
X126756004Y-143449450D01*
X126708233Y-143353907D01*
X126708233Y-143258364D01*
X126756004Y-143162821D01*
X126803776Y-143115050D01*
X126899318Y-143067279D01*
X127138176Y-143067279D01*
X127281490Y-143115050D01*
X128045833Y-143544993D02*
X128189147Y-143592764D01*
X128236919Y-143640536D01*
X128284690Y-143736079D01*
X128284690Y-143879393D01*
X128236919Y-143974936D01*
X128189147Y-144022707D01*
X128093605Y-144070479D01*
X127711433Y-144070479D01*
X127711433Y-143067279D01*
X128045833Y-143067279D01*
X128141376Y-143115050D01*
X128189147Y-143162821D01*
X128236919Y-143258364D01*
X128236919Y-143353907D01*
X128189147Y-143449450D01*
X128141376Y-143497221D01*
X128045833Y-143544993D01*
X127711433Y-143544993D01*
X129240119Y-144070479D02*
X128666862Y-144070479D01*
X128953490Y-144070479D02*
X128953490Y-143067279D01*
X128857947Y-143210593D01*
X128762405Y-143306136D01*
X128666862Y-143353907D01*
X123587905Y-134040980D02*
X123587905Y-134852811D01*
X123635660Y-134948321D01*
X123683414Y-134996075D01*
X123778924Y-135043830D01*
X123969943Y-135043830D01*
X124065452Y-134996075D01*
X124113207Y-134948321D01*
X124160962Y-134852811D01*
X124160962Y-134040980D01*
X124590755Y-134996075D02*
X124734019Y-135043830D01*
X124972793Y-135043830D01*
X125068303Y-134996075D01*
X125116057Y-134948321D01*
X125163812Y-134852811D01*
X125163812Y-134757302D01*
X125116057Y-134661792D01*
X125068303Y-134614037D01*
X124972793Y-134566283D01*
X124781774Y-134518528D01*
X124686265Y-134470773D01*
X124638510Y-134423018D01*
X124590755Y-134327509D01*
X124590755Y-134231999D01*
X124638510Y-134136490D01*
X124686265Y-134088735D01*
X124781774Y-134040980D01*
X125020548Y-134040980D01*
X125163812Y-134088735D01*
X125927888Y-134518528D02*
X126071152Y-134566283D01*
X126118907Y-134614037D01*
X126166662Y-134709547D01*
X126166662Y-134852811D01*
X126118907Y-134948321D01*
X126071152Y-134996075D01*
X125975643Y-135043830D01*
X125593605Y-135043830D01*
X125593605Y-134040980D01*
X125927888Y-134040980D01*
X126023398Y-134088735D01*
X126071152Y-134136490D01*
X126118907Y-134231999D01*
X126118907Y-134327509D01*
X126071152Y-134423018D01*
X126023398Y-134470773D01*
X125927888Y-134518528D01*
X125593605Y-134518528D01*
X126357681Y-135139340D02*
X127121757Y-135139340D01*
X127360531Y-135043830D02*
X127360531Y-134040980D01*
X127694814Y-134757302D01*
X128029097Y-134040980D01*
X128029097Y-135043830D01*
X128506645Y-135043830D02*
X128506645Y-134040980D01*
X128984193Y-135043830D02*
X128984193Y-134040980D01*
X129557250Y-135043830D01*
X129557250Y-134040980D01*
X130034798Y-135043830D02*
X130034798Y-134040980D01*
D12*
X106172095Y-71100381D02*
X106172095Y-71909905D01*
X106219714Y-72005143D01*
X106267333Y-72052762D01*
X106362571Y-72100381D01*
X106553048Y-72100381D01*
X106648286Y-72052762D01*
X106695905Y-72005143D01*
X106743524Y-71909905D01*
X106743524Y-71100381D01*
X107124476Y-71100381D02*
X107743524Y-71100381D01*
X107410190Y-71481333D01*
X107553048Y-71481333D01*
X107648286Y-71528952D01*
X107695905Y-71576571D01*
X107743524Y-71671810D01*
X107743524Y-71909905D01*
X107695905Y-72005143D01*
X107648286Y-72052762D01*
X107553048Y-72100381D01*
X107267333Y-72100381D01*
X107172095Y-72052762D01*
X107124476Y-72005143D01*
D13*
X132579711Y-40959194D02*
X132579711Y-41987289D01*
X132640187Y-42108241D01*
X132700663Y-42168718D01*
X132821616Y-42229194D01*
X133063520Y-42229194D01*
X133184473Y-42168718D01*
X133244949Y-42108241D01*
X133305425Y-41987289D01*
X133305425Y-40959194D01*
X133849711Y-41080146D02*
X133910187Y-41019670D01*
X134031139Y-40959194D01*
X134333520Y-40959194D01*
X134454473Y-41019670D01*
X134514949Y-41080146D01*
X134575425Y-41201099D01*
X134575425Y-41322051D01*
X134514949Y-41503480D01*
X133789235Y-42229194D01*
X134575425Y-42229194D01*
D12*
X172823143Y-96654857D02*
X172870762Y-96702476D01*
X172918381Y-96845333D01*
X172918381Y-96940571D01*
X172870762Y-97083429D01*
X172775524Y-97178667D01*
X172680286Y-97226286D01*
X172489810Y-97273905D01*
X172346952Y-97273905D01*
X172156476Y-97226286D01*
X172061238Y-97178667D01*
X171966000Y-97083429D01*
X171918381Y-96940571D01*
X171918381Y-96845333D01*
X171966000Y-96702476D01*
X172013619Y-96654857D01*
X172918381Y-95702476D02*
X172918381Y-96273905D01*
X172918381Y-95988191D02*
X171918381Y-95988191D01*
X172061238Y-96083429D01*
X172156476Y-96178667D01*
X172204095Y-96273905D01*
X171918381Y-95369143D02*
X171918381Y-94702476D01*
X172918381Y-95131048D01*
X168013143Y-95174381D02*
X167679809Y-94698190D01*
X167441714Y-95174381D02*
X167441714Y-94174381D01*
X167822667Y-94174381D01*
X167917905Y-94222000D01*
X167965524Y-94269619D01*
X168013143Y-94364857D01*
X168013143Y-94507714D01*
X167965524Y-94602952D01*
X167917905Y-94650571D01*
X167822667Y-94698190D01*
X167441714Y-94698190D01*
X168965524Y-95174381D02*
X168394095Y-95174381D01*
X168679809Y-95174381D02*
X168679809Y-94174381D01*
X168584571Y-94317238D01*
X168489333Y-94412476D01*
X168394095Y-94460095D01*
X169441714Y-95174381D02*
X169632190Y-95174381D01*
X169727429Y-95126762D01*
X169775048Y-95079143D01*
X169870286Y-94936286D01*
X169917905Y-94745810D01*
X169917905Y-94364857D01*
X169870286Y-94269619D01*
X169822667Y-94222000D01*
X169727429Y-94174381D01*
X169536952Y-94174381D01*
X169441714Y-94222000D01*
X169394095Y-94269619D01*
X169346476Y-94364857D01*
X169346476Y-94602952D01*
X169394095Y-94698190D01*
X169441714Y-94745810D01*
X169536952Y-94793429D01*
X169727429Y-94793429D01*
X169822667Y-94745810D01*
X169870286Y-94698190D01*
X169917905Y-94602952D01*
X168013143Y-100254381D02*
X167679809Y-99778190D01*
X167441714Y-100254381D02*
X167441714Y-99254381D01*
X167822667Y-99254381D01*
X167917905Y-99302000D01*
X167965524Y-99349619D01*
X168013143Y-99444857D01*
X168013143Y-99587714D01*
X167965524Y-99682952D01*
X167917905Y-99730571D01*
X167822667Y-99778190D01*
X167441714Y-99778190D01*
X168394095Y-99349619D02*
X168441714Y-99302000D01*
X168536952Y-99254381D01*
X168775048Y-99254381D01*
X168870286Y-99302000D01*
X168917905Y-99349619D01*
X168965524Y-99444857D01*
X168965524Y-99540095D01*
X168917905Y-99682952D01*
X168346476Y-100254381D01*
X168965524Y-100254381D01*
X169917905Y-100254381D02*
X169346476Y-100254381D01*
X169632190Y-100254381D02*
X169632190Y-99254381D01*
X169536952Y-99397238D01*
X169441714Y-99492476D01*
X169346476Y-99540095D01*
X169537143Y-103735143D02*
X169489524Y-103782762D01*
X169346667Y-103830381D01*
X169251429Y-103830381D01*
X169108571Y-103782762D01*
X169013333Y-103687524D01*
X168965714Y-103592286D01*
X168918095Y-103401810D01*
X168918095Y-103258952D01*
X168965714Y-103068476D01*
X169013333Y-102973238D01*
X169108571Y-102878000D01*
X169251429Y-102830381D01*
X169346667Y-102830381D01*
X169489524Y-102878000D01*
X169537143Y-102925619D01*
X169918095Y-102925619D02*
X169965714Y-102878000D01*
X170060952Y-102830381D01*
X170299048Y-102830381D01*
X170394286Y-102878000D01*
X170441905Y-102925619D01*
X170489524Y-103020857D01*
X170489524Y-103116095D01*
X170441905Y-103258952D01*
X169870476Y-103830381D01*
X170489524Y-103830381D01*
X171108571Y-102830381D02*
X171203810Y-102830381D01*
X171299048Y-102878000D01*
X171346667Y-102925619D01*
X171394286Y-103020857D01*
X171441905Y-103211333D01*
X171441905Y-103449429D01*
X171394286Y-103639905D01*
X171346667Y-103735143D01*
X171299048Y-103782762D01*
X171203810Y-103830381D01*
X171108571Y-103830381D01*
X171013333Y-103782762D01*
X170965714Y-103735143D01*
X170918095Y-103639905D01*
X170870476Y-103449429D01*
X170870476Y-103211333D01*
X170918095Y-103020857D01*
X170965714Y-102925619D01*
X171013333Y-102878000D01*
X171108571Y-102830381D01*
D13*
X176343854Y-98954949D02*
X177371949Y-98954949D01*
X177492901Y-98894473D01*
X177553378Y-98833997D01*
X177613854Y-98713044D01*
X177613854Y-98471140D01*
X177553378Y-98350187D01*
X177492901Y-98289711D01*
X177371949Y-98229235D01*
X176343854Y-98229235D01*
X176888140Y-97443044D02*
X176827663Y-97563997D01*
X176767187Y-97624473D01*
X176646235Y-97684949D01*
X176585759Y-97684949D01*
X176464806Y-97624473D01*
X176404330Y-97563997D01*
X176343854Y-97443044D01*
X176343854Y-97201140D01*
X176404330Y-97080187D01*
X176464806Y-97019711D01*
X176585759Y-96959235D01*
X176646235Y-96959235D01*
X176767187Y-97019711D01*
X176827663Y-97080187D01*
X176888140Y-97201140D01*
X176888140Y-97443044D01*
X176948616Y-97563997D01*
X177009092Y-97624473D01*
X177130044Y-97684949D01*
X177371949Y-97684949D01*
X177492901Y-97624473D01*
X177553378Y-97563997D01*
X177613854Y-97443044D01*
X177613854Y-97201140D01*
X177553378Y-97080187D01*
X177492901Y-97019711D01*
X177371949Y-96959235D01*
X177130044Y-96959235D01*
X177009092Y-97019711D01*
X176948616Y-97080187D01*
X176888140Y-97201140D01*
X92521194Y-100084289D02*
X93549289Y-100084289D01*
X93670241Y-100023813D01*
X93730718Y-99963337D01*
X93791194Y-99842384D01*
X93791194Y-99600480D01*
X93730718Y-99479527D01*
X93670241Y-99419051D01*
X93549289Y-99358575D01*
X92521194Y-99358575D01*
X92521194Y-98874765D02*
X92521194Y-98028099D01*
X93791194Y-98572384D01*
D12*
X98925143Y-96623143D02*
X98877524Y-96670762D01*
X98734667Y-96718381D01*
X98639429Y-96718381D01*
X98496571Y-96670762D01*
X98401333Y-96575524D01*
X98353714Y-96480286D01*
X98306095Y-96289810D01*
X98306095Y-96146952D01*
X98353714Y-95956476D01*
X98401333Y-95861238D01*
X98496571Y-95766000D01*
X98639429Y-95718381D01*
X98734667Y-95718381D01*
X98877524Y-95766000D01*
X98925143Y-95813619D01*
X99877524Y-96718381D02*
X99306095Y-96718381D01*
X99591809Y-96718381D02*
X99591809Y-95718381D01*
X99496571Y-95861238D01*
X99401333Y-95956476D01*
X99306095Y-96004095D01*
X100353714Y-96718381D02*
X100544190Y-96718381D01*
X100639429Y-96670762D01*
X100687048Y-96623143D01*
X100782286Y-96480286D01*
X100829905Y-96289810D01*
X100829905Y-95908857D01*
X100782286Y-95813619D01*
X100734667Y-95766000D01*
X100639429Y-95718381D01*
X100448952Y-95718381D01*
X100353714Y-95766000D01*
X100306095Y-95813619D01*
X100258476Y-95908857D01*
X100258476Y-96146952D01*
X100306095Y-96242190D01*
X100353714Y-96289810D01*
X100448952Y-96337429D01*
X100639429Y-96337429D01*
X100734667Y-96289810D01*
X100782286Y-96242190D01*
X100829905Y-96146952D01*
X98925143Y-100433143D02*
X98877524Y-100480762D01*
X98734667Y-100528381D01*
X98639429Y-100528381D01*
X98496571Y-100480762D01*
X98401333Y-100385524D01*
X98353714Y-100290286D01*
X98306095Y-100099810D01*
X98306095Y-99956952D01*
X98353714Y-99766476D01*
X98401333Y-99671238D01*
X98496571Y-99576000D01*
X98639429Y-99528381D01*
X98734667Y-99528381D01*
X98877524Y-99576000D01*
X98925143Y-99623619D01*
X99877524Y-100528381D02*
X99306095Y-100528381D01*
X99591809Y-100528381D02*
X99591809Y-99528381D01*
X99496571Y-99671238D01*
X99401333Y-99766476D01*
X99306095Y-99814095D01*
X100448952Y-99956952D02*
X100353714Y-99909333D01*
X100306095Y-99861714D01*
X100258476Y-99766476D01*
X100258476Y-99718857D01*
X100306095Y-99623619D01*
X100353714Y-99576000D01*
X100448952Y-99528381D01*
X100639429Y-99528381D01*
X100734667Y-99576000D01*
X100782286Y-99623619D01*
X100829905Y-99718857D01*
X100829905Y-99766476D01*
X100782286Y-99861714D01*
X100734667Y-99909333D01*
X100639429Y-99956952D01*
X100448952Y-99956952D01*
X100353714Y-100004571D01*
X100306095Y-100052190D01*
X100258476Y-100147429D01*
X100258476Y-100337905D01*
X100306095Y-100433143D01*
X100353714Y-100480762D01*
X100448952Y-100528381D01*
X100639429Y-100528381D01*
X100734667Y-100480762D01*
X100782286Y-100433143D01*
X100829905Y-100337905D01*
X100829905Y-100147429D01*
X100782286Y-100052190D01*
X100734667Y-100004571D01*
X100639429Y-99956952D01*
X96385143Y-101818381D02*
X96051809Y-101342190D01*
X95813714Y-101818381D02*
X95813714Y-100818381D01*
X96194667Y-100818381D01*
X96289905Y-100866000D01*
X96337524Y-100913619D01*
X96385143Y-101008857D01*
X96385143Y-101151714D01*
X96337524Y-101246952D01*
X96289905Y-101294571D01*
X96194667Y-101342190D01*
X95813714Y-101342190D01*
X96766095Y-100913619D02*
X96813714Y-100866000D01*
X96908952Y-100818381D01*
X97147048Y-100818381D01*
X97242286Y-100866000D01*
X97289905Y-100913619D01*
X97337524Y-101008857D01*
X97337524Y-101104095D01*
X97289905Y-101246952D01*
X96718476Y-101818381D01*
X97337524Y-101818381D01*
X97956571Y-100818381D02*
X98051810Y-100818381D01*
X98147048Y-100866000D01*
X98194667Y-100913619D01*
X98242286Y-101008857D01*
X98289905Y-101199333D01*
X98289905Y-101437429D01*
X98242286Y-101627905D01*
X98194667Y-101723143D01*
X98147048Y-101770762D01*
X98051810Y-101818381D01*
X97956571Y-101818381D01*
X97861333Y-101770762D01*
X97813714Y-101723143D01*
X97766095Y-101627905D01*
X97718476Y-101437429D01*
X97718476Y-101199333D01*
X97766095Y-101008857D01*
X97813714Y-100913619D01*
X97861333Y-100866000D01*
X97956571Y-100818381D01*
X102540381Y-100718857D02*
X102064190Y-101052191D01*
X102540381Y-101290286D02*
X101540381Y-101290286D01*
X101540381Y-100909333D01*
X101588000Y-100814095D01*
X101635619Y-100766476D01*
X101730857Y-100718857D01*
X101873714Y-100718857D01*
X101968952Y-100766476D01*
X102016571Y-100814095D01*
X102064190Y-100909333D01*
X102064190Y-101290286D01*
X101635619Y-100337905D02*
X101588000Y-100290286D01*
X101540381Y-100195048D01*
X101540381Y-99956952D01*
X101588000Y-99861714D01*
X101635619Y-99814095D01*
X101730857Y-99766476D01*
X101826095Y-99766476D01*
X101968952Y-99814095D01*
X102540381Y-100385524D01*
X102540381Y-99766476D01*
X101635619Y-99385524D02*
X101588000Y-99337905D01*
X101540381Y-99242667D01*
X101540381Y-99004571D01*
X101588000Y-98909333D01*
X101635619Y-98861714D01*
X101730857Y-98814095D01*
X101826095Y-98814095D01*
X101968952Y-98861714D01*
X102540381Y-99433143D01*
X102540381Y-98814095D01*
X172585143Y-138394381D02*
X172251809Y-137918190D01*
X172013714Y-138394381D02*
X172013714Y-137394381D01*
X172394667Y-137394381D01*
X172489905Y-137442000D01*
X172537524Y-137489619D01*
X172585143Y-137584857D01*
X172585143Y-137727714D01*
X172537524Y-137822952D01*
X172489905Y-137870571D01*
X172394667Y-137918190D01*
X172013714Y-137918190D01*
X173537524Y-138394381D02*
X172966095Y-138394381D01*
X173251809Y-138394381D02*
X173251809Y-137394381D01*
X173156571Y-137537238D01*
X173061333Y-137632476D01*
X172966095Y-137680095D01*
X174442286Y-137394381D02*
X173966095Y-137394381D01*
X173918476Y-137870571D01*
X173966095Y-137822952D01*
X174061333Y-137775333D01*
X174299429Y-137775333D01*
X174394667Y-137822952D01*
X174442286Y-137870571D01*
X174489905Y-137965810D01*
X174489905Y-138203905D01*
X174442286Y-138299143D01*
X174394667Y-138346762D01*
X174299429Y-138394381D01*
X174061333Y-138394381D01*
X173966095Y-138346762D01*
X173918476Y-138299143D01*
X176895381Y-136501095D02*
X175895381Y-136501095D01*
X175895381Y-136263000D01*
X175943000Y-136120142D01*
X176038238Y-136024904D01*
X176133476Y-135977285D01*
X176323952Y-135929666D01*
X176466810Y-135929666D01*
X176657286Y-135977285D01*
X176752524Y-136024904D01*
X176847762Y-136120142D01*
X176895381Y-136263000D01*
X176895381Y-136501095D01*
X175895381Y-135024904D02*
X175895381Y-135501095D01*
X176371571Y-135548714D01*
X176323952Y-135501095D01*
X176276333Y-135405857D01*
X176276333Y-135167761D01*
X176323952Y-135072523D01*
X176371571Y-135024904D01*
X176466810Y-134977285D01*
X176704905Y-134977285D01*
X176800143Y-135024904D01*
X176847762Y-135072523D01*
X176895381Y-135167761D01*
X176895381Y-135405857D01*
X176847762Y-135501095D01*
X176800143Y-135548714D01*
X121753334Y-124817143D02*
X121705715Y-124864762D01*
X121562858Y-124912381D01*
X121467620Y-124912381D01*
X121324762Y-124864762D01*
X121229524Y-124769524D01*
X121181905Y-124674286D01*
X121134286Y-124483810D01*
X121134286Y-124340952D01*
X121181905Y-124150476D01*
X121229524Y-124055238D01*
X121324762Y-123960000D01*
X121467620Y-123912381D01*
X121562858Y-123912381D01*
X121705715Y-123960000D01*
X121753334Y-124007619D01*
X122705715Y-124912381D02*
X122134286Y-124912381D01*
X122420000Y-124912381D02*
X122420000Y-123912381D01*
X122324762Y-124055238D01*
X122229524Y-124150476D01*
X122134286Y-124198095D01*
X135977334Y-124563143D02*
X135929715Y-124610762D01*
X135786858Y-124658381D01*
X135691620Y-124658381D01*
X135548762Y-124610762D01*
X135453524Y-124515524D01*
X135405905Y-124420286D01*
X135358286Y-124229810D01*
X135358286Y-124086952D01*
X135405905Y-123896476D01*
X135453524Y-123801238D01*
X135548762Y-123706000D01*
X135691620Y-123658381D01*
X135786858Y-123658381D01*
X135929715Y-123706000D01*
X135977334Y-123753619D01*
X136358286Y-123753619D02*
X136405905Y-123706000D01*
X136501143Y-123658381D01*
X136739239Y-123658381D01*
X136834477Y-123706000D01*
X136882096Y-123753619D01*
X136929715Y-123848857D01*
X136929715Y-123944095D01*
X136882096Y-124086952D01*
X136310667Y-124658381D01*
X136929715Y-124658381D01*
X130897334Y-128627143D02*
X130849715Y-128674762D01*
X130706858Y-128722381D01*
X130611620Y-128722381D01*
X130468762Y-128674762D01*
X130373524Y-128579524D01*
X130325905Y-128484286D01*
X130278286Y-128293810D01*
X130278286Y-128150952D01*
X130325905Y-127960476D01*
X130373524Y-127865238D01*
X130468762Y-127770000D01*
X130611620Y-127722381D01*
X130706858Y-127722381D01*
X130849715Y-127770000D01*
X130897334Y-127817619D01*
X131230667Y-127722381D02*
X131849715Y-127722381D01*
X131516381Y-128103333D01*
X131659239Y-128103333D01*
X131754477Y-128150952D01*
X131802096Y-128198571D01*
X131849715Y-128293810D01*
X131849715Y-128531905D01*
X131802096Y-128627143D01*
X131754477Y-128674762D01*
X131659239Y-128722381D01*
X131373524Y-128722381D01*
X131278286Y-128674762D01*
X131230667Y-128627143D01*
X129881334Y-53443143D02*
X129833715Y-53490762D01*
X129690858Y-53538381D01*
X129595620Y-53538381D01*
X129452762Y-53490762D01*
X129357524Y-53395524D01*
X129309905Y-53300286D01*
X129262286Y-53109810D01*
X129262286Y-52966952D01*
X129309905Y-52776476D01*
X129357524Y-52681238D01*
X129452762Y-52586000D01*
X129595620Y-52538381D01*
X129690858Y-52538381D01*
X129833715Y-52586000D01*
X129881334Y-52633619D01*
X130738477Y-52871714D02*
X130738477Y-53538381D01*
X130500381Y-52490762D02*
X130262286Y-53205048D01*
X130881334Y-53205048D01*
X137501334Y-50395143D02*
X137453715Y-50442762D01*
X137310858Y-50490381D01*
X137215620Y-50490381D01*
X137072762Y-50442762D01*
X136977524Y-50347524D01*
X136929905Y-50252286D01*
X136882286Y-50061810D01*
X136882286Y-49918952D01*
X136929905Y-49728476D01*
X136977524Y-49633238D01*
X137072762Y-49538000D01*
X137215620Y-49490381D01*
X137310858Y-49490381D01*
X137453715Y-49538000D01*
X137501334Y-49585619D01*
X138406096Y-49490381D02*
X137929905Y-49490381D01*
X137882286Y-49966571D01*
X137929905Y-49918952D01*
X138025143Y-49871333D01*
X138263239Y-49871333D01*
X138358477Y-49918952D01*
X138406096Y-49966571D01*
X138453715Y-50061810D01*
X138453715Y-50299905D01*
X138406096Y-50395143D01*
X138358477Y-50442762D01*
X138263239Y-50490381D01*
X138025143Y-50490381D01*
X137929905Y-50442762D01*
X137882286Y-50395143D01*
X123039143Y-129706666D02*
X123086762Y-129754285D01*
X123134381Y-129897142D01*
X123134381Y-129992380D01*
X123086762Y-130135238D01*
X122991524Y-130230476D01*
X122896286Y-130278095D01*
X122705810Y-130325714D01*
X122562952Y-130325714D01*
X122372476Y-130278095D01*
X122277238Y-130230476D01*
X122182000Y-130135238D01*
X122134381Y-129992380D01*
X122134381Y-129897142D01*
X122182000Y-129754285D01*
X122229619Y-129706666D01*
X122134381Y-128849523D02*
X122134381Y-129040000D01*
X122182000Y-129135238D01*
X122229619Y-129182857D01*
X122372476Y-129278095D01*
X122562952Y-129325714D01*
X122943905Y-129325714D01*
X123039143Y-129278095D01*
X123086762Y-129230476D01*
X123134381Y-129135238D01*
X123134381Y-128944761D01*
X123086762Y-128849523D01*
X123039143Y-128801904D01*
X122943905Y-128754285D01*
X122705810Y-128754285D01*
X122610571Y-128801904D01*
X122562952Y-128849523D01*
X122515333Y-128944761D01*
X122515333Y-129135238D01*
X122562952Y-129230476D01*
X122610571Y-129278095D01*
X122705810Y-129325714D01*
X117451143Y-129198666D02*
X117498762Y-129246285D01*
X117546381Y-129389142D01*
X117546381Y-129484380D01*
X117498762Y-129627238D01*
X117403524Y-129722476D01*
X117308286Y-129770095D01*
X117117810Y-129817714D01*
X116974952Y-129817714D01*
X116784476Y-129770095D01*
X116689238Y-129722476D01*
X116594000Y-129627238D01*
X116546381Y-129484380D01*
X116546381Y-129389142D01*
X116594000Y-129246285D01*
X116641619Y-129198666D01*
X116546381Y-128865333D02*
X116546381Y-128198666D01*
X117546381Y-128627238D01*
X117689334Y-118467143D02*
X117641715Y-118514762D01*
X117498858Y-118562381D01*
X117403620Y-118562381D01*
X117260762Y-118514762D01*
X117165524Y-118419524D01*
X117117905Y-118324286D01*
X117070286Y-118133810D01*
X117070286Y-117990952D01*
X117117905Y-117800476D01*
X117165524Y-117705238D01*
X117260762Y-117610000D01*
X117403620Y-117562381D01*
X117498858Y-117562381D01*
X117641715Y-117610000D01*
X117689334Y-117657619D01*
X118260762Y-117990952D02*
X118165524Y-117943333D01*
X118117905Y-117895714D01*
X118070286Y-117800476D01*
X118070286Y-117752857D01*
X118117905Y-117657619D01*
X118165524Y-117610000D01*
X118260762Y-117562381D01*
X118451239Y-117562381D01*
X118546477Y-117610000D01*
X118594096Y-117657619D01*
X118641715Y-117752857D01*
X118641715Y-117800476D01*
X118594096Y-117895714D01*
X118546477Y-117943333D01*
X118451239Y-117990952D01*
X118260762Y-117990952D01*
X118165524Y-118038571D01*
X118117905Y-118086190D01*
X118070286Y-118181429D01*
X118070286Y-118371905D01*
X118117905Y-118467143D01*
X118165524Y-118514762D01*
X118260762Y-118562381D01*
X118451239Y-118562381D01*
X118546477Y-118514762D01*
X118594096Y-118467143D01*
X118641715Y-118371905D01*
X118641715Y-118181429D01*
X118594096Y-118086190D01*
X118546477Y-118038571D01*
X118451239Y-117990952D01*
X112879143Y-120054666D02*
X112926762Y-120102285D01*
X112974381Y-120245142D01*
X112974381Y-120340380D01*
X112926762Y-120483238D01*
X112831524Y-120578476D01*
X112736286Y-120626095D01*
X112545810Y-120673714D01*
X112402952Y-120673714D01*
X112212476Y-120626095D01*
X112117238Y-120578476D01*
X112022000Y-120483238D01*
X111974381Y-120340380D01*
X111974381Y-120245142D01*
X112022000Y-120102285D01*
X112069619Y-120054666D01*
X112974381Y-119578476D02*
X112974381Y-119388000D01*
X112926762Y-119292761D01*
X112879143Y-119245142D01*
X112736286Y-119149904D01*
X112545810Y-119102285D01*
X112164857Y-119102285D01*
X112069619Y-119149904D01*
X112022000Y-119197523D01*
X111974381Y-119292761D01*
X111974381Y-119483238D01*
X112022000Y-119578476D01*
X112069619Y-119626095D01*
X112164857Y-119673714D01*
X112402952Y-119673714D01*
X112498190Y-119626095D01*
X112545810Y-119578476D01*
X112593429Y-119483238D01*
X112593429Y-119292761D01*
X112545810Y-119197523D01*
X112498190Y-119149904D01*
X112402952Y-119102285D01*
X110339143Y-120530857D02*
X110386762Y-120578476D01*
X110434381Y-120721333D01*
X110434381Y-120816571D01*
X110386762Y-120959429D01*
X110291524Y-121054667D01*
X110196286Y-121102286D01*
X110005810Y-121149905D01*
X109862952Y-121149905D01*
X109672476Y-121102286D01*
X109577238Y-121054667D01*
X109482000Y-120959429D01*
X109434381Y-120816571D01*
X109434381Y-120721333D01*
X109482000Y-120578476D01*
X109529619Y-120530857D01*
X110434381Y-119578476D02*
X110434381Y-120149905D01*
X110434381Y-119864191D02*
X109434381Y-119864191D01*
X109577238Y-119959429D01*
X109672476Y-120054667D01*
X109720095Y-120149905D01*
X109434381Y-118959429D02*
X109434381Y-118864190D01*
X109482000Y-118768952D01*
X109529619Y-118721333D01*
X109624857Y-118673714D01*
X109815333Y-118626095D01*
X110053429Y-118626095D01*
X110243905Y-118673714D01*
X110339143Y-118721333D01*
X110386762Y-118768952D01*
X110434381Y-118864190D01*
X110434381Y-118959429D01*
X110386762Y-119054667D01*
X110339143Y-119102286D01*
X110243905Y-119149905D01*
X110053429Y-119197524D01*
X109815333Y-119197524D01*
X109624857Y-119149905D01*
X109529619Y-119102286D01*
X109482000Y-119054667D01*
X109434381Y-118959429D01*
X103227143Y-137802857D02*
X103274762Y-137850476D01*
X103322381Y-137993333D01*
X103322381Y-138088571D01*
X103274762Y-138231429D01*
X103179524Y-138326667D01*
X103084286Y-138374286D01*
X102893810Y-138421905D01*
X102750952Y-138421905D01*
X102560476Y-138374286D01*
X102465238Y-138326667D01*
X102370000Y-138231429D01*
X102322381Y-138088571D01*
X102322381Y-137993333D01*
X102370000Y-137850476D01*
X102417619Y-137802857D01*
X103322381Y-136850476D02*
X103322381Y-137421905D01*
X103322381Y-137136191D02*
X102322381Y-137136191D01*
X102465238Y-137231429D01*
X102560476Y-137326667D01*
X102608095Y-137421905D01*
X103322381Y-135898095D02*
X103322381Y-136469524D01*
X103322381Y-136183810D02*
X102322381Y-136183810D01*
X102465238Y-136279048D01*
X102560476Y-136374286D01*
X102608095Y-136469524D01*
X117959143Y-136786857D02*
X118006762Y-136834476D01*
X118054381Y-136977333D01*
X118054381Y-137072571D01*
X118006762Y-137215429D01*
X117911524Y-137310667D01*
X117816286Y-137358286D01*
X117625810Y-137405905D01*
X117482952Y-137405905D01*
X117292476Y-137358286D01*
X117197238Y-137310667D01*
X117102000Y-137215429D01*
X117054381Y-137072571D01*
X117054381Y-136977333D01*
X117102000Y-136834476D01*
X117149619Y-136786857D01*
X118054381Y-135834476D02*
X118054381Y-136405905D01*
X118054381Y-136120191D02*
X117054381Y-136120191D01*
X117197238Y-136215429D01*
X117292476Y-136310667D01*
X117340095Y-136405905D01*
X117149619Y-135453524D02*
X117102000Y-135405905D01*
X117054381Y-135310667D01*
X117054381Y-135072571D01*
X117102000Y-134977333D01*
X117149619Y-134929714D01*
X117244857Y-134882095D01*
X117340095Y-134882095D01*
X117482952Y-134929714D01*
X118054381Y-135501143D01*
X118054381Y-134882095D01*
X114403143Y-133738857D02*
X114450762Y-133786476D01*
X114498381Y-133929333D01*
X114498381Y-134024571D01*
X114450762Y-134167429D01*
X114355524Y-134262667D01*
X114260286Y-134310286D01*
X114069810Y-134357905D01*
X113926952Y-134357905D01*
X113736476Y-134310286D01*
X113641238Y-134262667D01*
X113546000Y-134167429D01*
X113498381Y-134024571D01*
X113498381Y-133929333D01*
X113546000Y-133786476D01*
X113593619Y-133738857D01*
X114498381Y-132786476D02*
X114498381Y-133357905D01*
X114498381Y-133072191D02*
X113498381Y-133072191D01*
X113641238Y-133167429D01*
X113736476Y-133262667D01*
X113784095Y-133357905D01*
X113498381Y-132453143D02*
X113498381Y-131834095D01*
X113879333Y-132167429D01*
X113879333Y-132024571D01*
X113926952Y-131929333D01*
X113974571Y-131881714D01*
X114069810Y-131834095D01*
X114307905Y-131834095D01*
X114403143Y-131881714D01*
X114450762Y-131929333D01*
X114498381Y-132024571D01*
X114498381Y-132310286D01*
X114450762Y-132405524D01*
X114403143Y-132453143D01*
X147693143Y-115419143D02*
X147645524Y-115466762D01*
X147502667Y-115514381D01*
X147407429Y-115514381D01*
X147264571Y-115466762D01*
X147169333Y-115371524D01*
X147121714Y-115276286D01*
X147074095Y-115085810D01*
X147074095Y-114942952D01*
X147121714Y-114752476D01*
X147169333Y-114657238D01*
X147264571Y-114562000D01*
X147407429Y-114514381D01*
X147502667Y-114514381D01*
X147645524Y-114562000D01*
X147693143Y-114609619D01*
X148645524Y-115514381D02*
X148074095Y-115514381D01*
X148359809Y-115514381D02*
X148359809Y-114514381D01*
X148264571Y-114657238D01*
X148169333Y-114752476D01*
X148074095Y-114800095D01*
X149502667Y-114847714D02*
X149502667Y-115514381D01*
X149264571Y-114466762D02*
X149026476Y-115181048D01*
X149645524Y-115181048D01*
X117213143Y-114911143D02*
X117165524Y-114958762D01*
X117022667Y-115006381D01*
X116927429Y-115006381D01*
X116784571Y-114958762D01*
X116689333Y-114863524D01*
X116641714Y-114768286D01*
X116594095Y-114577810D01*
X116594095Y-114434952D01*
X116641714Y-114244476D01*
X116689333Y-114149238D01*
X116784571Y-114054000D01*
X116927429Y-114006381D01*
X117022667Y-114006381D01*
X117165524Y-114054000D01*
X117213143Y-114101619D01*
X118165524Y-115006381D02*
X117594095Y-115006381D01*
X117879809Y-115006381D02*
X117879809Y-114006381D01*
X117784571Y-114149238D01*
X117689333Y-114244476D01*
X117594095Y-114292095D01*
X119070286Y-114006381D02*
X118594095Y-114006381D01*
X118546476Y-114482571D01*
X118594095Y-114434952D01*
X118689333Y-114387333D01*
X118927429Y-114387333D01*
X119022667Y-114434952D01*
X119070286Y-114482571D01*
X119117905Y-114577810D01*
X119117905Y-114815905D01*
X119070286Y-114911143D01*
X119022667Y-114958762D01*
X118927429Y-115006381D01*
X118689333Y-115006381D01*
X118594095Y-114958762D01*
X118546476Y-114911143D01*
X147693143Y-117451143D02*
X147645524Y-117498762D01*
X147502667Y-117546381D01*
X147407429Y-117546381D01*
X147264571Y-117498762D01*
X147169333Y-117403524D01*
X147121714Y-117308286D01*
X147074095Y-117117810D01*
X147074095Y-116974952D01*
X147121714Y-116784476D01*
X147169333Y-116689238D01*
X147264571Y-116594000D01*
X147407429Y-116546381D01*
X147502667Y-116546381D01*
X147645524Y-116594000D01*
X147693143Y-116641619D01*
X148645524Y-117546381D02*
X148074095Y-117546381D01*
X148359809Y-117546381D02*
X148359809Y-116546381D01*
X148264571Y-116689238D01*
X148169333Y-116784476D01*
X148074095Y-116832095D01*
X149502667Y-116546381D02*
X149312190Y-116546381D01*
X149216952Y-116594000D01*
X149169333Y-116641619D01*
X149074095Y-116784476D01*
X149026476Y-116974952D01*
X149026476Y-117355905D01*
X149074095Y-117451143D01*
X149121714Y-117498762D01*
X149216952Y-117546381D01*
X149407429Y-117546381D01*
X149502667Y-117498762D01*
X149550286Y-117451143D01*
X149597905Y-117355905D01*
X149597905Y-117117810D01*
X149550286Y-117022571D01*
X149502667Y-116974952D01*
X149407429Y-116927333D01*
X149216952Y-116927333D01*
X149121714Y-116974952D01*
X149074095Y-117022571D01*
X149026476Y-117117810D01*
X135704381Y-141962095D02*
X134704381Y-141962095D01*
X134704381Y-141724000D01*
X134752000Y-141581142D01*
X134847238Y-141485904D01*
X134942476Y-141438285D01*
X135132952Y-141390666D01*
X135275810Y-141390666D01*
X135466286Y-141438285D01*
X135561524Y-141485904D01*
X135656762Y-141581142D01*
X135704381Y-141724000D01*
X135704381Y-141962095D01*
X135704381Y-140438285D02*
X135704381Y-141009714D01*
X135704381Y-140724000D02*
X134704381Y-140724000D01*
X134847238Y-140819238D01*
X134942476Y-140914476D01*
X134990095Y-141009714D01*
X105941905Y-120464381D02*
X105941905Y-119464381D01*
X106180000Y-119464381D01*
X106322858Y-119512000D01*
X106418096Y-119607238D01*
X106465715Y-119702476D01*
X106513334Y-119892952D01*
X106513334Y-120035810D01*
X106465715Y-120226286D01*
X106418096Y-120321524D01*
X106322858Y-120416762D01*
X106180000Y-120464381D01*
X105941905Y-120464381D01*
X106894286Y-119559619D02*
X106941905Y-119512000D01*
X107037143Y-119464381D01*
X107275239Y-119464381D01*
X107370477Y-119512000D01*
X107418096Y-119559619D01*
X107465715Y-119654857D01*
X107465715Y-119750095D01*
X107418096Y-119892952D01*
X106846667Y-120464381D01*
X107465715Y-120464381D01*
X176895381Y-123801095D02*
X175895381Y-123801095D01*
X175895381Y-123563000D01*
X175943000Y-123420142D01*
X176038238Y-123324904D01*
X176133476Y-123277285D01*
X176323952Y-123229666D01*
X176466810Y-123229666D01*
X176657286Y-123277285D01*
X176752524Y-123324904D01*
X176847762Y-123420142D01*
X176895381Y-123563000D01*
X176895381Y-123801095D01*
X175895381Y-122896333D02*
X175895381Y-122277285D01*
X176276333Y-122610619D01*
X176276333Y-122467761D01*
X176323952Y-122372523D01*
X176371571Y-122324904D01*
X176466810Y-122277285D01*
X176704905Y-122277285D01*
X176800143Y-122324904D01*
X176847762Y-122372523D01*
X176895381Y-122467761D01*
X176895381Y-122753476D01*
X176847762Y-122848714D01*
X176800143Y-122896333D01*
X176895381Y-117451095D02*
X175895381Y-117451095D01*
X175895381Y-117213000D01*
X175943000Y-117070142D01*
X176038238Y-116974904D01*
X176133476Y-116927285D01*
X176323952Y-116879666D01*
X176466810Y-116879666D01*
X176657286Y-116927285D01*
X176752524Y-116974904D01*
X176847762Y-117070142D01*
X176895381Y-117213000D01*
X176895381Y-117451095D01*
X176228714Y-116022523D02*
X176895381Y-116022523D01*
X175847762Y-116260619D02*
X176562048Y-116498714D01*
X176562048Y-115879666D01*
X176895381Y-111101095D02*
X175895381Y-111101095D01*
X175895381Y-110863000D01*
X175943000Y-110720142D01*
X176038238Y-110624904D01*
X176133476Y-110577285D01*
X176323952Y-110529666D01*
X176466810Y-110529666D01*
X176657286Y-110577285D01*
X176752524Y-110624904D01*
X176847762Y-110720142D01*
X176895381Y-110863000D01*
X176895381Y-111101095D01*
X175895381Y-109672523D02*
X175895381Y-109863000D01*
X175943000Y-109958238D01*
X175990619Y-110005857D01*
X176133476Y-110101095D01*
X176323952Y-110148714D01*
X176704905Y-110148714D01*
X176800143Y-110101095D01*
X176847762Y-110053476D01*
X176895381Y-109958238D01*
X176895381Y-109767761D01*
X176847762Y-109672523D01*
X176800143Y-109624904D01*
X176704905Y-109577285D01*
X176466810Y-109577285D01*
X176371571Y-109624904D01*
X176323952Y-109672523D01*
X176276333Y-109767761D01*
X176276333Y-109958238D01*
X176323952Y-110053476D01*
X176371571Y-110101095D01*
X176466810Y-110148714D01*
X176895381Y-130151095D02*
X175895381Y-130151095D01*
X175895381Y-129913000D01*
X175943000Y-129770142D01*
X176038238Y-129674904D01*
X176133476Y-129627285D01*
X176323952Y-129579666D01*
X176466810Y-129579666D01*
X176657286Y-129627285D01*
X176752524Y-129674904D01*
X176847762Y-129770142D01*
X176895381Y-129913000D01*
X176895381Y-130151095D01*
X175895381Y-129246333D02*
X175895381Y-128579666D01*
X176895381Y-129008238D01*
X144740666Y-123598381D02*
X144740666Y-122598381D01*
X144740666Y-123074571D02*
X145312095Y-123074571D01*
X145312095Y-123598381D02*
X145312095Y-122598381D01*
X146169238Y-123550762D02*
X146074000Y-123598381D01*
X145883523Y-123598381D01*
X145788285Y-123550762D01*
X145740666Y-123455524D01*
X145740666Y-123074571D01*
X145788285Y-122979333D01*
X145883523Y-122931714D01*
X146074000Y-122931714D01*
X146169238Y-122979333D01*
X146216857Y-123074571D01*
X146216857Y-123169810D01*
X145740666Y-123265048D01*
X147074000Y-123598381D02*
X147074000Y-123074571D01*
X147026381Y-122979333D01*
X146931143Y-122931714D01*
X146740666Y-122931714D01*
X146645428Y-122979333D01*
X147074000Y-123550762D02*
X146978762Y-123598381D01*
X146740666Y-123598381D01*
X146645428Y-123550762D01*
X146597809Y-123455524D01*
X146597809Y-123360286D01*
X146645428Y-123265048D01*
X146740666Y-123217429D01*
X146978762Y-123217429D01*
X147074000Y-123169810D01*
X147978762Y-123598381D02*
X147978762Y-122598381D01*
X147978762Y-123550762D02*
X147883524Y-123598381D01*
X147693047Y-123598381D01*
X147597809Y-123550762D01*
X147550190Y-123503143D01*
X147502571Y-123407905D01*
X147502571Y-123122190D01*
X147550190Y-123026952D01*
X147597809Y-122979333D01*
X147693047Y-122931714D01*
X147883524Y-122931714D01*
X147978762Y-122979333D01*
X148835905Y-123550762D02*
X148740667Y-123598381D01*
X148550190Y-123598381D01*
X148454952Y-123550762D01*
X148407333Y-123455524D01*
X148407333Y-123074571D01*
X148454952Y-122979333D01*
X148550190Y-122931714D01*
X148740667Y-122931714D01*
X148835905Y-122979333D01*
X148883524Y-123074571D01*
X148883524Y-123169810D01*
X148407333Y-123265048D01*
X149312095Y-123598381D02*
X149312095Y-122931714D01*
X149312095Y-123122190D02*
X149359714Y-123026952D01*
X149407333Y-122979333D01*
X149502571Y-122931714D01*
X149597810Y-122931714D01*
X150454953Y-123598381D02*
X149883524Y-123598381D01*
X150169238Y-123598381D02*
X150169238Y-122598381D01*
X150074000Y-122741238D01*
X149978762Y-122836476D01*
X149883524Y-122884095D01*
D17*
X137221443Y-140673474D02*
X137221443Y-140978515D01*
X136580858Y-140978515D01*
X137221443Y-140124401D02*
X137221443Y-140490450D01*
X137221443Y-140307426D02*
X136580858Y-140307426D01*
X136672370Y-140368434D01*
X136733378Y-140429442D01*
X136763882Y-140490450D01*
X136070154Y-141258191D02*
X136070154Y-141364893D01*
X136237828Y-141364893D02*
X135917724Y-141364893D01*
X135917724Y-141212462D01*
X136222585Y-140968573D02*
X136237828Y-140999059D01*
X136237828Y-141060032D01*
X136222585Y-141090518D01*
X136192099Y-141105761D01*
X136070154Y-141105761D01*
X136039668Y-141090518D01*
X136024425Y-141060032D01*
X136024425Y-140999059D01*
X136039668Y-140968573D01*
X136070154Y-140953330D01*
X136100641Y-140953330D01*
X136131127Y-141105761D01*
X136237828Y-140816143D02*
X136024425Y-140816143D01*
X136085397Y-140816143D02*
X136054911Y-140800900D01*
X136039668Y-140785657D01*
X136024425Y-140755171D01*
X136024425Y-140724684D01*
X136237828Y-140617983D02*
X136024425Y-140617983D01*
X136085397Y-140617983D02*
X136054911Y-140602740D01*
X136039668Y-140587497D01*
X136024425Y-140557011D01*
X136024425Y-140526524D01*
X136237828Y-140419823D02*
X136024425Y-140419823D01*
X135917724Y-140419823D02*
X135932967Y-140435066D01*
X135948210Y-140419823D01*
X135932967Y-140404580D01*
X135917724Y-140419823D01*
X135948210Y-140419823D01*
X136024425Y-140313122D02*
X136024425Y-140191178D01*
X135917724Y-140267393D02*
X136192099Y-140267393D01*
X136222585Y-140252150D01*
X136237828Y-140221664D01*
X136237828Y-140191178D01*
X136222585Y-139962531D02*
X136237828Y-139993017D01*
X136237828Y-140053990D01*
X136222585Y-140084476D01*
X136192099Y-140099719D01*
X136070154Y-140099719D01*
X136039668Y-140084476D01*
X136024425Y-140053990D01*
X136024425Y-139993017D01*
X136039668Y-139962531D01*
X136070154Y-139947288D01*
X136100641Y-139947288D01*
X136131127Y-140099719D01*
X136268314Y-139886316D02*
X136268314Y-139642427D01*
X136070154Y-139459510D02*
X136085397Y-139413781D01*
X136100641Y-139398538D01*
X136131127Y-139383295D01*
X136176856Y-139383295D01*
X136207342Y-139398538D01*
X136222585Y-139413781D01*
X136237828Y-139444267D01*
X136237828Y-139566212D01*
X135917724Y-139566212D01*
X135917724Y-139459510D01*
X135932967Y-139429024D01*
X135948210Y-139413781D01*
X135978696Y-139398538D01*
X136009182Y-139398538D01*
X136039668Y-139413781D01*
X136054911Y-139429024D01*
X136070154Y-139459510D01*
X136070154Y-139566212D01*
X136222585Y-139124163D02*
X136237828Y-139154649D01*
X136237828Y-139215622D01*
X136222585Y-139246108D01*
X136192099Y-139261351D01*
X136070154Y-139261351D01*
X136039668Y-139246108D01*
X136024425Y-139215622D01*
X136024425Y-139154649D01*
X136039668Y-139124163D01*
X136070154Y-139108920D01*
X136100641Y-139108920D01*
X136131127Y-139261351D01*
X136237828Y-138834545D02*
X136070154Y-138834545D01*
X136039668Y-138849788D01*
X136024425Y-138880274D01*
X136024425Y-138941247D01*
X136039668Y-138971733D01*
X136222585Y-138834545D02*
X136237828Y-138865031D01*
X136237828Y-138941247D01*
X136222585Y-138971733D01*
X136192099Y-138986976D01*
X136161613Y-138986976D01*
X136131127Y-138971733D01*
X136115884Y-138941247D01*
X136115884Y-138865031D01*
X136100641Y-138834545D01*
X136237828Y-138544927D02*
X135917724Y-138544927D01*
X136222585Y-138544927D02*
X136237828Y-138575413D01*
X136237828Y-138636386D01*
X136222585Y-138666872D01*
X136207342Y-138682115D01*
X136176856Y-138697358D01*
X136085397Y-138697358D01*
X136054911Y-138682115D01*
X136039668Y-138666872D01*
X136024425Y-138636386D01*
X136024425Y-138575413D01*
X136039668Y-138544927D01*
D12*
X125186381Y-110910666D02*
X124710190Y-111244000D01*
X125186381Y-111482095D02*
X124186381Y-111482095D01*
X124186381Y-111101142D01*
X124234000Y-111005904D01*
X124281619Y-110958285D01*
X124376857Y-110910666D01*
X124519714Y-110910666D01*
X124614952Y-110958285D01*
X124662571Y-111005904D01*
X124710190Y-111101142D01*
X124710190Y-111482095D01*
X125186381Y-109958285D02*
X125186381Y-110529714D01*
X125186381Y-110244000D02*
X124186381Y-110244000D01*
X124329238Y-110339238D01*
X124424476Y-110434476D01*
X124472095Y-110529714D01*
X135977334Y-119090381D02*
X135644000Y-118614190D01*
X135405905Y-119090381D02*
X135405905Y-118090381D01*
X135786858Y-118090381D01*
X135882096Y-118138000D01*
X135929715Y-118185619D01*
X135977334Y-118280857D01*
X135977334Y-118423714D01*
X135929715Y-118518952D01*
X135882096Y-118566571D01*
X135786858Y-118614190D01*
X135405905Y-118614190D01*
X136358286Y-118185619D02*
X136405905Y-118138000D01*
X136501143Y-118090381D01*
X136739239Y-118090381D01*
X136834477Y-118138000D01*
X136882096Y-118185619D01*
X136929715Y-118280857D01*
X136929715Y-118376095D01*
X136882096Y-118518952D01*
X136310667Y-119090381D01*
X136929715Y-119090381D01*
X135977334Y-116042381D02*
X135644000Y-115566190D01*
X135405905Y-116042381D02*
X135405905Y-115042381D01*
X135786858Y-115042381D01*
X135882096Y-115090000D01*
X135929715Y-115137619D01*
X135977334Y-115232857D01*
X135977334Y-115375714D01*
X135929715Y-115470952D01*
X135882096Y-115518571D01*
X135786858Y-115566190D01*
X135405905Y-115566190D01*
X136310667Y-115042381D02*
X136929715Y-115042381D01*
X136596381Y-115423333D01*
X136739239Y-115423333D01*
X136834477Y-115470952D01*
X136882096Y-115518571D01*
X136929715Y-115613810D01*
X136929715Y-115851905D01*
X136882096Y-115947143D01*
X136834477Y-115994762D01*
X136739239Y-116042381D01*
X136453524Y-116042381D01*
X136358286Y-115994762D01*
X136310667Y-115947143D01*
X125817334Y-123662381D02*
X125484000Y-123186190D01*
X125245905Y-123662381D02*
X125245905Y-122662381D01*
X125626858Y-122662381D01*
X125722096Y-122710000D01*
X125769715Y-122757619D01*
X125817334Y-122852857D01*
X125817334Y-122995714D01*
X125769715Y-123090952D01*
X125722096Y-123138571D01*
X125626858Y-123186190D01*
X125245905Y-123186190D01*
X126674477Y-122995714D02*
X126674477Y-123662381D01*
X126436381Y-122614762D02*
X126198286Y-123329048D01*
X126817334Y-123329048D01*
X129881334Y-50510381D02*
X129548000Y-50034190D01*
X129309905Y-50510381D02*
X129309905Y-49510381D01*
X129690858Y-49510381D01*
X129786096Y-49558000D01*
X129833715Y-49605619D01*
X129881334Y-49700857D01*
X129881334Y-49843714D01*
X129833715Y-49938952D01*
X129786096Y-49986571D01*
X129690858Y-50034190D01*
X129309905Y-50034190D01*
X130786096Y-49510381D02*
X130309905Y-49510381D01*
X130262286Y-49986571D01*
X130309905Y-49938952D01*
X130405143Y-49891333D01*
X130643239Y-49891333D01*
X130738477Y-49938952D01*
X130786096Y-49986571D01*
X130833715Y-50081810D01*
X130833715Y-50319905D01*
X130786096Y-50415143D01*
X130738477Y-50462762D01*
X130643239Y-50510381D01*
X130405143Y-50510381D01*
X130309905Y-50462762D01*
X130262286Y-50415143D01*
X134961334Y-50510381D02*
X134628000Y-50034190D01*
X134389905Y-50510381D02*
X134389905Y-49510381D01*
X134770858Y-49510381D01*
X134866096Y-49558000D01*
X134913715Y-49605619D01*
X134961334Y-49700857D01*
X134961334Y-49843714D01*
X134913715Y-49938952D01*
X134866096Y-49986571D01*
X134770858Y-50034190D01*
X134389905Y-50034190D01*
X135818477Y-49510381D02*
X135628000Y-49510381D01*
X135532762Y-49558000D01*
X135485143Y-49605619D01*
X135389905Y-49748476D01*
X135342286Y-49938952D01*
X135342286Y-50319905D01*
X135389905Y-50415143D01*
X135437524Y-50462762D01*
X135532762Y-50510381D01*
X135723239Y-50510381D01*
X135818477Y-50462762D01*
X135866096Y-50415143D01*
X135913715Y-50319905D01*
X135913715Y-50081810D01*
X135866096Y-49986571D01*
X135818477Y-49938952D01*
X135723239Y-49891333D01*
X135532762Y-49891333D01*
X135437524Y-49938952D01*
X135389905Y-49986571D01*
X135342286Y-50081810D01*
X118034381Y-139358666D02*
X117558190Y-139692000D01*
X118034381Y-139930095D02*
X117034381Y-139930095D01*
X117034381Y-139549142D01*
X117082000Y-139453904D01*
X117129619Y-139406285D01*
X117224857Y-139358666D01*
X117367714Y-139358666D01*
X117462952Y-139406285D01*
X117510571Y-139453904D01*
X117558190Y-139549142D01*
X117558190Y-139930095D01*
X117034381Y-139025333D02*
X117034381Y-138358666D01*
X118034381Y-138787238D01*
X129373334Y-124130381D02*
X129040000Y-123654190D01*
X128801905Y-124130381D02*
X128801905Y-123130381D01*
X129182858Y-123130381D01*
X129278096Y-123178000D01*
X129325715Y-123225619D01*
X129373334Y-123320857D01*
X129373334Y-123463714D01*
X129325715Y-123558952D01*
X129278096Y-123606571D01*
X129182858Y-123654190D01*
X128801905Y-123654190D01*
X129944762Y-123558952D02*
X129849524Y-123511333D01*
X129801905Y-123463714D01*
X129754286Y-123368476D01*
X129754286Y-123320857D01*
X129801905Y-123225619D01*
X129849524Y-123178000D01*
X129944762Y-123130381D01*
X130135239Y-123130381D01*
X130230477Y-123178000D01*
X130278096Y-123225619D01*
X130325715Y-123320857D01*
X130325715Y-123368476D01*
X130278096Y-123463714D01*
X130230477Y-123511333D01*
X130135239Y-123558952D01*
X129944762Y-123558952D01*
X129849524Y-123606571D01*
X129801905Y-123654190D01*
X129754286Y-123749429D01*
X129754286Y-123939905D01*
X129801905Y-124035143D01*
X129849524Y-124082762D01*
X129944762Y-124130381D01*
X130135239Y-124130381D01*
X130230477Y-124082762D01*
X130278096Y-124035143D01*
X130325715Y-123939905D01*
X130325715Y-123749429D01*
X130278096Y-123654190D01*
X130230477Y-123606571D01*
X130135239Y-123558952D01*
X112486381Y-104814666D02*
X112010190Y-105148000D01*
X112486381Y-105386095D02*
X111486381Y-105386095D01*
X111486381Y-105005142D01*
X111534000Y-104909904D01*
X111581619Y-104862285D01*
X111676857Y-104814666D01*
X111819714Y-104814666D01*
X111914952Y-104862285D01*
X111962571Y-104909904D01*
X112010190Y-105005142D01*
X112010190Y-105386095D01*
X112486381Y-104338476D02*
X112486381Y-104148000D01*
X112438762Y-104052761D01*
X112391143Y-104005142D01*
X112248286Y-103909904D01*
X112057810Y-103862285D01*
X111676857Y-103862285D01*
X111581619Y-103909904D01*
X111534000Y-103957523D01*
X111486381Y-104052761D01*
X111486381Y-104243238D01*
X111534000Y-104338476D01*
X111581619Y-104386095D01*
X111676857Y-104433714D01*
X111914952Y-104433714D01*
X112010190Y-104386095D01*
X112057810Y-104338476D01*
X112105429Y-104243238D01*
X112105429Y-104052761D01*
X112057810Y-103957523D01*
X112010190Y-103909904D01*
X111914952Y-103862285D01*
X117018381Y-107830857D02*
X116542190Y-108164191D01*
X117018381Y-108402286D02*
X116018381Y-108402286D01*
X116018381Y-108021333D01*
X116066000Y-107926095D01*
X116113619Y-107878476D01*
X116208857Y-107830857D01*
X116351714Y-107830857D01*
X116446952Y-107878476D01*
X116494571Y-107926095D01*
X116542190Y-108021333D01*
X116542190Y-108402286D01*
X117018381Y-106878476D02*
X117018381Y-107449905D01*
X117018381Y-107164191D02*
X116018381Y-107164191D01*
X116161238Y-107259429D01*
X116256476Y-107354667D01*
X116304095Y-107449905D01*
X116018381Y-106259429D02*
X116018381Y-106164190D01*
X116066000Y-106068952D01*
X116113619Y-106021333D01*
X116208857Y-105973714D01*
X116399333Y-105926095D01*
X116637429Y-105926095D01*
X116827905Y-105973714D01*
X116923143Y-106021333D01*
X116970762Y-106068952D01*
X117018381Y-106164190D01*
X117018381Y-106259429D01*
X116970762Y-106354667D01*
X116923143Y-106402286D01*
X116827905Y-106449905D01*
X116637429Y-106497524D01*
X116399333Y-106497524D01*
X116208857Y-106449905D01*
X116113619Y-106402286D01*
X116066000Y-106354667D01*
X116018381Y-106259429D01*
X174569381Y-64269857D02*
X174093190Y-64603191D01*
X174569381Y-64841286D02*
X173569381Y-64841286D01*
X173569381Y-64460333D01*
X173617000Y-64365095D01*
X173664619Y-64317476D01*
X173759857Y-64269857D01*
X173902714Y-64269857D01*
X173997952Y-64317476D01*
X174045571Y-64365095D01*
X174093190Y-64460333D01*
X174093190Y-64841286D01*
X174569381Y-63317476D02*
X174569381Y-63888905D01*
X174569381Y-63603191D02*
X173569381Y-63603191D01*
X173712238Y-63698429D01*
X173807476Y-63793667D01*
X173855095Y-63888905D01*
X174569381Y-62365095D02*
X174569381Y-62936524D01*
X174569381Y-62650810D02*
X173569381Y-62650810D01*
X173712238Y-62746048D01*
X173807476Y-62841286D01*
X173855095Y-62936524D01*
X163949143Y-62194381D02*
X163615809Y-61718190D01*
X163377714Y-62194381D02*
X163377714Y-61194381D01*
X163758667Y-61194381D01*
X163853905Y-61242000D01*
X163901524Y-61289619D01*
X163949143Y-61384857D01*
X163949143Y-61527714D01*
X163901524Y-61622952D01*
X163853905Y-61670571D01*
X163758667Y-61718190D01*
X163377714Y-61718190D01*
X164901524Y-62194381D02*
X164330095Y-62194381D01*
X164615809Y-62194381D02*
X164615809Y-61194381D01*
X164520571Y-61337238D01*
X164425333Y-61432476D01*
X164330095Y-61480095D01*
X165282476Y-61289619D02*
X165330095Y-61242000D01*
X165425333Y-61194381D01*
X165663429Y-61194381D01*
X165758667Y-61242000D01*
X165806286Y-61289619D01*
X165853905Y-61384857D01*
X165853905Y-61480095D01*
X165806286Y-61622952D01*
X165234857Y-62194381D01*
X165853905Y-62194381D01*
X172585143Y-125186381D02*
X172251809Y-124710190D01*
X172013714Y-125186381D02*
X172013714Y-124186381D01*
X172394667Y-124186381D01*
X172489905Y-124234000D01*
X172537524Y-124281619D01*
X172585143Y-124376857D01*
X172585143Y-124519714D01*
X172537524Y-124614952D01*
X172489905Y-124662571D01*
X172394667Y-124710190D01*
X172013714Y-124710190D01*
X173537524Y-125186381D02*
X172966095Y-125186381D01*
X173251809Y-125186381D02*
X173251809Y-124186381D01*
X173156571Y-124329238D01*
X173061333Y-124424476D01*
X172966095Y-124472095D01*
X173870857Y-124186381D02*
X174489905Y-124186381D01*
X174156571Y-124567333D01*
X174299429Y-124567333D01*
X174394667Y-124614952D01*
X174442286Y-124662571D01*
X174489905Y-124757810D01*
X174489905Y-124995905D01*
X174442286Y-125091143D01*
X174394667Y-125138762D01*
X174299429Y-125186381D01*
X174013714Y-125186381D01*
X173918476Y-125138762D01*
X173870857Y-125091143D01*
X172585143Y-119090381D02*
X172251809Y-118614190D01*
X172013714Y-119090381D02*
X172013714Y-118090381D01*
X172394667Y-118090381D01*
X172489905Y-118138000D01*
X172537524Y-118185619D01*
X172585143Y-118280857D01*
X172585143Y-118423714D01*
X172537524Y-118518952D01*
X172489905Y-118566571D01*
X172394667Y-118614190D01*
X172013714Y-118614190D01*
X173537524Y-119090381D02*
X172966095Y-119090381D01*
X173251809Y-119090381D02*
X173251809Y-118090381D01*
X173156571Y-118233238D01*
X173061333Y-118328476D01*
X172966095Y-118376095D01*
X174394667Y-118423714D02*
X174394667Y-119090381D01*
X174156571Y-118042762D02*
X173918476Y-118757048D01*
X174537524Y-118757048D01*
X172585143Y-112740381D02*
X172251809Y-112264190D01*
X172013714Y-112740381D02*
X172013714Y-111740381D01*
X172394667Y-111740381D01*
X172489905Y-111788000D01*
X172537524Y-111835619D01*
X172585143Y-111930857D01*
X172585143Y-112073714D01*
X172537524Y-112168952D01*
X172489905Y-112216571D01*
X172394667Y-112264190D01*
X172013714Y-112264190D01*
X173537524Y-112740381D02*
X172966095Y-112740381D01*
X173251809Y-112740381D02*
X173251809Y-111740381D01*
X173156571Y-111883238D01*
X173061333Y-111978476D01*
X172966095Y-112026095D01*
X174394667Y-111740381D02*
X174204190Y-111740381D01*
X174108952Y-111788000D01*
X174061333Y-111835619D01*
X173966095Y-111978476D01*
X173918476Y-112168952D01*
X173918476Y-112549905D01*
X173966095Y-112645143D01*
X174013714Y-112692762D01*
X174108952Y-112740381D01*
X174299429Y-112740381D01*
X174394667Y-112692762D01*
X174442286Y-112645143D01*
X174489905Y-112549905D01*
X174489905Y-112311810D01*
X174442286Y-112216571D01*
X174394667Y-112168952D01*
X174299429Y-112121333D01*
X174108952Y-112121333D01*
X174013714Y-112168952D01*
X173966095Y-112216571D01*
X173918476Y-112311810D01*
X172585143Y-131790381D02*
X172251809Y-131314190D01*
X172013714Y-131790381D02*
X172013714Y-130790381D01*
X172394667Y-130790381D01*
X172489905Y-130838000D01*
X172537524Y-130885619D01*
X172585143Y-130980857D01*
X172585143Y-131123714D01*
X172537524Y-131218952D01*
X172489905Y-131266571D01*
X172394667Y-131314190D01*
X172013714Y-131314190D01*
X173537524Y-131790381D02*
X172966095Y-131790381D01*
X173251809Y-131790381D02*
X173251809Y-130790381D01*
X173156571Y-130933238D01*
X173061333Y-131028476D01*
X172966095Y-131076095D01*
X173870857Y-130790381D02*
X174537524Y-130790381D01*
X174108952Y-131790381D01*
X114518381Y-113418857D02*
X114042190Y-113752191D01*
X114518381Y-113990286D02*
X113518381Y-113990286D01*
X113518381Y-113609333D01*
X113566000Y-113514095D01*
X113613619Y-113466476D01*
X113708857Y-113418857D01*
X113851714Y-113418857D01*
X113946952Y-113466476D01*
X113994571Y-113514095D01*
X114042190Y-113609333D01*
X114042190Y-113990286D01*
X114518381Y-112466476D02*
X114518381Y-113037905D01*
X114518381Y-112752191D02*
X113518381Y-112752191D01*
X113661238Y-112847429D01*
X113756476Y-112942667D01*
X113804095Y-113037905D01*
X113946952Y-111895048D02*
X113899333Y-111990286D01*
X113851714Y-112037905D01*
X113756476Y-112085524D01*
X113708857Y-112085524D01*
X113613619Y-112037905D01*
X113566000Y-111990286D01*
X113518381Y-111895048D01*
X113518381Y-111704571D01*
X113566000Y-111609333D01*
X113613619Y-111561714D01*
X113708857Y-111514095D01*
X113756476Y-111514095D01*
X113851714Y-111561714D01*
X113899333Y-111609333D01*
X113946952Y-111704571D01*
X113946952Y-111895048D01*
X113994571Y-111990286D01*
X114042190Y-112037905D01*
X114137429Y-112085524D01*
X114327905Y-112085524D01*
X114423143Y-112037905D01*
X114470762Y-111990286D01*
X114518381Y-111895048D01*
X114518381Y-111704571D01*
X114470762Y-111609333D01*
X114423143Y-111561714D01*
X114327905Y-111514095D01*
X114137429Y-111514095D01*
X114042190Y-111561714D01*
X113994571Y-111609333D01*
X113946952Y-111704571D01*
X154297143Y-74894381D02*
X153963809Y-74418190D01*
X153725714Y-74894381D02*
X153725714Y-73894381D01*
X154106667Y-73894381D01*
X154201905Y-73942000D01*
X154249524Y-73989619D01*
X154297143Y-74084857D01*
X154297143Y-74227714D01*
X154249524Y-74322952D01*
X154201905Y-74370571D01*
X154106667Y-74418190D01*
X153725714Y-74418190D01*
X154678095Y-73989619D02*
X154725714Y-73942000D01*
X154820952Y-73894381D01*
X155059048Y-73894381D01*
X155154286Y-73942000D01*
X155201905Y-73989619D01*
X155249524Y-74084857D01*
X155249524Y-74180095D01*
X155201905Y-74322952D01*
X154630476Y-74894381D01*
X155249524Y-74894381D01*
X155582857Y-73894381D02*
X156201905Y-73894381D01*
X155868571Y-74275333D01*
X156011429Y-74275333D01*
X156106667Y-74322952D01*
X156154286Y-74370571D01*
X156201905Y-74465810D01*
X156201905Y-74703905D01*
X156154286Y-74799143D01*
X156106667Y-74846762D01*
X156011429Y-74894381D01*
X155725714Y-74894381D01*
X155630476Y-74846762D01*
X155582857Y-74799143D01*
X154297143Y-71846381D02*
X153963809Y-71370190D01*
X153725714Y-71846381D02*
X153725714Y-70846381D01*
X154106667Y-70846381D01*
X154201905Y-70894000D01*
X154249524Y-70941619D01*
X154297143Y-71036857D01*
X154297143Y-71179714D01*
X154249524Y-71274952D01*
X154201905Y-71322571D01*
X154106667Y-71370190D01*
X153725714Y-71370190D01*
X154678095Y-70941619D02*
X154725714Y-70894000D01*
X154820952Y-70846381D01*
X155059048Y-70846381D01*
X155154286Y-70894000D01*
X155201905Y-70941619D01*
X155249524Y-71036857D01*
X155249524Y-71132095D01*
X155201905Y-71274952D01*
X154630476Y-71846381D01*
X155249524Y-71846381D01*
X156106667Y-71179714D02*
X156106667Y-71846381D01*
X155868571Y-70798762D02*
X155630476Y-71513048D01*
X156249524Y-71513048D01*
D17*
X151615261Y-75843830D02*
X151921988Y-75946073D01*
X152433200Y-75946073D01*
X152637684Y-75843830D01*
X152739927Y-75741588D01*
X152842169Y-75537103D01*
X152842169Y-75332618D01*
X152739927Y-75128134D01*
X152637684Y-75025891D01*
X152433200Y-74923649D01*
X152024230Y-74821406D01*
X151819745Y-74719164D01*
X151717503Y-74616922D01*
X151615261Y-74412437D01*
X151615261Y-74207952D01*
X151717503Y-74003467D01*
X151819745Y-73901225D01*
X152024230Y-73798983D01*
X152535442Y-73798983D01*
X152842169Y-73901225D01*
X154989259Y-75741588D02*
X154887017Y-75843830D01*
X154580290Y-75946073D01*
X154375805Y-75946073D01*
X154069078Y-75843830D01*
X153864593Y-75639345D01*
X153762351Y-75434861D01*
X153660109Y-75025891D01*
X153660109Y-74719164D01*
X153762351Y-74310195D01*
X153864593Y-74105710D01*
X154069078Y-73901225D01*
X154375805Y-73798983D01*
X154580290Y-73798983D01*
X154887017Y-73901225D01*
X154989259Y-74003467D01*
X157034107Y-75946073D02*
X155807199Y-75946073D01*
X156420653Y-75946073D02*
X156420653Y-73798983D01*
X156216168Y-74105710D01*
X156011683Y-74310195D01*
X155807199Y-74412437D01*
X158874470Y-73798983D02*
X158465501Y-73798983D01*
X158261016Y-73901225D01*
X158158774Y-74003467D01*
X157954289Y-74310195D01*
X157852047Y-74719164D01*
X157852047Y-75537103D01*
X157954289Y-75741588D01*
X158056531Y-75843830D01*
X158261016Y-75946073D01*
X158669986Y-75946073D01*
X158874470Y-75843830D01*
X158976713Y-75741588D01*
X159078955Y-75537103D01*
X159078955Y-75025891D01*
X158976713Y-74821406D01*
X158874470Y-74719164D01*
X158669986Y-74616922D01*
X158261016Y-74616922D01*
X158056531Y-74719164D01*
X157954289Y-74821406D01*
X157852047Y-75025891D01*
X159999137Y-75946073D02*
X159999137Y-73798983D01*
X160919319Y-75843830D02*
X161226046Y-75946073D01*
X161737258Y-75946073D01*
X161941742Y-75843830D01*
X162043985Y-75741588D01*
X162146227Y-75537103D01*
X162146227Y-75332618D01*
X162043985Y-75128134D01*
X161941742Y-75025891D01*
X161737258Y-74923649D01*
X161328288Y-74821406D01*
X161123803Y-74719164D01*
X161021561Y-74616922D01*
X160919319Y-74412437D01*
X160919319Y-74207952D01*
X161021561Y-74003467D01*
X161123803Y-73901225D01*
X161328288Y-73798983D01*
X161839500Y-73798983D01*
X162146227Y-73901225D01*
X164191075Y-75946073D02*
X162964167Y-75946073D01*
X163577621Y-75946073D02*
X163577621Y-73798983D01*
X163373136Y-74105710D01*
X163168651Y-74310195D01*
X162964167Y-74412437D01*
X150997843Y-93201132D02*
X151301313Y-93302288D01*
X151807096Y-93302288D01*
X152009409Y-93201132D01*
X152110566Y-93099975D01*
X152211723Y-92897662D01*
X152211723Y-92695348D01*
X152110566Y-92493035D01*
X152009409Y-92391878D01*
X151807096Y-92290722D01*
X151402469Y-92189565D01*
X151200156Y-92088408D01*
X151098999Y-91987252D01*
X150997843Y-91784938D01*
X150997843Y-91582625D01*
X151098999Y-91380312D01*
X151200156Y-91279155D01*
X151402469Y-91177998D01*
X151908253Y-91177998D01*
X152211723Y-91279155D01*
X154336012Y-93099975D02*
X154234856Y-93201132D01*
X153931386Y-93302288D01*
X153729072Y-93302288D01*
X153425602Y-93201132D01*
X153223289Y-92998818D01*
X153122132Y-92796505D01*
X153020976Y-92391878D01*
X153020976Y-92088408D01*
X153122132Y-91683782D01*
X153223289Y-91481468D01*
X153425602Y-91279155D01*
X153729072Y-91177998D01*
X153931386Y-91177998D01*
X154234856Y-91279155D01*
X154336012Y-91380312D01*
X156359146Y-93302288D02*
X155145266Y-93302288D01*
X155752206Y-93302288D02*
X155752206Y-91177998D01*
X155549892Y-91481468D01*
X155347579Y-91683782D01*
X155145266Y-91784938D01*
X158179965Y-91177998D02*
X157775339Y-91177998D01*
X157573025Y-91279155D01*
X157471869Y-91380312D01*
X157269555Y-91683782D01*
X157168399Y-92088408D01*
X157168399Y-92897662D01*
X157269555Y-93099975D01*
X157370712Y-93201132D01*
X157573025Y-93302288D01*
X157977652Y-93302288D01*
X158179965Y-93201132D01*
X158281122Y-93099975D01*
X158382279Y-92897662D01*
X158382279Y-92391878D01*
X158281122Y-92189565D01*
X158179965Y-92088408D01*
X157977652Y-91987252D01*
X157573025Y-91987252D01*
X157370712Y-92088408D01*
X157269555Y-92189565D01*
X157168399Y-92391878D01*
X159292688Y-93302288D02*
X159292688Y-91177998D01*
X160203099Y-93201132D02*
X160506569Y-93302288D01*
X161012352Y-93302288D01*
X161214665Y-93201132D01*
X161315822Y-93099975D01*
X161416979Y-92897662D01*
X161416979Y-92695348D01*
X161315822Y-92493035D01*
X161214665Y-92391878D01*
X161012352Y-92290722D01*
X160607725Y-92189565D01*
X160405412Y-92088408D01*
X160304255Y-91987252D01*
X160203099Y-91784938D01*
X160203099Y-91582625D01*
X160304255Y-91380312D01*
X160405412Y-91279155D01*
X160607725Y-91177998D01*
X161113509Y-91177998D01*
X161416979Y-91279155D01*
X162125075Y-91177998D02*
X163541268Y-91177998D01*
X162630858Y-93302288D01*
X165362088Y-91177998D02*
X164350521Y-91177998D01*
X164249365Y-92189565D01*
X164350521Y-92088408D01*
X164552835Y-91987252D01*
X165058618Y-91987252D01*
X165260931Y-92088408D01*
X165362088Y-92189565D01*
X165463245Y-92391878D01*
X165463245Y-92897662D01*
X165362088Y-93099975D01*
X165260931Y-93201132D01*
X165058618Y-93302288D01*
X164552835Y-93302288D01*
X164350521Y-93201132D01*
X164249365Y-93099975D01*
X166778281Y-91177998D02*
X166980594Y-91177998D01*
X167182908Y-91279155D01*
X167284064Y-91380312D01*
X167385221Y-91582625D01*
X167486378Y-91987252D01*
X167486378Y-92493035D01*
X167385221Y-92897662D01*
X167284064Y-93099975D01*
X167182908Y-93201132D01*
X166980594Y-93302288D01*
X166778281Y-93302288D01*
X166575968Y-93201132D01*
X166474811Y-93099975D01*
X166373654Y-92897662D01*
X166272498Y-92493035D01*
X166272498Y-91987252D01*
X166373654Y-91582625D01*
X166474811Y-91380312D01*
X166575968Y-91279155D01*
X166778281Y-91177998D01*
D12*
X155651762Y-57340333D02*
X155699381Y-57197476D01*
X155699381Y-56959380D01*
X155651762Y-56864142D01*
X155604143Y-56816523D01*
X155508905Y-56768904D01*
X155413667Y-56768904D01*
X155318429Y-56816523D01*
X155270810Y-56864142D01*
X155223190Y-56959380D01*
X155175571Y-57149857D01*
X155127952Y-57245095D01*
X155080333Y-57292714D01*
X154985095Y-57340333D01*
X154889857Y-57340333D01*
X154794619Y-57292714D01*
X154747000Y-57245095D01*
X154699381Y-57149857D01*
X154699381Y-56911761D01*
X154747000Y-56768904D01*
X154699381Y-56435571D02*
X155699381Y-56197476D01*
X154985095Y-56006999D01*
X155699381Y-55816523D01*
X154699381Y-55578428D01*
X155699381Y-54673666D02*
X155699381Y-55245095D01*
X155699381Y-54959381D02*
X154699381Y-54959381D01*
X154842238Y-55054619D01*
X154937476Y-55149857D01*
X154985095Y-55245095D01*
X165811762Y-57340333D02*
X165859381Y-57197476D01*
X165859381Y-56959380D01*
X165811762Y-56864142D01*
X165764143Y-56816523D01*
X165668905Y-56768904D01*
X165573667Y-56768904D01*
X165478429Y-56816523D01*
X165430810Y-56864142D01*
X165383190Y-56959380D01*
X165335571Y-57149857D01*
X165287952Y-57245095D01*
X165240333Y-57292714D01*
X165145095Y-57340333D01*
X165049857Y-57340333D01*
X164954619Y-57292714D01*
X164907000Y-57245095D01*
X164859381Y-57149857D01*
X164859381Y-56911761D01*
X164907000Y-56768904D01*
X164859381Y-56435571D02*
X165859381Y-56197476D01*
X165145095Y-56006999D01*
X165859381Y-55816523D01*
X164859381Y-55578428D01*
X164954619Y-55245095D02*
X164907000Y-55197476D01*
X164859381Y-55102238D01*
X164859381Y-54864142D01*
X164907000Y-54768904D01*
X164954619Y-54721285D01*
X165049857Y-54673666D01*
X165145095Y-54673666D01*
X165287952Y-54721285D01*
X165859381Y-55292714D01*
X165859381Y-54673666D01*
D17*
X124757896Y-115236982D02*
X124757896Y-115431562D01*
X124769342Y-115454453D01*
X124780788Y-115465899D01*
X124803680Y-115477345D01*
X124849463Y-115477345D01*
X124872355Y-115465899D01*
X124883801Y-115454453D01*
X124895247Y-115431562D01*
X124895247Y-115236982D01*
X125135610Y-115477345D02*
X124998259Y-115477345D01*
X125066935Y-115477345D02*
X125066935Y-115236982D01*
X125044043Y-115271320D01*
X125021151Y-115294211D01*
X124998259Y-115305657D01*
X124557365Y-119487404D02*
X124442960Y-119487404D01*
X124442960Y-119247153D01*
X124637449Y-119487404D02*
X124637449Y-119247153D01*
X124740413Y-119475964D02*
X124774735Y-119487404D01*
X124831937Y-119487404D01*
X124854818Y-119475964D01*
X124866259Y-119464523D01*
X124877699Y-119441642D01*
X124877699Y-119418761D01*
X124866259Y-119395880D01*
X124854818Y-119384440D01*
X124831937Y-119372999D01*
X124786175Y-119361559D01*
X124763294Y-119350118D01*
X124751854Y-119338678D01*
X124740413Y-119315797D01*
X124740413Y-119292916D01*
X124751854Y-119270035D01*
X124763294Y-119258594D01*
X124786175Y-119247153D01*
X124843378Y-119247153D01*
X124877699Y-119258594D01*
X124957783Y-119247153D02*
X125106509Y-119247153D01*
X125026426Y-119338678D01*
X125060747Y-119338678D01*
X125083628Y-119350118D01*
X125095069Y-119361559D01*
X125106509Y-119384440D01*
X125106509Y-119441642D01*
X125095069Y-119464523D01*
X125083628Y-119475964D01*
X125060747Y-119487404D01*
X124992104Y-119487404D01*
X124969223Y-119475964D01*
X124957783Y-119464523D01*
X125209474Y-119487404D02*
X125209474Y-119247153D01*
X125266676Y-119247153D01*
X125300998Y-119258594D01*
X125323879Y-119281475D01*
X125335319Y-119304356D01*
X125346760Y-119350118D01*
X125346760Y-119384440D01*
X125335319Y-119430202D01*
X125323879Y-119453083D01*
X125300998Y-119475964D01*
X125266676Y-119487404D01*
X125209474Y-119487404D01*
X125449725Y-119487404D02*
X125449725Y-119247153D01*
X125449725Y-119361559D02*
X125587011Y-119361559D01*
X125587011Y-119487404D02*
X125587011Y-119247153D01*
X109090381Y-126110236D02*
X109729091Y-126110236D01*
X109804233Y-126072665D01*
X109841805Y-126035094D01*
X109879376Y-125959951D01*
X109879376Y-125809667D01*
X109841805Y-125734524D01*
X109804233Y-125696953D01*
X109729091Y-125659382D01*
X109090381Y-125659382D01*
X109353379Y-124945529D02*
X109879376Y-124945529D01*
X109052810Y-125133385D02*
X109616377Y-125321241D01*
X109616377Y-124832816D01*
X115142612Y-128260984D02*
X115142612Y-128637038D01*
X114352898Y-128637038D01*
X115142612Y-127997746D02*
X114352898Y-127997746D01*
X114352898Y-127809719D01*
X114390503Y-127696902D01*
X114465714Y-127621692D01*
X114540925Y-127584086D01*
X114691346Y-127546481D01*
X114804163Y-127546481D01*
X114954584Y-127584086D01*
X115029795Y-127621692D01*
X115105006Y-127696902D01*
X115142612Y-127809719D01*
X115142612Y-127997746D01*
X114352898Y-127283243D02*
X114352898Y-126794372D01*
X114653741Y-127057610D01*
X114653741Y-126944794D01*
X114691346Y-126869583D01*
X114728952Y-126831978D01*
X114804163Y-126794372D01*
X114992190Y-126794372D01*
X115067401Y-126831978D01*
X115105006Y-126869583D01*
X115142612Y-126944794D01*
X115142612Y-127170426D01*
X115105006Y-127245637D01*
X115067401Y-127283243D01*
X115142612Y-126418317D02*
X115142612Y-126267896D01*
X115105006Y-126192685D01*
X115067401Y-126155079D01*
X114954584Y-126079869D01*
X114804163Y-126042263D01*
X114503319Y-126042263D01*
X114428108Y-126079869D01*
X114390503Y-126117474D01*
X114352898Y-126192685D01*
X114352898Y-126343107D01*
X114390503Y-126418317D01*
X114428108Y-126455923D01*
X114503319Y-126493528D01*
X114691346Y-126493528D01*
X114766557Y-126455923D01*
X114804163Y-126418317D01*
X114841768Y-126343107D01*
X114841768Y-126192685D01*
X114804163Y-126117474D01*
X114766557Y-126079869D01*
X114691346Y-126042263D01*
X114691346Y-125590998D02*
X114653741Y-125666208D01*
X114616136Y-125703814D01*
X114540925Y-125741419D01*
X114503319Y-125741419D01*
X114428108Y-125703814D01*
X114390503Y-125666208D01*
X114352898Y-125590998D01*
X114352898Y-125440576D01*
X114390503Y-125365365D01*
X114428108Y-125327760D01*
X114503319Y-125290154D01*
X114540925Y-125290154D01*
X114616136Y-125327760D01*
X114653741Y-125365365D01*
X114691346Y-125440576D01*
X114691346Y-125590998D01*
X114728952Y-125666208D01*
X114766557Y-125703814D01*
X114841768Y-125741419D01*
X114992190Y-125741419D01*
X115067401Y-125703814D01*
X115105006Y-125666208D01*
X115142612Y-125590998D01*
X115142612Y-125440576D01*
X115105006Y-125365365D01*
X115067401Y-125327760D01*
X114992190Y-125290154D01*
X114841768Y-125290154D01*
X114766557Y-125327760D01*
X114728952Y-125365365D01*
X114691346Y-125440576D01*
X114352898Y-124575651D02*
X114352898Y-124951705D01*
X114728952Y-124989310D01*
X114691346Y-124951705D01*
X114653741Y-124876494D01*
X114653741Y-124688467D01*
X114691346Y-124613256D01*
X114728952Y-124575651D01*
X114804163Y-124538045D01*
X114992190Y-124538045D01*
X115067401Y-124575651D01*
X115105006Y-124613256D01*
X115142612Y-124688467D01*
X115142612Y-124876494D01*
X115105006Y-124951705D01*
X115067401Y-124989310D01*
X115142612Y-124199596D02*
X114352898Y-124199596D01*
X114916979Y-123936358D01*
X114352898Y-123673120D01*
X115142612Y-123673120D01*
X114352898Y-123372277D02*
X114352898Y-122883406D01*
X114653741Y-123146644D01*
X114653741Y-123033828D01*
X114691346Y-122958617D01*
X114728952Y-122921012D01*
X114804163Y-122883406D01*
X114992190Y-122883406D01*
X115067401Y-122921012D01*
X115105006Y-122958617D01*
X115142612Y-123033828D01*
X115142612Y-123259460D01*
X115105006Y-123334671D01*
X115067401Y-123372277D01*
X114352898Y-122620168D02*
X114352898Y-122131297D01*
X114653741Y-122394535D01*
X114653741Y-122281719D01*
X114691346Y-122206508D01*
X114728952Y-122168903D01*
X114804163Y-122131297D01*
X114992190Y-122131297D01*
X115067401Y-122168903D01*
X115105006Y-122206508D01*
X115142612Y-122281719D01*
X115142612Y-122507351D01*
X115105006Y-122582562D01*
X115067401Y-122620168D01*
X115142612Y-121341583D02*
X114766557Y-121604821D01*
X115142612Y-121792848D02*
X114352898Y-121792848D01*
X114352898Y-121492004D01*
X114390503Y-121416794D01*
X114428108Y-121379188D01*
X114503319Y-121341583D01*
X114616136Y-121341583D01*
X114691346Y-121379188D01*
X114728952Y-121416794D01*
X114766557Y-121492004D01*
X114766557Y-121792848D01*
X106747747Y-140102129D02*
X106747747Y-141432136D01*
X106825982Y-141588608D01*
X106904218Y-141666844D01*
X107060689Y-141745079D01*
X107373632Y-141745079D01*
X107530104Y-141666844D01*
X107608339Y-141588608D01*
X107686575Y-141432136D01*
X107686575Y-140102129D01*
X109251290Y-140102129D02*
X108468933Y-140102129D01*
X108390697Y-140884486D01*
X108468933Y-140806251D01*
X108625404Y-140728015D01*
X109016583Y-140728015D01*
X109173054Y-140806251D01*
X109251290Y-140884486D01*
X109329525Y-141040958D01*
X109329525Y-141432136D01*
X109251290Y-141588608D01*
X109173054Y-141666844D01*
X109016583Y-141745079D01*
X108625404Y-141745079D01*
X108468933Y-141666844D01*
X108390697Y-141588608D01*
X99787213Y-133882769D02*
X100022196Y-133961096D01*
X100100524Y-134039424D01*
X100178852Y-134196079D01*
X100178852Y-134431062D01*
X100100524Y-134587717D01*
X100022196Y-134666045D01*
X99865541Y-134744372D01*
X99238920Y-134744372D01*
X99238920Y-133099492D01*
X99787213Y-133099492D01*
X99943869Y-133177820D01*
X100022196Y-133256148D01*
X100100524Y-133412803D01*
X100100524Y-133569458D01*
X100022196Y-133726113D01*
X99943869Y-133804441D01*
X99787213Y-133882769D01*
X99238920Y-133882769D01*
X100883800Y-133099492D02*
X100883800Y-134431062D01*
X100962128Y-134587717D01*
X101040455Y-134666045D01*
X101197111Y-134744372D01*
X101510421Y-134744372D01*
X101667076Y-134666045D01*
X101745404Y-134587717D01*
X101823732Y-134431062D01*
X101823732Y-133099492D01*
X103311957Y-133647786D02*
X103311957Y-134744372D01*
X102920319Y-133021165D02*
X102528680Y-134196079D01*
X103546940Y-134196079D01*
X104095232Y-133256148D02*
X104173560Y-133177820D01*
X104330215Y-133099492D01*
X104721853Y-133099492D01*
X104878509Y-133177820D01*
X104956836Y-133256148D01*
X105035164Y-133412803D01*
X105035164Y-133569458D01*
X104956836Y-133804441D01*
X104016905Y-134744372D01*
X105035164Y-134744372D01*
X106601716Y-134744372D02*
X105661784Y-134744372D01*
X106131750Y-134744372D02*
X106131750Y-133099492D01*
X105975095Y-133334475D01*
X105818440Y-133491130D01*
X105661784Y-133569458D01*
X107619975Y-133099492D02*
X107776630Y-133099492D01*
X107933285Y-133177820D01*
X108011613Y-133256148D01*
X108089940Y-133412803D01*
X108168268Y-133726113D01*
X108168268Y-134117751D01*
X108089940Y-134431062D01*
X108011613Y-134587717D01*
X107933285Y-134666045D01*
X107776630Y-134744372D01*
X107619975Y-134744372D01*
X107463319Y-134666045D01*
X107384992Y-134587717D01*
X107306664Y-134431062D01*
X107228336Y-134117751D01*
X107228336Y-133726113D01*
X107306664Y-133412803D01*
X107384992Y-133256148D01*
X107463319Y-133177820D01*
X107619975Y-133099492D01*
X109734820Y-133177820D02*
X109578165Y-133099492D01*
X109343182Y-133099492D01*
X109108199Y-133177820D01*
X108951544Y-133334475D01*
X108873216Y-133491130D01*
X108794888Y-133804441D01*
X108794888Y-134039424D01*
X108873216Y-134352734D01*
X108951544Y-134509390D01*
X109108199Y-134666045D01*
X109343182Y-134744372D01*
X109499837Y-134744372D01*
X109734820Y-134666045D01*
X109813148Y-134587717D01*
X109813148Y-134039424D01*
X109499837Y-134039424D01*
X110518096Y-134117751D02*
X111771338Y-134117751D01*
X112319631Y-133099492D02*
X113259563Y-133099492D01*
X112789597Y-134744372D02*
X112789597Y-133099492D01*
X114747788Y-134744372D02*
X114199494Y-133961096D01*
X113807856Y-134744372D02*
X113807856Y-133099492D01*
X114434477Y-133099492D01*
X114591132Y-133177820D01*
X114669460Y-133256148D01*
X114747788Y-133412803D01*
X114747788Y-133647786D01*
X114669460Y-133804441D01*
X114591132Y-133882769D01*
X114434477Y-133961096D01*
X113807856Y-133961096D01*
X144212177Y-101074232D02*
X146094037Y-101074232D01*
X146315432Y-100963534D01*
X146426130Y-100852837D01*
X146536827Y-100631441D01*
X146536827Y-100188651D01*
X146426130Y-99967256D01*
X146315432Y-99856558D01*
X146094037Y-99745860D01*
X144212177Y-99745860D01*
X144212177Y-97642605D02*
X144212177Y-98085396D01*
X144322875Y-98306791D01*
X144433573Y-98417489D01*
X144765665Y-98638884D01*
X145208456Y-98749582D01*
X146094037Y-98749582D01*
X146315432Y-98638884D01*
X146426130Y-98528186D01*
X146536827Y-98306791D01*
X146536827Y-97864001D01*
X146426130Y-97642605D01*
X146315432Y-97531908D01*
X146094037Y-97421210D01*
X145540549Y-97421210D01*
X145319154Y-97531908D01*
X145208456Y-97642605D01*
X145097758Y-97864001D01*
X145097758Y-98306791D01*
X145208456Y-98528186D01*
X145319154Y-98638884D01*
X145540549Y-98749582D01*
X125725760Y-114278010D02*
X125836355Y-113946224D01*
X125836355Y-113393248D01*
X125725760Y-113172058D01*
X125615164Y-113061462D01*
X125393974Y-112950867D01*
X125172783Y-112950867D01*
X124951593Y-113061462D01*
X124840998Y-113172058D01*
X124730402Y-113393248D01*
X124619807Y-113835629D01*
X124509212Y-114056820D01*
X124398617Y-114167415D01*
X124177426Y-114278010D01*
X123956236Y-114278010D01*
X123735045Y-114167415D01*
X123624450Y-114056820D01*
X123513855Y-113835629D01*
X123513855Y-113282653D01*
X123624450Y-112950867D01*
X123513855Y-112287296D02*
X123513855Y-110960153D01*
X125836355Y-111623724D02*
X123513855Y-111623724D01*
X125836355Y-110185986D02*
X123513855Y-110185986D01*
X125172783Y-109411819D01*
X123513855Y-108637652D01*
X125836355Y-108637652D01*
X123513855Y-107752890D02*
X123513855Y-106315152D01*
X124398617Y-107089319D01*
X124398617Y-106757533D01*
X124509212Y-106536343D01*
X124619807Y-106425747D01*
X124840998Y-106315152D01*
X125393974Y-106315152D01*
X125615164Y-106425747D01*
X125725760Y-106536343D01*
X125836355Y-106757533D01*
X125836355Y-107421105D01*
X125725760Y-107642295D01*
X125615164Y-107752890D01*
X123735045Y-105430390D02*
X123624450Y-105319795D01*
X123513855Y-105098604D01*
X123513855Y-104545628D01*
X123624450Y-104324438D01*
X123735045Y-104213842D01*
X123956236Y-104103247D01*
X124177426Y-104103247D01*
X124509212Y-104213842D01*
X125836355Y-105540985D01*
X125836355Y-104103247D01*
X124619807Y-102333723D02*
X124619807Y-103107890D01*
X125836355Y-103107890D02*
X123513855Y-103107890D01*
X123513855Y-102001937D01*
X123513855Y-100674795D02*
X123513855Y-100453604D01*
X123624450Y-100232414D01*
X123735045Y-100121819D01*
X123956236Y-100011223D01*
X124398617Y-99900628D01*
X124951593Y-99900628D01*
X125393974Y-100011223D01*
X125615164Y-100121819D01*
X125725760Y-100232414D01*
X125836355Y-100453604D01*
X125836355Y-100674795D01*
X125725760Y-100895985D01*
X125615164Y-101006581D01*
X125393974Y-101117176D01*
X124951593Y-101227771D01*
X124398617Y-101227771D01*
X123956236Y-101117176D01*
X123735045Y-101006581D01*
X123624450Y-100895985D01*
X123513855Y-100674795D01*
X123513855Y-97799318D02*
X123513855Y-98905271D01*
X124619807Y-99015866D01*
X124509212Y-98905271D01*
X124398617Y-98684080D01*
X124398617Y-98131104D01*
X124509212Y-97909914D01*
X124619807Y-97799318D01*
X124840998Y-97688723D01*
X125393974Y-97688723D01*
X125615164Y-97799318D01*
X125725760Y-97909914D01*
X125836355Y-98131104D01*
X125836355Y-98684080D01*
X125725760Y-98905271D01*
X125615164Y-99015866D01*
X125836355Y-95476818D02*
X125836355Y-96803961D01*
X125836355Y-96140390D02*
X123513855Y-96140390D01*
X123845640Y-96361580D01*
X124066831Y-96582771D01*
X124177426Y-96803961D01*
X125836355Y-93154318D02*
X124730402Y-93928485D01*
X125836355Y-94481461D02*
X123513855Y-94481461D01*
X123513855Y-93596699D01*
X123624450Y-93375508D01*
X123735045Y-93264913D01*
X123956236Y-93154318D01*
X124288021Y-93154318D01*
X124509212Y-93264913D01*
X124619807Y-93375508D01*
X124730402Y-93596699D01*
X124730402Y-94481461D01*
X124509212Y-91827175D02*
X124398617Y-92048366D01*
X124288021Y-92158961D01*
X124066831Y-92269556D01*
X123956236Y-92269556D01*
X123735045Y-92158961D01*
X123624450Y-92048366D01*
X123513855Y-91827175D01*
X123513855Y-91384794D01*
X123624450Y-91163604D01*
X123735045Y-91053008D01*
X123956236Y-90942413D01*
X124066831Y-90942413D01*
X124288021Y-91053008D01*
X124398617Y-91163604D01*
X124509212Y-91384794D01*
X124509212Y-91827175D01*
X124619807Y-92048366D01*
X124730402Y-92158961D01*
X124951593Y-92269556D01*
X125393974Y-92269556D01*
X125615164Y-92158961D01*
X125725760Y-92048366D01*
X125836355Y-91827175D01*
X125836355Y-91384794D01*
X125725760Y-91163604D01*
X125615164Y-91053008D01*
X125393974Y-90942413D01*
X124951593Y-90942413D01*
X124730402Y-91053008D01*
X124619807Y-91163604D01*
X124509212Y-91384794D01*
X123513855Y-90278842D02*
X123513855Y-88951699D01*
X125836355Y-89615270D02*
X123513855Y-89615270D01*
X125836355Y-88398722D02*
X124288021Y-87182175D01*
X124288021Y-88398722D02*
X125836355Y-87182175D01*
M02*
