<?xml version="1.0" standalone="no"?>
 <!DOCTYPE svg PUBLIC "-//W3C//DTD SVG 1.1//EN" 
 "http://www.w3.org/Graphics/SVG/1.1/DTD/svg11.dtd"> 
<svg xmlns="http://www.w3.org/2000/svg" version="1.1" 
    width="29.7002cm" height="21.0007cm" viewBox="0 0 116930 82680 ">
<title>SVG Picture created as prueba-F.SilkS.svg date 2018/06/20 16:15:26 </title>
  <desc>Picture generated by PCBNEW </desc>
<g style="fill:#000000; fill-opacity:1;stroke:#000000; stroke-opacity:1;
stroke-linecap:round; stroke-linejoin:round; "
 transform="translate(0 0) scale(1 1)">
</g>
<g style="fill:#000000; fill-opacity:0.0; 
stroke:#000000; stroke-width:-0.000393701; stroke-opacity:1; 
stroke-linecap:round; stroke-linejoin:round;">
</g>
<g style="fill:#000000; fill-opacity:0.0; 
stroke:#000000; stroke-width:39.3701; stroke-opacity:1; 
stroke-linecap:round; stroke-linejoin:round;">
</g>
<g style="fill:#000000; fill-opacity:0.0; 
stroke:#000000; stroke-width:59.0551; stroke-opacity:1; 
stroke-linecap:round; stroke-linejoin:round;">
<rect x="69685.9" y="65357.2" width="42519.7" height="12598.4" rx="0" />
</g>
<g style="fill:#000000; fill-opacity:0.0; 
stroke:#000000; stroke-width:39.3701; stroke-opacity:1; 
stroke-linecap:round; stroke-linejoin:round;">
</g>
<g style="fill:#000000; fill-opacity:0.0; 
stroke:#000000; stroke-width:59.0551; stroke-opacity:1; 
stroke-linecap:round; stroke-linejoin:round;">
<rect x="3937.01" y="3937.01" width="109056" height="74806" rx="0" />
</g>
<g style="fill:#000000; fill-opacity:0.0; 
stroke:#000000; stroke-width:39.3701; stroke-opacity:1; 
stroke-linecap:round; stroke-linejoin:round;">
</g>
<g style="fill:#000000; fill-opacity:0.0; 
stroke:#000000; stroke-width:59.0551; stroke-opacity:1; 
stroke-linecap:round; stroke-linejoin:round;">
<rect x="4724.41" y="4724.41" width="107481" height="73231.2" rx="0" />
</g>
<g style="fill:#000000; fill-opacity:0.0; 
stroke:#000000; stroke-width:39.3701; stroke-opacity:1; 
stroke-linecap:round; stroke-linejoin:round;">
</g>
<g style="fill:#000000; fill-opacity:0.0; 
stroke:#000000; stroke-width:59.0551; stroke-opacity:1; 
stroke-linecap:round; stroke-linejoin:round;">
<path d="M23622 4724
L23622 3937
" />
</g>
<g style="fill:#000000; fill-opacity:0.0; 
stroke:#000000; stroke-width:39.3701; stroke-opacity:1; 
stroke-linecap:round; stroke-linejoin:round;">
</g>
<g style="fill:#000000; fill-opacity:0.0; 
stroke:#000000; stroke-width:59.0551; stroke-opacity:1; 
stroke-linecap:round; stroke-linejoin:round;">
<path d="M43307 4724
L43307 3937
" />
</g>
<g style="fill:#000000; fill-opacity:0.0; 
stroke:#000000; stroke-width:39.3701; stroke-opacity:1; 
stroke-linecap:round; stroke-linejoin:round;">
</g>
<g style="fill:#000000; fill-opacity:0.0; 
stroke:#000000; stroke-width:59.0551; stroke-opacity:1; 
stroke-linecap:round; stroke-linejoin:round;">
<path d="M62992 4724
L62992 3937
" />
</g>
<g style="fill:#000000; fill-opacity:0.0; 
stroke:#000000; stroke-width:39.3701; stroke-opacity:1; 
stroke-linecap:round; stroke-linejoin:round;">
</g>
<g style="fill:#000000; fill-opacity:0.0; 
stroke:#000000; stroke-width:59.0551; stroke-opacity:1; 
stroke-linecap:round; stroke-linejoin:round;">
<path d="M82677 4724
L82677 3937
" />
</g>
<g style="fill:#000000; fill-opacity:0.0; 
stroke:#000000; stroke-width:39.3701; stroke-opacity:1; 
stroke-linecap:round; stroke-linejoin:round;">
</g>
<g style="fill:#000000; fill-opacity:0.0; 
stroke:#000000; stroke-width:59.0551; stroke-opacity:1; 
stroke-linecap:round; stroke-linejoin:round;">
<path d="M102362 4724
L102362 3937
" />
</g>
<g style="fill:#000000; fill-opacity:0.0; 
stroke:#000000; stroke-width:39.3701; stroke-opacity:1; 
stroke-linecap:round; stroke-linejoin:round;">
</g>
<g style="fill:#000000; fill-opacity:0.0; 
stroke:#000000; stroke-width:59.0551; stroke-opacity:1; 
stroke-linecap:round; stroke-linejoin:round;">
<path d="M14169 4562
L13877 4562
" />
<path d="M14023 4562
L14023 4050
L13974 4123
L13925 4172
L13877 4196
" />
</g>
<g style="fill:#000000; fill-opacity:0.0; 
stroke:#000000; stroke-width:39.3701; stroke-opacity:1; 
stroke-linecap:round; stroke-linejoin:round;">
</g>
<g style="fill:#000000; fill-opacity:0.0; 
stroke:#000000; stroke-width:59.0551; stroke-opacity:1; 
stroke-linecap:round; stroke-linejoin:round;">
<path d="M33562 4099
L33586 4074
L33635 4050
L33757 4050
L33805 4074
L33830 4099
L33854 4147
L33854 4196
L33830 4269
L33537 4562
L33854 4562
" />
</g>
<g style="fill:#000000; fill-opacity:0.0; 
stroke:#000000; stroke-width:39.3701; stroke-opacity:1; 
stroke-linecap:round; stroke-linejoin:round;">
</g>
<g style="fill:#000000; fill-opacity:0.0; 
stroke:#000000; stroke-width:59.0551; stroke-opacity:1; 
stroke-linecap:round; stroke-linejoin:round;">
<path d="M53222 4050
L53539 4050
L53368 4245
L53442 4245
L53490 4269
L53515 4294
L53539 4342
L53539 4464
L53515 4513
L53490 4537
L53442 4562
L53295 4562
L53247 4537
L53222 4513
" />
</g>
<g style="fill:#000000; fill-opacity:0.0; 
stroke:#000000; stroke-width:39.3701; stroke-opacity:1; 
stroke-linecap:round; stroke-linejoin:round;">
</g>
<g style="fill:#000000; fill-opacity:0.0; 
stroke:#000000; stroke-width:59.0551; stroke-opacity:1; 
stroke-linecap:round; stroke-linejoin:round;">
<path d="M73175 4221
L73175 4562
" />
<path d="M73053 4026
L72932 4391
L73248 4391
" />
</g>
<g style="fill:#000000; fill-opacity:0.0; 
stroke:#000000; stroke-width:39.3701; stroke-opacity:1; 
stroke-linecap:round; stroke-linejoin:round;">
</g>
<g style="fill:#000000; fill-opacity:0.0; 
stroke:#000000; stroke-width:59.0551; stroke-opacity:1; 
stroke-linecap:round; stroke-linejoin:round;">
<path d="M92885 4050
L92641 4050
L92617 4294
L92641 4269
L92690 4245
L92812 4245
L92860 4269
L92885 4294
L92909 4342
L92909 4464
L92885 4513
L92860 4537
L92812 4562
L92690 4562
L92641 4537
L92617 4513
" />
</g>
<g style="fill:#000000; fill-opacity:0.0; 
stroke:#000000; stroke-width:39.3701; stroke-opacity:1; 
stroke-linecap:round; stroke-linejoin:round;">
</g>
<g style="fill:#000000; fill-opacity:0.0; 
stroke:#000000; stroke-width:59.0551; stroke-opacity:1; 
stroke-linecap:round; stroke-linejoin:round;">
<path d="M112545 4050
L112448 4050
L112399 4074
L112375 4099
L112326 4172
L112302 4269
L112302 4464
L112326 4513
L112350 4537
L112399 4562
L112497 4562
L112545 4537
L112570 4513
L112594 4464
L112594 4342
L112570 4294
L112545 4269
L112497 4245
L112399 4245
L112350 4269
L112326 4294
L112302 4342
" />
</g>
<g style="fill:#000000; fill-opacity:0.0; 
stroke:#000000; stroke-width:39.3701; stroke-opacity:1; 
stroke-linecap:round; stroke-linejoin:round;">
</g>
<g style="fill:#000000; fill-opacity:0.0; 
stroke:#000000; stroke-width:59.0551; stroke-opacity:1; 
stroke-linecap:round; stroke-linejoin:round;">
<path d="M23622 77955
L23622 78742
" />
</g>
<g style="fill:#000000; fill-opacity:0.0; 
stroke:#000000; stroke-width:39.3701; stroke-opacity:1; 
stroke-linecap:round; stroke-linejoin:round;">
</g>
<g style="fill:#000000; fill-opacity:0.0; 
stroke:#000000; stroke-width:59.0551; stroke-opacity:1; 
stroke-linecap:round; stroke-linejoin:round;">
<path d="M43307 77955
L43307 78742
" />
</g>
<g style="fill:#000000; fill-opacity:0.0; 
stroke:#000000; stroke-width:39.3701; stroke-opacity:1; 
stroke-linecap:round; stroke-linejoin:round;">
</g>
<g style="fill:#000000; fill-opacity:0.0; 
stroke:#000000; stroke-width:59.0551; stroke-opacity:1; 
stroke-linecap:round; stroke-linejoin:round;">
<path d="M62992 77955
L62992 78742
" />
</g>
<g style="fill:#000000; fill-opacity:0.0; 
stroke:#000000; stroke-width:39.3701; stroke-opacity:1; 
stroke-linecap:round; stroke-linejoin:round;">
</g>
<g style="fill:#000000; fill-opacity:0.0; 
stroke:#000000; stroke-width:59.0551; stroke-opacity:1; 
stroke-linecap:round; stroke-linejoin:round;">
<path d="M82677 77955
L82677 78742
" />
</g>
<g style="fill:#000000; fill-opacity:0.0; 
stroke:#000000; stroke-width:39.3701; stroke-opacity:1; 
stroke-linecap:round; stroke-linejoin:round;">
</g>
<g style="fill:#000000; fill-opacity:0.0; 
stroke:#000000; stroke-width:59.0551; stroke-opacity:1; 
stroke-linecap:round; stroke-linejoin:round;">
<path d="M102362 77955
L102362 78742
" />
</g>
<g style="fill:#000000; fill-opacity:0.0; 
stroke:#000000; stroke-width:39.3701; stroke-opacity:1; 
stroke-linecap:round; stroke-linejoin:round;">
</g>
<g style="fill:#000000; fill-opacity:0.0; 
stroke:#000000; stroke-width:59.0551; stroke-opacity:1; 
stroke-linecap:round; stroke-linejoin:round;">
<path d="M14169 78580
L13877 78580
" />
<path d="M14023 78580
L14023 78069
L13974 78142
L13925 78190
L13877 78215
" />
</g>
<g style="fill:#000000; fill-opacity:0.0; 
stroke:#000000; stroke-width:39.3701; stroke-opacity:1; 
stroke-linecap:round; stroke-linejoin:round;">
</g>
<g style="fill:#000000; fill-opacity:0.0; 
stroke:#000000; stroke-width:59.0551; stroke-opacity:1; 
stroke-linecap:round; stroke-linejoin:round;">
<path d="M33562 78117
L33586 78093
L33635 78069
L33757 78069
L33805 78093
L33830 78117
L33854 78166
L33854 78215
L33830 78288
L33537 78580
L33854 78580
" />
</g>
<g style="fill:#000000; fill-opacity:0.0; 
stroke:#000000; stroke-width:39.3701; stroke-opacity:1; 
stroke-linecap:round; stroke-linejoin:round;">
</g>
<g style="fill:#000000; fill-opacity:0.0; 
stroke:#000000; stroke-width:59.0551; stroke-opacity:1; 
stroke-linecap:round; stroke-linejoin:round;">
<path d="M53222 78069
L53539 78069
L53368 78263
L53442 78263
L53490 78288
L53515 78312
L53539 78361
L53539 78483
L53515 78532
L53490 78556
L53442 78580
L53295 78580
L53247 78556
L53222 78532
" />
</g>
<g style="fill:#000000; fill-opacity:0.0; 
stroke:#000000; stroke-width:39.3701; stroke-opacity:1; 
stroke-linecap:round; stroke-linejoin:round;">
</g>
<g style="fill:#000000; fill-opacity:0.0; 
stroke:#000000; stroke-width:59.0551; stroke-opacity:1; 
stroke-linecap:round; stroke-linejoin:round;">
<path d="M73175 78239
L73175 78580
" />
<path d="M73053 78044
L72932 78410
L73248 78410
" />
</g>
<g style="fill:#000000; fill-opacity:0.0; 
stroke:#000000; stroke-width:39.3701; stroke-opacity:1; 
stroke-linecap:round; stroke-linejoin:round;">
</g>
<g style="fill:#000000; fill-opacity:0.0; 
stroke:#000000; stroke-width:59.0551; stroke-opacity:1; 
stroke-linecap:round; stroke-linejoin:round;">
<path d="M92885 78069
L92641 78069
L92617 78312
L92641 78288
L92690 78263
L92812 78263
L92860 78288
L92885 78312
L92909 78361
L92909 78483
L92885 78532
L92860 78556
L92812 78580
L92690 78580
L92641 78556
L92617 78532
" />
</g>
<g style="fill:#000000; fill-opacity:0.0; 
stroke:#000000; stroke-width:39.3701; stroke-opacity:1; 
stroke-linecap:round; stroke-linejoin:round;">
</g>
<g style="fill:#000000; fill-opacity:0.0; 
stroke:#000000; stroke-width:59.0551; stroke-opacity:1; 
stroke-linecap:round; stroke-linejoin:round;">
<path d="M112545 78069
L112448 78069
L112399 78093
L112375 78117
L112326 78190
L112302 78288
L112302 78483
L112326 78532
L112350 78556
L112399 78580
L112497 78580
L112545 78556
L112570 78532
L112594 78483
L112594 78361
L112570 78312
L112545 78288
L112497 78263
L112399 78263
L112350 78288
L112326 78312
L112302 78361
" />
</g>
<g style="fill:#000000; fill-opacity:0.0; 
stroke:#000000; stroke-width:39.3701; stroke-opacity:1; 
stroke-linecap:round; stroke-linejoin:round;">
</g>
<g style="fill:#000000; fill-opacity:0.0; 
stroke:#000000; stroke-width:59.0551; stroke-opacity:1; 
stroke-linecap:round; stroke-linejoin:round;">
<path d="M3937 23622
L4724 23622
" />
</g>
<g style="fill:#000000; fill-opacity:0.0; 
stroke:#000000; stroke-width:39.3701; stroke-opacity:1; 
stroke-linecap:round; stroke-linejoin:round;">
</g>
<g style="fill:#000000; fill-opacity:0.0; 
stroke:#000000; stroke-width:59.0551; stroke-opacity:1; 
stroke-linecap:round; stroke-linejoin:round;">
<path d="M3937 43307
L4724 43307
" />
</g>
<g style="fill:#000000; fill-opacity:0.0; 
stroke:#000000; stroke-width:39.3701; stroke-opacity:1; 
stroke-linecap:round; stroke-linejoin:round;">
</g>
<g style="fill:#000000; fill-opacity:0.0; 
stroke:#000000; stroke-width:59.0551; stroke-opacity:1; 
stroke-linecap:round; stroke-linejoin:round;">
<path d="M3937 62992
L4724 62992
" />
</g>
<g style="fill:#000000; fill-opacity:0.0; 
stroke:#000000; stroke-width:39.3701; stroke-opacity:1; 
stroke-linecap:round; stroke-linejoin:round;">
</g>
<g style="fill:#000000; fill-opacity:0.0; 
stroke:#000000; stroke-width:59.0551; stroke-opacity:1; 
stroke-linecap:round; stroke-linejoin:round;">
<path d="M4208 13864
L4452 13864
" />
<path d="M4160 14011
L4330 13499
L4501 14011
" />
</g>
<g style="fill:#000000; fill-opacity:0.0; 
stroke:#000000; stroke-width:39.3701; stroke-opacity:1; 
stroke-linecap:round; stroke-linejoin:round;">
</g>
<g style="fill:#000000; fill-opacity:0.0; 
stroke:#000000; stroke-width:59.0551; stroke-opacity:1; 
stroke-linecap:round; stroke-linejoin:round;">
<path d="M4367 33428
L4440 33452
L4464 33476
L4489 33525
L4489 33598
L4464 33647
L4440 33671
L4391 33696
L4196 33696
L4196 33184
L4367 33184
L4416 33208
L4440 33233
L4464 33281
L4464 33330
L4440 33379
L4416 33403
L4367 33428
L4196 33428
" />
</g>
<g style="fill:#000000; fill-opacity:0.0; 
stroke:#000000; stroke-width:39.3701; stroke-opacity:1; 
stroke-linecap:round; stroke-linejoin:round;">
</g>
<g style="fill:#000000; fill-opacity:0.0; 
stroke:#000000; stroke-width:59.0551; stroke-opacity:1; 
stroke-linecap:round; stroke-linejoin:round;">
<path d="M4489 53332
L4464 53356
L4391 53381
L4342 53381
L4269 53356
L4221 53308
L4196 53259
L4172 53161
L4172 53088
L4196 52991
L4221 52942
L4269 52893
L4342 52869
L4391 52869
L4464 52893
L4489 52918
" />
</g>
<g style="fill:#000000; fill-opacity:0.0; 
stroke:#000000; stroke-width:39.3701; stroke-opacity:1; 
stroke-linecap:round; stroke-linejoin:round;">
</g>
<g style="fill:#000000; fill-opacity:0.0; 
stroke:#000000; stroke-width:59.0551; stroke-opacity:1; 
stroke-linecap:round; stroke-linejoin:round;">
<path d="M4196 73066
L4196 72554
L4318 72554
L4391 72578
L4440 72627
L4464 72676
L4489 72773
L4489 72846
L4464 72944
L4440 72993
L4391 73041
L4318 73066
L4196 73066
" />
</g>
<g style="fill:#000000; fill-opacity:0.0; 
stroke:#000000; stroke-width:39.3701; stroke-opacity:1; 
stroke-linecap:round; stroke-linejoin:round;">
</g>
<g style="fill:#000000; fill-opacity:0.0; 
stroke:#000000; stroke-width:59.0551; stroke-opacity:1; 
stroke-linecap:round; stroke-linejoin:round;">
<path d="M112992 23622
L112205 23622
" />
</g>
<g style="fill:#000000; fill-opacity:0.0; 
stroke:#000000; stroke-width:39.3701; stroke-opacity:1; 
stroke-linecap:round; stroke-linejoin:round;">
</g>
<g style="fill:#000000; fill-opacity:0.0; 
stroke:#000000; stroke-width:59.0551; stroke-opacity:1; 
stroke-linecap:round; stroke-linejoin:round;">
<path d="M112992 43307
L112205 43307
" />
</g>
<g style="fill:#000000; fill-opacity:0.0; 
stroke:#000000; stroke-width:39.3701; stroke-opacity:1; 
stroke-linecap:round; stroke-linejoin:round;">
</g>
<g style="fill:#000000; fill-opacity:0.0; 
stroke:#000000; stroke-width:59.0551; stroke-opacity:1; 
stroke-linecap:round; stroke-linejoin:round;">
<path d="M112992 62992
L112205 62992
" />
</g>
<g style="fill:#000000; fill-opacity:0.0; 
stroke:#000000; stroke-width:39.3701; stroke-opacity:1; 
stroke-linecap:round; stroke-linejoin:round;">
</g>
<g style="fill:#000000; fill-opacity:0.0; 
stroke:#000000; stroke-width:59.0551; stroke-opacity:1; 
stroke-linecap:round; stroke-linejoin:round;">
<path d="M112477 13864
L112721 13864
" />
<path d="M112428 14011
L112599 13499
L112769 14011
" />
</g>
<g style="fill:#000000; fill-opacity:0.0; 
stroke:#000000; stroke-width:39.3701; stroke-opacity:1; 
stroke-linecap:round; stroke-linejoin:round;">
</g>
<g style="fill:#000000; fill-opacity:0.0; 
stroke:#000000; stroke-width:59.0551; stroke-opacity:1; 
stroke-linecap:round; stroke-linejoin:round;">
<path d="M112635 33428
L112708 33452
L112733 33476
L112757 33525
L112757 33598
L112733 33647
L112708 33671
L112660 33696
L112465 33696
L112465 33184
L112635 33184
L112684 33208
L112708 33233
L112733 33281
L112733 33330
L112708 33379
L112684 33403
L112635 33428
L112465 33428
" />
</g>
<g style="fill:#000000; fill-opacity:0.0; 
stroke:#000000; stroke-width:39.3701; stroke-opacity:1; 
stroke-linecap:round; stroke-linejoin:round;">
</g>
<g style="fill:#000000; fill-opacity:0.0; 
stroke:#000000; stroke-width:59.0551; stroke-opacity:1; 
stroke-linecap:round; stroke-linejoin:round;">
<path d="M112757 53332
L112733 53356
L112660 53381
L112611 53381
L112538 53356
L112489 53308
L112465 53259
L112440 53161
L112440 53088
L112465 52991
L112489 52942
L112538 52893
L112611 52869
L112660 52869
L112733 52893
L112757 52918
" />
</g>
<g style="fill:#000000; fill-opacity:0.0; 
stroke:#000000; stroke-width:39.3701; stroke-opacity:1; 
stroke-linecap:round; stroke-linejoin:round;">
</g>
<g style="fill:#000000; fill-opacity:0.0; 
stroke:#000000; stroke-width:59.0551; stroke-opacity:1; 
stroke-linecap:round; stroke-linejoin:round;">
<path d="M112465 73066
L112465 72554
L112587 72554
L112660 72578
L112708 72627
L112733 72676
L112757 72773
L112757 72846
L112733 72944
L112708 72993
L112660 73041
L112587 73066
L112465 73066
" />
</g>
<g style="fill:#000000; fill-opacity:0.0; 
stroke:#000000; stroke-width:39.3701; stroke-opacity:1; 
stroke-linecap:round; stroke-linejoin:round;">
</g>
<g style="fill:#000000; fill-opacity:0.0; 
stroke:#000000; stroke-width:59.0551; stroke-opacity:1; 
stroke-linecap:round; stroke-linejoin:round;">
<path d="M78881 76293
L78881 75703
L79022 75703
L79106 75731
L79162 75787
L79190 75843
L79219 75956
L79219 76040
L79190 76153
L79162 76209
L79106 76265
L79022 76293
L78881 76293
" />
<path d="M79725 76293
L79725 75984
L79697 75928
L79640 75899
L79528 75899
L79472 75928
" />
<path d="M79725 76265
L79669 76293
L79528 76293
L79472 76265
L79444 76209
L79444 76153
L79472 76096
L79528 76068
L79669 76068
L79725 76040
" />
<path d="M79922 75899
L80147 75899
" />
<path d="M80006 75703
L80006 76209
L80034 76265
L80090 76293
L80147 76293
" />
<path d="M80568 76265
L80512 76293
L80400 76293
L80343 76265
L80315 76209
L80315 75984
L80343 75928
L80400 75899
L80512 75899
L80568 75928
L80597 75984
L80597 76040
L80315 76096
" />
<path d="M80850 76237
L80878 76265
L80850 76293
L80822 76265
L80850 76237
L80850 76293
" />
<path d="M80850 75928
L80878 75956
L80850 75984
L80822 75956
L80850 75928
L80850 75984
" />
</g>
<g style="fill:#000000; fill-opacity:0.0; 
stroke:#000000; stroke-width:39.3701; stroke-opacity:1; 
stroke-linecap:round; stroke-linejoin:round;">
</g>
<g style="fill:#000000; fill-opacity:0.0; 
stroke:#000000; stroke-width:59.0551; stroke-opacity:1; 
stroke-linecap:round; stroke-linejoin:round;">
<path d="M69685 76577
L112205 76577
" />
</g>
<g style="fill:#000000; fill-opacity:0.0; 
stroke:#000000; stroke-width:39.3701; stroke-opacity:1; 
stroke-linecap:round; stroke-linejoin:round;">
</g>
<g style="fill:#000000; fill-opacity:0.0; 
stroke:#000000; stroke-width:59.0551; stroke-opacity:1; 
stroke-linecap:round; stroke-linejoin:round;">
<path d="M70220 77395
L70220 76805
" />
<path d="M70557 77395
L70304 77058
" />
<path d="M70557 76805
L70220 77142
" />
<path d="M70810 77395
L70810 77002
" />
<path d="M70810 76805
L70782 76833
L70810 76861
L70838 76833
L70810 76805
L70810 76861
" />
<path d="M71429 77339
L71401 77367
L71316 77395
L71260 77395
L71176 77367
L71120 77311
L71091 77255
L71063 77142
L71063 77058
L71091 76946
L71120 76889
L71176 76833
L71260 76805
L71316 76805
L71401 76833
L71429 76861
" />
<path d="M71935 77395
L71935 77086
L71907 77030
L71851 77002
L71738 77002
L71682 77030
" />
<path d="M71935 77367
L71879 77395
L71738 77395
L71682 77367
L71654 77311
L71654 77255
L71682 77199
L71738 77171
L71879 77171
L71935 77142
" />
<path d="M72469 77395
L72469 76805
" />
<path d="M72469 77367
L72413 77395
L72301 77395
L72244 77367
L72216 77339
L72188 77283
L72188 77114
L72216 77058
L72244 77030
L72301 77002
L72413 77002
L72469 77030
" />
<path d="M73201 77086
L73397 77086
" />
<path d="M73482 77395
L73201 77395
L73201 76805
L73482 76805
" />
<path d="M73735 77339
L73763 77367
L73735 77395
L73707 77367
L73735 77339
L73735 77395
" />
<path d="M74016 77395
L74016 76805
L74157 76805
L74241 76833
L74297 76889
L74325 76946
L74354 77058
L74354 77142
L74325 77255
L74297 77311
L74241 77367
L74157 77395
L74016 77395
" />
<path d="M74607 77339
L74635 77367
L74607 77395
L74579 77367
L74607 77339
L74607 77395
" />
<path d="M74860 77227
L75141 77227
" />
<path d="M74804 77395
L75000 76805
L75197 77395
" />
<path d="M75394 77339
L75422 77367
L75394 77395
L75366 77367
L75394 77339
L75394 77395
" />
<path d="M76575 77395
L76575 76805
" />
<path d="M76631 77171
L76800 77395
" />
<path d="M76800 77002
L76575 77227
" />
<path d="M77053 77395
L77053 77002
" />
<path d="M77053 76805
L77025 76833
L77053 76861
L77081 76833
L77053 76805
L77053 76861
" />
<path d="M77588 77367
L77531 77395
L77419 77395
L77363 77367
L77334 77339
L77306 77283
L77306 77114
L77334 77058
L77363 77030
L77419 77002
L77531 77002
L77588 77030
" />
<path d="M78094 77395
L78094 77086
L78066 77030
L78009 77002
L77897 77002
L77841 77030
" />
<path d="M78094 77367
L78037 77395
L77897 77395
L77841 77367
L77813 77311
L77813 77255
L77841 77199
L77897 77171
L78037 77171
L78094 77142
" />
<path d="M78628 77395
L78628 76805
" />
<path d="M78628 77367
L78572 77395
L78459 77395
L78403 77367
L78375 77339
L78347 77283
L78347 77114
L78375 77058
L78403 77030
L78459 77002
L78572 77002
L78628 77030
" />
<path d="M79612 77002
L79612 77395
" />
<path d="M79472 76777
L79331 77199
L79697 77199
" />
<path d="M79922 77339
L79950 77367
L79922 77395
L79894 77367
L79922 77339
L79922 77395
" />
<path d="M80315 76805
L80372 76805
L80428 76833
L80456 76861
L80484 76917
L80512 77030
L80512 77171
L80484 77283
L80456 77339
L80428 77367
L80372 77395
L80315 77395
L80259 77367
L80231 77339
L80203 77283
L80175 77171
L80175 77030
L80203 76917
L80231 76861
L80259 76833
L80315 76805
" />
<path d="M80765 77339
L80793 77367
L80765 77395
L80737 77367
L80765 77339
L80765 77395
" />
<path d="M80990 76805
L81384 76805
L81131 77395
" />
</g>
<g style="fill:#000000; fill-opacity:0.0; 
stroke:#000000; stroke-width:39.3701; stroke-opacity:1; 
stroke-linecap:round; stroke-linejoin:round;">
</g>
<g style="fill:#000000; fill-opacity:0.0; 
stroke:#000000; stroke-width:59.0551; stroke-opacity:1; 
stroke-linecap:round; stroke-linejoin:round;">
<path d="M69685 75396
L112205 75396
" />
</g>
<g style="fill:#000000; fill-opacity:0.0; 
stroke:#000000; stroke-width:39.3701; stroke-opacity:1; 
stroke-linecap:round; stroke-linejoin:round;">
</g>
<g style="fill:#000000; fill-opacity:0.0; 
stroke:#000000; stroke-width:118.11; stroke-opacity:1; 
stroke-linecap:round; stroke-linejoin:round;">
<path d="M104022 76293
L103825 76012
" />
<path d="M103684 76293
L103684 75703
L103909 75703
L103965 75731
L103994 75759
L104022 75815
L104022 75899
L103994 75956
L103965 75984
L103909 76012
L103684 76012
" />
<path d="M104500 76265
L104444 76293
L104331 76293
L104275 76265
L104247 76209
L104247 75984
L104275 75928
L104331 75899
L104444 75899
L104500 75928
L104528 75984
L104528 76040
L104247 76096
" />
<path d="M104725 75899
L104865 76293
L105006 75899
" />
<path d="M105231 76237
L105259 76265
L105231 76293
L105203 76265
L105231 76237
L105231 76293
" />
<path d="M105231 75928
L105259 75956
L105231 75984
L105203 75956
L105231 75928
L105231 75984
" />
</g>
<g style="fill:#000000; fill-opacity:0.0; 
stroke:#000000; stroke-width:39.3701; stroke-opacity:1; 
stroke-linecap:round; stroke-linejoin:round;">
</g>
<g style="fill:#000000; fill-opacity:0.0; 
stroke:#000000; stroke-width:59.0551; stroke-opacity:1; 
stroke-linecap:round; stroke-linejoin:round;">
<path d="M70192 76265
L70276 76293
L70417 76293
L70473 76265
L70501 76237
L70529 76181
L70529 76124
L70501 76068
L70473 76040
L70417 76012
L70304 75984
L70248 75956
L70220 75928
L70192 75871
L70192 75815
L70220 75759
L70248 75731
L70304 75703
L70445 75703
L70529 75731
" />
<path d="M70782 76293
L70782 75899
" />
<path d="M70782 75703
L70754 75731
L70782 75759
L70810 75731
L70782 75703
L70782 75759
" />
<path d="M71007 75899
L71316 75899
L71007 76293
L71316 76293
" />
<path d="M71766 76265
L71710 76293
L71598 76293
L71541 76265
L71513 76209
L71513 75984
L71541 75928
L71598 75899
L71710 75899
L71766 75928
L71795 75984
L71795 76040
L71513 76096
" />
<path d="M72048 76237
L72076 76265
L72048 76293
L72019 76265
L72048 76237
L72048 76293
" />
<path d="M72048 75928
L72076 75956
L72048 75984
L72019 75956
L72048 75928
L72048 75984
" />
<path d="M72751 76124
L73032 76124
" />
<path d="M72694 76293
L72891 75703
L73088 76293
" />
<path d="M73538 75899
L73538 76293
" />
<path d="M73397 75674
L73257 76096
L73622 76096
" />
</g>
<g style="fill:#000000; fill-opacity:0.0; 
stroke:#000000; stroke-width:39.3701; stroke-opacity:1; 
stroke-linecap:round; stroke-linejoin:round;">
</g>
<g style="fill:#000000; fill-opacity:0.0; 
stroke:#000000; stroke-width:59.0551; stroke-opacity:1; 
stroke-linecap:round; stroke-linejoin:round;">
<path d="M103684 77395
L103684 76805
" />
<path d="M104219 77395
L104219 76805
" />
<path d="M104219 77367
L104162 77395
L104050 77395
L103994 77367
L103965 77339
L103937 77283
L103937 77114
L103965 77058
L103994 77030
L104050 77002
L104162 77002
L104219 77030
" />
<path d="M104500 77339
L104528 77367
L104500 77395
L104472 77367
L104500 77339
L104500 77395
" />
<path d="M104500 77030
L104528 77058
L104500 77086
L104472 77058
L104500 77030
L104500 77086
" />
<path d="M105540 77395
L105203 77395
" />
<path d="M105372 77395
L105372 76805
L105315 76889
L105259 76946
L105203 76974
" />
<path d="M106215 76777
L105709 77536
" />
<path d="M106721 77395
L106384 77395
" />
<path d="M106553 77395
L106553 76805
L106496 76889
L106440 76946
L106384 76974
" />
</g>
<g style="fill:#000000; fill-opacity:0.0; 
stroke:#000000; stroke-width:39.3701; stroke-opacity:1; 
stroke-linecap:round; stroke-linejoin:round;">
</g>
<g style="fill:#000000; fill-opacity:0.0; 
stroke:#000000; stroke-width:59.0551; stroke-opacity:1; 
stroke-linecap:round; stroke-linejoin:round;">
<path d="M69685 73821
L112205 73821
" />
</g>
<g style="fill:#000000; fill-opacity:0.0; 
stroke:#000000; stroke-width:39.3701; stroke-opacity:1; 
stroke-linecap:round; stroke-linejoin:round;">
</g>
<g style="fill:#000000; fill-opacity:0.0; 
stroke:#000000; stroke-width:157.48; stroke-opacity:1; 
stroke-linecap:round; stroke-linejoin:round;">
<path d="M70257 74099
L70707 74099
" />
<path d="M70384 74886
L70482 74099
" />
<path d="M70871 74886
L70937 74361
" />
<path d="M70970 74099
L70927 74136
L70960 74174
L71002 74136
L70970 74099
L70960 74174
" />
<path d="M71199 74361
L71499 74361
" />
<path d="M71345 74099
L71260 74774
L71288 74849
L71359 74886
L71434 74886
" />
<path d="M71809 74886
L71738 74849
L71710 74774
L71795 74099
" />
<path d="M72413 74849
L72334 74886
L72184 74886
L72113 74849
L72085 74774
L72123 74474
L72169 74399
L72249 74361
L72399 74361
L72469 74399
L72498 74474
L72488 74549
L72104 74624
" />
<path d="M72793 74811
L72826 74849
L72783 74886
L72751 74849
L72793 74811
L72783 74886
" />
<path d="M72844 74399
L72877 74436
L72835 74474
L72802 74436
L72844 74399
L72835 74474
" />
</g>
<g style="fill:#000000; fill-opacity:0.0; 
stroke:#000000; stroke-width:39.3701; stroke-opacity:1; 
stroke-linecap:round; stroke-linejoin:round;">
</g>
<g style="fill:#000000; fill-opacity:0.0; 
stroke:#000000; stroke-width:59.0551; stroke-opacity:1; 
stroke-linecap:round; stroke-linejoin:round;">
<path d="M70417 73070
L70220 73070
" />
<path d="M70220 73380
L70220 72789
L70501 72789
" />
<path d="M70726 73380
L70726 72986
" />
<path d="M70726 72789
L70698 72817
L70726 72845
L70754 72817
L70726 72789
L70726 72845
" />
<path d="M71091 73380
L71035 73352
L71007 73295
L71007 72789
" />
<path d="M71541 73352
L71485 73380
L71373 73380
L71316 73352
L71288 73295
L71288 73070
L71316 73014
L71373 72986
L71485 72986
L71541 73014
L71570 73070
L71570 73127
L71288 73183
" />
<path d="M71823 73323
L71851 73352
L71823 73380
L71795 73352
L71823 73323
L71823 73380
" />
<path d="M71823 73014
L71851 73042
L71823 73070
L71795 73042
L71823 73014
L71823 73070
" />
<path d="M72554 72986
L72554 73577
" />
<path d="M72554 73014
L72610 72986
L72723 72986
L72779 73014
L72807 73042
L72835 73099
L72835 73267
L72807 73323
L72779 73352
L72723 73380
L72610 73380
L72554 73352
" />
<path d="M73088 73380
L73088 72986
" />
<path d="M73088 73099
L73116 73042
L73144 73014
L73201 72986
L73257 72986
" />
<path d="M73707 72986
L73707 73380
" />
<path d="M73454 72986
L73454 73295
L73482 73352
L73538 73380
L73622 73380
L73679 73352
L73707 73323
" />
<path d="M74213 73352
L74157 73380
L74044 73380
L73988 73352
L73960 73295
L73960 73070
L73988 73014
L74044 72986
L74157 72986
L74213 73014
L74241 73070
L74241 73127
L73960 73183
" />
<path d="M74494 73380
L74494 72789
" />
<path d="M74494 73014
L74550 72986
L74663 72986
L74719 73014
L74747 73042
L74775 73099
L74775 73267
L74747 73323
L74719 73352
L74663 73380
L74550 73380
L74494 73352
" />
<path d="M75282 73380
L75282 73070
L75253 73014
L75197 72986
L75085 72986
L75028 73014
" />
<path d="M75282 73352
L75225 73380
L75085 73380
L75028 73352
L75000 73295
L75000 73239
L75028 73183
L75085 73155
L75225 73155
L75282 73127
" />
<path d="M75563 73323
L75591 73352
L75563 73380
L75535 73352
L75563 73323
L75563 73380
" />
<path d="M75844 73380
L75844 72789
" />
<path d="M75900 73155
L76069 73380
" />
<path d="M76069 72986
L75844 73211
" />
<path d="M76322 73380
L76322 72986
" />
<path d="M76322 72789
L76294 72817
L76322 72845
L76350 72817
L76322 72789
L76322 72845
" />
<path d="M76856 73352
L76800 73380
L76688 73380
L76631 73352
L76603 73323
L76575 73267
L76575 73099
L76603 73042
L76631 73014
L76688 72986
L76800 72986
L76856 73014
" />
<path d="M77363 73380
L77363 73070
L77334 73014
L77278 72986
L77166 72986
L77109 73014
" />
<path d="M77363 73352
L77306 73380
L77166 73380
L77109 73352
L77081 73295
L77081 73239
L77109 73183
L77166 73155
L77306 73155
L77363 73127
" />
<path d="M77897 73380
L77897 72789
" />
<path d="M77897 73352
L77841 73380
L77728 73380
L77672 73352
L77644 73323
L77616 73267
L77616 73099
L77644 73042
L77672 73014
L77728 72986
L77841 72986
L77897 73014
" />
<path d="M78037 73436
L78487 73436
" />
<path d="M78628 72986
L78628 73577
" />
<path d="M78628 73014
L78684 72986
L78797 72986
L78853 73014
L78881 73042
L78909 73099
L78909 73267
L78881 73323
L78853 73352
L78797 73380
L78684 73380
L78628 73352
" />
<path d="M79415 73352
L79359 73380
L79247 73380
L79190 73352
L79162 73323
L79134 73267
L79134 73099
L79162 73042
L79190 73014
L79247 72986
L79359 72986
L79415 73014
" />
<path d="M79669 73380
L79669 72789
" />
<path d="M79669 73014
L79725 72986
L79837 72986
L79894 73014
L79922 73042
L79950 73099
L79950 73267
L79922 73323
L79894 73352
L79837 73380
L79725 73380
L79669 73352
" />
</g>
<g style="fill:#000000; fill-opacity:0.0; 
stroke:#000000; stroke-width:39.3701; stroke-opacity:1; 
stroke-linecap:round; stroke-linejoin:round;">
</g>
<g style="fill:#000000; fill-opacity:0.0; 
stroke:#000000; stroke-width:59.0551; stroke-opacity:1; 
stroke-linecap:round; stroke-linejoin:round;">
<path d="M69685 71459
L112205 71459
" />
</g>
<g style="fill:#000000; fill-opacity:0.0; 
stroke:#000000; stroke-width:39.3701; stroke-opacity:1; 
stroke-linecap:round; stroke-linejoin:round;">
</g>
<g style="fill:#000000; fill-opacity:0.0; 
stroke:#000000; stroke-width:59.0551; stroke-opacity:1; 
stroke-linecap:round; stroke-linejoin:round;">
<path d="M70192 72289
L70276 72317
L70417 72317
L70473 72289
L70501 72260
L70529 72204
L70529 72148
L70501 72092
L70473 72064
L70417 72036
L70304 72007
L70248 71979
L70220 71951
L70192 71895
L70192 71839
L70220 71782
L70248 71754
L70304 71726
L70445 71726
L70529 71754
" />
<path d="M70782 72317
L70782 71726
" />
<path d="M71035 72317
L71035 72007
L71007 71951
L70951 71923
L70867 71923
L70810 71951
L70782 71979
" />
<path d="M71541 72289
L71485 72317
L71373 72317
L71316 72289
L71288 72232
L71288 72007
L71316 71951
L71373 71923
L71485 71923
L71541 71951
L71570 72007
L71570 72064
L71288 72120
" />
<path d="M72048 72289
L71991 72317
L71879 72317
L71823 72289
L71795 72232
L71795 72007
L71823 71951
L71879 71923
L71991 71923
L72048 71951
L72076 72007
L72076 72064
L71795 72120
" />
<path d="M72244 71923
L72469 71923
" />
<path d="M72329 71726
L72329 72232
L72357 72289
L72413 72317
L72469 72317
" />
<path d="M72666 72260
L72694 72289
L72666 72317
L72638 72289
L72666 72260
L72666 72317
" />
<path d="M72666 71951
L72694 71979
L72666 72007
L72638 71979
L72666 71951
L72666 72007
" />
</g>
<g style="fill:#000000; fill-opacity:0.0; 
stroke:#000000; stroke-width:39.3701; stroke-opacity:1; 
stroke-linecap:round; stroke-linejoin:round;">
</g>
<g style="fill:#000000; fill-opacity:0.0; 
stroke:#000000; stroke-width:59.0551; stroke-opacity:1; 
stroke-linecap:round; stroke-linejoin:round;">
<path d="M77559 75396
L77559 76577
" />
</g>
<g style="fill:#000000; fill-opacity:0.0; 
stroke:#000000; stroke-width:39.3701; stroke-opacity:1; 
stroke-linecap:round; stroke-linejoin:round;">
</g>
<g style="fill:#000000; fill-opacity:0.0; 
stroke:#000000; stroke-width:59.0551; stroke-opacity:1; 
stroke-linecap:round; stroke-linejoin:round;">
<path d="M102756 75396
L102756 77955
" />
</g>
<g style="fill:#C2C200; fill-opacity:0.0; 
stroke:#C2C200; stroke-width:59.0551; stroke-opacity:1; 
stroke-linecap:round; stroke-linejoin:round;">
<path d="M41500 54000
L64500 54000
" />
<path d="M41500 18500
L41500 54000
" />
<path d="M42000 18500
L41500 18500
" />
<path d="M64500 18500
L42000 18500
" />
<path d="M64500 54000
L64500 18500
" />
<path d="M60746 36640
L60728 36659
L60671 36678
L60634 36678
L60578 36659
L60540 36621
L60521 36584
L60503 36509
L60503 36453
L60521 36378
L60540 36340
L60578 36303
L60634 36284
L60671 36284
L60728 36303
L60746 36321
" />
<path d="M61121 36678
L60896 36678
" />
<path d="M61009 36678
L61009 36284
L60971 36340
L60934 36378
L60896 36396
" />
<path d="M61253 36284
L61515 36284
L61346 36678
" />
<path d="M60746 37185
L60615 36998
" />
<path d="M60521 37185
L60521 36792
L60671 36792
L60709 36811
L60728 36829
L60746 36867
L60746 36923
L60728 36961
L60709 36979
L60671 36998
L60521 36998
" />
<path d="M61121 37185
L60896 37185
" />
<path d="M61009 37185
L61009 36792
L60971 36848
L60934 36886
L60896 36904
" />
<path d="M61309 37185
L61384 37185
L61421 37167
L61440 37148
L61478 37092
L61496 37017
L61496 36867
L61478 36829
L61459 36811
L61421 36792
L61346 36792
L61309 36811
L61290 36829
L61271 36867
L61271 36961
L61290 36998
L61309 37017
L61346 37035
L61421 37035
L61459 37017
L61478 36998
L61496 36961
" />
<path d="M60746 38185
L60615 37998
" />
<path d="M60521 38185
L60521 37792
L60671 37792
L60709 37811
L60728 37829
L60746 37867
L60746 37923
L60728 37961
L60709 37979
L60671 37998
L60521 37998
" />
<path d="M60896 37829
L60915 37811
L60953 37792
L61046 37792
L61084 37811
L61103 37829
L61121 37867
L61121 37904
L61103 37961
L60878 38185
L61121 38185
" />
<path d="M61496 38185
L61271 38185
" />
<path d="M61384 38185
L61384 37792
L61346 37848
L61309 37886
L61271 37904
" />
<path d="M60746 39640
L60728 39659
L60671 39678
L60634 39678
L60578 39659
L60540 39621
L60521 39584
L60503 39509
L60503 39453
L60521 39378
L60540 39340
L60578 39303
L60634 39284
L60671 39284
L60728 39303
L60746 39321
" />
<path d="M60896 39321
L60915 39303
L60953 39284
L61046 39284
L61084 39303
L61103 39321
L61121 39359
L61121 39396
L61103 39453
L60878 39678
L61121 39678
" />
<path d="M61365 39284
L61403 39284
L61440 39303
L61459 39321
L61478 39359
L61496 39434
L61496 39528
L61478 39603
L61459 39640
L61440 39659
L61403 39678
L61365 39678
L61328 39659
L61309 39640
L61290 39603
L61271 39528
L61271 39434
L61290 39359
L61309 39321
L61328 39303
L61365 39284
" />
</g>
<g style="fill:#008484; fill-opacity:0.0; 
stroke:#008484; stroke-width:59.0551; stroke-opacity:1; 
stroke-linecap:round; stroke-linejoin:round;">
</g>
<g style="fill:#008484; fill-opacity:0.0; 
stroke:#008484; stroke-width:100; stroke-opacity:1; 
stroke-linecap:round; stroke-linejoin:round;">
<path d="M63226 38758
L63631 38758
L63679 38734
L63702 38711
L63726 38663
L63726 38568
L63702 38520
L63679 38496
L63631 38472
L63226 38472
" />
<path d="M63441 38163
L63417 38211
L63393 38234
L63345 38258
L63321 38258
L63274 38234
L63250 38211
L63226 38163
L63226 38068
L63250 38020
L63274 37996
L63321 37972
L63345 37972
L63393 37996
L63417 38020
L63441 38068
L63441 38163
L63464 38211
L63488 38234
L63536 38258
L63631 38258
L63679 38234
L63702 38211
L63726 38163
L63726 38068
L63702 38020
L63679 37996
L63631 37972
L63536 37972
L63488 37996
L63464 38020
L63441 38068
" />
<path d="M42225 41003
L42630 41003
L42678 40979
L42701 40955
L42725 40908
L42725 40812
L42701 40765
L42678 40741
L42630 40717
L42225 40717
" />
<path d="M42225 40527
L42225 40193
L42725 40408
" />
</g>
<g style="fill:#C2C200; fill-opacity:0.0; 
stroke:#C2C200; stroke-width:100; stroke-opacity:1; 
stroke-linecap:round; stroke-linejoin:round;">
</g>
<g style="fill:#C2C200; fill-opacity:0.0; 
stroke:#C2C200; stroke-width:59.0551; stroke-opacity:1; 
stroke-linecap:round; stroke-linejoin:round;">
<path d="M45140 40253
L45159 40271
L45178 40328
L45178 40365
L45159 40421
L45121 40459
L45084 40478
L45009 40496
L44953 40496
L44878 40478
L44840 40459
L44803 40421
L44784 40365
L44784 40328
L44803 40271
L44821 40253
" />
<path d="M45178 39878
L45178 40103
" />
<path d="M45178 39990
L44784 39990
L44840 40028
L44878 40065
L44896 40103
" />
<path d="M45178 39690
L45178 39615
L45159 39578
L45140 39559
L45084 39521
L45009 39503
L44859 39503
L44821 39521
L44803 39540
L44784 39578
L44784 39653
L44803 39690
L44821 39709
L44859 39728
L44953 39728
L44990 39709
L45009 39690
L45028 39653
L45028 39578
L45009 39540
L44990 39521
L44953 39503
" />
<path d="M45246 39640
L45228 39659
L45171 39678
L45134 39678
L45078 39659
L45040 39621
L45021 39584
L45003 39509
L45003 39453
L45021 39378
L45040 39340
L45078 39303
L45134 39284
L45171 39284
L45228 39303
L45246 39321
" />
<path d="M45621 39678
L45396 39678
" />
<path d="M45509 39678
L45509 39284
L45471 39340
L45434 39378
L45396 39396
" />
<path d="M45846 39453
L45809 39434
L45790 39415
L45771 39378
L45771 39359
L45790 39321
L45809 39303
L45846 39284
L45921 39284
L45959 39303
L45978 39321
L45996 39359
L45996 39378
L45978 39415
L45959 39434
L45921 39453
L45846 39453
L45809 39471
L45790 39490
L45771 39528
L45771 39603
L45790 39640
L45809 39659
L45846 39678
L45921 39678
L45959 39659
L45978 39640
L45996 39603
L45996 39528
L45978 39490
L45959 39471
L45921 39453
" />
<path d="M44246 42185
L44115 41998
" />
<path d="M44021 42185
L44021 41792
L44171 41792
L44209 41811
L44228 41829
L44246 41867
L44246 41923
L44228 41961
L44209 41979
L44171 41998
L44021 41998
" />
<path d="M44396 41829
L44415 41811
L44453 41792
L44546 41792
L44584 41811
L44603 41829
L44621 41867
L44621 41904
L44603 41961
L44378 42185
L44621 42185
" />
<path d="M44865 41792
L44903 41792
L44940 41811
L44959 41829
L44978 41867
L44996 41942
L44996 42035
L44978 42110
L44959 42148
L44940 42167
L44903 42185
L44865 42185
L44828 42167
L44809 42148
L44790 42110
L44771 42035
L44771 41942
L44790 41867
L44809 41829
L44828 41811
L44865 41792
" />
<path d="M44185 41253
L43998 41384
" />
<path d="M44185 41478
L43792 41478
L43792 41328
L43811 41290
L43829 41271
L43867 41253
L43923 41253
L43961 41271
L43979 41290
L43998 41328
L43998 41478
" />
<path d="M43829 41103
L43811 41084
L43792 41046
L43792 40953
L43811 40915
L43829 40896
L43867 40878
L43904 40878
L43961 40896
L44185 41121
L44185 40878
" />
<path d="M43829 40728
L43811 40709
L43792 40671
L43792 40578
L43811 40540
L43829 40521
L43867 40503
L43904 40503
L43961 40521
L44185 40746
L44185 40503
" />
<path d="M59435 53503
L59248 53634
" />
<path d="M59435 53728
L59042 53728
L59042 53578
L59061 53540
L59079 53521
L59117 53503
L59173 53503
L59211 53521
L59229 53540
L59248 53578
L59248 53728
" />
<path d="M59435 53128
L59435 53353
" />
<path d="M59435 53240
L59042 53240
L59098 53278
L59136 53315
L59154 53353
" />
<path d="M59042 52771
L59042 52959
L59229 52978
L59211 52959
L59192 52921
L59192 52828
L59211 52790
L59229 52771
L59267 52753
L59360 52753
L59398 52771
L59417 52790
L59435 52828
L59435 52921
L59417 52959
L59398 52978
" />
<path d="M62443 52540
L62050 52540
L62050 52446
L62068 52390
L62106 52353
L62143 52334
L62218 52315
L62275 52315
L62350 52334
L62387 52353
L62425 52390
L62443 52446
L62443 52540
" />
<path d="M62050 51959
L62050 52146
L62237 52165
L62218 52146
L62200 52109
L62200 52015
L62218 51978
L62237 51959
L62275 51940
L62368 51940
L62406 51959
L62425 51978
L62443 52015
L62443 52109
L62425 52146
L62406 52165
" />
<path d="M53934 49140
L53915 49159
L53859 49178
L53821 49178
L53765 49159
L53728 49121
L53709 49084
L53690 49009
L53690 48953
L53709 48878
L53728 48840
L53765 48803
L53821 48784
L53859 48784
L53915 48803
L53934 48821
" />
<path d="M54309 49178
L54084 49178
" />
<path d="M54196 49178
L54196 48784
L54159 48840
L54121 48878
L54084 48896
" />
<path d="M55934 49640
L55915 49659
L55859 49678
L55821 49678
L55765 49659
L55728 49621
L55709 49584
L55690 49509
L55690 49453
L55709 49378
L55728 49340
L55765 49303
L55821 49284
L55859 49284
L55915 49303
L55934 49321
" />
<path d="M56084 49321
L56103 49303
L56140 49284
L56234 49284
L56271 49303
L56290 49321
L56309 49359
L56309 49396
L56290 49453
L56065 49678
L56309 49678
" />
<path d="M55934 50140
L55915 50159
L55859 50178
L55821 50178
L55765 50159
L55728 50121
L55709 50084
L55690 50009
L55690 49953
L55709 49878
L55728 49840
L55765 49803
L55821 49784
L55859 49784
L55915 49803
L55934 49821
" />
<path d="M56065 49784
L56309 49784
L56178 49934
L56234 49934
L56271 49953
L56290 49971
L56309 50009
L56309 50103
L56290 50140
L56271 50159
L56234 50178
L56121 50178
L56084 50159
L56065 50140
" />
<path d="M49934 21640
L49915 21659
L49859 21678
L49821 21678
L49765 21659
L49728 21621
L49709 21584
L49690 21509
L49690 21453
L49709 21378
L49728 21340
L49765 21303
L49821 21284
L49859 21284
L49915 21303
L49934 21321
" />
<path d="M50271 21415
L50271 21678
" />
<path d="M50178 21265
L50084 21546
L50328 21546
" />
<path d="M51934 21640
L51915 21659
L51859 21678
L51821 21678
L51765 21659
L51728 21621
L51709 21584
L51690 21509
L51690 21453
L51709 21378
L51728 21340
L51765 21303
L51821 21284
L51859 21284
L51915 21303
L51934 21321
" />
<path d="M52290 21284
L52103 21284
L52084 21471
L52103 21453
L52140 21434
L52234 21434
L52271 21453
L52290 21471
L52309 21509
L52309 21603
L52290 21640
L52271 21659
L52234 21678
L52140 21678
L52103 21659
L52084 21640
" />
<path d="M52140 50065
L52159 50084
L52178 50140
L52178 50178
L52159 50234
L52121 50271
L52084 50290
L52009 50309
L51953 50309
L51878 50290
L51840 50271
L51803 50234
L51784 50178
L51784 50140
L51803 50084
L51821 50065
" />
<path d="M51784 49728
L51784 49803
L51803 49840
L51821 49859
L51878 49896
L51953 49915
L52103 49915
L52140 49896
L52159 49878
L52178 49840
L52178 49765
L52159 49728
L52140 49709
L52103 49690
L52009 49690
L51971 49709
L51953 49728
L51934 49765
L51934 49840
L51953 49878
L51971 49896
L52009 49915
" />
<path d="M51140 50065
L51159 50084
L51178 50140
L51178 50178
L51159 50234
L51121 50271
L51084 50290
L51009 50309
L50953 50309
L50878 50290
L50840 50271
L50803 50234
L50784 50178
L50784 50140
L50803 50084
L50821 50065
" />
<path d="M50784 49934
L50784 49671
L51178 49840
" />
<path d="M52934 47640
L52915 47659
L52859 47678
L52821 47678
L52765 47659
L52728 47621
L52709 47584
L52690 47509
L52690 47453
L52709 47378
L52728 47340
L52765 47303
L52821 47284
L52859 47284
L52915 47303
L52934 47321
" />
<path d="M53159 47453
L53121 47434
L53103 47415
L53084 47378
L53084 47359
L53103 47321
L53121 47303
L53159 47284
L53234 47284
L53271 47303
L53290 47321
L53309 47359
L53309 47378
L53290 47415
L53271 47434
L53234 47453
L53159 47453
L53121 47471
L53103 47490
L53084 47528
L53084 47603
L53103 47640
L53121 47659
L53159 47678
L53234 47678
L53271 47659
L53290 47640
L53309 47603
L53309 47528
L53290 47490
L53271 47471
L53234 47453
" />
<path d="M51934 46640
L51915 46659
L51859 46678
L51821 46678
L51765 46659
L51728 46621
L51709 46584
L51690 46509
L51690 46453
L51709 46378
L51728 46340
L51765 46303
L51821 46284
L51859 46284
L51915 46303
L51934 46321
" />
<path d="M52121 46678
L52196 46678
L52234 46659
L52253 46640
L52290 46584
L52309 46509
L52309 46359
L52290 46321
L52271 46303
L52234 46284
L52159 46284
L52121 46303
L52103 46321
L52084 46359
L52084 46453
L52103 46490
L52121 46509
L52159 46528
L52234 46528
L52271 46509
L52290 46490
L52309 46453
" />
<path d="M51746 46140
L51728 46159
L51671 46178
L51634 46178
L51578 46159
L51540 46121
L51521 46084
L51503 46009
L51503 45953
L51521 45878
L51540 45840
L51578 45803
L51634 45784
L51671 45784
L51728 45803
L51746 45821
" />
<path d="M52121 46178
L51896 46178
" />
<path d="M52009 46178
L52009 45784
L51971 45840
L51934 45878
L51896 45896
" />
<path d="M52365 45784
L52403 45784
L52440 45803
L52459 45821
L52478 45859
L52496 45934
L52496 46028
L52478 46103
L52459 46140
L52440 46159
L52403 46178
L52365 46178
L52328 46159
L52309 46140
L52290 46103
L52271 46028
L52271 45934
L52290 45859
L52309 45821
L52328 45803
L52365 45784
" />
<path d="M46246 49140
L46228 49159
L46171 49178
L46134 49178
L46078 49159
L46040 49121
L46021 49084
L46003 49009
L46003 48953
L46021 48878
L46040 48840
L46078 48803
L46134 48784
L46171 48784
L46228 48803
L46246 48821
" />
<path d="M46621 49178
L46396 49178
" />
<path d="M46509 49178
L46509 48784
L46471 48840
L46434 48878
L46396 48896
" />
<path d="M46996 49178
L46771 49178
" />
<path d="M46884 49178
L46884 48784
L46846 48840
L46809 48878
L46771 48896
" />
<path d="M48746 47640
L48728 47659
L48671 47678
L48634 47678
L48578 47659
L48540 47621
L48521 47584
L48503 47509
L48503 47453
L48521 47378
L48540 47340
L48578 47303
L48634 47284
L48671 47284
L48728 47303
L48746 47321
" />
<path d="M49121 47678
L48896 47678
" />
<path d="M49009 47678
L49009 47284
L48971 47340
L48934 47378
L48896 47396
" />
<path d="M49271 47321
L49290 47303
L49328 47284
L49421 47284
L49459 47303
L49478 47321
L49496 47359
L49496 47396
L49478 47453
L49253 47678
L49496 47678
" />
<path d="M47246 50140
L47228 50159
L47171 50178
L47134 50178
L47078 50159
L47040 50121
L47021 50084
L47003 50009
L47003 49953
L47021 49878
L47040 49840
L47078 49803
L47134 49784
L47171 49784
L47228 49803
L47246 49821
" />
<path d="M47621 50178
L47396 50178
" />
<path d="M47509 50178
L47509 49784
L47471 49840
L47434 49878
L47396 49896
" />
<path d="M47753 49784
L47996 49784
L47865 49934
L47921 49934
L47959 49953
L47978 49971
L47996 50009
L47996 50103
L47978 50140
L47959 50159
L47921 50178
L47809 50178
L47771 50159
L47753 50140
" />
<path d="M55246 42640
L55228 42659
L55171 42678
L55134 42678
L55078 42659
L55040 42621
L55021 42584
L55003 42509
L55003 42453
L55021 42378
L55040 42340
L55078 42303
L55134 42284
L55171 42284
L55228 42303
L55246 42321
" />
<path d="M55621 42678
L55396 42678
" />
<path d="M55509 42678
L55509 42284
L55471 42340
L55434 42378
L55396 42396
" />
<path d="M55959 42415
L55959 42678
" />
<path d="M55865 42265
L55771 42546
L56015 42546
" />
<path d="M52246 40640
L52228 40659
L52171 40678
L52134 40678
L52078 40659
L52040 40621
L52021 40584
L52003 40509
L52003 40453
L52021 40378
L52040 40340
L52078 40303
L52134 40284
L52171 40284
L52228 40303
L52246 40321
" />
<path d="M52621 40678
L52396 40678
" />
<path d="M52509 40678
L52509 40284
L52471 40340
L52434 40378
L52396 40396
" />
<path d="M52978 40284
L52790 40284
L52771 40471
L52790 40453
L52828 40434
L52921 40434
L52959 40453
L52978 40471
L52996 40509
L52996 40603
L52978 40640
L52959 40659
L52921 40678
L52828 40678
L52790 40659
L52771 40640
" />
<path d="M57746 42640
L57728 42659
L57671 42678
L57634 42678
L57578 42659
L57540 42621
L57521 42584
L57503 42509
L57503 42453
L57521 42378
L57540 42340
L57578 42303
L57634 42284
L57671 42284
L57728 42303
L57746 42321
" />
<path d="M58121 42678
L57896 42678
" />
<path d="M58009 42678
L58009 42284
L57971 42340
L57934 42378
L57896 42396
" />
<path d="M58459 42284
L58384 42284
L58346 42303
L58328 42321
L58290 42378
L58271 42453
L58271 42603
L58290 42640
L58309 42659
L58346 42678
L58421 42678
L58459 42659
L58478 42640
L58496 42603
L58496 42509
L58478 42471
L58459 42453
L58421 42434
L58346 42434
L58309 42453
L58290 42471
L58271 42509
" />
<path d="M52126 53290
L51733 53290
L51733 53196
L51751 53140
L51789 53103
L51826 53084
L51901 53065
L51958 53065
L52033 53084
L52070 53103
L52108 53140
L52126 53196
L52126 53290
" />
<path d="M52126 52690
L52126 52915
" />
<path d="M52126 52803
L51733 52803
L51789 52840
L51826 52878
L51845 52915
" />
<path d="M50209 48126
L50209 47733
L50303 47733
L50359 47751
L50396 47789
L50415 47826
L50434 47901
L50434 47958
L50415 48033
L50396 48070
L50359 48108
L50303 48126
L50209 48126
" />
<path d="M50584 47770
L50603 47751
L50640 47733
L50734 47733
L50771 47751
L50790 47770
L50809 47808
L50809 47845
L50790 47901
L50565 48126
L50809 48126
" />
<path d="M62443 47540
L62050 47540
L62050 47446
L62068 47390
L62106 47353
L62143 47334
L62218 47315
L62275 47315
L62350 47334
L62387 47353
L62425 47390
L62443 47446
L62443 47540
" />
<path d="M62050 47184
L62050 46940
L62200 47071
L62200 47015
L62218 46978
L62237 46959
L62275 46940
L62368 46940
L62406 46959
L62425 46978
L62443 47015
L62443 47128
L62425 47165
L62406 47184
" />
<path d="M62443 45040
L62050 45040
L62050 44946
L62068 44890
L62106 44853
L62143 44834
L62218 44815
L62275 44815
L62350 44834
L62387 44853
L62425 44890
L62443 44946
L62443 45040
" />
<path d="M62181 44478
L62443 44478
" />
<path d="M62031 44571
L62312 44665
L62312 44421
" />
<path d="M62443 42540
L62050 42540
L62050 42446
L62068 42390
L62106 42353
L62143 42334
L62218 42315
L62275 42315
L62350 42334
L62387 42353
L62425 42390
L62443 42446
L62443 42540
" />
<path d="M62050 41978
L62050 42053
L62068 42090
L62087 42109
L62143 42146
L62218 42165
L62368 42165
L62406 42146
L62425 42128
L62443 42090
L62443 42015
L62425 41978
L62406 41959
L62368 41940
L62275 41940
L62237 41959
L62218 41978
L62200 42015
L62200 42090
L62218 42128
L62237 42146
L62275 42165
" />
<path d="M62443 50040
L62050 50040
L62050 49946
L62068 49890
L62106 49853
L62143 49834
L62218 49815
L62275 49815
L62350 49834
L62387 49853
L62425 49890
L62443 49946
L62443 50040
" />
<path d="M62050 49684
L62050 49421
L62443 49590
" />
<path d="M41760 49615
L41367 49615
" />
<path d="M41554 49615
L41554 49390
" />
<path d="M41760 49390
L41367 49390
" />
<path d="M41742 49053
L41760 49090
L41760 49165
L41742 49203
L41704 49221
L41554 49221
L41517 49203
L41498 49165
L41498 49090
L41517 49053
L41554 49034
L41592 49034
L41629 49221
" />
<path d="M41760 48696
L41554 48696
L41517 48715
L41498 48753
L41498 48828
L41517 48865
" />
<path d="M41742 48696
L41760 48734
L41760 48828
L41742 48865
L41704 48884
L41667 48884
L41629 48865
L41610 48828
L41610 48734
L41592 48696
" />
<path d="M41760 48340
L41367 48340
" />
<path d="M41742 48340
L41760 48378
L41760 48453
L41742 48490
L41723 48509
L41685 48528
L41573 48528
L41535 48509
L41517 48490
L41498 48453
L41498 48378
L41517 48340
" />
<path d="M41742 48003
L41760 48040
L41760 48115
L41742 48153
L41704 48171
L41554 48171
L41517 48153
L41498 48115
L41498 48040
L41517 48003
L41554 47984
L41592 47984
L41629 48171
" />
<path d="M41760 47815
L41498 47815
" />
<path d="M41573 47815
L41535 47796
L41517 47778
L41498 47740
L41498 47703
" />
<path d="M41760 47365
L41760 47590
" />
<path d="M41760 47478
L41367 47478
L41423 47515
L41460 47553
L41479 47590
" />
</g>
<g style="fill:#008484; fill-opacity:0.0; 
stroke:#008484; stroke-width:59.0551; stroke-opacity:1; 
stroke-linecap:round; stroke-linejoin:round;">
</g>
<g style="fill:#008484; fill-opacity:0.0; 
stroke:#008484; stroke-width:19.685; stroke-opacity:1; 
stroke-linecap:round; stroke-linejoin:round;">
<path d="M52724 52883
L52724 53003
L52471 53003
" />
<path d="M52724 52667
L52724 52811
" />
<path d="M52724 52739
L52471 52739
L52508 52763
L52532 52787
L52544 52811
" />
<path d="M52270 53113
L52270 53155
" />
<path d="M52336 53155
L52210 53155
L52210 53095
" />
<path d="M52330 52999
L52336 53011
L52336 53035
L52330 53047
L52318 53053
L52270 53053
L52258 53047
L52252 53035
L52252 53011
L52258 52999
L52270 52993
L52282 52993
L52294 53053
" />
<path d="M52336 52939
L52252 52939
" />
<path d="M52276 52939
L52264 52933
L52258 52927
L52252 52915
L52252 52903
" />
<path d="M52336 52861
L52252 52861
" />
<path d="M52276 52861
L52264 52855
L52258 52849
L52252 52837
L52252 52825
" />
<path d="M52336 52783
L52252 52783
" />
<path d="M52210 52783
L52216 52789
L52222 52783
L52216 52777
L52210 52783
L52222 52783
" />
<path d="M52252 52741
L52252 52693
" />
<path d="M52210 52723
L52318 52723
L52330 52717
L52336 52705
L52336 52693
" />
<path d="M52330 52603
L52336 52615
L52336 52639
L52330 52651
L52318 52657
L52270 52657
L52258 52651
L52252 52639
L52252 52615
L52258 52603
L52270 52597
L52282 52597
L52294 52657
" />
<path d="M52348 52573
L52348 52477
" />
<path d="M52270 52405
L52276 52387
L52282 52381
L52294 52375
L52312 52375
L52324 52381
L52330 52387
L52336 52399
L52336 52447
L52210 52447
L52210 52405
L52216 52393
L52222 52387
L52234 52381
L52246 52381
L52258 52387
L52264 52393
L52270 52405
L52270 52447
" />
<path d="M52330 52273
L52336 52285
L52336 52309
L52330 52321
L52318 52327
L52270 52327
L52258 52321
L52252 52309
L52252 52285
L52258 52273
L52270 52267
L52282 52267
L52294 52327
" />
<path d="M52336 52159
L52270 52159
L52258 52165
L52252 52177
L52252 52201
L52258 52213
" />
<path d="M52330 52159
L52336 52171
L52336 52201
L52330 52213
L52318 52219
L52306 52219
L52294 52213
L52288 52201
L52288 52171
L52282 52159
" />
<path d="M52336 52045
L52210 52045
" />
<path d="M52330 52045
L52336 52057
L52336 52081
L52330 52093
L52324 52099
L52312 52105
L52276 52105
L52264 52099
L52258 52093
L52252 52081
L52252 52057
L52258 52045
" />
</g>
<g style="fill:#C2C200; fill-opacity:0.0; 
stroke:#C2C200; stroke-width:19.685; stroke-opacity:1; 
stroke-linecap:round; stroke-linejoin:round;">
</g>
<g style="fill:#C2C200; fill-opacity:0.0; 
stroke:#C2C200; stroke-width:59.0551; stroke-opacity:1; 
stroke-linecap:round; stroke-linejoin:round;">
<path d="M54685 46565
L54498 46696
" />
<path d="M54685 46790
L54292 46790
L54292 46640
L54311 46603
L54329 46584
L54367 46565
L54423 46565
L54461 46584
L54479 46603
L54498 46640
L54498 46790
" />
<path d="M54685 46190
L54685 46415
" />
<path d="M54685 46303
L54292 46303
L54348 46340
L54386 46378
L54404 46415
" />
<path d="M56434 47685
L56303 47498
" />
<path d="M56209 47685
L56209 47292
L56359 47292
L56396 47311
L56415 47329
L56434 47367
L56434 47423
L56415 47461
L56396 47479
L56359 47498
L56209 47498
" />
<path d="M56584 47329
L56603 47311
L56640 47292
L56734 47292
L56771 47311
L56790 47329
L56809 47367
L56809 47404
L56790 47461
L56565 47685
L56809 47685
" />
<path d="M56434 47185
L56303 46998
" />
<path d="M56209 47185
L56209 46792
L56359 46792
L56396 46811
L56415 46829
L56434 46867
L56434 46923
L56415 46961
L56396 46979
L56359 46998
L56209 46998
" />
<path d="M56565 46792
L56809 46792
L56678 46942
L56734 46942
L56771 46961
L56790 46979
L56809 47017
L56809 47110
L56790 47148
L56771 47167
L56734 47185
L56621 47185
L56584 47167
L56565 47148
" />
<path d="M54934 50170
L54803 49982
" />
<path d="M54709 50170
L54709 49776
L54859 49776
L54896 49795
L54915 49814
L54934 49851
L54934 49907
L54915 49945
L54896 49964
L54859 49982
L54709 49982
" />
<path d="M55271 49907
L55271 50170
" />
<path d="M55178 49757
L55084 50038
L55328 50038
" />
<path d="M48934 21685
L48803 21498
" />
<path d="M48709 21685
L48709 21292
L48859 21292
L48896 21311
L48915 21329
L48934 21367
L48934 21423
L48915 21461
L48896 21479
L48859 21498
L48709 21498
" />
<path d="M49290 21292
L49103 21292
L49084 21479
L49103 21461
L49140 21442
L49234 21442
L49271 21461
L49290 21479
L49309 21517
L49309 21610
L49290 21648
L49271 21667
L49234 21685
L49140 21685
L49103 21667
L49084 21648
" />
<path d="M50934 21685
L50803 21498
" />
<path d="M50709 21685
L50709 21292
L50859 21292
L50896 21311
L50915 21329
L50934 21367
L50934 21423
L50915 21461
L50896 21479
L50859 21498
L50709 21498
" />
<path d="M51271 21292
L51196 21292
L51159 21311
L51140 21329
L51103 21386
L51084 21461
L51084 21610
L51103 21648
L51121 21667
L51159 21685
L51234 21685
L51271 21667
L51290 21648
L51309 21610
L51309 21517
L51290 21479
L51271 21461
L51234 21442
L51159 21442
L51121 21461
L51103 21479
L51084 21517
" />
<path d="M48185 48565
L47998 48696
" />
<path d="M48185 48790
L47792 48790
L47792 48640
L47811 48603
L47829 48584
L47867 48565
L47923 48565
L47961 48584
L47979 48603
L47998 48640
L47998 48790
" />
<path d="M47792 48434
L47792 48171
L48185 48340
" />
<path d="M48934 49185
L48803 48998
" />
<path d="M48709 49185
L48709 48792
L48859 48792
L48896 48811
L48915 48829
L48934 48867
L48934 48923
L48915 48961
L48896 48979
L48859 48998
L48709 48998
" />
<path d="M49159 48961
L49121 48942
L49103 48923
L49084 48886
L49084 48867
L49103 48829
L49121 48811
L49159 48792
L49234 48792
L49271 48811
L49290 48829
L49309 48867
L49309 48886
L49290 48923
L49271 48942
L49234 48961
L49159 48961
L49121 48979
L49103 48998
L49084 49035
L49084 49110
L49103 49148
L49121 49167
L49159 49185
L49234 49185
L49271 49167
L49290 49148
L49309 49110
L49309 49035
L49290 48998
L49271 48979
L49234 48961
" />
<path d="M55185 37065
L54998 37196
" />
<path d="M55185 37290
L54792 37290
L54792 37140
L54811 37103
L54829 37084
L54867 37065
L54923 37065
L54961 37084
L54979 37103
L54998 37140
L54998 37290
" />
<path d="M55185 36878
L55185 36803
L55167 36765
L55148 36746
L55092 36709
L55017 36690
L54867 36690
L54829 36709
L54811 36728
L54792 36765
L54792 36840
L54811 36878
L54829 36896
L54867 36915
L54961 36915
L54998 36896
L55017 36878
L55035 36840
L55035 36765
L55017 36728
L54998 36709
L54961 36690
" />
<path d="M54685 37253
L54498 37384
" />
<path d="M54685 37478
L54292 37478
L54292 37328
L54311 37290
L54329 37271
L54367 37253
L54423 37253
L54461 37271
L54479 37290
L54498 37328
L54498 37478
" />
<path d="M54685 36878
L54685 37103
" />
<path d="M54685 36990
L54292 36990
L54348 37028
L54386 37065
L54404 37103
" />
<path d="M54292 36634
L54292 36596
L54311 36559
L54329 36540
L54367 36521
L54442 36503
L54535 36503
L54610 36521
L54648 36540
L54667 36559
L54685 36596
L54685 36634
L54667 36671
L54648 36690
L54610 36709
L54535 36728
L54442 36728
L54367 36709
L54329 36690
L54311 36671
L54292 36634
" />
<path d="M63428 24003
L63240 24134
" />
<path d="M63428 24228
L63034 24228
L63034 24078
L63053 24040
L63071 24021
L63109 24003
L63165 24003
L63203 24021
L63221 24040
L63240 24078
L63240 24228
" />
<path d="M63428 23628
L63428 23853
" />
<path d="M63428 23740
L63034 23740
L63090 23778
L63128 23815
L63146 23853
" />
<path d="M63428 23253
L63428 23478
" />
<path d="M63428 23365
L63034 23365
L63090 23403
L63128 23440
L63146 23478
" />
<path d="M58685 24253
L58498 24384
" />
<path d="M58685 24478
L58292 24478
L58292 24328
L58311 24290
L58329 24271
L58367 24253
L58423 24253
L58461 24271
L58479 24290
L58498 24328
L58498 24478
" />
<path d="M58685 23878
L58685 24103
" />
<path d="M58685 23990
L58292 23990
L58348 24028
L58386 24065
L58404 24103
" />
<path d="M58329 23728
L58311 23709
L58292 23671
L58292 23578
L58311 23540
L58329 23521
L58367 23503
L58404 23503
L58461 23521
L58685 23746
L58685 23503
" />
<path d="M59435 48503
L59248 48634
" />
<path d="M59435 48728
L59042 48728
L59042 48578
L59061 48540
L59079 48521
L59117 48503
L59173 48503
L59211 48521
L59229 48540
L59248 48578
L59248 48728
" />
<path d="M59435 48128
L59435 48353
" />
<path d="M59435 48240
L59042 48240
L59098 48278
L59136 48315
L59154 48353
" />
<path d="M59042 47996
L59042 47753
L59192 47884
L59192 47828
L59211 47790
L59229 47771
L59267 47753
L59360 47753
L59398 47771
L59417 47790
L59435 47828
L59435 47940
L59417 47978
L59398 47996
" />
<path d="M59435 46003
L59248 46134
" />
<path d="M59435 46228
L59042 46228
L59042 46078
L59061 46040
L59079 46021
L59117 46003
L59173 46003
L59211 46021
L59229 46040
L59248 46078
L59248 46228
" />
<path d="M59435 45628
L59435 45853
" />
<path d="M59435 45740
L59042 45740
L59098 45778
L59136 45815
L59154 45853
" />
<path d="M59173 45290
L59435 45290
" />
<path d="M59023 45384
L59304 45478
L59304 45234
" />
<path d="M59435 43503
L59248 43634
" />
<path d="M59435 43728
L59042 43728
L59042 43578
L59061 43540
L59079 43521
L59117 43503
L59173 43503
L59211 43521
L59229 43540
L59248 43578
L59248 43728
" />
<path d="M59435 43128
L59435 43353
" />
<path d="M59435 43240
L59042 43240
L59098 43278
L59136 43315
L59154 43353
" />
<path d="M59042 42790
L59042 42865
L59061 42903
L59079 42921
L59136 42959
L59211 42978
L59360 42978
L59398 42959
L59417 42940
L59435 42903
L59435 42828
L59417 42790
L59398 42771
L59360 42753
L59267 42753
L59229 42771
L59211 42790
L59192 42828
L59192 42903
L59211 42940
L59229 42959
L59267 42978
" />
<path d="M59435 51003
L59248 51134
" />
<path d="M59435 51228
L59042 51228
L59042 51078
L59061 51040
L59079 51021
L59117 51003
L59173 51003
L59211 51021
L59229 51040
L59248 51078
L59248 51228
" />
<path d="M59435 50628
L59435 50853
" />
<path d="M59435 50740
L59042 50740
L59098 50778
L59136 50815
L59154 50853
" />
<path d="M59042 50496
L59042 50234
L59435 50403
" />
<path d="M51246 41685
L51115 41498
" />
<path d="M51021 41685
L51021 41292
L51171 41292
L51209 41311
L51228 41329
L51246 41367
L51246 41423
L51228 41461
L51209 41479
L51171 41498
L51021 41498
" />
<path d="M51621 41685
L51396 41685
" />
<path d="M51509 41685
L51509 41292
L51471 41348
L51434 41386
L51396 41404
" />
<path d="M51846 41461
L51809 41442
L51790 41423
L51771 41386
L51771 41367
L51790 41329
L51809 41311
L51846 41292
L51921 41292
L51959 41311
L51978 41329
L51996 41367
L51996 41386
L51978 41423
L51959 41442
L51921 41461
L51846 41461
L51809 41479
L51790 41498
L51771 41535
L51771 41610
L51790 41648
L51809 41667
L51846 41685
L51921 41685
L51959 41667
L51978 41648
L51996 41610
L51996 41535
L51978 41498
L51959 41479
L51921 41461
" />
<path d="M56185 43253
L55998 43384
" />
<path d="M56185 43478
L55792 43478
L55792 43328
L55811 43290
L55829 43271
L55867 43253
L55923 43253
L55961 43271
L55979 43290
L55998 43328
L55998 43478
" />
<path d="M55829 43103
L55811 43084
L55792 43046
L55792 42953
L55811 42915
L55829 42896
L55867 42878
L55904 42878
L55961 42896
L56185 43121
L56185 42878
" />
<path d="M55792 42746
L55792 42503
L55942 42634
L55942 42578
L55961 42540
L55979 42521
L56017 42503
L56110 42503
L56148 42521
L56167 42540
L56185 42578
L56185 42690
L56167 42728
L56148 42746
" />
<path d="M56685 43253
L56498 43384
" />
<path d="M56685 43478
L56292 43478
L56292 43328
L56311 43290
L56329 43271
L56367 43253
L56423 43253
L56461 43271
L56479 43290
L56498 43328
L56498 43478
" />
<path d="M56329 43103
L56311 43084
L56292 43046
L56292 42953
L56311 42915
L56329 42896
L56367 42878
L56404 42878
L56461 42896
L56685 43121
L56685 42878
" />
<path d="M56423 42540
L56685 42540
" />
<path d="M56273 42634
L56554 42728
L56554 42484
" />
</g>
<g style="fill:#008484; fill-opacity:0.0; 
stroke:#008484; stroke-width:59.0551; stroke-opacity:1; 
stroke-linecap:round; stroke-linejoin:round;">
</g>
<g style="fill:#008484; fill-opacity:0.0; 
stroke:#008484; stroke-width:19.685; stroke-opacity:1; 
stroke-linecap:round; stroke-linejoin:round;">
<path d="M47891 36359
L48011 36400
L48213 36400
L48293 36359
L48333 36319
L48374 36239
L48374 36158
L48333 36078
L48293 36037
L48213 35997
L48052 35957
L47971 35916
L47931 35876
L47891 35796
L47891 35715
L47931 35635
L47971 35594
L48052 35554
L48253 35554
L48374 35594
" />
<path d="M49219 36319
L49179 36359
L49058 36400
L48977 36400
L48857 36359
L48776 36279
L48736 36198
L48696 36037
L48696 35916
L48736 35755
L48776 35675
L48857 35594
L48977 35554
L49058 35554
L49179 35594
L49219 35635
" />
<path d="M50024 36400
L49541 36400
" />
<path d="M49782 36400
L49782 35554
L49702 35675
L49621 35755
L49541 35796
" />
<path d="M50749 35554
L50587 35554
L50507 35594
L50467 35635
L50386 35755
L50346 35916
L50346 36239
L50386 36319
L50426 36359
L50507 36400
L50668 36400
L50749 36359
L50789 36319
L50829 36239
L50829 36037
L50789 35957
L50749 35916
L50668 35876
L50507 35876
L50426 35916
L50386 35957
L50346 36037
" />
<path d="M51191 36400
L51191 35554
" />
<path d="M51554 36359
L51674 36400
L51876 36400
L51956 36359
L51996 36319
L52037 36239
L52037 36158
L51996 36078
L51956 36037
L51876 35997
L51715 35957
L51634 35916
L51594 35876
L51554 35796
L51554 35715
L51594 35635
L51634 35594
L51715 35554
L51916 35554
L52037 35594
" />
<path d="M52842 36400
L52359 36400
" />
<path d="M52600 36400
L52600 35554
L52520 35675
L52439 35755
L52359 35796
" />
<path d="M47647 43193
L47767 43233
L47966 43233
L48046 43193
L48086 43153
L48125 43073
L48125 42994
L48086 42914
L48046 42874
L47966 42834
L47807 42795
L47727 42755
L47687 42715
L47647 42635
L47647 42556
L47687 42476
L47727 42436
L47807 42396
L48006 42396
L48125 42436
" />
<path d="M48962 43153
L48922 43193
L48802 43233
L48723 43233
L48603 43193
L48524 43113
L48484 43034
L48444 42874
L48444 42755
L48484 42595
L48524 42516
L48603 42436
L48723 42396
L48802 42396
L48922 42436
L48962 42476
" />
<path d="M49758 43233
L49280 43233
" />
<path d="M49519 43233
L49519 42396
L49440 42516
L49360 42595
L49280 42635
" />
<path d="M50475 42396
L50316 42396
L50236 42436
L50196 42476
L50117 42595
L50077 42755
L50077 43073
L50117 43153
L50156 43193
L50236 43233
L50395 43233
L50475 43193
L50515 43153
L50555 43073
L50555 42874
L50515 42795
L50475 42755
L50395 42715
L50236 42715
L50156 42755
L50117 42795
L50077 42874
" />
<path d="M50913 43233
L50913 42396
" />
<path d="M51272 43193
L51391 43233
L51590 43233
L51670 43193
L51710 43153
L51749 43073
L51749 42994
L51710 42914
L51670 42874
L51590 42834
L51431 42795
L51351 42755
L51311 42715
L51272 42635
L51272 42556
L51311 42476
L51351 42436
L51431 42396
L51630 42396
L51749 42436
" />
<path d="M52028 42396
L52586 42396
L52227 43233
" />
<path d="M53303 42396
L52904 42396
L52865 42795
L52904 42755
L52984 42715
L53183 42715
L53263 42755
L53303 42795
L53343 42874
L53343 43073
L53303 43153
L53263 43193
L53183 43233
L52984 43233
L52904 43193
L52865 43153
" />
<path d="M53860 42396
L53940 42396
L54020 42436
L54059 42476
L54099 42556
L54139 42715
L54139 42914
L54099 43073
L54059 43153
L54020 43193
L53940 43233
L53860 43233
L53781 43193
L53741 43153
L53701 43073
L53661 42914
L53661 42715
L53701 42556
L53741 42476
L53781 42436
L53860 42396
" />
</g>
<g style="fill:#C2C200; fill-opacity:0.0; 
stroke:#C2C200; stroke-width:19.685; stroke-opacity:1; 
stroke-linecap:round; stroke-linejoin:round;">
</g>
<g style="fill:#C2C200; fill-opacity:0.0; 
stroke:#C2C200; stroke-width:59.0551; stroke-opacity:1; 
stroke-linecap:round; stroke-linejoin:round;">
<path d="M55480 21774
L55498 21718
L55498 21624
L55480 21587
L55461 21568
L55423 21549
L55386 21549
L55348 21568
L55330 21587
L55311 21624
L55292 21699
L55273 21737
L55255 21756
L55217 21774
L55180 21774
L55142 21756
L55124 21737
L55105 21699
L55105 21606
L55124 21549
" />
<path d="M55105 21418
L55498 21324
L55217 21249
L55498 21175
L55105 21081
" />
<path d="M55498 20725
L55498 20950
" />
<path d="M55498 20837
L55105 20837
L55161 20875
L55199 20912
L55217 20950
" />
<path d="M59480 21774
L59498 21718
L59498 21624
L59480 21587
L59461 21568
L59423 21549
L59386 21549
L59348 21568
L59330 21587
L59311 21624
L59292 21699
L59273 21737
L59255 21756
L59217 21774
L59180 21774
L59142 21756
L59124 21737
L59105 21699
L59105 21606
L59124 21549
" />
<path d="M59105 21418
L59498 21324
L59217 21249
L59498 21175
L59105 21081
" />
<path d="M59142 20950
L59124 20931
L59105 20893
L59105 20800
L59124 20762
L59142 20743
L59180 20725
L59217 20725
L59273 20743
L59498 20968
L59498 20725
" />
</g>
<g style="fill:#008484; fill-opacity:0.0; 
stroke:#008484; stroke-width:59.0551; stroke-opacity:1; 
stroke-linecap:round; stroke-linejoin:round;">
</g>
<g style="fill:#008484; fill-opacity:0.0; 
stroke:#008484; stroke-width:19.685; stroke-opacity:1; 
stroke-linecap:round; stroke-linejoin:round;">
<path d="M54517 47168
L54517 47245
L54521 47254
L54526 47259
L54535 47263
L54553 47263
L54562 47259
L54566 47254
L54571 47245
L54571 47168
" />
<path d="M54665 47263
L54611 47263
" />
<path d="M54638 47263
L54638 47168
L54629 47182
L54620 47191
L54611 47195
" />
<path d="M54438 48842
L54393 48842
L54393 48747
" />
<path d="M54469 48842
L54469 48747
" />
<path d="M54510 48837
L54523 48842
L54546 48842
L54555 48837
L54559 48833
L54564 48824
L54564 48815
L54559 48806
L54555 48801
L54546 48797
L54528 48792
L54519 48788
L54514 48783
L54510 48774
L54510 48765
L54514 48756
L54519 48752
L54528 48747
L54550 48747
L54564 48752
" />
<path d="M54595 48747
L54654 48747
L54623 48783
L54636 48783
L54645 48788
L54650 48792
L54654 48801
L54654 48824
L54650 48833
L54645 48837
L54636 48842
L54609 48842
L54600 48837
L54595 48833
" />
<path d="M54695 48842
L54695 48747
L54717 48747
L54731 48752
L54740 48761
L54744 48770
L54749 48788
L54749 48801
L54744 48819
L54740 48828
L54731 48837
L54717 48842
L54695 48842
" />
<path d="M54789 48842
L54789 48747
" />
<path d="M54789 48792
L54843 48792
" />
<path d="M54843 48842
L54843 48747
" />
</g>
<g style="fill:#008484; fill-opacity:0.0; 
stroke:#008484; stroke-width:100; stroke-opacity:1; 
stroke-linecap:round; stroke-linejoin:round;">
<path d="M49996 19725
L49996 20130
L50020 20178
L50044 20201
L50091 20225
L50187 20225
L50234 20201
L50258 20178
L50282 20130
L50282 19725
" />
<path d="M50496 19773
L50520 19749
L50568 19725
L50687 19725
L50734 19749
L50758 19773
L50782 19820
L50782 19868
L50758 19939
L50472 20225
L50782 20225
" />
</g>
<g style="fill:#C2C200; fill-opacity:0.0; 
stroke:#C2C200; stroke-width:100; stroke-opacity:1; 
stroke-linecap:round; stroke-linejoin:round;">
</g>
<g style="fill:#C2C200; fill-opacity:0.0; 
stroke:#C2C200; stroke-width:59.0551; stroke-opacity:1; 
stroke-linecap:round; stroke-linejoin:round;">
<path d="M50776 30299
L51095 30299
L51132 30281
L51151 30262
L51170 30224
L51170 30149
L51151 30112
L51132 30093
L51095 30074
L50776 30074
" />
<path d="M50776 29925
L50776 29681
L50926 29812
L50926 29756
L50945 29718
L50964 29700
L51001 29681
L51095 29681
L51132 29700
L51151 29718
L51170 29756
L51170 29868
L51151 29906
L51132 29925
" />
</g>
<g style="fill:#008484; fill-opacity:0.0; 
stroke:#008484; stroke-width:59.0551; stroke-opacity:1; 
stroke-linecap:round; stroke-linejoin:round;">
</g>
<g style="fill:#008484; fill-opacity:0.0; 
stroke:#008484; stroke-width:19.685; stroke-opacity:1; 
stroke-linecap:round; stroke-linejoin:round;">
<path d="M51248 48949
L51500 48949
L51530 48934
L51544 48920
L51559 48890
L51559 48831
L51544 48801
L51530 48786
L51500 48772
L51248 48772
" />
<path d="M51352 48491
L51559 48491
" />
<path d="M51234 48565
L51456 48639
L51456 48446
" />
<path d="M53631 49796
L53631 49944
L53320 49944
" />
<path d="M53631 49692
L53320 49692
L53320 49618
L53335 49574
L53365 49544
L53394 49529
L53454 49515
L53498 49515
L53557 49529
L53587 49544
L53616 49574
L53631 49618
L53631 49692
" />
<path d="M53320 49411
L53320 49219
L53439 49322
L53439 49278
L53454 49248
L53468 49233
L53498 49219
L53572 49219
L53602 49233
L53616 49248
L53631 49278
L53631 49367
L53616 49396
L53602 49411
" />
<path d="M53631 49070
L53631 49011
L53616 48982
L53602 48967
L53557 48937
L53498 48922
L53380 48922
L53350 48937
L53335 48952
L53320 48982
L53320 49041
L53335 49070
L53350 49085
L53380 49100
L53454 49100
L53483 49085
L53498 49070
L53513 49041
L53513 48982
L53498 48952
L53483 48937
L53454 48922
" />
<path d="M53454 48745
L53439 48774
L53424 48789
L53394 48804
L53380 48804
L53350 48789
L53335 48774
L53320 48745
L53320 48686
L53335 48656
L53350 48641
L53380 48626
L53394 48626
L53424 48641
L53439 48656
L53454 48686
L53454 48745
L53468 48774
L53483 48789
L53513 48804
L53572 48804
L53602 48789
L53616 48774
L53631 48745
L53631 48686
L53616 48656
L53602 48641
L53572 48626
L53513 48626
L53483 48641
L53468 48656
L53454 48686
" />
<path d="M53320 48345
L53320 48493
L53468 48508
L53454 48493
L53439 48463
L53439 48389
L53454 48360
L53468 48345
L53498 48330
L53572 48330
L53602 48345
L53616 48360
L53631 48389
L53631 48463
L53616 48493
L53602 48508
" />
<path d="M53631 48197
L53320 48197
L53542 48093
L53320 47990
L53631 47990
" />
<path d="M53320 47871
L53320 47679
L53439 47782
L53439 47738
L53454 47708
L53468 47694
L53498 47679
L53572 47679
L53602 47694
L53616 47708
L53631 47738
L53631 47827
L53616 47856
L53602 47871
" />
<path d="M53320 47575
L53320 47383
L53439 47486
L53439 47442
L53454 47412
L53468 47397
L53498 47383
L53572 47383
L53602 47397
L53616 47412
L53631 47442
L53631 47531
L53616 47560
L53602 47575
" />
<path d="M53631 47072
L53483 47175
" />
<path d="M53631 47249
L53320 47249
L53320 47131
L53335 47101
L53350 47087
L53380 47072
L53424 47072
L53454 47087
L53468 47101
L53483 47131
L53483 47249
" />
<path d="M46226 49558
L46226 50081
L46257 50143
L46288 50174
L46349 50205
L46473 50205
L46534 50174
L46565 50143
L46596 50081
L46596 49558
" />
<path d="M47212 49558
L46904 49558
L46873 49866
L46904 49835
L46965 49804
L47119 49804
L47181 49835
L47212 49866
L47243 49927
L47243 50081
L47212 50143
L47181 50174
L47119 50205
L46965 50205
L46904 50174
L46873 50143
" />
<path d="M43486 47109
L43578 47140
L43609 47171
L43640 47233
L43640 47325
L43609 47387
L43578 47418
L43517 47448
L43270 47448
L43270 46801
L43486 46801
L43547 46832
L43578 46863
L43609 46924
L43609 46986
L43578 47048
L43547 47078
L43486 47109
L43270 47109
" />
<path d="M43918 46801
L43918 47325
L43948 47387
L43979 47418
L44041 47448
L44164 47448
L44226 47418
L44257 47387
L44288 47325
L44288 46801
" />
<path d="M44873 47017
L44873 47448
" />
<path d="M44719 46770
L44565 47233
L44966 47233
" />
<path d="M45182 46863
L45213 46832
L45274 46801
L45429 46801
L45490 46832
L45521 46863
L45552 46924
L45552 46986
L45521 47078
L45151 47448
L45552 47448
" />
<path d="M46169 47448
L45799 47448
" />
<path d="M45984 47448
L45984 46801
L45922 46893
L45860 46955
L45799 46986
" />
<path d="M46570 46801
L46631 46801
L46693 46832
L46724 46863
L46755 46924
L46785 47048
L46785 47202
L46755 47325
L46724 47387
L46693 47418
L46631 47448
L46570 47448
L46508 47418
L46477 47387
L46446 47325
L46415 47202
L46415 47048
L46446 46924
L46477 46863
L46508 46832
L46570 46801
" />
<path d="M47402 46832
L47341 46801
L47248 46801
L47155 46832
L47094 46893
L47063 46955
L47032 47078
L47032 47171
L47063 47294
L47094 47356
L47155 47418
L47248 47448
L47310 47448
L47402 47418
L47433 47387
L47433 47171
L47310 47171
" />
<path d="M47711 47202
L48204 47202
" />
<path d="M48420 46801
L48790 46801
" />
<path d="M48605 47448
L48605 46801
" />
<path d="M49376 47448
L49160 47140
" />
<path d="M49006 47448
L49006 46801
L49252 46801
L49314 46832
L49345 46863
L49376 46924
L49376 47017
L49345 47078
L49314 47109
L49252 47140
L49006 47140
" />
<path d="M53298 35421
L53298 36162
L53341 36249
L53385 36292
L53472 36336
L53647 36336
L53734 36292
L53777 36249
L53821 36162
L53821 35421
" />
<path d="M54649 35421
L54475 35421
L54387 35464
L54344 35508
L54257 35639
L54213 35813
L54213 36162
L54257 36249
L54300 36292
L54387 36336
L54562 36336
L54649 36292
L54693 36249
L54736 36162
L54736 35944
L54693 35856
L54649 35813
L54562 35769
L54387 35769
L54300 35813
L54257 35856
L54213 35944
" />
<path d="M49267 44441
L49397 44485
L49615 44485
L49702 44441
L49746 44398
L49789 44311
L49789 44224
L49746 44137
L49702 44093
L49615 44050
L49441 44006
L49354 43962
L49310 43919
L49267 43832
L49267 43745
L49310 43658
L49354 43614
L49441 43571
L49659 43571
L49789 43614
" />
<path d="M50050 43571
L50573 43571
" />
<path d="M50312 44485
L50312 43571
" />
<path d="M50878 44485
L50878 43571
L51183 44224
L51487 43571
L51487 44485
" />
<path d="M51836 43571
L52402 43571
L52097 43919
L52228 43919
L52315 43962
L52358 44006
L52402 44093
L52402 44311
L52358 44398
L52315 44441
L52228 44485
L51966 44485
L51879 44441
L51836 44398
" />
<path d="M52750 43658
L52794 43614
L52881 43571
L53098 43571
L53185 43614
L53229 43658
L53273 43745
L53273 43832
L53229 43962
L52707 44485
L53273 44485
" />
<path d="M53969 44006
L53664 44006
" />
<path d="M53664 44485
L53664 43571
L54100 43571
" />
<path d="M54622 43571
L54709 43571
L54796 43614
L54840 43658
L54884 43745
L54927 43919
L54927 44137
L54884 44311
L54840 44398
L54796 44441
L54709 44485
L54622 44485
L54535 44441
L54492 44398
L54448 44311
L54405 44137
L54405 43919
L54448 43745
L54492 43658
L54535 43614
L54622 43571
" />
<path d="M55754 43571
L55319 43571
L55275 44006
L55319 43962
L55406 43919
L55624 43919
L55711 43962
L55754 44006
L55798 44093
L55798 44311
L55754 44398
L55711 44441
L55624 44485
L55406 44485
L55319 44441
L55275 44398
" />
<path d="M56669 44485
L56146 44485
" />
<path d="M56408 44485
L56408 43571
L56320 43701
L56233 43788
L56146 43832
" />
<path d="M57583 44485
L57278 44050
" />
<path d="M57061 44485
L57061 43571
L57409 43571
L57496 43614
L57540 43658
L57583 43745
L57583 43875
L57540 43962
L57496 44006
L57409 44050
L57061 44050
" />
<path d="M58106 43962
L58019 43919
L57975 43875
L57931 43788
L57931 43745
L57975 43658
L58019 43614
L58106 43571
L58280 43571
L58367 43614
L58410 43658
L58454 43745
L58454 43788
L58410 43875
L58367 43919
L58280 43962
L58106 43962
L58019 44006
L57975 44050
L57931 44137
L57931 44311
L57975 44398
L58019 44441
L58106 44485
L58280 44485
L58367 44441
L58410 44398
L58454 44311
L58454 44137
L58410 44050
L58367 44006
L58280 43962
" />
<path d="M58715 43571
L59238 43571
" />
<path d="M58976 44485
L58976 43571
" />
<path d="M59455 44485
L59934 43875
" />
<path d="M59455 43875
L59934 44485
" />
<path d="M49890 53725
L49890 54045
L49908 54083
L49927 54101
L49965 54120
L50040 54120
L50078 54101
L50097 54083
L50115 54045
L50115 53725
" />
<path d="M50285 54101
L50341 54120
L50435 54120
L50473 54101
L50492 54083
L50510 54045
L50510 54007
L50492 53970
L50473 53951
L50435 53932
L50360 53913
L50322 53894
L50303 53876
L50285 53838
L50285 53800
L50303 53763
L50322 53744
L50360 53725
L50454 53725
L50510 53744
" />
<path d="M50811 53913
L50868 53932
L50886 53951
L50905 53989
L50905 54045
L50886 54083
L50868 54101
L50830 54120
L50680 54120
L50680 53725
L50811 53725
L50849 53744
L50868 53763
L50886 53800
L50886 53838
L50868 53876
L50849 53894
L50811 53913
L50680 53913
" />
<path d="M51281 54120
L51056 54120
" />
<path d="M51169 54120
L51169 53725
L51131 53782
L51093 53819
L51056 53838
" />
<path d="M49056 50172
L49056 50491
L49075 50529
L49094 50548
L49131 50566
L49207 50566
L49244 50548
L49263 50529
L49282 50491
L49282 50172
" />
<path d="M49451 50548
L49507 50566
L49601 50566
L49639 50548
L49658 50529
L49677 50491
L49677 50454
L49658 50416
L49639 50397
L49601 50378
L49526 50360
L49489 50341
L49470 50322
L49451 50284
L49451 50247
L49470 50209
L49489 50190
L49526 50172
L49620 50172
L49677 50190
" />
<path d="M49977 50360
L50034 50378
L50053 50397
L50071 50435
L50071 50491
L50053 50529
L50034 50548
L49996 50566
L49846 50566
L49846 50172
L49977 50172
L50015 50190
L50034 50209
L50053 50247
L50053 50284
L50034 50322
L50015 50341
L49977 50360
L49846 50360
" />
<path d="M50147 50604
L50447 50604
" />
<path d="M50541 50566
L50541 50172
L50673 50454
L50805 50172
L50805 50566
" />
<path d="M50993 50566
L50993 50172
" />
<path d="M51181 50566
L51181 50172
L51406 50566
L51406 50172
" />
<path d="M51594 50566
L51594 50172
" />
</g>
<g style="fill:#008484; fill-opacity:0.0; 
stroke:#008484; stroke-width:47.2441; stroke-opacity:1; 
stroke-linecap:round; stroke-linejoin:round;">
<path d="M61098 37157
L60901 37157
" />
<path d="M60901 36842
L61098 36842
" />
<path d="M61047 37326
L60952 37326
" />
<path d="M60952 37673
L61047 37673
" />
<path d="M61047 38326
L60952 38326
" />
<path d="M60952 38673
L61047 38673
" />
<path d="M60901 38842
L61098 38842
" />
<path d="M61098 39157
L60901 39157
" />
</g>
<g style="fill:#008484; fill-opacity:0.0; 
stroke:#008484; stroke-width:100; stroke-opacity:1; 
stroke-linecap:round; stroke-linejoin:round;">
<path d="M62500 36500
L64074 36500
" />
<path d="M64074 36500
L64074 40397
" />
<path d="M64074 40397
L62500 40397
" />
<circle cx="62126.6" cy="37031.5" r="46.9685" /> 
<path d="M43500 42500
L41925 42500
" />
<path d="M41925 42500
L41925 38602
" />
<path d="M41925 38602
L43500 38602
" />
<circle cx="43873.4" cy="41968.5" r="46.9685" /> 
</g>
<g style="fill:#008484; fill-opacity:0.0; 
stroke:#008484; stroke-width:47.2441; stroke-opacity:1; 
stroke-linecap:round; stroke-linejoin:round;">
<path d="M44342 40098
L44342 39901
" />
<path d="M44657 39901
L44657 40098
" />
<path d="M45598 40157
L45401 40157
" />
<path d="M45401 39842
L45598 39842
" />
<path d="M44547 42326
L44452 42326
" />
<path d="M44452 42673
L44547 42673
" />
<path d="M44326 40952
L44326 41047
" />
<path d="M44673 41047
L44673 40952
" />
<path d="M59576 53202
L59576 53297
" />
<path d="M59923 53297
L59923 53202
" />
<path d="M61840 53009
L60324 53009
" />
<path d="M60324 53009
L60324 51490
" />
<path d="M60324 51490
L61840 51490
" />
<path d="M61840 51698
L61840 53009
" />
<path d="M54098 49657
L53901 49657
" />
<path d="M53901 49342
L54098 49342
" />
<path d="M55901 48842
L56098 48842
" />
<path d="M56098 49157
L55901 49157
" />
<path d="M55901 49342
L56098 49342
" />
<path d="M56098 49657
L55901 49657
" />
<path d="M50098 22157
L49901 22157
" />
<path d="M49901 21842
L50098 21842
" />
<path d="M52098 22157
L51901 22157
" />
<path d="M51901 21842
L52098 21842
" />
<path d="M52657 49901
L52657 50098
" />
<path d="M52342 50098
L52342 49901
" />
<path d="M51657 49901
L51657 50098
" />
<path d="M51342 50098
L51342 49901
" />
<path d="M52901 46842
L53098 46842
" />
<path d="M53098 47157
L52901 47157
" />
<path d="M52098 47157
L51901 47157
" />
<path d="M51901 46842
L52098 46842
" />
<path d="M52098 46657
L51901 46657
" />
<path d="M51901 46342
L52098 46342
" />
<path d="M46598 49657
L46401 49657
" />
<path d="M46401 49342
L46598 49342
" />
<path d="M49098 48157
L48901 48157
" />
<path d="M48901 47842
L49098 47842
" />
<path d="M47401 49342
L47598 49342
" />
<path d="M47598 49657
L47401 49657
" />
<path d="M55598 43157
L55401 43157
" />
<path d="M55401 42842
L55598 42842
" />
<path d="M52598 41157
L52401 41157
" />
<path d="M52401 40842
L52598 40842
" />
<path d="M58098 43157
L57901 43157
" />
<path d="M57901 42842
L58098 42842
" />
<path d="M52275 53511
L52724 53511
" />
<path d="M52724 53511
L52724 52685
" />
<path d="M52275 53511
L52275 52685
" />
<path d="M49988 48275
L49988 48724
" />
<path d="M49988 48724
L50814 48724
" />
<path d="M49988 48275
L50814 48275
" />
<path d="M61840 48009
L60324 48009
" />
<path d="M60324 48009
L60324 46490
" />
<path d="M60324 46490
L61840 46490
" />
<path d="M61840 46698
L61840 48009
" />
<path d="M61840 45509
L60324 45509
" />
<path d="M60324 45509
L60324 43990
" />
<path d="M60324 43990
L61840 43990
" />
<path d="M61840 44198
L61840 45509
" />
<path d="M61840 43009
L60324 43009
" />
<path d="M60324 43009
L60324 41490
" />
<path d="M60324 41490
L61840 41490
" />
<path d="M61840 41698
L61840 43009
" />
<path d="M61840 50509
L60324 50509
" />
<path d="M60324 50509
L60324 48990
" />
<path d="M60324 48990
L61840 48990
" />
<path d="M61840 49198
L61840 50509
" />
<path d="M41976.4 48893.7 A393.701 393.701 0.0 0 0 41976.4 48106.3 " />
<path d="M41976 48893
L41976 49543
" />
<path d="M41976 49543
L44023 49543
" />
<path d="M44023 49543
L44023 47456
" />
<path d="M44023 47456
L41976 47456
" />
<path d="M41976 47456
L41976 48106
" />
<path d="M54826 46452
L54826 46547
" />
<path d="M55173 46547
L55173 46452
" />
<path d="M56547 47826
L56452 47826
" />
<path d="M56452 48173
L56547 48173
" />
<path d="M56547 47326
L56452 47326
" />
<path d="M56452 47673
L56547 47673
" />
<path d="M54952 49673
L55047 49673
" />
<path d="M55047 49326
L54952 49326
" />
<path d="M49047 21826
L48952 21826
" />
<path d="M48952 22173
L49047 22173
" />
<path d="M51047 21826
L50952 21826
" />
<path d="M50952 22173
L51047 22173
" />
<path d="M48326 48452
L48326 48547
" />
<path d="M48673 48547
L48673 48452
" />
<path d="M49047 49326
L48952 49326
" />
<path d="M48952 49673
L49047 49673
" />
<path d="M55326 36952
L55326 37047
" />
<path d="M55673 37047
L55673 36952
" />
<path d="M54826 36952
L54826 37047
" />
<path d="M55173 37047
L55173 36952
" />
<path d="M62826 23952
L62826 24047
" />
<path d="M63173 24047
L63173 23952
" />
<path d="M58826 23952
L58826 24047
" />
<path d="M59173 24047
L59173 23952
" />
<path d="M59576 48202
L59576 48297
" />
<path d="M59923 48297
L59923 48202
" />
<path d="M59576 45702
L59576 45797
" />
<path d="M59923 45797
L59923 45702
" />
<path d="M59576 43202
L59576 43297
" />
<path d="M59923 43297
L59923 43202
" />
<path d="M59576 50702
L59576 50797
" />
<path d="M59923 50797
L59923 50702
" />
<path d="M51547 41826
L51452 41826
" />
<path d="M51452 42173
L51547 42173
" />
<path d="M56326 42952
L56326 43047
" />
<path d="M56673 43047
L56673 42952
" />
<path d="M56826 42952
L56826 43047
" />
<path d="M57173 43047
L57173 42952
" />
</g>
<g style="fill:#008484; fill-opacity:0.0; 
stroke:#008484; stroke-width:60; stroke-opacity:1; 
stroke-linecap:round; stroke-linejoin:round;">
<path d="M50890 37640
L50890 37570
" />
<path d="M49110 41360
L49110 41430
" />
<path d="M49110 41430
L50890 41430
" />
<path d="M50890 41430
L50890 41360
" />
<path d="M50890 37570
L50120 37570
" />
<path d="M50120 37570
L49880 37570
" />
<path d="M49880 37570
L49110 37570
" />
<path d="M49110 37570
L49110 37640
" />
<path d="M49880 37570 A120 120 0.0 0 0 50120 37570 " />
</g>
<g style="fill:#008484; fill-opacity:0.0; 
stroke:#008484; stroke-width:47.2441; stroke-opacity:1; 
stroke-linecap:round; stroke-linejoin:round;">
<path d="M55974 22694
L55765 22694
" />
<path d="M55765 22694
L55765 19805
" />
<path d="M55765 19805
L55974 19805
" />
<path d="M58525 22694
L58734 22694
" />
<path d="M58734 22694
L58734 19805
" />
<path d="M58734 19805
L58525 19805
" />
<path d="M56525 22694
L56974 22694
" />
<path d="M57525 22694
L57974 22694
" />
<path d="M56525 19805
L56974 19805
" />
<path d="M57525 19805
L57974 19805
" />
<path d="M56206 23167
L55667 23167
" />
<path d="M55667 23167
L55667 22627
" />
<path d="M59974 22694
L59765 22694
" />
<path d="M59765 22694
L59765 19805
" />
<path d="M59765 19805
L59974 19805
" />
<path d="M62525 22694
L62734 22694
" />
<path d="M62734 22694
L62734 19805
" />
<path d="M62734 19805
L62525 19805
" />
<path d="M60525 22694
L60974 22694
" />
<path d="M61525 22694
L61974 22694
" />
<path d="M60525 19805
L60974 19805
" />
<path d="M61525 19805
L61974 19805
" />
<path d="M60206 23167
L59667 23167
" />
<path d="M59667 23167
L59667 22627
" />
</g>
<g style="fill:#008484; fill-opacity:0.0; 
stroke:#008484; stroke-width:0; stroke-opacity:1; 
stroke-linecap:round; stroke-linejoin:round;">
<circle cx="54250.8" cy="47614.2" r="39.3701" /> 
</g>
<g style="fill:#008484; fill-opacity:0.0; 
stroke:#008484; stroke-width:50; stroke-opacity:1; 
stroke-linecap:round; stroke-linejoin:round;">
<path d="M54409 47448
L54409 47409
" />
<path d="M54409 47409
L54645 47409
" />
<path d="M55354 47409
L55590 47409
" />
<path d="M55590 47409
L55590 47448
" />
<path d="M54409 48551
L54409 48590
" />
<path d="M54409 48590
L54645 48590
" />
<path d="M55354 48590
L55590 48590
" />
<path d="M55590 48590
L55590 48551
" />
</g>
<g style="fill:#008484; fill-opacity:0.0; 
stroke:#008484; stroke-width:100; stroke-opacity:1; 
stroke-linecap:round; stroke-linejoin:round;">
<path d="M48500 21000
L48500 19425
" />
<path d="M48500 19425
L52397 19425
" />
<path d="M52397 19425
L52397 21000
" />
<circle cx="49031.5" cy="21373.4" r="46.9685" /> 
</g>
<g style="fill:#008484; fill-opacity:0.0; 
stroke:#008484; stroke-width:59.0551; stroke-opacity:1; 
stroke-linecap:round; stroke-linejoin:round;">
<path d="M46500 35000
L60500 35000
" />
<path d="M60500 35000
L60500 34000
" />
<path d="M60500 34000
L46500 34000
" />
<path d="M45389 33889
L46000 33889
" />
<path d="M46500 34000
L46500 35000
" />
<path d="M46000 35110
L45389 35110
" />
<path d="M45389 35110
L45389 33889
" />
<path d="M60500 26000
L60500 25000
" />
<path d="M45500 26000
L60500 26000
" />
<path d="M45500 25000
L45500 26000
" />
<path d="M60500 25000
L45500 25000
" />
</g>
<g style="fill:#008484; fill-opacity:0.0; 
stroke:#008484; stroke-width:50; stroke-opacity:1; 
stroke-linecap:round; stroke-linejoin:round;">
<path d="M51909 48834
L51909 48165
" />
<path d="M53090 48165
L53090 48834
" />
</g>
<g style="fill:#008484; fill-opacity:0.0; 
stroke:#008484; stroke-width:78.7402; stroke-opacity:1; 
stroke-linecap:round; stroke-linejoin:round;">
<circle cx="52078.7" cy="49421.3" r="39.3701" /> 
</g>
<g style="fill:#008484; fill-opacity:0.0; 
stroke:#008484; stroke-width:60; stroke-opacity:1; 
stroke-linecap:round; stroke-linejoin:round;">
<path d="M46690 49070
L46880 49070
" />
<path d="M46880 49070
L47120 49070
" />
<path d="M47120 49070
L47310 49070
" />
<path d="M47120 49070 A120 120 0.0 0 0 46880 49070 " />
</g>
<g style="fill:#008484; fill-opacity:0.0; 
stroke:#008484; stroke-width:78.7402; stroke-opacity:1; 
stroke-linecap:round; stroke-linejoin:round;">
<circle cx="52689" cy="38425.2" r="39.3701" /> 
</g>
<g style="fill:#008484; fill-opacity:0.0; 
stroke:#008484; stroke-width:50; stroke-opacity:1; 
stroke-linecap:round; stroke-linejoin:round;">
<path d="M53531 41968
L53875 41968
" />
<path d="M53531 38031
L53875 38031
" />
<path d="M57468 41968
L57111 41968
" />
<path d="M57468 38031
L57124 38031
" />
<path d="M53531 41968
L53531 41624
" />
<path d="M53531 38031
L53531 38375
" />
<path d="M57468 41968
L57468 41624
" />
<path d="M57468 38031
L57468 38375
" />
<path d="M51476 53088
L51299 53088
" />
<path d="M48700 53088
L48523 53088
" />
<path d="M48523 53088
L48523 52458
" />
<path d="M48523 51435
L48523 50864
" />
<path d="M48523 50864
L51476 50864
" />
<path d="M51476 50864
L51476 51435
" />
<path d="M51476 52458
L51476 53088
" />
</g>
<g style="fill:#008484; fill-opacity:0.0; 
stroke:#008484; stroke-width:0; stroke-opacity:1; 
stroke-linecap:round; stroke-linejoin:round;">
<circle cx="50590.6" cy="53492.1" r="50" /> 
</g>
<g style="fill:#840000; fill-opacity:0.0; 
stroke:#840000; stroke-width:0; stroke-opacity:1; 
stroke-linecap:round; stroke-linejoin:round;">
</g>
<g style="fill:#840000; fill-opacity:0.0; 
stroke:#840000; stroke-width:680; stroke-opacity:1; 
stroke-linecap:round; stroke-linejoin:round;">
<path d="M46000 34560
L46000 34440
" />
<path d="M47000 34560
L47000 34440
" />
<path d="M48000 34560
L48000 34440
" />
<path d="M49000 34560
L49000 34440
" />
<path d="M50000 34560
L50000 34440
" />
<path d="M51000 34560
L51000 34440
" />
<path d="M52000 34560
L52000 34440
" />
<path d="M53000 34560
L53000 34440
" />
<path d="M54000 34560
L54000 34440
" />
<path d="M55000 34560
L55000 34440
" />
<path d="M56000 34560
L56000 34440
" />
<path d="M57000 34560
L57000 34440
" />
<path d="M58000 34560
L58000 34440
" />
<path d="M59000 34560
L59000 34440
" />
<path d="M60000 34560
L60000 34440
" />
<path d="M46000 25560
L46000 25440
" />
<path d="M58000 25560
L58000 25440
" />
<path d="M59000 25560
L59000 25440
" />
<path d="M57000 25560
L57000 25440
" />
<path d="M51000 25560
L51000 25440
" />
<path d="M50000 25560
L50000 25440
" />
<path d="M52000 25560
L52000 25440
" />
<path d="M60000 25560
L60000 25440
" />
<path d="M54000 25560
L54000 25440
" />
<path d="M53000 25560
L53000 25440
" />
<path d="M55000 25560
L55000 25440
" />
<path d="M56000 25560
L56000 25440
" />
<path d="M48000 25560
L48000 25440
" />
<path d="M49000 25560
L49000 25440
" />
<path d="M47000 25560
L47000 25440
" />
</g> 
</svg>
