<?xml version="1.0" standalone="no"?>
 <!DOCTYPE svg PUBLIC "-//W3C//DTD SVG 1.1//EN" 
 "http://www.w3.org/Graphics/SVG/1.1/DTD/svg11.dtd"> 
<svg xmlns="http://www.w3.org/2000/svg" version="1.1" 
    width="29.7002cm" height="21.0007cm" viewBox="0 0 116930 82680 ">
<title>SVG Picture created as prueba-F.Fab.svg date 2018/06/20 16:15:27 </title>
  <desc>Picture generated by PCBNEW </desc>
<g style="fill:#000000; fill-opacity:1;stroke:#000000; stroke-opacity:1;
stroke-linecap:round; stroke-linejoin:round; "
 transform="translate(0 0) scale(1 1)">
</g>
<g style="fill:#000000; fill-opacity:0.0; 
stroke:#000000; stroke-width:-0.000393701; stroke-opacity:1; 
stroke-linecap:round; stroke-linejoin:round;">
</g>
<g style="fill:#000000; fill-opacity:0.0; 
stroke:#000000; stroke-width:39.3701; stroke-opacity:1; 
stroke-linecap:round; stroke-linejoin:round;">
</g>
<g style="fill:#000000; fill-opacity:0.0; 
stroke:#000000; stroke-width:59.0551; stroke-opacity:1; 
stroke-linecap:round; stroke-linejoin:round;">
<rect x="69685.9" y="65357.2" width="42519.7" height="12598.4" rx="0" />
</g>
<g style="fill:#000000; fill-opacity:0.0; 
stroke:#000000; stroke-width:39.3701; stroke-opacity:1; 
stroke-linecap:round; stroke-linejoin:round;">
</g>
<g style="fill:#000000; fill-opacity:0.0; 
stroke:#000000; stroke-width:59.0551; stroke-opacity:1; 
stroke-linecap:round; stroke-linejoin:round;">
<rect x="3937.01" y="3937.01" width="109056" height="74806" rx="0" />
</g>
<g style="fill:#000000; fill-opacity:0.0; 
stroke:#000000; stroke-width:39.3701; stroke-opacity:1; 
stroke-linecap:round; stroke-linejoin:round;">
</g>
<g style="fill:#000000; fill-opacity:0.0; 
stroke:#000000; stroke-width:59.0551; stroke-opacity:1; 
stroke-linecap:round; stroke-linejoin:round;">
<rect x="4724.41" y="4724.41" width="107481" height="73231.2" rx="0" />
</g>
<g style="fill:#000000; fill-opacity:0.0; 
stroke:#000000; stroke-width:39.3701; stroke-opacity:1; 
stroke-linecap:round; stroke-linejoin:round;">
</g>
<g style="fill:#000000; fill-opacity:0.0; 
stroke:#000000; stroke-width:59.0551; stroke-opacity:1; 
stroke-linecap:round; stroke-linejoin:round;">
<path d="M23622 4724
L23622 3937
" />
</g>
<g style="fill:#000000; fill-opacity:0.0; 
stroke:#000000; stroke-width:39.3701; stroke-opacity:1; 
stroke-linecap:round; stroke-linejoin:round;">
</g>
<g style="fill:#000000; fill-opacity:0.0; 
stroke:#000000; stroke-width:59.0551; stroke-opacity:1; 
stroke-linecap:round; stroke-linejoin:round;">
<path d="M43307 4724
L43307 3937
" />
</g>
<g style="fill:#000000; fill-opacity:0.0; 
stroke:#000000; stroke-width:39.3701; stroke-opacity:1; 
stroke-linecap:round; stroke-linejoin:round;">
</g>
<g style="fill:#000000; fill-opacity:0.0; 
stroke:#000000; stroke-width:59.0551; stroke-opacity:1; 
stroke-linecap:round; stroke-linejoin:round;">
<path d="M62992 4724
L62992 3937
" />
</g>
<g style="fill:#000000; fill-opacity:0.0; 
stroke:#000000; stroke-width:39.3701; stroke-opacity:1; 
stroke-linecap:round; stroke-linejoin:round;">
</g>
<g style="fill:#000000; fill-opacity:0.0; 
stroke:#000000; stroke-width:59.0551; stroke-opacity:1; 
stroke-linecap:round; stroke-linejoin:round;">
<path d="M82677 4724
L82677 3937
" />
</g>
<g style="fill:#000000; fill-opacity:0.0; 
stroke:#000000; stroke-width:39.3701; stroke-opacity:1; 
stroke-linecap:round; stroke-linejoin:round;">
</g>
<g style="fill:#000000; fill-opacity:0.0; 
stroke:#000000; stroke-width:59.0551; stroke-opacity:1; 
stroke-linecap:round; stroke-linejoin:round;">
<path d="M102362 4724
L102362 3937
" />
</g>
<g style="fill:#000000; fill-opacity:0.0; 
stroke:#000000; stroke-width:39.3701; stroke-opacity:1; 
stroke-linecap:round; stroke-linejoin:round;">
</g>
<g style="fill:#000000; fill-opacity:0.0; 
stroke:#000000; stroke-width:59.0551; stroke-opacity:1; 
stroke-linecap:round; stroke-linejoin:round;">
<path d="M14169 4562
L13877 4562
" />
<path d="M14023 4562
L14023 4050
L13974 4123
L13925 4172
L13877 4196
" />
</g>
<g style="fill:#000000; fill-opacity:0.0; 
stroke:#000000; stroke-width:39.3701; stroke-opacity:1; 
stroke-linecap:round; stroke-linejoin:round;">
</g>
<g style="fill:#000000; fill-opacity:0.0; 
stroke:#000000; stroke-width:59.0551; stroke-opacity:1; 
stroke-linecap:round; stroke-linejoin:round;">
<path d="M33562 4099
L33586 4074
L33635 4050
L33757 4050
L33805 4074
L33830 4099
L33854 4147
L33854 4196
L33830 4269
L33537 4562
L33854 4562
" />
</g>
<g style="fill:#000000; fill-opacity:0.0; 
stroke:#000000; stroke-width:39.3701; stroke-opacity:1; 
stroke-linecap:round; stroke-linejoin:round;">
</g>
<g style="fill:#000000; fill-opacity:0.0; 
stroke:#000000; stroke-width:59.0551; stroke-opacity:1; 
stroke-linecap:round; stroke-linejoin:round;">
<path d="M53222 4050
L53539 4050
L53368 4245
L53442 4245
L53490 4269
L53515 4294
L53539 4342
L53539 4464
L53515 4513
L53490 4537
L53442 4562
L53295 4562
L53247 4537
L53222 4513
" />
</g>
<g style="fill:#000000; fill-opacity:0.0; 
stroke:#000000; stroke-width:39.3701; stroke-opacity:1; 
stroke-linecap:round; stroke-linejoin:round;">
</g>
<g style="fill:#000000; fill-opacity:0.0; 
stroke:#000000; stroke-width:59.0551; stroke-opacity:1; 
stroke-linecap:round; stroke-linejoin:round;">
<path d="M73175 4221
L73175 4562
" />
<path d="M73053 4026
L72932 4391
L73248 4391
" />
</g>
<g style="fill:#000000; fill-opacity:0.0; 
stroke:#000000; stroke-width:39.3701; stroke-opacity:1; 
stroke-linecap:round; stroke-linejoin:round;">
</g>
<g style="fill:#000000; fill-opacity:0.0; 
stroke:#000000; stroke-width:59.0551; stroke-opacity:1; 
stroke-linecap:round; stroke-linejoin:round;">
<path d="M92885 4050
L92641 4050
L92617 4294
L92641 4269
L92690 4245
L92812 4245
L92860 4269
L92885 4294
L92909 4342
L92909 4464
L92885 4513
L92860 4537
L92812 4562
L92690 4562
L92641 4537
L92617 4513
" />
</g>
<g style="fill:#000000; fill-opacity:0.0; 
stroke:#000000; stroke-width:39.3701; stroke-opacity:1; 
stroke-linecap:round; stroke-linejoin:round;">
</g>
<g style="fill:#000000; fill-opacity:0.0; 
stroke:#000000; stroke-width:59.0551; stroke-opacity:1; 
stroke-linecap:round; stroke-linejoin:round;">
<path d="M112545 4050
L112448 4050
L112399 4074
L112375 4099
L112326 4172
L112302 4269
L112302 4464
L112326 4513
L112350 4537
L112399 4562
L112497 4562
L112545 4537
L112570 4513
L112594 4464
L112594 4342
L112570 4294
L112545 4269
L112497 4245
L112399 4245
L112350 4269
L112326 4294
L112302 4342
" />
</g>
<g style="fill:#000000; fill-opacity:0.0; 
stroke:#000000; stroke-width:39.3701; stroke-opacity:1; 
stroke-linecap:round; stroke-linejoin:round;">
</g>
<g style="fill:#000000; fill-opacity:0.0; 
stroke:#000000; stroke-width:59.0551; stroke-opacity:1; 
stroke-linecap:round; stroke-linejoin:round;">
<path d="M23622 77955
L23622 78742
" />
</g>
<g style="fill:#000000; fill-opacity:0.0; 
stroke:#000000; stroke-width:39.3701; stroke-opacity:1; 
stroke-linecap:round; stroke-linejoin:round;">
</g>
<g style="fill:#000000; fill-opacity:0.0; 
stroke:#000000; stroke-width:59.0551; stroke-opacity:1; 
stroke-linecap:round; stroke-linejoin:round;">
<path d="M43307 77955
L43307 78742
" />
</g>
<g style="fill:#000000; fill-opacity:0.0; 
stroke:#000000; stroke-width:39.3701; stroke-opacity:1; 
stroke-linecap:round; stroke-linejoin:round;">
</g>
<g style="fill:#000000; fill-opacity:0.0; 
stroke:#000000; stroke-width:59.0551; stroke-opacity:1; 
stroke-linecap:round; stroke-linejoin:round;">
<path d="M62992 77955
L62992 78742
" />
</g>
<g style="fill:#000000; fill-opacity:0.0; 
stroke:#000000; stroke-width:39.3701; stroke-opacity:1; 
stroke-linecap:round; stroke-linejoin:round;">
</g>
<g style="fill:#000000; fill-opacity:0.0; 
stroke:#000000; stroke-width:59.0551; stroke-opacity:1; 
stroke-linecap:round; stroke-linejoin:round;">
<path d="M82677 77955
L82677 78742
" />
</g>
<g style="fill:#000000; fill-opacity:0.0; 
stroke:#000000; stroke-width:39.3701; stroke-opacity:1; 
stroke-linecap:round; stroke-linejoin:round;">
</g>
<g style="fill:#000000; fill-opacity:0.0; 
stroke:#000000; stroke-width:59.0551; stroke-opacity:1; 
stroke-linecap:round; stroke-linejoin:round;">
<path d="M102362 77955
L102362 78742
" />
</g>
<g style="fill:#000000; fill-opacity:0.0; 
stroke:#000000; stroke-width:39.3701; stroke-opacity:1; 
stroke-linecap:round; stroke-linejoin:round;">
</g>
<g style="fill:#000000; fill-opacity:0.0; 
stroke:#000000; stroke-width:59.0551; stroke-opacity:1; 
stroke-linecap:round; stroke-linejoin:round;">
<path d="M14169 78580
L13877 78580
" />
<path d="M14023 78580
L14023 78069
L13974 78142
L13925 78190
L13877 78215
" />
</g>
<g style="fill:#000000; fill-opacity:0.0; 
stroke:#000000; stroke-width:39.3701; stroke-opacity:1; 
stroke-linecap:round; stroke-linejoin:round;">
</g>
<g style="fill:#000000; fill-opacity:0.0; 
stroke:#000000; stroke-width:59.0551; stroke-opacity:1; 
stroke-linecap:round; stroke-linejoin:round;">
<path d="M33562 78117
L33586 78093
L33635 78069
L33757 78069
L33805 78093
L33830 78117
L33854 78166
L33854 78215
L33830 78288
L33537 78580
L33854 78580
" />
</g>
<g style="fill:#000000; fill-opacity:0.0; 
stroke:#000000; stroke-width:39.3701; stroke-opacity:1; 
stroke-linecap:round; stroke-linejoin:round;">
</g>
<g style="fill:#000000; fill-opacity:0.0; 
stroke:#000000; stroke-width:59.0551; stroke-opacity:1; 
stroke-linecap:round; stroke-linejoin:round;">
<path d="M53222 78069
L53539 78069
L53368 78263
L53442 78263
L53490 78288
L53515 78312
L53539 78361
L53539 78483
L53515 78532
L53490 78556
L53442 78580
L53295 78580
L53247 78556
L53222 78532
" />
</g>
<g style="fill:#000000; fill-opacity:0.0; 
stroke:#000000; stroke-width:39.3701; stroke-opacity:1; 
stroke-linecap:round; stroke-linejoin:round;">
</g>
<g style="fill:#000000; fill-opacity:0.0; 
stroke:#000000; stroke-width:59.0551; stroke-opacity:1; 
stroke-linecap:round; stroke-linejoin:round;">
<path d="M73175 78239
L73175 78580
" />
<path d="M73053 78044
L72932 78410
L73248 78410
" />
</g>
<g style="fill:#000000; fill-opacity:0.0; 
stroke:#000000; stroke-width:39.3701; stroke-opacity:1; 
stroke-linecap:round; stroke-linejoin:round;">
</g>
<g style="fill:#000000; fill-opacity:0.0; 
stroke:#000000; stroke-width:59.0551; stroke-opacity:1; 
stroke-linecap:round; stroke-linejoin:round;">
<path d="M92885 78069
L92641 78069
L92617 78312
L92641 78288
L92690 78263
L92812 78263
L92860 78288
L92885 78312
L92909 78361
L92909 78483
L92885 78532
L92860 78556
L92812 78580
L92690 78580
L92641 78556
L92617 78532
" />
</g>
<g style="fill:#000000; fill-opacity:0.0; 
stroke:#000000; stroke-width:39.3701; stroke-opacity:1; 
stroke-linecap:round; stroke-linejoin:round;">
</g>
<g style="fill:#000000; fill-opacity:0.0; 
stroke:#000000; stroke-width:59.0551; stroke-opacity:1; 
stroke-linecap:round; stroke-linejoin:round;">
<path d="M112545 78069
L112448 78069
L112399 78093
L112375 78117
L112326 78190
L112302 78288
L112302 78483
L112326 78532
L112350 78556
L112399 78580
L112497 78580
L112545 78556
L112570 78532
L112594 78483
L112594 78361
L112570 78312
L112545 78288
L112497 78263
L112399 78263
L112350 78288
L112326 78312
L112302 78361
" />
</g>
<g style="fill:#000000; fill-opacity:0.0; 
stroke:#000000; stroke-width:39.3701; stroke-opacity:1; 
stroke-linecap:round; stroke-linejoin:round;">
</g>
<g style="fill:#000000; fill-opacity:0.0; 
stroke:#000000; stroke-width:59.0551; stroke-opacity:1; 
stroke-linecap:round; stroke-linejoin:round;">
<path d="M3937 23622
L4724 23622
" />
</g>
<g style="fill:#000000; fill-opacity:0.0; 
stroke:#000000; stroke-width:39.3701; stroke-opacity:1; 
stroke-linecap:round; stroke-linejoin:round;">
</g>
<g style="fill:#000000; fill-opacity:0.0; 
stroke:#000000; stroke-width:59.0551; stroke-opacity:1; 
stroke-linecap:round; stroke-linejoin:round;">
<path d="M3937 43307
L4724 43307
" />
</g>
<g style="fill:#000000; fill-opacity:0.0; 
stroke:#000000; stroke-width:39.3701; stroke-opacity:1; 
stroke-linecap:round; stroke-linejoin:round;">
</g>
<g style="fill:#000000; fill-opacity:0.0; 
stroke:#000000; stroke-width:59.0551; stroke-opacity:1; 
stroke-linecap:round; stroke-linejoin:round;">
<path d="M3937 62992
L4724 62992
" />
</g>
<g style="fill:#000000; fill-opacity:0.0; 
stroke:#000000; stroke-width:39.3701; stroke-opacity:1; 
stroke-linecap:round; stroke-linejoin:round;">
</g>
<g style="fill:#000000; fill-opacity:0.0; 
stroke:#000000; stroke-width:59.0551; stroke-opacity:1; 
stroke-linecap:round; stroke-linejoin:round;">
<path d="M4208 13864
L4452 13864
" />
<path d="M4160 14011
L4330 13499
L4501 14011
" />
</g>
<g style="fill:#000000; fill-opacity:0.0; 
stroke:#000000; stroke-width:39.3701; stroke-opacity:1; 
stroke-linecap:round; stroke-linejoin:round;">
</g>
<g style="fill:#000000; fill-opacity:0.0; 
stroke:#000000; stroke-width:59.0551; stroke-opacity:1; 
stroke-linecap:round; stroke-linejoin:round;">
<path d="M4367 33428
L4440 33452
L4464 33476
L4489 33525
L4489 33598
L4464 33647
L4440 33671
L4391 33696
L4196 33696
L4196 33184
L4367 33184
L4416 33208
L4440 33233
L4464 33281
L4464 33330
L4440 33379
L4416 33403
L4367 33428
L4196 33428
" />
</g>
<g style="fill:#000000; fill-opacity:0.0; 
stroke:#000000; stroke-width:39.3701; stroke-opacity:1; 
stroke-linecap:round; stroke-linejoin:round;">
</g>
<g style="fill:#000000; fill-opacity:0.0; 
stroke:#000000; stroke-width:59.0551; stroke-opacity:1; 
stroke-linecap:round; stroke-linejoin:round;">
<path d="M4489 53332
L4464 53356
L4391 53381
L4342 53381
L4269 53356
L4221 53308
L4196 53259
L4172 53161
L4172 53088
L4196 52991
L4221 52942
L4269 52893
L4342 52869
L4391 52869
L4464 52893
L4489 52918
" />
</g>
<g style="fill:#000000; fill-opacity:0.0; 
stroke:#000000; stroke-width:39.3701; stroke-opacity:1; 
stroke-linecap:round; stroke-linejoin:round;">
</g>
<g style="fill:#000000; fill-opacity:0.0; 
stroke:#000000; stroke-width:59.0551; stroke-opacity:1; 
stroke-linecap:round; stroke-linejoin:round;">
<path d="M4196 73066
L4196 72554
L4318 72554
L4391 72578
L4440 72627
L4464 72676
L4489 72773
L4489 72846
L4464 72944
L4440 72993
L4391 73041
L4318 73066
L4196 73066
" />
</g>
<g style="fill:#000000; fill-opacity:0.0; 
stroke:#000000; stroke-width:39.3701; stroke-opacity:1; 
stroke-linecap:round; stroke-linejoin:round;">
</g>
<g style="fill:#000000; fill-opacity:0.0; 
stroke:#000000; stroke-width:59.0551; stroke-opacity:1; 
stroke-linecap:round; stroke-linejoin:round;">
<path d="M112992 23622
L112205 23622
" />
</g>
<g style="fill:#000000; fill-opacity:0.0; 
stroke:#000000; stroke-width:39.3701; stroke-opacity:1; 
stroke-linecap:round; stroke-linejoin:round;">
</g>
<g style="fill:#000000; fill-opacity:0.0; 
stroke:#000000; stroke-width:59.0551; stroke-opacity:1; 
stroke-linecap:round; stroke-linejoin:round;">
<path d="M112992 43307
L112205 43307
" />
</g>
<g style="fill:#000000; fill-opacity:0.0; 
stroke:#000000; stroke-width:39.3701; stroke-opacity:1; 
stroke-linecap:round; stroke-linejoin:round;">
</g>
<g style="fill:#000000; fill-opacity:0.0; 
stroke:#000000; stroke-width:59.0551; stroke-opacity:1; 
stroke-linecap:round; stroke-linejoin:round;">
<path d="M112992 62992
L112205 62992
" />
</g>
<g style="fill:#000000; fill-opacity:0.0; 
stroke:#000000; stroke-width:39.3701; stroke-opacity:1; 
stroke-linecap:round; stroke-linejoin:round;">
</g>
<g style="fill:#000000; fill-opacity:0.0; 
stroke:#000000; stroke-width:59.0551; stroke-opacity:1; 
stroke-linecap:round; stroke-linejoin:round;">
<path d="M112477 13864
L112721 13864
" />
<path d="M112428 14011
L112599 13499
L112769 14011
" />
</g>
<g style="fill:#000000; fill-opacity:0.0; 
stroke:#000000; stroke-width:39.3701; stroke-opacity:1; 
stroke-linecap:round; stroke-linejoin:round;">
</g>
<g style="fill:#000000; fill-opacity:0.0; 
stroke:#000000; stroke-width:59.0551; stroke-opacity:1; 
stroke-linecap:round; stroke-linejoin:round;">
<path d="M112635 33428
L112708 33452
L112733 33476
L112757 33525
L112757 33598
L112733 33647
L112708 33671
L112660 33696
L112465 33696
L112465 33184
L112635 33184
L112684 33208
L112708 33233
L112733 33281
L112733 33330
L112708 33379
L112684 33403
L112635 33428
L112465 33428
" />
</g>
<g style="fill:#000000; fill-opacity:0.0; 
stroke:#000000; stroke-width:39.3701; stroke-opacity:1; 
stroke-linecap:round; stroke-linejoin:round;">
</g>
<g style="fill:#000000; fill-opacity:0.0; 
stroke:#000000; stroke-width:59.0551; stroke-opacity:1; 
stroke-linecap:round; stroke-linejoin:round;">
<path d="M112757 53332
L112733 53356
L112660 53381
L112611 53381
L112538 53356
L112489 53308
L112465 53259
L112440 53161
L112440 53088
L112465 52991
L112489 52942
L112538 52893
L112611 52869
L112660 52869
L112733 52893
L112757 52918
" />
</g>
<g style="fill:#000000; fill-opacity:0.0; 
stroke:#000000; stroke-width:39.3701; stroke-opacity:1; 
stroke-linecap:round; stroke-linejoin:round;">
</g>
<g style="fill:#000000; fill-opacity:0.0; 
stroke:#000000; stroke-width:59.0551; stroke-opacity:1; 
stroke-linecap:round; stroke-linejoin:round;">
<path d="M112465 73066
L112465 72554
L112587 72554
L112660 72578
L112708 72627
L112733 72676
L112757 72773
L112757 72846
L112733 72944
L112708 72993
L112660 73041
L112587 73066
L112465 73066
" />
</g>
<g style="fill:#000000; fill-opacity:0.0; 
stroke:#000000; stroke-width:39.3701; stroke-opacity:1; 
stroke-linecap:round; stroke-linejoin:round;">
</g>
<g style="fill:#000000; fill-opacity:0.0; 
stroke:#000000; stroke-width:59.0551; stroke-opacity:1; 
stroke-linecap:round; stroke-linejoin:round;">
<path d="M78881 76293
L78881 75703
L79022 75703
L79106 75731
L79162 75787
L79190 75843
L79219 75956
L79219 76040
L79190 76153
L79162 76209
L79106 76265
L79022 76293
L78881 76293
" />
<path d="M79725 76293
L79725 75984
L79697 75928
L79640 75899
L79528 75899
L79472 75928
" />
<path d="M79725 76265
L79669 76293
L79528 76293
L79472 76265
L79444 76209
L79444 76153
L79472 76096
L79528 76068
L79669 76068
L79725 76040
" />
<path d="M79922 75899
L80147 75899
" />
<path d="M80006 75703
L80006 76209
L80034 76265
L80090 76293
L80147 76293
" />
<path d="M80568 76265
L80512 76293
L80400 76293
L80343 76265
L80315 76209
L80315 75984
L80343 75928
L80400 75899
L80512 75899
L80568 75928
L80597 75984
L80597 76040
L80315 76096
" />
<path d="M80850 76237
L80878 76265
L80850 76293
L80822 76265
L80850 76237
L80850 76293
" />
<path d="M80850 75928
L80878 75956
L80850 75984
L80822 75956
L80850 75928
L80850 75984
" />
</g>
<g style="fill:#000000; fill-opacity:0.0; 
stroke:#000000; stroke-width:39.3701; stroke-opacity:1; 
stroke-linecap:round; stroke-linejoin:round;">
</g>
<g style="fill:#000000; fill-opacity:0.0; 
stroke:#000000; stroke-width:59.0551; stroke-opacity:1; 
stroke-linecap:round; stroke-linejoin:round;">
<path d="M69685 76577
L112205 76577
" />
</g>
<g style="fill:#000000; fill-opacity:0.0; 
stroke:#000000; stroke-width:39.3701; stroke-opacity:1; 
stroke-linecap:round; stroke-linejoin:round;">
</g>
<g style="fill:#000000; fill-opacity:0.0; 
stroke:#000000; stroke-width:59.0551; stroke-opacity:1; 
stroke-linecap:round; stroke-linejoin:round;">
<path d="M70220 77395
L70220 76805
" />
<path d="M70557 77395
L70304 77058
" />
<path d="M70557 76805
L70220 77142
" />
<path d="M70810 77395
L70810 77002
" />
<path d="M70810 76805
L70782 76833
L70810 76861
L70838 76833
L70810 76805
L70810 76861
" />
<path d="M71429 77339
L71401 77367
L71316 77395
L71260 77395
L71176 77367
L71120 77311
L71091 77255
L71063 77142
L71063 77058
L71091 76946
L71120 76889
L71176 76833
L71260 76805
L71316 76805
L71401 76833
L71429 76861
" />
<path d="M71935 77395
L71935 77086
L71907 77030
L71851 77002
L71738 77002
L71682 77030
" />
<path d="M71935 77367
L71879 77395
L71738 77395
L71682 77367
L71654 77311
L71654 77255
L71682 77199
L71738 77171
L71879 77171
L71935 77142
" />
<path d="M72469 77395
L72469 76805
" />
<path d="M72469 77367
L72413 77395
L72301 77395
L72244 77367
L72216 77339
L72188 77283
L72188 77114
L72216 77058
L72244 77030
L72301 77002
L72413 77002
L72469 77030
" />
<path d="M73201 77086
L73397 77086
" />
<path d="M73482 77395
L73201 77395
L73201 76805
L73482 76805
" />
<path d="M73735 77339
L73763 77367
L73735 77395
L73707 77367
L73735 77339
L73735 77395
" />
<path d="M74016 77395
L74016 76805
L74157 76805
L74241 76833
L74297 76889
L74325 76946
L74354 77058
L74354 77142
L74325 77255
L74297 77311
L74241 77367
L74157 77395
L74016 77395
" />
<path d="M74607 77339
L74635 77367
L74607 77395
L74579 77367
L74607 77339
L74607 77395
" />
<path d="M74860 77227
L75141 77227
" />
<path d="M74804 77395
L75000 76805
L75197 77395
" />
<path d="M75394 77339
L75422 77367
L75394 77395
L75366 77367
L75394 77339
L75394 77395
" />
<path d="M76575 77395
L76575 76805
" />
<path d="M76631 77171
L76800 77395
" />
<path d="M76800 77002
L76575 77227
" />
<path d="M77053 77395
L77053 77002
" />
<path d="M77053 76805
L77025 76833
L77053 76861
L77081 76833
L77053 76805
L77053 76861
" />
<path d="M77588 77367
L77531 77395
L77419 77395
L77363 77367
L77334 77339
L77306 77283
L77306 77114
L77334 77058
L77363 77030
L77419 77002
L77531 77002
L77588 77030
" />
<path d="M78094 77395
L78094 77086
L78066 77030
L78009 77002
L77897 77002
L77841 77030
" />
<path d="M78094 77367
L78037 77395
L77897 77395
L77841 77367
L77813 77311
L77813 77255
L77841 77199
L77897 77171
L78037 77171
L78094 77142
" />
<path d="M78628 77395
L78628 76805
" />
<path d="M78628 77367
L78572 77395
L78459 77395
L78403 77367
L78375 77339
L78347 77283
L78347 77114
L78375 77058
L78403 77030
L78459 77002
L78572 77002
L78628 77030
" />
<path d="M79612 77002
L79612 77395
" />
<path d="M79472 76777
L79331 77199
L79697 77199
" />
<path d="M79922 77339
L79950 77367
L79922 77395
L79894 77367
L79922 77339
L79922 77395
" />
<path d="M80315 76805
L80372 76805
L80428 76833
L80456 76861
L80484 76917
L80512 77030
L80512 77171
L80484 77283
L80456 77339
L80428 77367
L80372 77395
L80315 77395
L80259 77367
L80231 77339
L80203 77283
L80175 77171
L80175 77030
L80203 76917
L80231 76861
L80259 76833
L80315 76805
" />
<path d="M80765 77339
L80793 77367
L80765 77395
L80737 77367
L80765 77339
L80765 77395
" />
<path d="M80990 76805
L81384 76805
L81131 77395
" />
</g>
<g style="fill:#000000; fill-opacity:0.0; 
stroke:#000000; stroke-width:39.3701; stroke-opacity:1; 
stroke-linecap:round; stroke-linejoin:round;">
</g>
<g style="fill:#000000; fill-opacity:0.0; 
stroke:#000000; stroke-width:59.0551; stroke-opacity:1; 
stroke-linecap:round; stroke-linejoin:round;">
<path d="M69685 75396
L112205 75396
" />
</g>
<g style="fill:#000000; fill-opacity:0.0; 
stroke:#000000; stroke-width:39.3701; stroke-opacity:1; 
stroke-linecap:round; stroke-linejoin:round;">
</g>
<g style="fill:#000000; fill-opacity:0.0; 
stroke:#000000; stroke-width:118.11; stroke-opacity:1; 
stroke-linecap:round; stroke-linejoin:round;">
<path d="M104022 76293
L103825 76012
" />
<path d="M103684 76293
L103684 75703
L103909 75703
L103965 75731
L103994 75759
L104022 75815
L104022 75899
L103994 75956
L103965 75984
L103909 76012
L103684 76012
" />
<path d="M104500 76265
L104444 76293
L104331 76293
L104275 76265
L104247 76209
L104247 75984
L104275 75928
L104331 75899
L104444 75899
L104500 75928
L104528 75984
L104528 76040
L104247 76096
" />
<path d="M104725 75899
L104865 76293
L105006 75899
" />
<path d="M105231 76237
L105259 76265
L105231 76293
L105203 76265
L105231 76237
L105231 76293
" />
<path d="M105231 75928
L105259 75956
L105231 75984
L105203 75956
L105231 75928
L105231 75984
" />
</g>
<g style="fill:#000000; fill-opacity:0.0; 
stroke:#000000; stroke-width:39.3701; stroke-opacity:1; 
stroke-linecap:round; stroke-linejoin:round;">
</g>
<g style="fill:#000000; fill-opacity:0.0; 
stroke:#000000; stroke-width:59.0551; stroke-opacity:1; 
stroke-linecap:round; stroke-linejoin:round;">
<path d="M70192 76265
L70276 76293
L70417 76293
L70473 76265
L70501 76237
L70529 76181
L70529 76124
L70501 76068
L70473 76040
L70417 76012
L70304 75984
L70248 75956
L70220 75928
L70192 75871
L70192 75815
L70220 75759
L70248 75731
L70304 75703
L70445 75703
L70529 75731
" />
<path d="M70782 76293
L70782 75899
" />
<path d="M70782 75703
L70754 75731
L70782 75759
L70810 75731
L70782 75703
L70782 75759
" />
<path d="M71007 75899
L71316 75899
L71007 76293
L71316 76293
" />
<path d="M71766 76265
L71710 76293
L71598 76293
L71541 76265
L71513 76209
L71513 75984
L71541 75928
L71598 75899
L71710 75899
L71766 75928
L71795 75984
L71795 76040
L71513 76096
" />
<path d="M72048 76237
L72076 76265
L72048 76293
L72019 76265
L72048 76237
L72048 76293
" />
<path d="M72048 75928
L72076 75956
L72048 75984
L72019 75956
L72048 75928
L72048 75984
" />
<path d="M72751 76124
L73032 76124
" />
<path d="M72694 76293
L72891 75703
L73088 76293
" />
<path d="M73538 75899
L73538 76293
" />
<path d="M73397 75674
L73257 76096
L73622 76096
" />
</g>
<g style="fill:#000000; fill-opacity:0.0; 
stroke:#000000; stroke-width:39.3701; stroke-opacity:1; 
stroke-linecap:round; stroke-linejoin:round;">
</g>
<g style="fill:#000000; fill-opacity:0.0; 
stroke:#000000; stroke-width:59.0551; stroke-opacity:1; 
stroke-linecap:round; stroke-linejoin:round;">
<path d="M103684 77395
L103684 76805
" />
<path d="M104219 77395
L104219 76805
" />
<path d="M104219 77367
L104162 77395
L104050 77395
L103994 77367
L103965 77339
L103937 77283
L103937 77114
L103965 77058
L103994 77030
L104050 77002
L104162 77002
L104219 77030
" />
<path d="M104500 77339
L104528 77367
L104500 77395
L104472 77367
L104500 77339
L104500 77395
" />
<path d="M104500 77030
L104528 77058
L104500 77086
L104472 77058
L104500 77030
L104500 77086
" />
<path d="M105540 77395
L105203 77395
" />
<path d="M105372 77395
L105372 76805
L105315 76889
L105259 76946
L105203 76974
" />
<path d="M106215 76777
L105709 77536
" />
<path d="M106721 77395
L106384 77395
" />
<path d="M106553 77395
L106553 76805
L106496 76889
L106440 76946
L106384 76974
" />
</g>
<g style="fill:#000000; fill-opacity:0.0; 
stroke:#000000; stroke-width:39.3701; stroke-opacity:1; 
stroke-linecap:round; stroke-linejoin:round;">
</g>
<g style="fill:#000000; fill-opacity:0.0; 
stroke:#000000; stroke-width:59.0551; stroke-opacity:1; 
stroke-linecap:round; stroke-linejoin:round;">
<path d="M69685 73821
L112205 73821
" />
</g>
<g style="fill:#000000; fill-opacity:0.0; 
stroke:#000000; stroke-width:39.3701; stroke-opacity:1; 
stroke-linecap:round; stroke-linejoin:round;">
</g>
<g style="fill:#000000; fill-opacity:0.0; 
stroke:#000000; stroke-width:157.48; stroke-opacity:1; 
stroke-linecap:round; stroke-linejoin:round;">
<path d="M70257 74099
L70707 74099
" />
<path d="M70384 74886
L70482 74099
" />
<path d="M70871 74886
L70937 74361
" />
<path d="M70970 74099
L70927 74136
L70960 74174
L71002 74136
L70970 74099
L70960 74174
" />
<path d="M71199 74361
L71499 74361
" />
<path d="M71345 74099
L71260 74774
L71288 74849
L71359 74886
L71434 74886
" />
<path d="M71809 74886
L71738 74849
L71710 74774
L71795 74099
" />
<path d="M72413 74849
L72334 74886
L72184 74886
L72113 74849
L72085 74774
L72123 74474
L72169 74399
L72249 74361
L72399 74361
L72469 74399
L72498 74474
L72488 74549
L72104 74624
" />
<path d="M72793 74811
L72826 74849
L72783 74886
L72751 74849
L72793 74811
L72783 74886
" />
<path d="M72844 74399
L72877 74436
L72835 74474
L72802 74436
L72844 74399
L72835 74474
" />
</g>
<g style="fill:#000000; fill-opacity:0.0; 
stroke:#000000; stroke-width:39.3701; stroke-opacity:1; 
stroke-linecap:round; stroke-linejoin:round;">
</g>
<g style="fill:#000000; fill-opacity:0.0; 
stroke:#000000; stroke-width:59.0551; stroke-opacity:1; 
stroke-linecap:round; stroke-linejoin:round;">
<path d="M70417 73070
L70220 73070
" />
<path d="M70220 73380
L70220 72789
L70501 72789
" />
<path d="M70726 73380
L70726 72986
" />
<path d="M70726 72789
L70698 72817
L70726 72845
L70754 72817
L70726 72789
L70726 72845
" />
<path d="M71091 73380
L71035 73352
L71007 73295
L71007 72789
" />
<path d="M71541 73352
L71485 73380
L71373 73380
L71316 73352
L71288 73295
L71288 73070
L71316 73014
L71373 72986
L71485 72986
L71541 73014
L71570 73070
L71570 73127
L71288 73183
" />
<path d="M71823 73323
L71851 73352
L71823 73380
L71795 73352
L71823 73323
L71823 73380
" />
<path d="M71823 73014
L71851 73042
L71823 73070
L71795 73042
L71823 73014
L71823 73070
" />
<path d="M72554 72986
L72554 73577
" />
<path d="M72554 73014
L72610 72986
L72723 72986
L72779 73014
L72807 73042
L72835 73099
L72835 73267
L72807 73323
L72779 73352
L72723 73380
L72610 73380
L72554 73352
" />
<path d="M73088 73380
L73088 72986
" />
<path d="M73088 73099
L73116 73042
L73144 73014
L73201 72986
L73257 72986
" />
<path d="M73707 72986
L73707 73380
" />
<path d="M73454 72986
L73454 73295
L73482 73352
L73538 73380
L73622 73380
L73679 73352
L73707 73323
" />
<path d="M74213 73352
L74157 73380
L74044 73380
L73988 73352
L73960 73295
L73960 73070
L73988 73014
L74044 72986
L74157 72986
L74213 73014
L74241 73070
L74241 73127
L73960 73183
" />
<path d="M74494 73380
L74494 72789
" />
<path d="M74494 73014
L74550 72986
L74663 72986
L74719 73014
L74747 73042
L74775 73099
L74775 73267
L74747 73323
L74719 73352
L74663 73380
L74550 73380
L74494 73352
" />
<path d="M75282 73380
L75282 73070
L75253 73014
L75197 72986
L75085 72986
L75028 73014
" />
<path d="M75282 73352
L75225 73380
L75085 73380
L75028 73352
L75000 73295
L75000 73239
L75028 73183
L75085 73155
L75225 73155
L75282 73127
" />
<path d="M75563 73323
L75591 73352
L75563 73380
L75535 73352
L75563 73323
L75563 73380
" />
<path d="M75844 73380
L75844 72789
" />
<path d="M75900 73155
L76069 73380
" />
<path d="M76069 72986
L75844 73211
" />
<path d="M76322 73380
L76322 72986
" />
<path d="M76322 72789
L76294 72817
L76322 72845
L76350 72817
L76322 72789
L76322 72845
" />
<path d="M76856 73352
L76800 73380
L76688 73380
L76631 73352
L76603 73323
L76575 73267
L76575 73099
L76603 73042
L76631 73014
L76688 72986
L76800 72986
L76856 73014
" />
<path d="M77363 73380
L77363 73070
L77334 73014
L77278 72986
L77166 72986
L77109 73014
" />
<path d="M77363 73352
L77306 73380
L77166 73380
L77109 73352
L77081 73295
L77081 73239
L77109 73183
L77166 73155
L77306 73155
L77363 73127
" />
<path d="M77897 73380
L77897 72789
" />
<path d="M77897 73352
L77841 73380
L77728 73380
L77672 73352
L77644 73323
L77616 73267
L77616 73099
L77644 73042
L77672 73014
L77728 72986
L77841 72986
L77897 73014
" />
<path d="M78037 73436
L78487 73436
" />
<path d="M78628 72986
L78628 73577
" />
<path d="M78628 73014
L78684 72986
L78797 72986
L78853 73014
L78881 73042
L78909 73099
L78909 73267
L78881 73323
L78853 73352
L78797 73380
L78684 73380
L78628 73352
" />
<path d="M79415 73352
L79359 73380
L79247 73380
L79190 73352
L79162 73323
L79134 73267
L79134 73099
L79162 73042
L79190 73014
L79247 72986
L79359 72986
L79415 73014
" />
<path d="M79669 73380
L79669 72789
" />
<path d="M79669 73014
L79725 72986
L79837 72986
L79894 73014
L79922 73042
L79950 73099
L79950 73267
L79922 73323
L79894 73352
L79837 73380
L79725 73380
L79669 73352
" />
</g>
<g style="fill:#000000; fill-opacity:0.0; 
stroke:#000000; stroke-width:39.3701; stroke-opacity:1; 
stroke-linecap:round; stroke-linejoin:round;">
</g>
<g style="fill:#000000; fill-opacity:0.0; 
stroke:#000000; stroke-width:59.0551; stroke-opacity:1; 
stroke-linecap:round; stroke-linejoin:round;">
<path d="M69685 71459
L112205 71459
" />
</g>
<g style="fill:#000000; fill-opacity:0.0; 
stroke:#000000; stroke-width:39.3701; stroke-opacity:1; 
stroke-linecap:round; stroke-linejoin:round;">
</g>
<g style="fill:#000000; fill-opacity:0.0; 
stroke:#000000; stroke-width:59.0551; stroke-opacity:1; 
stroke-linecap:round; stroke-linejoin:round;">
<path d="M70192 72289
L70276 72317
L70417 72317
L70473 72289
L70501 72260
L70529 72204
L70529 72148
L70501 72092
L70473 72064
L70417 72036
L70304 72007
L70248 71979
L70220 71951
L70192 71895
L70192 71839
L70220 71782
L70248 71754
L70304 71726
L70445 71726
L70529 71754
" />
<path d="M70782 72317
L70782 71726
" />
<path d="M71035 72317
L71035 72007
L71007 71951
L70951 71923
L70867 71923
L70810 71951
L70782 71979
" />
<path d="M71541 72289
L71485 72317
L71373 72317
L71316 72289
L71288 72232
L71288 72007
L71316 71951
L71373 71923
L71485 71923
L71541 71951
L71570 72007
L71570 72064
L71288 72120
" />
<path d="M72048 72289
L71991 72317
L71879 72317
L71823 72289
L71795 72232
L71795 72007
L71823 71951
L71879 71923
L71991 71923
L72048 71951
L72076 72007
L72076 72064
L71795 72120
" />
<path d="M72244 71923
L72469 71923
" />
<path d="M72329 71726
L72329 72232
L72357 72289
L72413 72317
L72469 72317
" />
<path d="M72666 72260
L72694 72289
L72666 72317
L72638 72289
L72666 72260
L72666 72317
" />
<path d="M72666 71951
L72694 71979
L72666 72007
L72638 71979
L72666 71951
L72666 72007
" />
</g>
<g style="fill:#000000; fill-opacity:0.0; 
stroke:#000000; stroke-width:39.3701; stroke-opacity:1; 
stroke-linecap:round; stroke-linejoin:round;">
</g>
<g style="fill:#000000; fill-opacity:0.0; 
stroke:#000000; stroke-width:59.0551; stroke-opacity:1; 
stroke-linecap:round; stroke-linejoin:round;">
<path d="M77559 75396
L77559 76577
" />
</g>
<g style="fill:#000000; fill-opacity:0.0; 
stroke:#000000; stroke-width:39.3701; stroke-opacity:1; 
stroke-linecap:round; stroke-linejoin:round;">
</g>
<g style="fill:#000000; fill-opacity:0.0; 
stroke:#000000; stroke-width:59.0551; stroke-opacity:1; 
stroke-linecap:round; stroke-linejoin:round;">
<path d="M102756 75396
L102756 77955
" />
</g>
<g style="fill:#C2C200; fill-opacity:0.0; 
stroke:#C2C200; stroke-width:59.0551; stroke-opacity:1; 
stroke-linecap:round; stroke-linejoin:round;">
<path d="M41500 54000
L64500 54000
" />
<path d="M41500 18500
L41500 54000
" />
<path d="M42000 18500
L41500 18500
" />
<path d="M64500 18500
L42000 18500
" />
<path d="M64500 54000
L64500 18500
" />
<path d="M60521 37284
L60559 37284
L60596 37303
L60615 37321
L60634 37359
L60653 37434
L60653 37528
L60634 37603
L60615 37640
L60596 37659
L60559 37678
L60521 37678
L60484 37659
L60465 37640
L60446 37603
L60428 37528
L60428 37434
L60446 37359
L60465 37321
L60484 37303
L60521 37284
" />
<path d="M60821 37640
L60840 37659
L60821 37678
L60803 37659
L60821 37640
L60821 37678
" />
<path d="M61215 37678
L60990 37678
" />
<path d="M61103 37678
L61103 37284
L61065 37340
L61028 37378
L60990 37396
" />
<path d="M61553 37415
L61553 37678
" />
<path d="M61384 37415
L61384 37621
L61403 37659
L61440 37678
L61496 37678
L61534 37659
L61553 37640
" />
<path d="M60746 36640
L60728 36659
L60671 36678
L60634 36678
L60578 36659
L60540 36621
L60521 36584
L60503 36509
L60503 36453
L60521 36378
L60540 36340
L60578 36303
L60634 36284
L60671 36284
L60728 36303
L60746 36321
" />
<path d="M61121 36678
L60896 36678
" />
<path d="M61009 36678
L61009 36284
L60971 36340
L60934 36378
L60896 36396
" />
<path d="M61253 36284
L61515 36284
L61346 36678
" />
<path d="M60887 37927
L60887 38189
" />
<path d="M60793 37777
L60700 38058
L60943 38058
" />
<path d="M61056 37796
L61318 37796
L61149 38189
" />
<path d="M60746 37185
L60615 36998
" />
<path d="M60521 37185
L60521 36792
L60671 36792
L60709 36811
L60728 36829
L60746 36867
L60746 36923
L60728 36961
L60709 36979
L60671 36998
L60521 36998
" />
<path d="M61121 37185
L60896 37185
" />
<path d="M61009 37185
L61009 36792
L60971 36848
L60934 36886
L60896 36904
" />
<path d="M61309 37185
L61384 37185
L61421 37167
L61440 37148
L61478 37092
L61496 37017
L61496 36867
L61478 36829
L61459 36811
L61421 36792
L61346 36792
L61309 36811
L61290 36829
L61271 36867
L61271 36961
L61290 36998
L61309 37017
L61346 37035
L61421 37035
L61459 37017
L61478 36998
L61496 36961
" />
<path d="M60887 38927
L60887 39189
" />
<path d="M60793 38777
L60700 39058
L60943 39058
" />
<path d="M61056 38796
L61318 38796
L61149 39189
" />
<path d="M60746 38185
L60615 37998
" />
<path d="M60521 38185
L60521 37792
L60671 37792
L60709 37811
L60728 37829
L60746 37867
L60746 37923
L60728 37961
L60709 37979
L60671 37998
L60521 37998
" />
<path d="M60896 37829
L60915 37811
L60953 37792
L61046 37792
L61084 37811
L61103 37829
L61121 37867
L61121 37904
L61103 37961
L60878 38185
L61121 38185
" />
<path d="M61496 38185
L61271 38185
" />
<path d="M61384 38185
L61384 37792
L61346 37848
L61309 37886
L61271 37904
" />
<path d="M60615 38415
L60615 38678
" />
<path d="M60521 38265
L60428 38546
L60671 38546
" />
<path d="M60821 38640
L60840 38659
L60821 38678
L60803 38659
L60821 38640
L60821 38678
" />
<path d="M60971 38284
L61234 38284
L61065 38678
" />
<path d="M61553 38415
L61553 38678
" />
<path d="M61384 38415
L61384 38621
L61403 38659
L61440 38678
L61496 38678
L61534 38659
L61553 38640
" />
<path d="M60746 39640
L60728 39659
L60671 39678
L60634 39678
L60578 39659
L60540 39621
L60521 39584
L60503 39509
L60503 39453
L60521 39378
L60540 39340
L60578 39303
L60634 39284
L60671 39284
L60728 39303
L60746 39321
" />
<path d="M60896 39321
L60915 39303
L60953 39284
L61046 39284
L61084 39303
L61103 39321
L61121 39359
L61121 39396
L61103 39453
L60878 39678
L61121 39678
" />
<path d="M61365 39284
L61403 39284
L61440 39303
L61459 39321
L61478 39359
L61496 39434
L61496 39528
L61478 39603
L61459 39640
L61440 39659
L61403 39678
L61365 39678
L61328 39659
L61309 39640
L61290 39603
L61271 39528
L61271 39434
L61290 39359
L61309 39321
L61328 39303
L61365 39284
" />
<path d="M43915 40384
L44178 40384
" />
<path d="M43765 40478
L44046 40571
L44046 40328
" />
<path d="M44140 40178
L44159 40159
L44178 40178
L44159 40196
L44140 40178
L44178 40178
" />
<path d="M43784 40028
L43784 39765
L44178 39934
" />
<path d="M43915 39446
L44178 39446
" />
<path d="M43915 39615
L44121 39615
L44159 39596
L44178 39559
L44178 39503
L44159 39465
L44140 39446
" />
<path d="M45140 40253
L45159 40271
L45178 40328
L45178 40365
L45159 40421
L45121 40459
L45084 40478
L45009 40496
L44953 40496
L44878 40478
L44840 40459
L44803 40421
L44784 40365
L44784 40328
L44803 40271
L44821 40253
" />
<path d="M45178 39878
L45178 40103
" />
<path d="M45178 39990
L44784 39990
L44840 40028
L44878 40065
L44896 40103
" />
<path d="M45178 39690
L45178 39615
L45159 39578
L45140 39559
L45084 39521
L45009 39503
L44859 39503
L44821 39521
L44803 39540
L44784 39578
L44784 39653
L44803 39690
L44821 39709
L44859 39728
L44953 39728
L44990 39709
L45009 39690
L45028 39653
L45028 39578
L45009 39540
L44990 39521
L44953 39503
" />
<path d="M45021 40284
L45059 40284
L45096 40303
L45115 40321
L45134 40359
L45153 40434
L45153 40528
L45134 40603
L45115 40640
L45096 40659
L45059 40678
L45021 40678
L44984 40659
L44965 40640
L44946 40603
L44928 40528
L44928 40434
L44946 40359
L44965 40321
L44984 40303
L45021 40284
" />
<path d="M45321 40640
L45340 40659
L45321 40678
L45303 40659
L45321 40640
L45321 40678
" />
<path d="M45715 40678
L45490 40678
" />
<path d="M45603 40678
L45603 40284
L45565 40340
L45528 40378
L45490 40396
" />
<path d="M46053 40415
L46053 40678
" />
<path d="M45884 40415
L45884 40621
L45903 40659
L45940 40678
L45996 40678
L46034 40659
L46053 40640
" />
<path d="M45246 39640
L45228 39659
L45171 39678
L45134 39678
L45078 39659
L45040 39621
L45021 39584
L45003 39509
L45003 39453
L45021 39378
L45040 39340
L45078 39303
L45134 39284
L45171 39284
L45228 39303
L45246 39321
" />
<path d="M45621 39678
L45396 39678
" />
<path d="M45509 39678
L45509 39284
L45471 39340
L45434 39378
L45396 39396
" />
<path d="M45846 39453
L45809 39434
L45790 39415
L45771 39378
L45771 39359
L45790 39321
L45809 39303
L45846 39284
L45921 39284
L45959 39303
L45978 39321
L45996 39359
L45996 39378
L45978 39415
L45959 39434
L45921 39453
L45846 39453
L45809 39471
L45790 39490
L45771 39528
L45771 39603
L45790 39640
L45809 39659
L45846 39678
L45921 39678
L45959 39659
L45978 39640
L45996 39603
L45996 39528
L45978 39490
L45959 39471
L45921 39453
" />
<path d="M44387 42927
L44387 43189
" />
<path d="M44293 42777
L44200 43058
L44443 43058
" />
<path d="M44556 42796
L44818 42796
L44649 43189
" />
<path d="M44246 42185
L44115 41998
" />
<path d="M44021 42185
L44021 41792
L44171 41792
L44209 41811
L44228 41829
L44246 41867
L44246 41923
L44228 41961
L44209 41979
L44171 41998
L44021 41998
" />
<path d="M44396 41829
L44415 41811
L44453 41792
L44546 41792
L44584 41811
L44603 41829
L44621 41867
L44621 41904
L44603 41961
L44378 42185
L44621 42185
" />
<path d="M44865 41792
L44903 41792
L44940 41811
L44959 41829
L44978 41867
L44996 41942
L44996 42035
L44978 42110
L44959 42148
L44940 42167
L44903 42185
L44865 42185
L44828 42167
L44809 42148
L44790 42110
L44771 42035
L44771 41942
L44790 41867
L44809 41829
L44828 41811
L44865 41792
" />
<path d="M44927 41112
L45189 41112
" />
<path d="M44777 41206
L45058 41299
L45058 41056
" />
<path d="M44796 40943
L44796 40681
L45189 40850
" />
<path d="M44185 41253
L43998 41384
" />
<path d="M44185 41478
L43792 41478
L43792 41328
L43811 41290
L43829 41271
L43867 41253
L43923 41253
L43961 41271
L43979 41290
L43998 41328
L43998 41478
" />
<path d="M43829 41103
L43811 41084
L43792 41046
L43792 40953
L43811 40915
L43829 40896
L43867 40878
L43904 40878
L43961 40896
L44185 41121
L44185 40878
" />
<path d="M43829 40728
L43811 40709
L43792 40671
L43792 40578
L43811 40540
L43829 40521
L43867 40503
L43904 40503
L43961 40521
L44185 40746
L44185 40503
" />
<path d="M60046 53756
L60046 53512
L60196 53643
L60196 53587
L60214 53549
L60233 53531
L60271 53512
L60364 53512
L60402 53531
L60421 53549
L60439 53587
L60439 53699
L60421 53737
L60402 53756
" />
<path d="M60046 53381
L60046 53137
L60196 53268
L60196 53212
L60214 53175
L60233 53156
L60271 53137
L60364 53137
L60402 53156
L60421 53175
L60439 53212
L60439 53324
L60421 53362
L60402 53381
" />
<path d="M60046 52893
L60046 52856
L60064 52818
L60083 52800
L60121 52781
L60196 52762
L60289 52762
L60364 52781
L60402 52800
L60421 52818
L60439 52856
L60439 52893
L60421 52931
L60402 52950
L60364 52968
L60289 52987
L60196 52987
L60121 52968
L60083 52950
L60064 52931
L60046 52893
" />
<path d="M59435 53503
L59248 53634
" />
<path d="M59435 53728
L59042 53728
L59042 53578
L59061 53540
L59079 53521
L59117 53503
L59173 53503
L59211 53521
L59229 53540
L59248 53578
L59248 53728
" />
<path d="M59435 53128
L59435 53353
" />
<path d="M59435 53240
L59042 53240
L59098 53278
L59136 53315
L59154 53353
" />
<path d="M59042 52771
L59042 52959
L59229 52978
L59211 52959
L59192 52921
L59192 52828
L59211 52790
L59229 52771
L59267 52753
L59360 52753
L59398 52771
L59417 52790
L59435 52828
L59435 52921
L59417 52959
L59398 52978
" />
<path d="M60081 52503
L60081 52690
L59687 52690
" />
<path d="M59875 52371
L59875 52240
" />
<path d="M60081 52184
L60081 52371
L59687 52371
L59687 52184
" />
<path d="M60081 52015
L59687 52015
L59687 51921
L59706 51865
L59744 51828
L59781 51809
L59856 51790
L59912 51790
L59987 51809
L60025 51828
L60062 51865
L60081 51921
L60081 52015
" />
<path d="M53559 50178
L53334 50178
" />
<path d="M53446 50178
L53446 49784
L53409 49840
L53371 49878
L53334 49896
" />
<path d="M53803 49784
L53840 49784
L53878 49803
L53896 49821
L53915 49859
L53934 49934
L53934 50028
L53915 50103
L53896 50140
L53878 50159
L53840 50178
L53803 50178
L53765 50159
L53746 50140
L53728 50103
L53709 50028
L53709 49934
L53728 49859
L53746 49821
L53765 49803
L53803 49784
" />
<path d="M54178 49784
L54215 49784
L54253 49803
L54271 49821
L54290 49859
L54309 49934
L54309 50028
L54290 50103
L54271 50140
L54253 50159
L54215 50178
L54178 50178
L54140 50159
L54121 50140
L54103 50103
L54084 50028
L54084 49934
L54103 49859
L54121 49821
L54140 49803
L54178 49784
" />
<path d="M54478 49915
L54478 50178
" />
<path d="M54478 49953
L54496 49934
L54534 49915
L54590 49915
L54628 49934
L54646 49971
L54646 50178
" />
<path d="M53934 49140
L53915 49159
L53859 49178
L53821 49178
L53765 49159
L53728 49121
L53709 49084
L53690 49009
L53690 48953
L53709 48878
L53728 48840
L53765 48803
L53821 48784
L53859 48784
L53915 48803
L53934 48821
" />
<path d="M54309 49178
L54084 49178
" />
<path d="M54196 49178
L54196 48784
L54159 48840
L54121 48878
L54084 48896
" />
<path d="M55746 48678
L55521 48678
" />
<path d="M55634 48678
L55634 48284
L55596 48340
L55559 48378
L55521 48396
" />
<path d="M55990 48284
L56028 48284
L56065 48303
L56084 48321
L56103 48359
L56121 48434
L56121 48528
L56103 48603
L56084 48640
L56065 48659
L56028 48678
L55990 48678
L55953 48659
L55934 48640
L55915 48603
L55896 48528
L55896 48434
L55915 48359
L55934 48321
L55953 48303
L55990 48284
" />
<path d="M56459 48415
L56459 48678
" />
<path d="M56290 48415
L56290 48621
L56309 48659
L56346 48678
L56403 48678
L56440 48659
L56459 48640
" />
<path d="M55934 49640
L55915 49659
L55859 49678
L55821 49678
L55765 49659
L55728 49621
L55709 49584
L55690 49509
L55690 49453
L55709 49378
L55728 49340
L55765 49303
L55821 49284
L55859 49284
L55915 49303
L55934 49321
" />
<path d="M56084 49321
L56103 49303
L56140 49284
L56234 49284
L56271 49303
L56290 49321
L56309 49359
L56309 49396
L56290 49453
L56065 49678
L56309 49678
" />
<path d="M55559 49178
L55334 49178
" />
<path d="M55446 49178
L55446 48784
L55409 48840
L55371 48878
L55334 48896
" />
<path d="M55803 48784
L55840 48784
L55878 48803
L55896 48821
L55915 48859
L55934 48934
L55934 49028
L55915 49103
L55896 49140
L55878 49159
L55840 49178
L55803 49178
L55765 49159
L55746 49140
L55728 49103
L55709 49028
L55709 48934
L55728 48859
L55746 48821
L55765 48803
L55803 48784
" />
<path d="M56178 48784
L56215 48784
L56253 48803
L56271 48821
L56290 48859
L56309 48934
L56309 49028
L56290 49103
L56271 49140
L56253 49159
L56215 49178
L56178 49178
L56140 49159
L56121 49140
L56103 49103
L56084 49028
L56084 48934
L56103 48859
L56121 48821
L56140 48803
L56178 48784
" />
<path d="M56478 48915
L56478 49178
" />
<path d="M56478 48953
L56496 48934
L56534 48915
L56590 48915
L56628 48934
L56646 48971
L56646 49178
" />
<path d="M55934 50140
L55915 50159
L55859 50178
L55821 50178
L55765 50159
L55728 50121
L55709 50084
L55690 50009
L55690 49953
L55709 49878
L55728 49840
L55765 49803
L55821 49784
L55859 49784
L55915 49803
L55934 49821
" />
<path d="M56065 49784
L56309 49784
L56178 49934
L56234 49934
L56271 49953
L56290 49971
L56309 50009
L56309 50103
L56290 50140
L56271 50159
L56234 50178
L56121 50178
L56084 50159
L56065 50140
" />
<path d="M49521 22284
L49559 22284
L49596 22303
L49615 22321
L49634 22359
L49653 22434
L49653 22528
L49634 22603
L49615 22640
L49596 22659
L49559 22678
L49521 22678
L49484 22659
L49465 22640
L49446 22603
L49428 22528
L49428 22434
L49446 22359
L49465 22321
L49484 22303
L49521 22284
" />
<path d="M49821 22640
L49840 22659
L49821 22678
L49803 22659
L49821 22640
L49821 22678
" />
<path d="M50215 22678
L49990 22678
" />
<path d="M50103 22678
L50103 22284
L50065 22340
L50028 22378
L49990 22396
" />
<path d="M50553 22415
L50553 22678
" />
<path d="M50384 22415
L50384 22621
L50403 22659
L50440 22678
L50496 22678
L50534 22659
L50553 22640
" />
<path d="M49934 21640
L49915 21659
L49859 21678
L49821 21678
L49765 21659
L49728 21621
L49709 21584
L49690 21509
L49690 21453
L49709 21378
L49728 21340
L49765 21303
L49821 21284
L49859 21284
L49915 21303
L49934 21321
" />
<path d="M50271 21415
L50271 21678
" />
<path d="M50178 21265
L50084 21546
L50328 21546
" />
<path d="M51615 22415
L51615 22678
" />
<path d="M51521 22265
L51428 22546
L51671 22546
" />
<path d="M51821 22640
L51840 22659
L51821 22678
L51803 22659
L51821 22640
L51821 22678
" />
<path d="M51971 22284
L52234 22284
L52065 22678
" />
<path d="M52553 22415
L52553 22678
" />
<path d="M52384 22415
L52384 22621
L52403 22659
L52440 22678
L52496 22678
L52534 22659
L52553 22640
" />
<path d="M51934 21640
L51915 21659
L51859 21678
L51821 21678
L51765 21659
L51728 21621
L51709 21584
L51690 21509
L51690 21453
L51709 21378
L51728 21340
L51765 21303
L51821 21284
L51859 21284
L51915 21303
L51934 21321
" />
<path d="M52290 21284
L52103 21284
L52084 21471
L52103 21453
L52140 21434
L52234 21434
L52271 21453
L52290 21471
L52309 21509
L52309 21603
L52290 21640
L52271 21659
L52234 21678
L52140 21678
L52103 21659
L52084 21640
" />
<path d="M53178 50065
L53178 50290
" />
<path d="M53178 50178
L52784 50178
L52840 50215
L52878 50253
L52896 50290
" />
<path d="M52915 49728
L53178 49728
" />
<path d="M52915 49896
L53121 49896
L53159 49878
L53178 49840
L53178 49784
L53159 49746
L53140 49728
" />
<path d="M52140 50065
L52159 50084
L52178 50140
L52178 50178
L52159 50234
L52121 50271
L52084 50290
L52009 50309
L51953 50309
L51878 50290
L51840 50271
L51803 50234
L51784 50178
L51784 50140
L51803 50084
L51821 50065
" />
<path d="M51784 49728
L51784 49803
L51803 49840
L51821 49859
L51878 49896
L51953 49915
L52103 49915
L52140 49896
L52159 49878
L52178 49840
L52178 49765
L52159 49728
L52140 49709
L52103 49690
L52009 49690
L51971 49709
L51953 49728
L51934 49765
L51934 49840
L51953 49878
L51971 49896
L52009 49915
" />
<path d="M52178 50065
L52178 50290
" />
<path d="M52178 50178
L51784 50178
L51840 50215
L51878 50253
L51896 50290
" />
<path d="M51915 49728
L52178 49728
" />
<path d="M51915 49896
L52121 49896
L52159 49878
L52178 49840
L52178 49784
L52159 49746
L52140 49728
" />
<path d="M51140 50065
L51159 50084
L51178 50140
L51178 50178
L51159 50234
L51121 50271
L51084 50290
L51009 50309
L50953 50309
L50878 50290
L50840 50271
L50803 50234
L50784 50178
L50784 50140
L50803 50084
L50821 50065
" />
<path d="M50784 49934
L50784 49671
L51178 49840
" />
<path d="M52746 46678
L52521 46678
" />
<path d="M52634 46678
L52634 46284
L52596 46340
L52559 46378
L52521 46396
" />
<path d="M52990 46284
L53028 46284
L53065 46303
L53084 46321
L53103 46359
L53121 46434
L53121 46528
L53103 46603
L53084 46640
L53065 46659
L53028 46678
L52990 46678
L52953 46659
L52934 46640
L52915 46603
L52896 46528
L52896 46434
L52915 46359
L52934 46321
L52953 46303
L52990 46284
" />
<path d="M53290 46415
L53290 46678
" />
<path d="M53290 46453
L53309 46434
L53346 46415
L53403 46415
L53440 46434
L53459 46471
L53459 46678
" />
<path d="M52934 47640
L52915 47659
L52859 47678
L52821 47678
L52765 47659
L52728 47621
L52709 47584
L52690 47509
L52690 47453
L52709 47378
L52728 47340
L52765 47303
L52821 47284
L52859 47284
L52915 47303
L52934 47321
" />
<path d="M53159 47453
L53121 47434
L53103 47415
L53084 47378
L53084 47359
L53103 47321
L53121 47303
L53159 47284
L53234 47284
L53271 47303
L53290 47321
L53309 47359
L53309 47378
L53290 47415
L53271 47434
L53234 47453
L53159 47453
L53121 47471
L53103 47490
L53084 47528
L53084 47603
L53103 47640
L53121 47659
L53159 47678
L53234 47678
L53271 47659
L53290 47640
L53309 47603
L53309 47528
L53290 47490
L53271 47471
L53234 47453
" />
<path d="M51934 47678
L51709 47678
" />
<path d="M51821 47678
L51821 47284
L51784 47340
L51746 47378
L51709 47396
" />
<path d="M52271 47415
L52271 47678
" />
<path d="M52103 47415
L52103 47621
L52121 47659
L52159 47678
L52215 47678
L52253 47659
L52271 47640
" />
<path d="M51934 46640
L51915 46659
L51859 46678
L51821 46678
L51765 46659
L51728 46621
L51709 46584
L51690 46509
L51690 46453
L51709 46378
L51728 46340
L51765 46303
L51821 46284
L51859 46284
L51915 46303
L51934 46321
" />
<path d="M52121 46678
L52196 46678
L52234 46659
L52253 46640
L52290 46584
L52309 46509
L52309 46359
L52290 46321
L52271 46303
L52234 46284
L52159 46284
L52121 46303
L52103 46321
L52084 46359
L52084 46453
L52103 46490
L52121 46509
L52159 46528
L52234 46528
L52271 46509
L52290 46490
L52309 46453
" />
<path d="M51559 47178
L51334 47178
" />
<path d="M51446 47178
L51446 46784
L51409 46840
L51371 46878
L51334 46896
" />
<path d="M51803 46784
L51840 46784
L51878 46803
L51896 46821
L51915 46859
L51934 46934
L51934 47028
L51915 47103
L51896 47140
L51878 47159
L51840 47178
L51803 47178
L51765 47159
L51746 47140
L51728 47103
L51709 47028
L51709 46934
L51728 46859
L51746 46821
L51765 46803
L51803 46784
" />
<path d="M52178 46784
L52215 46784
L52253 46803
L52271 46821
L52290 46859
L52309 46934
L52309 47028
L52290 47103
L52271 47140
L52253 47159
L52215 47178
L52178 47178
L52140 47159
L52121 47140
L52103 47103
L52084 47028
L52084 46934
L52103 46859
L52121 46821
L52140 46803
L52178 46784
" />
<path d="M52478 46915
L52478 47178
" />
<path d="M52478 46953
L52496 46934
L52534 46915
L52590 46915
L52628 46934
L52646 46971
L52646 47178
" />
<path d="M51746 46140
L51728 46159
L51671 46178
L51634 46178
L51578 46159
L51540 46121
L51521 46084
L51503 46009
L51503 45953
L51521 45878
L51540 45840
L51578 45803
L51634 45784
L51671 45784
L51728 45803
L51746 45821
" />
<path d="M52121 46178
L51896 46178
" />
<path d="M52009 46178
L52009 45784
L51971 45840
L51934 45878
L51896 45896
" />
<path d="M52365 45784
L52403 45784
L52440 45803
L52459 45821
L52478 45859
L52496 45934
L52496 46028
L52478 46103
L52459 46140
L52440 46159
L52403 46178
L52365 46178
L52328 46159
L52309 46140
L52290 46103
L52271 46028
L52271 45934
L52290 45859
L52309 45821
L52328 45803
L52365 45784
" />
<path d="M46434 50178
L46209 50178
" />
<path d="M46321 50178
L46321 49784
L46284 49840
L46246 49878
L46209 49896
" />
<path d="M46771 49915
L46771 50178
" />
<path d="M46603 49915
L46603 50121
L46621 50159
L46659 50178
L46715 50178
L46753 50159
L46771 50140
" />
<path d="M46246 49140
L46228 49159
L46171 49178
L46134 49178
L46078 49159
L46040 49121
L46021 49084
L46003 49009
L46003 48953
L46021 48878
L46040 48840
L46078 48803
L46134 48784
L46171 48784
L46228 48803
L46246 48821
" />
<path d="M46621 49178
L46396 49178
" />
<path d="M46509 49178
L46509 48784
L46471 48840
L46434 48878
L46396 48896
" />
<path d="M46996 49178
L46771 49178
" />
<path d="M46884 49178
L46884 48784
L46846 48840
L46809 48878
L46771 48896
" />
<path d="M48934 48678
L48709 48678
" />
<path d="M48821 48678
L48821 48284
L48784 48340
L48746 48378
L48709 48396
" />
<path d="M49271 48415
L49271 48678
" />
<path d="M49103 48415
L49103 48621
L49121 48659
L49159 48678
L49215 48678
L49253 48659
L49271 48640
" />
<path d="M48746 47640
L48728 47659
L48671 47678
L48634 47678
L48578 47659
L48540 47621
L48521 47584
L48503 47509
L48503 47453
L48521 47378
L48540 47340
L48578 47303
L48634 47284
L48671 47284
L48728 47303
L48746 47321
" />
<path d="M49121 47678
L48896 47678
" />
<path d="M49009 47678
L49009 47284
L48971 47340
L48934 47378
L48896 47396
" />
<path d="M49271 47321
L49290 47303
L49328 47284
L49421 47284
L49459 47303
L49478 47321
L49496 47359
L49496 47396
L49478 47453
L49253 47678
L49496 47678
" />
<path d="M47434 49178
L47209 49178
" />
<path d="M47321 49178
L47321 48784
L47284 48840
L47246 48878
L47209 48896
" />
<path d="M47603 48915
L47603 49178
" />
<path d="M47603 48953
L47621 48934
L47659 48915
L47715 48915
L47753 48934
L47771 48971
L47771 49178
" />
<path d="M47246 50140
L47228 50159
L47171 50178
L47134 50178
L47078 50159
L47040 50121
L47021 50084
L47003 50009
L47003 49953
L47021 49878
L47040 49840
L47078 49803
L47134 49784
L47171 49784
L47228 49803
L47246 49821
" />
<path d="M47621 50178
L47396 50178
" />
<path d="M47509 50178
L47509 49784
L47471 49840
L47434 49878
L47396 49896
" />
<path d="M47753 49784
L47996 49784
L47865 49934
L47921 49934
L47959 49953
L47978 49971
L47996 50009
L47996 50103
L47978 50140
L47959 50159
L47921 50178
L47809 50178
L47771 50159
L47753 50140
" />
<path d="M55115 43415
L55115 43678
" />
<path d="M55021 43265
L54928 43546
L55171 43546
" />
<path d="M55321 43640
L55340 43659
L55321 43678
L55303 43659
L55321 43640
L55321 43678
" />
<path d="M55471 43284
L55734 43284
L55565 43678
" />
<path d="M55884 43415
L55884 43809
" />
<path d="M55884 43434
L55921 43415
L55996 43415
L56034 43434
L56053 43453
L56071 43490
L56071 43603
L56053 43640
L56034 43659
L55996 43678
L55921 43678
L55884 43659
" />
<path d="M55246 42640
L55228 42659
L55171 42678
L55134 42678
L55078 42659
L55040 42621
L55021 42584
L55003 42509
L55003 42453
L55021 42378
L55040 42340
L55078 42303
L55134 42284
L55171 42284
L55228 42303
L55246 42321
" />
<path d="M55621 42678
L55396 42678
" />
<path d="M55509 42678
L55509 42284
L55471 42340
L55434 42378
L55396 42396
" />
<path d="M55959 42415
L55959 42678
" />
<path d="M55865 42265
L55771 42546
L56015 42546
" />
<path d="M52115 41415
L52115 41678
" />
<path d="M52021 41265
L51928 41546
L52171 41546
" />
<path d="M52321 41640
L52340 41659
L52321 41678
L52303 41659
L52321 41640
L52321 41678
" />
<path d="M52471 41284
L52734 41284
L52565 41678
" />
<path d="M52884 41415
L52884 41809
" />
<path d="M52884 41434
L52921 41415
L52996 41415
L53034 41434
L53053 41453
L53071 41490
L53071 41603
L53053 41640
L53034 41659
L52996 41678
L52921 41678
L52884 41659
" />
<path d="M52246 40640
L52228 40659
L52171 40678
L52134 40678
L52078 40659
L52040 40621
L52021 40584
L52003 40509
L52003 40453
L52021 40378
L52040 40340
L52078 40303
L52134 40284
L52171 40284
L52228 40303
L52246 40321
" />
<path d="M52621 40678
L52396 40678
" />
<path d="M52509 40678
L52509 40284
L52471 40340
L52434 40378
L52396 40396
" />
<path d="M52978 40284
L52790 40284
L52771 40471
L52790 40453
L52828 40434
L52921 40434
L52959 40453
L52978 40471
L52996 40509
L52996 40603
L52978 40640
L52959 40659
L52921 40678
L52828 40678
L52790 40659
L52771 40640
" />
<path d="M57934 43678
L57709 43678
" />
<path d="M57821 43678
L57821 43284
L57784 43340
L57746 43378
L57709 43396
" />
<path d="M58271 43415
L58271 43678
" />
<path d="M58103 43415
L58103 43621
L58121 43659
L58159 43678
L58215 43678
L58253 43659
L58271 43640
" />
<path d="M57746 42640
L57728 42659
L57671 42678
L57634 42678
L57578 42659
L57540 42621
L57521 42584
L57503 42509
L57503 42453
L57521 42378
L57540 42340
L57578 42303
L57634 42284
L57671 42284
L57728 42303
L57746 42321
" />
<path d="M58121 42678
L57896 42678
" />
<path d="M58009 42678
L58009 42284
L57971 42340
L57934 42378
L57896 42396
" />
<path d="M58459 42284
L58384 42284
L58346 42303
L58328 42321
L58290 42378
L58271 42453
L58271 42603
L58290 42640
L58309 42659
L58346 42678
L58421 42678
L58459 42659
L58478 42640
L58496 42603
L58496 42509
L58478 42471
L58459 42453
L58421 42434
L58346 42434
L58309 42453
L58290 42471
L58271 42509
" />
<path d="M53229 53759
L52835 53759
L52835 53665
L52854 53609
L52891 53571
L52929 53553
L53004 53534
L53060 53534
L53135 53553
L53173 53571
L53210 53609
L53229 53665
L53229 53759
" />
<path d="M53266 53459
L53266 53159
" />
<path d="M52835 53121
L52835 52896
" />
<path d="M53229 53009
L52835 53009
" />
<path d="M52835 52821
L53229 52690
L52835 52559
" />
<path d="M53210 52446
L53229 52390
L53229 52296
L53210 52259
L53191 52240
L53154 52221
L53116 52221
L53079 52240
L53060 52259
L53041 52296
L53023 52371
L53004 52409
L52985 52428
L52948 52446
L52910 52446
L52873 52428
L52854 52409
L52835 52371
L52835 52278
L52854 52221
" />
<path d="M52126 53290
L51733 53290
L51733 53196
L51751 53140
L51789 53103
L51826 53084
L51901 53065
L51958 53065
L52033 53084
L52070 53103
L52108 53140
L52126 53196
L52126 53290
" />
<path d="M52126 52690
L52126 52915
" />
<path d="M52126 52803
L51733 52803
L51789 52840
L51826 52878
L51845 52915
" />
<path d="M49000 49229
L49000 48835
L49093 48835
L49150 48854
L49187 48891
L49206 48929
L49225 49004
L49225 49060
L49206 49135
L49187 49173
L49150 49210
L49093 49229
L49000 49229
" />
<path d="M49300 49266
L49600 49266
" />
<path d="M49675 49210
L49731 49229
L49825 49229
L49862 49210
L49881 49191
L49900 49154
L49900 49116
L49881 49079
L49862 49060
L49825 49041
L49750 49023
L49712 49004
L49693 48985
L49675 48948
L49675 48910
L49693 48873
L49712 48854
L49750 48835
L49843 48835
L49900 48854
" />
<path d="M50237 49210
L50200 49229
L50125 49229
L50087 49210
L50068 49191
L50050 49154
L50050 49041
L50068 49004
L50087 48985
L50125 48966
L50200 48966
L50237 48985
" />
<path d="M50406 49229
L50406 48835
" />
<path d="M50574 49229
L50574 49023
L50556 48985
L50518 48966
L50462 48966
L50425 48985
L50406 49004
" />
<path d="M50818 49229
L50781 49210
L50762 49191
L50743 49154
L50743 49041
L50762 49004
L50781 48985
L50818 48966
L50874 48966
L50912 48985
L50931 49004
L50949 49041
L50949 49154
L50931 49191
L50912 49210
L50874 49229
L50818 49229
" />
<path d="M51062 48966
L51212 48966
" />
<path d="M51118 48835
L51118 49173
L51137 49210
L51174 49229
L51212 49229
" />
<path d="M51287 48966
L51437 48966
" />
<path d="M51343 48835
L51343 49173
L51362 49210
L51399 49229
L51437 49229
" />
<path d="M51568 49229
L51568 48835
" />
<path d="M51606 49079
L51718 49229
" />
<path d="M51718 48966
L51568 49116
" />
<path d="M51849 48966
L51943 49229
" />
<path d="M52037 48966
L51943 49229
L51906 49323
L51887 49341
L51849 49360
" />
<path d="M50209 48126
L50209 47733
L50303 47733
L50359 47751
L50396 47789
L50415 47826
L50434 47901
L50434 47958
L50415 48033
L50396 48070
L50359 48108
L50303 48126
L50209 48126
" />
<path d="M50584 47770
L50603 47751
L50640 47733
L50734 47733
L50771 47751
L50790 47770
L50809 47808
L50809 47845
L50790 47901
L50565 48126
L50809 48126
" />
<path d="M60081 47503
L60081 47690
L59687 47690
" />
<path d="M59875 47371
L59875 47240
" />
<path d="M60081 47184
L60081 47371
L59687 47371
L59687 47184
" />
<path d="M60081 47015
L59687 47015
L59687 46921
L59706 46865
L59744 46828
L59781 46809
L59856 46790
L59912 46790
L59987 46809
L60025 46828
L60062 46865
L60081 46921
L60081 47015
" />
<path d="M60081 45003
L60081 45190
L59687 45190
" />
<path d="M59875 44871
L59875 44740
" />
<path d="M60081 44684
L60081 44871
L59687 44871
L59687 44684
" />
<path d="M60081 44515
L59687 44515
L59687 44421
L59706 44365
L59744 44328
L59781 44309
L59856 44290
L59912 44290
L59987 44309
L60025 44328
L60062 44365
L60081 44421
L60081 44515
" />
<path d="M60081 42503
L60081 42690
L59687 42690
" />
<path d="M59875 42371
L59875 42240
" />
<path d="M60081 42184
L60081 42371
L59687 42371
L59687 42184
" />
<path d="M60081 42015
L59687 42015
L59687 41921
L59706 41865
L59744 41828
L59781 41809
L59856 41790
L59912 41790
L59987 41809
L60025 41828
L60062 41865
L60081 41921
L60081 42015
" />
<path d="M60081 50003
L60081 50190
L59687 50190
" />
<path d="M59875 49871
L59875 49740
" />
<path d="M60081 49684
L60081 49871
L59687 49871
L59687 49684
" />
<path d="M60081 49515
L59687 49515
L59687 49421
L59706 49365
L59744 49328
L59781 49309
L59856 49290
L59912 49290
L59987 49309
L60025 49328
L60062 49365
L60081 49421
L60081 49515
" />
<path d="M44595 49428
L44201 49428
" />
<path d="M44389 49428
L44389 49203
" />
<path d="M44595 49203
L44201 49203
" />
<path d="M44576 48865
L44595 48903
L44595 48978
L44576 49015
L44539 49034
L44389 49034
L44351 49015
L44332 48978
L44332 48903
L44351 48865
L44389 48846
L44426 48846
L44464 49034
" />
<path d="M44595 48509
L44389 48509
L44351 48528
L44332 48565
L44332 48640
L44351 48678
" />
<path d="M44576 48509
L44595 48546
L44595 48640
L44576 48678
L44539 48696
L44501 48696
L44464 48678
L44445 48640
L44445 48546
L44426 48509
" />
<path d="M44595 48153
L44201 48153
" />
<path d="M44576 48153
L44595 48190
L44595 48265
L44576 48303
L44557 48321
L44520 48340
L44407 48340
L44370 48321
L44351 48303
L44332 48265
L44332 48190
L44351 48153
" />
<path d="M44576 47815
L44595 47853
L44595 47928
L44576 47965
L44539 47984
L44389 47984
L44351 47965
L44332 47928
L44332 47853
L44351 47815
L44389 47796
L44426 47796
L44464 47984
" />
<path d="M44595 47628
L44332 47628
" />
<path d="M44407 47628
L44370 47609
L44351 47590
L44332 47553
L44332 47515
" />
<path d="M43178 49615
L42784 49615
" />
<path d="M42971 49615
L42971 49390
" />
<path d="M43178 49390
L42784 49390
" />
<path d="M43159 49053
L43178 49090
L43178 49165
L43159 49203
L43121 49221
L42971 49221
L42934 49203
L42915 49165
L42915 49090
L42934 49053
L42971 49034
L43009 49034
L43046 49221
" />
<path d="M43178 48696
L42971 48696
L42934 48715
L42915 48753
L42915 48828
L42934 48865
" />
<path d="M43159 48696
L43178 48734
L43178 48828
L43159 48865
L43121 48884
L43084 48884
L43046 48865
L43028 48828
L43028 48734
L43009 48696
" />
<path d="M43178 48340
L42784 48340
" />
<path d="M43159 48340
L43178 48378
L43178 48453
L43159 48490
L43140 48509
L43103 48528
L42990 48528
L42953 48509
L42934 48490
L42915 48453
L42915 48378
L42934 48340
" />
<path d="M43159 48003
L43178 48040
L43178 48115
L43159 48153
L43121 48171
L42971 48171
L42934 48153
L42915 48115
L42915 48040
L42934 48003
L42971 47984
L43009 47984
L43046 48171
" />
<path d="M43178 47815
L42915 47815
" />
<path d="M42990 47815
L42953 47796
L42934 47778
L42915 47740
L42915 47703
" />
<path d="M43178 47365
L43178 47590
" />
<path d="M43178 47478
L42784 47478
L42840 47515
L42878 47553
L42896 47590
" />
<path d="M55689 46584
L55689 46809
" />
<path d="M55689 46696
L55296 46696
L55352 46734
L55389 46771
L55408 46809
" />
<path d="M55689 46415
L55296 46415
" />
<path d="M55689 46190
L55464 46359
" />
<path d="M55296 46190
L55521 46415
" />
<path d="M54685 46565
L54498 46696
" />
<path d="M54685 46790
L54292 46790
L54292 46640
L54311 46603
L54329 46584
L54367 46565
L54423 46565
L54461 46584
L54479 46603
L54498 46640
L54498 46790
" />
<path d="M54685 46190
L54685 46415
" />
<path d="M54685 46303
L54292 46303
L54348 46340
L54386 46378
L54404 46415
" />
<path d="M56415 48689
L56190 48689
" />
<path d="M56303 48689
L56303 48296
L56265 48352
L56228 48389
L56190 48408
" />
<path d="M56584 48689
L56584 48296
" />
<path d="M56809 48689
L56640 48464
" />
<path d="M56809 48296
L56584 48521
" />
<path d="M56434 47685
L56303 47498
" />
<path d="M56209 47685
L56209 47292
L56359 47292
L56396 47311
L56415 47329
L56434 47367
L56434 47423
L56415 47461
L56396 47479
L56359 47498
L56209 47498
" />
<path d="M56584 47329
L56603 47311
L56640 47292
L56734 47292
L56771 47311
L56790 47329
L56809 47367
L56809 47404
L56790 47461
L56565 47685
L56809 47685
" />
<path d="M56415 48189
L56190 48189
" />
<path d="M56303 48189
L56303 47796
L56265 47852
L56228 47889
L56190 47908
" />
<path d="M56584 48189
L56584 47796
" />
<path d="M56809 48189
L56640 47964
" />
<path d="M56809 47796
L56584 48021
" />
<path d="M56434 47185
L56303 46998
" />
<path d="M56209 47185
L56209 46792
L56359 46792
L56396 46811
L56415 46829
L56434 46867
L56434 46923
L56415 46961
L56396 46979
L56359 46998
L56209 46998
" />
<path d="M56565 46792
L56809 46792
L56678 46942
L56734 46942
L56771 46961
L56790 46979
L56809 47017
L56809 47110
L56790 47148
L56771 47167
L56734 47185
L56621 47185
L56584 47167
L56565 47148
" />
<path d="M54915 49166
L54690 49166
" />
<path d="M54803 49166
L54803 48772
L54765 48828
L54728 48866
L54690 48885
" />
<path d="M55084 49166
L55084 48772
" />
<path d="M55309 49166
L55140 48941
" />
<path d="M55309 48772
L55084 48997
" />
<path d="M54934 50170
L54803 49982
" />
<path d="M54709 50170
L54709 49776
L54859 49776
L54896 49795
L54915 49814
L54934 49851
L54934 49907
L54915 49945
L54896 49964
L54859 49982
L54709 49982
" />
<path d="M55271 49907
L55271 50170
" />
<path d="M55178 49757
L55084 50038
L55328 50038
" />
<path d="M48887 22427
L48887 22689
" />
<path d="M48793 22277
L48700 22558
L48943 22558
" />
<path d="M49056 22296
L49318 22296
L49149 22689
" />
<path d="M48934 21685
L48803 21498
" />
<path d="M48709 21685
L48709 21292
L48859 21292
L48896 21311
L48915 21329
L48934 21367
L48934 21423
L48915 21461
L48896 21479
L48859 21498
L48709 21498
" />
<path d="M49290 21292
L49103 21292
L49084 21479
L49103 21461
L49140 21442
L49234 21442
L49271 21461
L49290 21479
L49309 21517
L49309 21610
L49290 21648
L49271 21667
L49234 21685
L49140 21685
L49103 21667
L49084 21648
" />
<path d="M50906 22296
L50718 22296
L50700 22483
L50718 22464
L50756 22446
L50850 22446
L50887 22464
L50906 22483
L50925 22521
L50925 22614
L50906 22652
L50887 22671
L50850 22689
L50756 22689
L50718 22671
L50700 22652
" />
<path d="M51262 22296
L51187 22296
L51149 22314
L51131 22333
L51093 22389
L51074 22464
L51074 22614
L51093 22652
L51112 22671
L51149 22689
L51224 22689
L51262 22671
L51281 22652
L51299 22614
L51299 22521
L51281 22483
L51262 22464
L51224 22446
L51149 22446
L51112 22464
L51093 22483
L51074 22521
" />
<path d="M50934 21685
L50803 21498
" />
<path d="M50709 21685
L50709 21292
L50859 21292
L50896 21311
L50915 21329
L50934 21367
L50934 21423
L50915 21461
L50896 21479
L50859 21498
L50709 21498
" />
<path d="M51271 21292
L51196 21292
L51159 21311
L51140 21329
L51103 21386
L51084 21461
L51084 21610
L51103 21648
L51121 21667
L51159 21685
L51234 21685
L51271 21667
L51290 21648
L51309 21610
L51309 21517
L51290 21479
L51271 21461
L51234 21442
L51159 21442
L51121 21461
L51103 21479
L51084 21517
" />
<path d="M49189 48378
L49002 48509
" />
<path d="M49189 48603
L48796 48603
L48796 48453
L48814 48415
L48833 48396
L48871 48378
L48927 48378
L48964 48396
L48983 48415
L49002 48453
L49002 48603
" />
<path d="M48185 48565
L47998 48696
" />
<path d="M48185 48790
L47792 48790
L47792 48640
L47811 48603
L47829 48584
L47867 48565
L47923 48565
L47961 48584
L47979 48603
L47998 48640
L47998 48790
" />
<path d="M47792 48434
L47792 48171
L48185 48340
" />
<path d="M49121 50189
L48990 50002
" />
<path d="M48896 50189
L48896 49796
L49046 49796
L49084 49814
L49103 49833
L49121 49871
L49121 49927
L49103 49964
L49084 49983
L49046 50002
L48896 50002
" />
<path d="M48934 49185
L48803 48998
" />
<path d="M48709 49185
L48709 48792
L48859 48792
L48896 48811
L48915 48829
L48934 48867
L48934 48923
L48915 48961
L48896 48979
L48859 48998
L48709 48998
" />
<path d="M49159 48961
L49121 48942
L49103 48923
L49084 48886
L49084 48867
L49103 48829
L49121 48811
L49159 48792
L49234 48792
L49271 48811
L49290 48829
L49309 48867
L49309 48886
L49290 48923
L49271 48942
L49234 48961
L49159 48961
L49121 48979
L49103 48998
L49084 49035
L49084 49110
L49103 49148
L49121 49167
L49159 49185
L49234 49185
L49271 49167
L49290 49148
L49309 49110
L49309 49035
L49290 48998
L49271 48979
L49234 48961
" />
<path d="M56189 37271
L56189 37496
" />
<path d="M56189 37384
L55796 37384
L55852 37421
L55889 37459
L55908 37496
" />
<path d="M55796 37028
L55796 36990
L55814 36953
L55833 36934
L55871 36915
L55946 36896
L56039 36896
L56114 36915
L56152 36934
L56171 36953
L56189 36990
L56189 37028
L56171 37065
L56152 37084
L56114 37103
L56039 37121
L55946 37121
L55871 37103
L55833 37084
L55814 37065
L55796 37028
" />
<path d="M56189 36728
L55796 36728
" />
<path d="M56189 36503
L55964 36671
" />
<path d="M55796 36503
L56021 36728
" />
<path d="M55185 37065
L54998 37196
" />
<path d="M55185 37290
L54792 37290
L54792 37140
L54811 37103
L54829 37084
L54867 37065
L54923 37065
L54961 37084
L54979 37103
L54998 37140
L54998 37290
" />
<path d="M55185 36878
L55185 36803
L55167 36765
L55148 36746
L55092 36709
L55017 36690
L54867 36690
L54829 36709
L54811 36728
L54792 36765
L54792 36840
L54811 36878
L54829 36896
L54867 36915
L54961 36915
L54998 36896
L55017 36878
L55035 36840
L55035 36765
L55017 36728
L54998 36709
L54961 36690
" />
<path d="M55689 37271
L55689 37496
" />
<path d="M55689 37384
L55296 37384
L55352 37421
L55389 37459
L55408 37496
" />
<path d="M55296 37028
L55296 36990
L55314 36953
L55333 36934
L55371 36915
L55446 36896
L55539 36896
L55614 36915
L55652 36934
L55671 36953
L55689 36990
L55689 37028
L55671 37065
L55652 37084
L55614 37103
L55539 37121
L55446 37121
L55371 37103
L55333 37084
L55314 37065
L55296 37028
" />
<path d="M55689 36728
L55296 36728
" />
<path d="M55689 36503
L55464 36671
" />
<path d="M55296 36503
L55521 36728
" />
<path d="M54685 37253
L54498 37384
" />
<path d="M54685 37478
L54292 37478
L54292 37328
L54311 37290
L54329 37271
L54367 37253
L54423 37253
L54461 37271
L54479 37290
L54498 37328
L54498 37478
" />
<path d="M54685 36878
L54685 37103
" />
<path d="M54685 36990
L54292 36990
L54348 37028
L54386 37065
L54404 37103
" />
<path d="M54292 36634
L54292 36596
L54311 36559
L54329 36540
L54367 36521
L54442 36503
L54535 36503
L54610 36521
L54648 36540
L54667 36559
L54685 36596
L54685 36634
L54667 36671
L54648 36690
L54610 36709
L54535 36728
L54442 36728
L54367 36709
L54329 36690
L54311 36671
L54292 36634
" />
<path d="M63296 24506
L63296 24262
L63446 24393
L63446 24337
L63464 24299
L63483 24281
L63521 24262
L63614 24262
L63652 24281
L63671 24299
L63689 24337
L63689 24449
L63671 24487
L63652 24506
" />
<path d="M63296 24131
L63296 23887
L63446 24018
L63446 23962
L63464 23925
L63483 23906
L63521 23887
L63614 23887
L63652 23906
L63671 23925
L63689 23962
L63689 24074
L63671 24112
L63652 24131
" />
<path d="M63296 23643
L63296 23606
L63314 23568
L63333 23550
L63371 23531
L63446 23512
L63539 23512
L63614 23531
L63652 23550
L63671 23568
L63689 23606
L63689 23643
L63671 23681
L63652 23700
L63614 23718
L63539 23737
L63446 23737
L63371 23718
L63333 23700
L63314 23681
L63296 23643
" />
<path d="M62685 24253
L62498 24384
" />
<path d="M62685 24478
L62292 24478
L62292 24328
L62311 24290
L62329 24271
L62367 24253
L62423 24253
L62461 24271
L62479 24290
L62498 24328
L62498 24478
" />
<path d="M62685 23878
L62685 24103
" />
<path d="M62685 23990
L62292 23990
L62348 24028
L62386 24065
L62404 24103
" />
<path d="M62685 23503
L62685 23728
" />
<path d="M62685 23615
L62292 23615
L62348 23653
L62386 23690
L62404 23728
" />
<path d="M59296 24506
L59296 24262
L59446 24393
L59446 24337
L59464 24299
L59483 24281
L59521 24262
L59614 24262
L59652 24281
L59671 24299
L59689 24337
L59689 24449
L59671 24487
L59652 24506
" />
<path d="M59296 24131
L59296 23887
L59446 24018
L59446 23962
L59464 23925
L59483 23906
L59521 23887
L59614 23887
L59652 23906
L59671 23925
L59689 23962
L59689 24074
L59671 24112
L59652 24131
" />
<path d="M59296 23643
L59296 23606
L59314 23568
L59333 23550
L59371 23531
L59446 23512
L59539 23512
L59614 23531
L59652 23550
L59671 23568
L59689 23606
L59689 23643
L59671 23681
L59652 23700
L59614 23718
L59539 23737
L59446 23737
L59371 23718
L59333 23700
L59314 23681
L59296 23643
" />
<path d="M58685 24253
L58498 24384
" />
<path d="M58685 24478
L58292 24478
L58292 24328
L58311 24290
L58329 24271
L58367 24253
L58423 24253
L58461 24271
L58479 24290
L58498 24328
L58498 24478
" />
<path d="M58685 23878
L58685 24103
" />
<path d="M58685 23990
L58292 23990
L58348 24028
L58386 24065
L58404 24103
" />
<path d="M58329 23728
L58311 23709
L58292 23671
L58292 23578
L58311 23540
L58329 23521
L58367 23503
L58404 23503
L58461 23521
L58685 23746
L58685 23503
" />
<path d="M60046 48756
L60046 48512
L60196 48643
L60196 48587
L60214 48549
L60233 48531
L60271 48512
L60364 48512
L60402 48531
L60421 48549
L60439 48587
L60439 48699
L60421 48737
L60402 48756
" />
<path d="M60046 48381
L60046 48137
L60196 48268
L60196 48212
L60214 48175
L60233 48156
L60271 48137
L60364 48137
L60402 48156
L60421 48175
L60439 48212
L60439 48324
L60421 48362
L60402 48381
" />
<path d="M60046 47893
L60046 47856
L60064 47818
L60083 47800
L60121 47781
L60196 47762
L60289 47762
L60364 47781
L60402 47800
L60421 47818
L60439 47856
L60439 47893
L60421 47931
L60402 47950
L60364 47968
L60289 47987
L60196 47987
L60121 47968
L60083 47950
L60064 47931
L60046 47893
" />
<path d="M59435 48503
L59248 48634
" />
<path d="M59435 48728
L59042 48728
L59042 48578
L59061 48540
L59079 48521
L59117 48503
L59173 48503
L59211 48521
L59229 48540
L59248 48578
L59248 48728
" />
<path d="M59435 48128
L59435 48353
" />
<path d="M59435 48240
L59042 48240
L59098 48278
L59136 48315
L59154 48353
" />
<path d="M59042 47996
L59042 47753
L59192 47884
L59192 47828
L59211 47790
L59229 47771
L59267 47753
L59360 47753
L59398 47771
L59417 47790
L59435 47828
L59435 47940
L59417 47978
L59398 47996
" />
<path d="M60046 46256
L60046 46012
L60196 46143
L60196 46087
L60214 46049
L60233 46031
L60271 46012
L60364 46012
L60402 46031
L60421 46049
L60439 46087
L60439 46199
L60421 46237
L60402 46256
" />
<path d="M60046 45881
L60046 45637
L60196 45768
L60196 45712
L60214 45675
L60233 45656
L60271 45637
L60364 45637
L60402 45656
L60421 45675
L60439 45712
L60439 45824
L60421 45862
L60402 45881
" />
<path d="M60046 45393
L60046 45356
L60064 45318
L60083 45300
L60121 45281
L60196 45262
L60289 45262
L60364 45281
L60402 45300
L60421 45318
L60439 45356
L60439 45393
L60421 45431
L60402 45450
L60364 45468
L60289 45487
L60196 45487
L60121 45468
L60083 45450
L60064 45431
L60046 45393
" />
<path d="M59435 46003
L59248 46134
" />
<path d="M59435 46228
L59042 46228
L59042 46078
L59061 46040
L59079 46021
L59117 46003
L59173 46003
L59211 46021
L59229 46040
L59248 46078
L59248 46228
" />
<path d="M59435 45628
L59435 45853
" />
<path d="M59435 45740
L59042 45740
L59098 45778
L59136 45815
L59154 45853
" />
<path d="M59173 45290
L59435 45290
" />
<path d="M59023 45384
L59304 45478
L59304 45234
" />
<path d="M60046 43756
L60046 43512
L60196 43643
L60196 43587
L60214 43549
L60233 43531
L60271 43512
L60364 43512
L60402 43531
L60421 43549
L60439 43587
L60439 43699
L60421 43737
L60402 43756
" />
<path d="M60046 43381
L60046 43137
L60196 43268
L60196 43212
L60214 43175
L60233 43156
L60271 43137
L60364 43137
L60402 43156
L60421 43175
L60439 43212
L60439 43324
L60421 43362
L60402 43381
" />
<path d="M60046 42893
L60046 42856
L60064 42818
L60083 42800
L60121 42781
L60196 42762
L60289 42762
L60364 42781
L60402 42800
L60421 42818
L60439 42856
L60439 42893
L60421 42931
L60402 42950
L60364 42968
L60289 42987
L60196 42987
L60121 42968
L60083 42950
L60064 42931
L60046 42893
" />
<path d="M59435 43503
L59248 43634
" />
<path d="M59435 43728
L59042 43728
L59042 43578
L59061 43540
L59079 43521
L59117 43503
L59173 43503
L59211 43521
L59229 43540
L59248 43578
L59248 43728
" />
<path d="M59435 43128
L59435 43353
" />
<path d="M59435 43240
L59042 43240
L59098 43278
L59136 43315
L59154 43353
" />
<path d="M59042 42790
L59042 42865
L59061 42903
L59079 42921
L59136 42959
L59211 42978
L59360 42978
L59398 42959
L59417 42940
L59435 42903
L59435 42828
L59417 42790
L59398 42771
L59360 42753
L59267 42753
L59229 42771
L59211 42790
L59192 42828
L59192 42903
L59211 42940
L59229 42959
L59267 42978
" />
<path d="M60046 51256
L60046 51012
L60196 51143
L60196 51087
L60214 51049
L60233 51031
L60271 51012
L60364 51012
L60402 51031
L60421 51049
L60439 51087
L60439 51199
L60421 51237
L60402 51256
" />
<path d="M60046 50881
L60046 50637
L60196 50768
L60196 50712
L60214 50675
L60233 50656
L60271 50637
L60364 50637
L60402 50656
L60421 50675
L60439 50712
L60439 50824
L60421 50862
L60402 50881
" />
<path d="M60046 50393
L60046 50356
L60064 50318
L60083 50300
L60121 50281
L60196 50262
L60289 50262
L60364 50281
L60402 50300
L60421 50318
L60439 50356
L60439 50393
L60421 50431
L60402 50450
L60364 50468
L60289 50487
L60196 50487
L60121 50468
L60083 50450
L60064 50431
L60046 50393
" />
<path d="M59435 51003
L59248 51134
" />
<path d="M59435 51228
L59042 51228
L59042 51078
L59061 51040
L59079 51021
L59117 51003
L59173 51003
L59211 51021
L59229 51040
L59248 51078
L59248 51228
" />
<path d="M59435 50628
L59435 50853
" />
<path d="M59435 50740
L59042 50740
L59098 50778
L59136 50815
L59154 50853
" />
<path d="M59042 50496
L59042 50234
L59435 50403
" />
<path d="M51415 42689
L51190 42689
" />
<path d="M51303 42689
L51303 42296
L51265 42352
L51228 42389
L51190 42408
" />
<path d="M51584 42689
L51584 42296
" />
<path d="M51809 42689
L51640 42464
" />
<path d="M51809 42296
L51584 42521
" />
<path d="M51246 41685
L51115 41498
" />
<path d="M51021 41685
L51021 41292
L51171 41292
L51209 41311
L51228 41329
L51246 41367
L51246 41423
L51228 41461
L51209 41479
L51171 41498
L51021 41498
" />
<path d="M51621 41685
L51396 41685
" />
<path d="M51509 41685
L51509 41292
L51471 41348
L51434 41386
L51396 41404
" />
<path d="M51846 41461
L51809 41442
L51790 41423
L51771 41386
L51771 41367
L51790 41329
L51809 41311
L51846 41292
L51921 41292
L51959 41311
L51978 41329
L51996 41367
L51996 41386
L51978 41423
L51959 41442
L51921 41461
L51846 41461
L51809 41479
L51790 41498
L51771 41535
L51771 41610
L51790 41648
L51809 41667
L51846 41685
L51921 41685
L51959 41667
L51978 41648
L51996 41610
L51996 41535
L51978 41498
L51959 41479
L51921 41461
" />
<path d="M57189 43271
L57189 43496
" />
<path d="M57189 43384
L56796 43384
L56852 43421
L56889 43459
L56908 43496
" />
<path d="M56796 43028
L56796 42990
L56814 42953
L56833 42934
L56871 42915
L56946 42896
L57039 42896
L57114 42915
L57152 42934
L57171 42953
L57189 42990
L57189 43028
L57171 43065
L57152 43084
L57114 43103
L57039 43121
L56946 43121
L56871 43103
L56833 43084
L56814 43065
L56796 43028
" />
<path d="M57189 42728
L56796 42728
" />
<path d="M57189 42503
L56964 42671
" />
<path d="M56796 42503
L57021 42728
" />
<path d="M56185 43253
L55998 43384
" />
<path d="M56185 43478
L55792 43478
L55792 43328
L55811 43290
L55829 43271
L55867 43253
L55923 43253
L55961 43271
L55979 43290
L55998 43328
L55998 43478
" />
<path d="M55829 43103
L55811 43084
L55792 43046
L55792 42953
L55811 42915
L55829 42896
L55867 42878
L55904 42878
L55961 42896
L56185 43121
L56185 42878
" />
<path d="M55792 42746
L55792 42503
L55942 42634
L55942 42578
L55961 42540
L55979 42521
L56017 42503
L56110 42503
L56148 42521
L56167 42540
L56185 42578
L56185 42690
L56167 42728
L56148 42746
" />
<path d="M57689 43271
L57689 43496
" />
<path d="M57689 43384
L57296 43384
L57352 43421
L57389 43459
L57408 43496
" />
<path d="M57296 43028
L57296 42990
L57314 42953
L57333 42934
L57371 42915
L57446 42896
L57539 42896
L57614 42915
L57652 42934
L57671 42953
L57689 42990
L57689 43028
L57671 43065
L57652 43084
L57614 43103
L57539 43121
L57446 43121
L57371 43103
L57333 43084
L57314 43065
L57296 43028
" />
<path d="M57689 42728
L57296 42728
" />
<path d="M57689 42503
L57464 42671
" />
<path d="M57296 42503
L57521 42728
" />
<path d="M56685 43253
L56498 43384
" />
<path d="M56685 43478
L56292 43478
L56292 43328
L56311 43290
L56329 43271
L56367 43253
L56423 43253
L56461 43271
L56479 43290
L56498 43328
L56498 43478
" />
<path d="M56329 43103
L56311 43084
L56292 43046
L56292 42953
L56311 42915
L56329 42896
L56367 42878
L56404 42878
L56461 42896
L56685 43121
L56685 42878
" />
<path d="M56423 42540
L56685 42540
" />
<path d="M56273 42634
L56554 42728
L56554 42484
" />
<path d="M59338 22449
L59357 22393
L59357 22299
L59338 22262
L59319 22243
L59282 22224
L59244 22224
L59207 22243
L59188 22262
L59169 22299
L59151 22374
L59132 22412
L59113 22431
L59076 22449
L59038 22449
L59001 22431
L58982 22412
L58963 22374
L58963 22281
L58982 22224
" />
<path d="M58963 22093
L59357 21999
L59076 21924
L59357 21849
L58963 21756
" />
<path d="M59394 21699
L59394 21399
" />
<path d="M59357 21306
L58963 21306
L58963 21156
L58982 21118
L59001 21100
L59038 21081
L59094 21081
L59132 21100
L59151 21118
L59169 21156
L59169 21306
" />
<path d="M59094 20743
L59357 20743
" />
<path d="M59094 20912
L59300 20912
L59338 20893
L59357 20856
L59357 20800
L59338 20762
L59319 20743
" />
<path d="M59338 20575
L59357 20537
L59357 20462
L59338 20425
L59300 20406
L59282 20406
L59244 20425
L59226 20462
L59226 20518
L59207 20556
L59169 20575
L59151 20575
L59113 20556
L59094 20518
L59094 20462
L59113 20425
" />
<path d="M59357 20237
L58963 20237
" />
<path d="M59357 20068
L59151 20068
L59113 20087
L59094 20125
L59094 20181
L59113 20218
L59132 20237
" />
<path d="M57409 21774
L57428 21718
L57428 21624
L57409 21587
L57390 21568
L57353 21549
L57315 21549
L57278 21568
L57259 21587
L57240 21624
L57221 21699
L57203 21737
L57184 21756
L57146 21774
L57109 21774
L57071 21756
L57053 21737
L57034 21699
L57034 21606
L57053 21549
" />
<path d="M57034 21418
L57428 21324
L57146 21249
L57428 21175
L57034 21081
" />
<path d="M57428 20725
L57428 20950
" />
<path d="M57428 20837
L57034 20837
L57090 20875
L57128 20912
L57146 20950
" />
<path d="M63338 22449
L63357 22393
L63357 22299
L63338 22262
L63319 22243
L63282 22224
L63244 22224
L63207 22243
L63188 22262
L63169 22299
L63151 22374
L63132 22412
L63113 22431
L63076 22449
L63038 22449
L63001 22431
L62982 22412
L62963 22374
L62963 22281
L62982 22224
" />
<path d="M62963 22093
L63357 21999
L63076 21924
L63357 21849
L62963 21756
" />
<path d="M63394 21699
L63394 21399
" />
<path d="M63357 21306
L62963 21306
L62963 21156
L62982 21118
L63001 21100
L63038 21081
L63094 21081
L63132 21100
L63151 21118
L63169 21156
L63169 21306
" />
<path d="M63094 20743
L63357 20743
" />
<path d="M63094 20912
L63300 20912
L63338 20893
L63357 20856
L63357 20800
L63338 20762
L63319 20743
" />
<path d="M63338 20575
L63357 20537
L63357 20462
L63338 20425
L63300 20406
L63282 20406
L63244 20425
L63226 20462
L63226 20518
L63207 20556
L63169 20575
L63151 20575
L63113 20556
L63094 20518
L63094 20462
L63113 20425
" />
<path d="M63357 20237
L62963 20237
" />
<path d="M63357 20068
L63151 20068
L63113 20087
L63094 20125
L63094 20181
L63113 20218
L63132 20237
" />
<path d="M61409 21774
L61428 21718
L61428 21624
L61409 21587
L61390 21568
L61353 21549
L61315 21549
L61278 21568
L61259 21587
L61240 21624
L61221 21699
L61203 21737
L61184 21756
L61146 21774
L61109 21774
L61071 21756
L61053 21737
L61034 21699
L61034 21606
L61053 21549
" />
<path d="M61034 21418
L61428 21324
L61146 21249
L61428 21175
L61034 21081
" />
<path d="M61071 20950
L61053 20931
L61034 20893
L61034 20800
L61053 20762
L61071 20743
L61109 20725
L61146 20725
L61203 20743
L61428 20968
L61428 20725
" />
<path d="M64106 35643
L63318 35643
L64106 35193
L63318 35193
" />
<path d="M64106 34705
L64068 34780
L64031 34818
L63956 34855
L63731 34855
L63656 34818
L63618 34780
L63581 34705
L63581 34593
L63618 34518
L63656 34480
L63731 34443
L63956 34443
L64031 34480
L64068 34518
L64106 34593
L64106 34705
" />
<path d="M64106 33768
L63318 33768
" />
<path d="M64068 33768
L64106 33843
L64106 33993
L64068 34068
L64031 34105
L63956 34143
L63731 34143
L63656 34105
L63618 34068
L63581 33993
L63581 33843
L63618 33768
" />
<path d="M64068 33093
L64106 33168
L64106 33318
L64068 33393
L63993 33430
L63693 33430
L63618 33393
L63581 33318
L63581 33168
L63618 33093
L63693 33055
L63768 33055
L63843 33430
" />
<path d="M64106 32718
L63318 32718
L63881 32455
L63318 32193
L64106 32193
" />
<path d="M64031 31368
L64068 31406
L64106 31518
L64106 31593
L64068 31706
L63993 31781
L63918 31818
L63768 31856
L63656 31856
L63506 31818
L63431 31781
L63356 31706
L63318 31593
L63318 31518
L63356 31406
L63393 31368
" />
<path d="M63318 31031
L63956 31031
L64031 30993
L64068 30956
L64106 30881
L64106 30731
L64068 30656
L64031 30618
L63956 30581
L63318 30581
" />
<path d="M64181 30393
L64181 29793
" />
<path d="M63881 29643
L63881 29268
" />
<path d="M64106 29718
L63318 29456
L64106 29193
" />
<path d="M64106 28931
L63581 28931
" />
<path d="M63656 28931
L63618 28893
L63581 28818
L63581 28706
L63618 28631
L63693 28593
L64106 28593
" />
<path d="M63693 28593
L63618 28556
L63581 28481
L63581 28368
L63618 28293
L63693 28256
L64106 28256
" />
<path d="M64106 27881
L63581 27881
" />
<path d="M63318 27881
L63356 27919
L63393 27881
L63356 27844
L63318 27881
L63393 27881
" />
<path d="M64068 27169
L64106 27244
L64106 27394
L64068 27469
L64031 27506
L63956 27544
L63731 27544
L63656 27506
L63618 27469
L63581 27394
L63581 27244
L63618 27169
" />
<path d="M64106 26494
L63693 26494
L63618 26531
L63581 26606
L63581 26756
L63618 26831
" />
<path d="M64068 26494
L64106 26569
L64106 26756
L64068 26831
L63993 26869
L63918 26869
L63843 26831
L63806 26756
L63806 26569
L63768 26494
" />
<path d="M64181 26306
L64181 25706
" />
<path d="M64106 25069
L63731 25331
" />
<path d="M64106 25519
L63318 25519
L63318 25219
L63356 25144
L63393 25106
L63468 25069
L63581 25069
L63656 25106
L63693 25144
L63731 25219
L63731 25519
" />
<path d="M63393 24769
L63356 24731
L63318 24656
L63318 24469
L63356 24394
L63393 24356
L63468 24319
L63543 24319
L63656 24356
L64106 24806
L64106 24319
" />
</g>
<g style="fill:#C2C200; fill-opacity:0.0; 
stroke:#C2C200; stroke-width:39.3701; stroke-opacity:1; 
stroke-linecap:round; stroke-linejoin:round;">
<path d="M60881 37059
L60881 36940
" />
<path d="M61118 37059
L60881 37059
" />
<path d="M61118 36940
L61118 37059
" />
<path d="M60881 36940
L61118 36940
" />
<path d="M60881 37559
L60881 37440
" />
<path d="M61118 37559
L60881 37559
" />
<path d="M61118 37440
L61118 37559
" />
<path d="M60881 37440
L61118 37440
" />
<path d="M60881 38559
L60881 38440
" />
<path d="M61118 38559
L60881 38559
" />
<path d="M61118 38440
L61118 38559
" />
<path d="M60881 38440
L61118 38440
" />
<path d="M61118 38940
L61118 39059
" />
<path d="M60881 38940
L61118 38940
" />
<path d="M60881 39059
L60881 38940
" />
<path d="M61118 39059
L60881 39059
" />
<path d="M44440 39881
L44559 39881
" />
<path d="M44440 40118
L44440 39881
" />
<path d="M44559 40118
L44440 40118
" />
<path d="M44559 39881
L44559 40118
" />
<path d="M45381 40059
L45381 39940
" />
<path d="M45618 40059
L45381 40059
" />
<path d="M45618 39940
L45618 40059
" />
<path d="M45381 39940
L45618 39940
" />
<path d="M44381 42559
L44381 42440
" />
<path d="M44618 42559
L44381 42559
" />
<path d="M44618 42440
L44618 42559
" />
<path d="M44381 42440
L44618 42440
" />
<path d="M44559 41118
L44440 41118
" />
<path d="M44559 40881
L44559 41118
" />
<path d="M44440 40881
L44559 40881
" />
<path d="M44440 41118
L44440 40881
" />
<path d="M59809 53368
L59690 53368
" />
<path d="M59809 53131
L59809 53368
" />
<path d="M59690 53131
L59809 53131
" />
<path d="M59690 53368
L59690 53131
" />
<path d="M60383 52958
L60383 51541
" />
<path d="M60383 52958
L61801 52958
" />
<path d="M61801 52958
L61801 51541
" />
<path d="M61801 51541
L60383 51541
" />
<circle cx="61084.6" cy="52250" r="649.606" /> 
<path d="M53881 49559
L53881 49440
" />
<path d="M54118 49559
L53881 49559
" />
<path d="M54118 49440
L54118 49559
" />
<path d="M53881 49440
L54118 49440
" />
<path d="M56118 48940
L56118 49059
" />
<path d="M55881 48940
L56118 48940
" />
<path d="M55881 49059
L55881 48940
" />
<path d="M56118 49059
L55881 49059
" />
<path d="M56118 49440
L56118 49559
" />
<path d="M55881 49440
L56118 49440
" />
<path d="M55881 49559
L55881 49440
" />
<path d="M56118 49559
L55881 49559
" />
<path d="M49881 22059
L49881 21940
" />
<path d="M50118 22059
L49881 22059
" />
<path d="M50118 21940
L50118 22059
" />
<path d="M49881 21940
L50118 21940
" />
<path d="M51881 22059
L51881 21940
" />
<path d="M52118 22059
L51881 22059
" />
<path d="M52118 21940
L52118 22059
" />
<path d="M51881 21940
L52118 21940
" />
<path d="M52559 50118
L52440 50118
" />
<path d="M52559 49881
L52559 50118
" />
<path d="M52440 49881
L52559 49881
" />
<path d="M52440 50118
L52440 49881
" />
<path d="M51559 50118
L51440 50118
" />
<path d="M51559 49881
L51559 50118
" />
<path d="M51440 49881
L51559 49881
" />
<path d="M51440 50118
L51440 49881
" />
<path d="M53118 46940
L53118 47059
" />
<path d="M52881 46940
L53118 46940
" />
<path d="M52881 47059
L52881 46940
" />
<path d="M53118 47059
L52881 47059
" />
<path d="M51881 47059
L51881 46940
" />
<path d="M52118 47059
L51881 47059
" />
<path d="M52118 46940
L52118 47059
" />
<path d="M51881 46940
L52118 46940
" />
<path d="M51881 46559
L51881 46440
" />
<path d="M52118 46559
L51881 46559
" />
<path d="M52118 46440
L52118 46559
" />
<path d="M51881 46440
L52118 46440
" />
<path d="M46381 49559
L46381 49440
" />
<path d="M46618 49559
L46381 49559
" />
<path d="M46618 49440
L46618 49559
" />
<path d="M46381 49440
L46618 49440
" />
<path d="M48881 48059
L48881 47940
" />
<path d="M49118 48059
L48881 48059
" />
<path d="M49118 47940
L49118 48059
" />
<path d="M48881 47940
L49118 47940
" />
<path d="M47618 49440
L47618 49559
" />
<path d="M47381 49440
L47618 49440
" />
<path d="M47381 49559
L47381 49440
" />
<path d="M47618 49559
L47381 49559
" />
<path d="M55381 43059
L55381 42940
" />
<path d="M55618 43059
L55381 43059
" />
<path d="M55618 42940
L55618 43059
" />
<path d="M55381 42940
L55618 42940
" />
<path d="M52381 41059
L52381 40940
" />
<path d="M52618 41059
L52381 41059
" />
<path d="M52618 40940
L52618 41059
" />
<path d="M52381 40940
L52618 40940
" />
<path d="M57881 43059
L57881 42940
" />
<path d="M58118 43059
L57881 43059
" />
<path d="M58118 42940
L58118 43059
" />
<path d="M57881 42940
L58118 42940
" />
<path d="M52500 52921
L52500 52842
" />
<path d="M52500 53039
L52500 53118
" />
<path d="M52421 53039
L52578 53039
" />
<path d="M52578 52921
L52421 52921
" />
<path d="M52500 53039
L52578 52921
" />
<path d="M52421 52921
L52500 53039
" />
<path d="M52677 53314
L52322 53314
" />
<path d="M52677 52685
L52677 53314
" />
<path d="M52322 52685
L52677 52685
" />
<path d="M52322 53314
L52322 52685
" />
<path d="M50578 48500
L50657 48500
" />
<path d="M50460 48500
L50381 48500
" />
<path d="M50460 48421
L50460 48578
" />
<path d="M50578 48578
L50578 48421
" />
<path d="M50460 48500
L50578 48578
" />
<path d="M50578 48421
L50460 48500
" />
<path d="M50185 48677
L50185 48322
" />
<path d="M50814 48677
L50185 48677
" />
<path d="M50814 48322
L50814 48677
" />
<path d="M50185 48322
L50814 48322
" />
<path d="M60383 47958
L60383 46541
" />
<path d="M60383 47958
L61801 47958
" />
<path d="M61801 47958
L61801 46541
" />
<path d="M61801 46541
L60383 46541
" />
<circle cx="61084.6" cy="47250" r="649.606" /> 
<path d="M60383 45458
L60383 44041
" />
<path d="M60383 45458
L61801 45458
" />
<path d="M61801 45458
L61801 44041
" />
<path d="M61801 44041
L60383 44041
" />
<circle cx="61084.6" cy="44750" r="649.606" /> 
<path d="M60383 42958
L60383 41541
" />
<path d="M60383 42958
L61801 42958
" />
<path d="M61801 42958
L61801 41541
" />
<path d="M61801 41541
L60383 41541
" />
<circle cx="61084.6" cy="42250" r="649.606" /> 
<path d="M60383 50458
L60383 49041
" />
<path d="M60383 50458
L61801 50458
" />
<path d="M61801 50458
L61801 49041
" />
<path d="M61801 49041
L60383 49041
" />
<circle cx="61084.6" cy="49750" r="649.606" /> 
<path d="M42000 49356
L42000 47250
" />
<path d="M42000 47250
L44000 47250
" />
<path d="M44000 47250
L44000 49750
" />
<path d="M44000 49750
L42393 49750
" />
<path d="M42393 49750
L42000 49356
" />
<path d="M55059 46618
L54940 46618
" />
<path d="M55059 46381
L55059 46618
" />
<path d="M54940 46381
L55059 46381
" />
<path d="M54940 46618
L54940 46381
" />
<path d="M56381 48059
L56381 47940
" />
<path d="M56618 48059
L56381 48059
" />
<path d="M56618 47940
L56618 48059
" />
<path d="M56381 47940
L56618 47940
" />
<path d="M56381 47559
L56381 47440
" />
<path d="M56618 47559
L56381 47559
" />
<path d="M56618 47440
L56618 47559
" />
<path d="M56381 47440
L56618 47440
" />
<path d="M55118 49440
L55118 49559
" />
<path d="M54881 49440
L55118 49440
" />
<path d="M54881 49559
L54881 49440
" />
<path d="M55118 49559
L54881 49559
" />
<path d="M48881 22059
L48881 21940
" />
<path d="M49118 22059
L48881 22059
" />
<path d="M49118 21940
L49118 22059
" />
<path d="M48881 21940
L49118 21940
" />
<path d="M50881 22059
L50881 21940
" />
<path d="M51118 22059
L50881 22059
" />
<path d="M51118 21940
L51118 22059
" />
<path d="M50881 21940
L51118 21940
" />
<path d="M48559 48618
L48440 48618
" />
<path d="M48559 48381
L48559 48618
" />
<path d="M48440 48381
L48559 48381
" />
<path d="M48440 48618
L48440 48381
" />
<path d="M48881 49559
L48881 49440
" />
<path d="M49118 49559
L48881 49559
" />
<path d="M49118 49440
L49118 49559
" />
<path d="M48881 49440
L49118 49440
" />
<path d="M55559 37118
L55440 37118
" />
<path d="M55559 36881
L55559 37118
" />
<path d="M55440 36881
L55559 36881
" />
<path d="M55440 37118
L55440 36881
" />
<path d="M55059 37118
L54940 37118
" />
<path d="M55059 36881
L55059 37118
" />
<path d="M54940 36881
L55059 36881
" />
<path d="M54940 37118
L54940 36881
" />
<path d="M63059 24118
L62940 24118
" />
<path d="M63059 23881
L63059 24118
" />
<path d="M62940 23881
L63059 23881
" />
<path d="M62940 24118
L62940 23881
" />
<path d="M59059 24118
L58940 24118
" />
<path d="M59059 23881
L59059 24118
" />
<path d="M58940 23881
L59059 23881
" />
<path d="M58940 24118
L58940 23881
" />
<path d="M59809 48368
L59690 48368
" />
<path d="M59809 48131
L59809 48368
" />
<path d="M59690 48131
L59809 48131
" />
<path d="M59690 48368
L59690 48131
" />
<path d="M59809 45868
L59690 45868
" />
<path d="M59809 45631
L59809 45868
" />
<path d="M59690 45631
L59809 45631
" />
<path d="M59690 45868
L59690 45631
" />
<path d="M59809 43368
L59690 43368
" />
<path d="M59809 43131
L59809 43368
" />
<path d="M59690 43131
L59809 43131
" />
<path d="M59690 43368
L59690 43131
" />
<path d="M59809 50868
L59690 50868
" />
<path d="M59809 50631
L59809 50868
" />
<path d="M59690 50631
L59809 50631
" />
<path d="M59690 50868
L59690 50631
" />
<path d="M51381 42059
L51381 41940
" />
<path d="M51618 42059
L51381 42059
" />
<path d="M51618 41940
L51618 42059
" />
<path d="M51381 41940
L51618 41940
" />
<path d="M56559 43118
L56440 43118
" />
<path d="M56559 42881
L56559 43118
" />
<path d="M56440 42881
L56559 42881
" />
<path d="M56440 43118
L56440 42881
" />
<path d="M57059 43118
L56940 43118
" />
<path d="M57059 42881
L57059 43118
" />
<path d="M56940 42881
L57059 42881
" />
<path d="M56940 43118
L56940 42881
" />
<path d="M55812 22253
L55812 19852
" />
<path d="M55812 19852
L58687 19852
" />
<path d="M58687 19852
L58687 22647
" />
<path d="M58687 22647
L56206 22647
" />
<path d="M56206 22647
L55812 22253
" />
<path d="M59812 22253
L59812 19852
" />
<path d="M59812 19852
L62687 19852
" />
<path d="M62687 19852
L62687 22647
" />
<path d="M62687 22647
L60206 22647
" />
<path d="M60206 22647
L59812 22253
" />
</g> 
</svg>
