G04 #@! TF.FileFunction,Soldermask,Top*
%FSLAX46Y46*%
G04 Gerber Fmt 4.6, Leading zero omitted, Abs format (unit mm)*
G04 Created by KiCad (PCBNEW 4.0.7) date 06/29/18 09:04:28*
%MOMM*%
%LPD*%
G01*
G04 APERTURE LIST*
%ADD10C,0.100000*%
%ADD11C,0.381000*%
%ADD12R,1.000000X2.900000*%
%ADD13R,0.750000X0.700000*%
%ADD14R,0.680000X0.830000*%
%ADD15R,0.700000X0.750000*%
%ADD16R,2.900000X1.000000*%
%ADD17R,0.830000X0.680000*%
%ADD18R,0.780000X0.950000*%
%ADD19R,1.600000X1.800000*%
%ADD20R,1.200000X1.000000*%
%ADD21R,1.000000X1.200000*%
%ADD22R,2.000000X2.000000*%
%ADD23O,2.000000X2.000000*%
%ADD24R,1.400000X1.500000*%
%ADD25R,1.873200X0.755600*%
%ADD26R,1.400000X2.900000*%
%ADD27R,0.920000X0.750000*%
%ADD28R,0.750000X0.920000*%
%ADD29O,2.432000X2.127200*%
%ADD30C,3.600000*%
%ADD31R,1.000000X1.790000*%
%ADD32R,1.314400X0.933400*%
%ADD33R,1.870000X0.650000*%
%ADD34R,0.650000X1.870000*%
%ADD35R,0.800000X1.750000*%
%ADD36R,2.200000X2.300000*%
%ADD37R,0.500000X0.500000*%
G04 APERTURE END LIST*
D10*
D11*
G36*
X129035940Y-142274000D02*
X127784000Y-142274000D01*
X127784000Y-140823745D01*
X129035940Y-140823745D01*
X129035940Y-142274000D01*
G37*
X129035940Y-142274000D02*
X127784000Y-142274000D01*
X127784000Y-140823745D01*
X129035940Y-140823745D01*
X129035940Y-142274000D01*
G36*
X124179550Y-142274000D02*
X122934000Y-142274000D01*
X122934000Y-140823013D01*
X124179550Y-140823013D01*
X124179550Y-142274000D01*
G37*
X124179550Y-142274000D02*
X122934000Y-142274000D01*
X122934000Y-140823013D01*
X124179550Y-140823013D01*
X124179550Y-142274000D01*
G36*
X130789000Y-139599000D02*
X128484000Y-139599000D01*
X128484000Y-137495120D01*
X130789000Y-137495120D01*
X130789000Y-139599000D01*
G37*
X130789000Y-139599000D02*
X128484000Y-139599000D01*
X128484000Y-137495120D01*
X130789000Y-137495120D01*
X130789000Y-139599000D01*
G36*
X123477480Y-139599000D02*
X121184000Y-139599000D01*
X121184000Y-137489280D01*
X123477480Y-137489280D01*
X123477480Y-139599000D01*
G37*
X123477480Y-139599000D02*
X121184000Y-139599000D01*
X121184000Y-137489280D01*
X123477480Y-137489280D01*
X123477480Y-139599000D01*
D12*
X130228000Y-43246000D03*
X131228000Y-43246000D03*
X132228000Y-43246000D03*
X133228000Y-43246000D03*
X134228000Y-43246000D03*
X135228000Y-43246000D03*
X136228000Y-43246000D03*
X137228000Y-43246000D03*
D13*
X171196000Y-95732000D03*
X171196000Y-96292000D03*
D14*
X168916000Y-93472000D03*
X168396000Y-93472000D03*
X168916000Y-98552000D03*
X168396000Y-98552000D03*
D15*
X170460000Y-102108000D03*
X169900000Y-102108000D03*
D16*
X175448000Y-94668000D03*
X175448000Y-95668000D03*
X175448000Y-96668000D03*
X175448000Y-97668000D03*
X175448000Y-98668000D03*
X175448000Y-99668000D03*
X175448000Y-100668000D03*
X175448000Y-101668000D03*
X94808000Y-102436000D03*
X94808000Y-101436000D03*
X94808000Y-100436000D03*
X94808000Y-99436000D03*
X94808000Y-98436000D03*
X94808000Y-97436000D03*
X94808000Y-96436000D03*
X94808000Y-95436000D03*
D15*
X99288000Y-97536000D03*
X99848000Y-97536000D03*
X99288000Y-101346000D03*
X99848000Y-101346000D03*
D14*
X96768000Y-102616000D03*
X97288000Y-102616000D03*
D17*
X100838000Y-99816000D03*
X100838000Y-100336000D03*
D14*
X172968000Y-139192000D03*
X173488000Y-139192000D03*
D18*
X174383000Y-135313000D03*
X174383000Y-136213000D03*
D19*
X173343000Y-135763000D03*
D15*
X121640000Y-125730000D03*
X122200000Y-125730000D03*
X136424000Y-122936000D03*
X135864000Y-122936000D03*
X131344000Y-127000000D03*
X130784000Y-127000000D03*
X129768000Y-54356000D03*
X130328000Y-54356000D03*
X137388000Y-51308000D03*
X137948000Y-51308000D03*
D13*
X123952000Y-129820000D03*
X123952000Y-129260000D03*
X118364000Y-129312000D03*
X118364000Y-128752000D03*
D15*
X118136000Y-116840000D03*
X117576000Y-116840000D03*
D13*
X113792000Y-120168000D03*
X113792000Y-119608000D03*
X111252000Y-120168000D03*
X111252000Y-119608000D03*
X104140000Y-137440000D03*
X104140000Y-136880000D03*
X118872000Y-136424000D03*
X118872000Y-135864000D03*
X115316000Y-133376000D03*
X115316000Y-132816000D03*
D15*
X148056000Y-116332000D03*
X148616000Y-116332000D03*
X118136000Y-113284000D03*
X117576000Y-113284000D03*
X148056000Y-118364000D03*
X148616000Y-118364000D03*
D20*
X136652000Y-142074000D03*
X136652000Y-140374000D03*
D21*
X105830000Y-121412000D03*
X107530000Y-121412000D03*
D18*
X174383000Y-122613000D03*
X174383000Y-123513000D03*
D19*
X173343000Y-123063000D03*
D18*
X174383000Y-116263000D03*
X174383000Y-117163000D03*
D19*
X173343000Y-116713000D03*
D18*
X174383000Y-109913000D03*
X174383000Y-110813000D03*
D19*
X173343000Y-110363000D03*
D18*
X174383000Y-128963000D03*
X174383000Y-129863000D03*
D19*
X173343000Y-129413000D03*
D22*
X143764000Y-125476000D03*
D23*
X151384000Y-128016000D03*
X143764000Y-128016000D03*
X151384000Y-125476000D03*
D24*
X136652000Y-136310000D03*
X136652000Y-138010000D03*
D17*
X125984000Y-111004000D03*
X125984000Y-110484000D03*
D14*
X135884000Y-119888000D03*
X136404000Y-119888000D03*
X135884000Y-116840000D03*
X136404000Y-116840000D03*
X125724000Y-124460000D03*
X126244000Y-124460000D03*
X129788000Y-51308000D03*
X130308000Y-51308000D03*
X134868000Y-51308000D03*
X135388000Y-51308000D03*
D17*
X116332000Y-138932000D03*
X116332000Y-139452000D03*
D14*
X129800000Y-122428000D03*
X129280000Y-122428000D03*
D17*
X113284000Y-104908000D03*
X113284000Y-104388000D03*
X115316000Y-106928000D03*
X115316000Y-107448000D03*
X174752000Y-62732000D03*
X174752000Y-63252000D03*
D14*
X164332000Y-62992000D03*
X164852000Y-62992000D03*
X172968000Y-125984000D03*
X173488000Y-125984000D03*
X172968000Y-119888000D03*
X173488000Y-119888000D03*
X172968000Y-113538000D03*
X173488000Y-113538000D03*
X172968000Y-132588000D03*
X173488000Y-132588000D03*
D17*
X115316000Y-113036000D03*
X115316000Y-112516000D03*
D14*
X154680000Y-75692000D03*
X155200000Y-75692000D03*
X154680000Y-72644000D03*
X155200000Y-72644000D03*
D25*
X154051000Y-79603600D03*
X154051000Y-80238600D03*
X154051000Y-80899000D03*
X154051000Y-81534000D03*
X154051000Y-82194400D03*
X154051000Y-82854800D03*
X154051000Y-83489800D03*
X154051000Y-84150200D03*
X154051000Y-84785200D03*
X154051000Y-85445600D03*
X154051000Y-86106000D03*
X154051000Y-86741000D03*
X154051000Y-87401400D03*
X154051000Y-88036400D03*
X159893000Y-88036400D03*
X159893000Y-87401400D03*
X159893000Y-86741000D03*
X159893000Y-86106000D03*
X159893000Y-85445600D03*
X159893000Y-84785200D03*
X159893000Y-84150200D03*
X159893000Y-83489800D03*
X159893000Y-82854800D03*
X159893000Y-82194400D03*
X159893000Y-81534000D03*
X159893000Y-80899000D03*
X159893000Y-80238600D03*
X159893000Y-79603600D03*
D26*
X157607000Y-59257000D03*
X157607000Y-52757000D03*
X160147000Y-59257000D03*
X160147000Y-52757000D03*
X162687000Y-59257000D03*
X162687000Y-52757000D03*
X167767000Y-59257000D03*
X167767000Y-52757000D03*
X170307000Y-59257000D03*
X170307000Y-52757000D03*
X172847000Y-59257000D03*
X172847000Y-52757000D03*
D27*
X124759000Y-116348000D03*
X124759000Y-116848000D03*
X124759000Y-117348000D03*
X124759000Y-117848000D03*
X124759000Y-118348000D03*
D28*
X125484000Y-118573000D03*
X125984000Y-118573000D03*
X126484000Y-118573000D03*
D27*
X127209000Y-118348000D03*
X127209000Y-117848000D03*
X127209000Y-117348000D03*
X127209000Y-116848000D03*
X127209000Y-116348000D03*
D28*
X126484000Y-116123000D03*
X125984000Y-116123000D03*
X125484000Y-116123000D03*
D29*
X118364000Y-84328000D03*
X118364000Y-81788000D03*
X118364000Y-79248000D03*
X118364000Y-76708000D03*
X118364000Y-74168000D03*
X118364000Y-71628000D03*
X118364000Y-69088000D03*
X118364000Y-66548000D03*
X118364000Y-64008000D03*
X118364000Y-61468000D03*
X118364000Y-58928000D03*
X118364000Y-56388000D03*
X118364000Y-53848000D03*
X118364000Y-51308000D03*
X118364000Y-48768000D03*
X95504000Y-84328000D03*
X95504000Y-53848000D03*
X95504000Y-51308000D03*
X95504000Y-56388000D03*
X95504000Y-71628000D03*
X95504000Y-74168000D03*
X95504000Y-69088000D03*
X95504000Y-48768000D03*
X95504000Y-64008000D03*
X95504000Y-66548000D03*
X95504000Y-61468000D03*
X95504000Y-58928000D03*
X95504000Y-79248000D03*
X95504000Y-76708000D03*
X95504000Y-81788000D03*
D30*
X117564000Y-44948000D03*
X96364000Y-44948000D03*
X96364000Y-88578000D03*
X117614000Y-88578000D03*
D31*
X111318000Y-126133000D03*
X112268000Y-126133000D03*
X113218000Y-126133000D03*
X113218000Y-123803000D03*
X111318000Y-123803000D03*
D32*
X110185200Y-138353800D03*
X110185200Y-137414000D03*
X110185200Y-136474200D03*
X107238800Y-136474200D03*
X107238800Y-138353800D03*
D33*
X129458000Y-99374000D03*
X129458000Y-99874000D03*
X129458000Y-100374000D03*
X129458000Y-100874000D03*
X129458000Y-101374000D03*
X129458000Y-101874000D03*
X129458000Y-102374000D03*
X129458000Y-102874000D03*
X129458000Y-103374000D03*
X129458000Y-103874000D03*
X129458000Y-104374000D03*
X129458000Y-104874000D03*
X129458000Y-105374000D03*
X129458000Y-105874000D03*
X129458000Y-106374000D03*
X129458000Y-106874000D03*
X140798000Y-106874000D03*
X140798000Y-106374000D03*
X140798000Y-105874000D03*
X140798000Y-105374000D03*
X140798000Y-104874000D03*
X140798000Y-104374000D03*
X140798000Y-103874000D03*
X140798000Y-103374000D03*
X140798000Y-102874000D03*
X140798000Y-102374000D03*
X140798000Y-101874000D03*
X140798000Y-101374000D03*
X140798000Y-100874000D03*
X140798000Y-100374000D03*
X140798000Y-99874000D03*
X140798000Y-99374000D03*
D34*
X138878000Y-97454000D03*
X138378000Y-97454000D03*
X137878000Y-97454000D03*
X137378000Y-97454000D03*
X136878000Y-97454000D03*
X136378000Y-97454000D03*
X135878000Y-97454000D03*
X135378000Y-97454000D03*
X134878000Y-97454000D03*
X134378000Y-97454000D03*
X133878000Y-97454000D03*
X133378000Y-97454000D03*
X132878000Y-97454000D03*
X132378000Y-97454000D03*
X131878000Y-97454000D03*
X131378000Y-97454000D03*
X131378000Y-108794000D03*
X131878000Y-108794000D03*
X132378000Y-108794000D03*
X132878000Y-108794000D03*
X133378000Y-108794000D03*
X133878000Y-108794000D03*
X134378000Y-108794000D03*
X134878000Y-108794000D03*
X135378000Y-108794000D03*
X135878000Y-108794000D03*
X136378000Y-108794000D03*
X136878000Y-108794000D03*
X137378000Y-108794000D03*
X137878000Y-108794000D03*
X138378000Y-108794000D03*
X138878000Y-108794000D03*
D35*
X125984000Y-141224000D03*
X126634000Y-141224000D03*
X125334000Y-141224000D03*
X127284000Y-141224000D03*
X124684000Y-141224000D03*
D36*
X127134000Y-138549000D03*
X124834000Y-138549000D03*
D37*
X128409000Y-142074000D03*
X123559000Y-142061500D03*
X130496500Y-138511500D03*
X121471500Y-138536500D03*
M02*
