M48
;DRILL file {KiCad 4.0.7} date 07/02/18 07:30:10
;FORMAT={3:3/ absolute / metric / suppress leading zeros}
FMAT,2
METRIC,TZ
T1C0.400
T2C0.800
T3C1.016
T4C0.400
T5C0.600
T6C3.200
%
G90
G05
M71
T1
X91440Y-56388
X96609Y-99436
X96644Y-100413
X98044Y-92456
X106172Y-93472
X111252Y-103124
X116332Y-109220
X116922Y-136752
X117348Y-106680
X118700Y-101938
X119380Y-112268
X121920Y-108712
X122936Y-91440
X122936Y-98552
X123836Y-107500
X124460Y-92456
X124460Y-97028
X125476Y-114808
X125476Y-121412
X125984Y-117348
X126492Y-97028
X126492Y-112776
X127000Y-109728
X127000Y-119888
X127166Y-115662
X127508Y-81280
X127988Y-117258
X128016Y-107696
X128016Y-108712
X128016Y-114808
X129280Y-126285
X129508Y-91348
X129540Y-64516
X130048Y-91948
X130493Y-98206
X130704Y-105600
X131064Y-92964
X131572Y-90932
X132080Y-95504
X132588Y-119380
X133096Y-82804
X133096Y-88392
X133604Y-60452
X133604Y-120396
X134112Y-111760
X134112Y-112776
X134620Y-90424
X134620Y-94488
X134741Y-49698
X135128Y-92964
X135714Y-121627
X136144Y-87884
X136144Y-91948
X141224Y-113284
X143256Y-110236
X143764Y-102616
X145288Y-103632
X145288Y-109220
X148844Y-90932
X148844Y-96520
X149352Y-107188
X149860Y-106172
X149860Y-115316
X150368Y-98552
X150876Y-92964
X150876Y-104648
X151384Y-78232
X151384Y-109220
X151892Y-103124
X152424Y-100413
X152908Y-115316
X153924Y-90424
X154432Y-110744
X154940Y-105664
X154940Y-118872
X154940Y-123444
X155338Y-86878
X155345Y-82609
X156464Y-76708
X156972Y-113284
X160020Y-110744
X160528Y-65024
X161005Y-101938
X164084Y-85852
X164084Y-91948
X164084Y-132588
X164592Y-114300
X165100Y-113284
X165608Y-64516
X166116Y-122428
X167640Y-62484
X168148Y-119888
X168396Y-86878
X169164Y-125984
X169164Y-132588
T2
X143764Y-125476
X143764Y-128016
X151384Y-125476
X151384Y-128016
T3
X95504Y-48768
X95504Y-51308
X95504Y-53848
X95504Y-56388
X95504Y-58928
X95504Y-61468
X95504Y-64008
X95504Y-66548
X95504Y-69088
X95504Y-71628
X95504Y-74168
X95504Y-76708
X95504Y-79248
X95504Y-81788
X95504Y-84328
X118364Y-48768
X118364Y-51308
X118364Y-53848
X118364Y-56388
X118364Y-58928
X118364Y-61468
X118364Y-64008
X118364Y-66548
X118364Y-69088
X118364Y-71628
X118364Y-74168
X118364Y-76708
X118364Y-79248
X118364Y-81788
X118364Y-84328
T4
X123559Y-141549
X128409Y-141549
T5
X122472Y-138549
X129497Y-138549
T6
X96364Y-44948
X96364Y-88578
X117564Y-44948
X117614Y-88578
T0
M30
