<?xml version="1.0" standalone="no"?>
 <!DOCTYPE svg PUBLIC "-//W3C//DTD SVG 1.1//EN" 
 "http://www.w3.org/Graphics/SVG/1.1/DTD/svg11.dtd"> 
<svg xmlns="http://www.w3.org/2000/svg" version="1.1" 
    width="29.7002cm" height="21.0007cm" viewBox="0 0 116930 82680 ">
<title>SVG Picture created as prueba-F.Paste.svg date 2018/06/20 16:15:26 </title>
  <desc>Picture generated by PCBNEW </desc>
<g style="fill:#000000; fill-opacity:1;stroke:#000000; stroke-opacity:1;
stroke-linecap:round; stroke-linejoin:round; "
 transform="translate(0 0) scale(1 1)">
</g>
<g style="fill:#000000; fill-opacity:0.0; 
stroke:#000000; stroke-width:-0.000393701; stroke-opacity:1; 
stroke-linecap:round; stroke-linejoin:round;">
</g>
<g style="fill:#000000; fill-opacity:0.0; 
stroke:#000000; stroke-width:39.3701; stroke-opacity:1; 
stroke-linecap:round; stroke-linejoin:round;">
</g>
<g style="fill:#000000; fill-opacity:0.0; 
stroke:#000000; stroke-width:59.0551; stroke-opacity:1; 
stroke-linecap:round; stroke-linejoin:round;">
<rect x="69685.9" y="65357.2" width="42519.7" height="12598.4" rx="0" />
</g>
<g style="fill:#000000; fill-opacity:0.0; 
stroke:#000000; stroke-width:39.3701; stroke-opacity:1; 
stroke-linecap:round; stroke-linejoin:round;">
</g>
<g style="fill:#000000; fill-opacity:0.0; 
stroke:#000000; stroke-width:59.0551; stroke-opacity:1; 
stroke-linecap:round; stroke-linejoin:round;">
<rect x="3937.01" y="3937.01" width="109056" height="74806" rx="0" />
</g>
<g style="fill:#000000; fill-opacity:0.0; 
stroke:#000000; stroke-width:39.3701; stroke-opacity:1; 
stroke-linecap:round; stroke-linejoin:round;">
</g>
<g style="fill:#000000; fill-opacity:0.0; 
stroke:#000000; stroke-width:59.0551; stroke-opacity:1; 
stroke-linecap:round; stroke-linejoin:round;">
<rect x="4724.41" y="4724.41" width="107481" height="73231.2" rx="0" />
</g>
<g style="fill:#000000; fill-opacity:0.0; 
stroke:#000000; stroke-width:39.3701; stroke-opacity:1; 
stroke-linecap:round; stroke-linejoin:round;">
</g>
<g style="fill:#000000; fill-opacity:0.0; 
stroke:#000000; stroke-width:59.0551; stroke-opacity:1; 
stroke-linecap:round; stroke-linejoin:round;">
<path d="M23622 4724
L23622 3937
" />
</g>
<g style="fill:#000000; fill-opacity:0.0; 
stroke:#000000; stroke-width:39.3701; stroke-opacity:1; 
stroke-linecap:round; stroke-linejoin:round;">
</g>
<g style="fill:#000000; fill-opacity:0.0; 
stroke:#000000; stroke-width:59.0551; stroke-opacity:1; 
stroke-linecap:round; stroke-linejoin:round;">
<path d="M43307 4724
L43307 3937
" />
</g>
<g style="fill:#000000; fill-opacity:0.0; 
stroke:#000000; stroke-width:39.3701; stroke-opacity:1; 
stroke-linecap:round; stroke-linejoin:round;">
</g>
<g style="fill:#000000; fill-opacity:0.0; 
stroke:#000000; stroke-width:59.0551; stroke-opacity:1; 
stroke-linecap:round; stroke-linejoin:round;">
<path d="M62992 4724
L62992 3937
" />
</g>
<g style="fill:#000000; fill-opacity:0.0; 
stroke:#000000; stroke-width:39.3701; stroke-opacity:1; 
stroke-linecap:round; stroke-linejoin:round;">
</g>
<g style="fill:#000000; fill-opacity:0.0; 
stroke:#000000; stroke-width:59.0551; stroke-opacity:1; 
stroke-linecap:round; stroke-linejoin:round;">
<path d="M82677 4724
L82677 3937
" />
</g>
<g style="fill:#000000; fill-opacity:0.0; 
stroke:#000000; stroke-width:39.3701; stroke-opacity:1; 
stroke-linecap:round; stroke-linejoin:round;">
</g>
<g style="fill:#000000; fill-opacity:0.0; 
stroke:#000000; stroke-width:59.0551; stroke-opacity:1; 
stroke-linecap:round; stroke-linejoin:round;">
<path d="M102362 4724
L102362 3937
" />
</g>
<g style="fill:#000000; fill-opacity:0.0; 
stroke:#000000; stroke-width:39.3701; stroke-opacity:1; 
stroke-linecap:round; stroke-linejoin:round;">
</g>
<g style="fill:#000000; fill-opacity:0.0; 
stroke:#000000; stroke-width:59.0551; stroke-opacity:1; 
stroke-linecap:round; stroke-linejoin:round;">
<path d="M14169 4562
L13877 4562
" />
<path d="M14023 4562
L14023 4050
L13974 4123
L13925 4172
L13877 4196
" />
</g>
<g style="fill:#000000; fill-opacity:0.0; 
stroke:#000000; stroke-width:39.3701; stroke-opacity:1; 
stroke-linecap:round; stroke-linejoin:round;">
</g>
<g style="fill:#000000; fill-opacity:0.0; 
stroke:#000000; stroke-width:59.0551; stroke-opacity:1; 
stroke-linecap:round; stroke-linejoin:round;">
<path d="M33562 4099
L33586 4074
L33635 4050
L33757 4050
L33805 4074
L33830 4099
L33854 4147
L33854 4196
L33830 4269
L33537 4562
L33854 4562
" />
</g>
<g style="fill:#000000; fill-opacity:0.0; 
stroke:#000000; stroke-width:39.3701; stroke-opacity:1; 
stroke-linecap:round; stroke-linejoin:round;">
</g>
<g style="fill:#000000; fill-opacity:0.0; 
stroke:#000000; stroke-width:59.0551; stroke-opacity:1; 
stroke-linecap:round; stroke-linejoin:round;">
<path d="M53222 4050
L53539 4050
L53368 4245
L53442 4245
L53490 4269
L53515 4294
L53539 4342
L53539 4464
L53515 4513
L53490 4537
L53442 4562
L53295 4562
L53247 4537
L53222 4513
" />
</g>
<g style="fill:#000000; fill-opacity:0.0; 
stroke:#000000; stroke-width:39.3701; stroke-opacity:1; 
stroke-linecap:round; stroke-linejoin:round;">
</g>
<g style="fill:#000000; fill-opacity:0.0; 
stroke:#000000; stroke-width:59.0551; stroke-opacity:1; 
stroke-linecap:round; stroke-linejoin:round;">
<path d="M73175 4221
L73175 4562
" />
<path d="M73053 4026
L72932 4391
L73248 4391
" />
</g>
<g style="fill:#000000; fill-opacity:0.0; 
stroke:#000000; stroke-width:39.3701; stroke-opacity:1; 
stroke-linecap:round; stroke-linejoin:round;">
</g>
<g style="fill:#000000; fill-opacity:0.0; 
stroke:#000000; stroke-width:59.0551; stroke-opacity:1; 
stroke-linecap:round; stroke-linejoin:round;">
<path d="M92885 4050
L92641 4050
L92617 4294
L92641 4269
L92690 4245
L92812 4245
L92860 4269
L92885 4294
L92909 4342
L92909 4464
L92885 4513
L92860 4537
L92812 4562
L92690 4562
L92641 4537
L92617 4513
" />
</g>
<g style="fill:#000000; fill-opacity:0.0; 
stroke:#000000; stroke-width:39.3701; stroke-opacity:1; 
stroke-linecap:round; stroke-linejoin:round;">
</g>
<g style="fill:#000000; fill-opacity:0.0; 
stroke:#000000; stroke-width:59.0551; stroke-opacity:1; 
stroke-linecap:round; stroke-linejoin:round;">
<path d="M112545 4050
L112448 4050
L112399 4074
L112375 4099
L112326 4172
L112302 4269
L112302 4464
L112326 4513
L112350 4537
L112399 4562
L112497 4562
L112545 4537
L112570 4513
L112594 4464
L112594 4342
L112570 4294
L112545 4269
L112497 4245
L112399 4245
L112350 4269
L112326 4294
L112302 4342
" />
</g>
<g style="fill:#000000; fill-opacity:0.0; 
stroke:#000000; stroke-width:39.3701; stroke-opacity:1; 
stroke-linecap:round; stroke-linejoin:round;">
</g>
<g style="fill:#000000; fill-opacity:0.0; 
stroke:#000000; stroke-width:59.0551; stroke-opacity:1; 
stroke-linecap:round; stroke-linejoin:round;">
<path d="M23622 77955
L23622 78742
" />
</g>
<g style="fill:#000000; fill-opacity:0.0; 
stroke:#000000; stroke-width:39.3701; stroke-opacity:1; 
stroke-linecap:round; stroke-linejoin:round;">
</g>
<g style="fill:#000000; fill-opacity:0.0; 
stroke:#000000; stroke-width:59.0551; stroke-opacity:1; 
stroke-linecap:round; stroke-linejoin:round;">
<path d="M43307 77955
L43307 78742
" />
</g>
<g style="fill:#000000; fill-opacity:0.0; 
stroke:#000000; stroke-width:39.3701; stroke-opacity:1; 
stroke-linecap:round; stroke-linejoin:round;">
</g>
<g style="fill:#000000; fill-opacity:0.0; 
stroke:#000000; stroke-width:59.0551; stroke-opacity:1; 
stroke-linecap:round; stroke-linejoin:round;">
<path d="M62992 77955
L62992 78742
" />
</g>
<g style="fill:#000000; fill-opacity:0.0; 
stroke:#000000; stroke-width:39.3701; stroke-opacity:1; 
stroke-linecap:round; stroke-linejoin:round;">
</g>
<g style="fill:#000000; fill-opacity:0.0; 
stroke:#000000; stroke-width:59.0551; stroke-opacity:1; 
stroke-linecap:round; stroke-linejoin:round;">
<path d="M82677 77955
L82677 78742
" />
</g>
<g style="fill:#000000; fill-opacity:0.0; 
stroke:#000000; stroke-width:39.3701; stroke-opacity:1; 
stroke-linecap:round; stroke-linejoin:round;">
</g>
<g style="fill:#000000; fill-opacity:0.0; 
stroke:#000000; stroke-width:59.0551; stroke-opacity:1; 
stroke-linecap:round; stroke-linejoin:round;">
<path d="M102362 77955
L102362 78742
" />
</g>
<g style="fill:#000000; fill-opacity:0.0; 
stroke:#000000; stroke-width:39.3701; stroke-opacity:1; 
stroke-linecap:round; stroke-linejoin:round;">
</g>
<g style="fill:#000000; fill-opacity:0.0; 
stroke:#000000; stroke-width:59.0551; stroke-opacity:1; 
stroke-linecap:round; stroke-linejoin:round;">
<path d="M14169 78580
L13877 78580
" />
<path d="M14023 78580
L14023 78069
L13974 78142
L13925 78190
L13877 78215
" />
</g>
<g style="fill:#000000; fill-opacity:0.0; 
stroke:#000000; stroke-width:39.3701; stroke-opacity:1; 
stroke-linecap:round; stroke-linejoin:round;">
</g>
<g style="fill:#000000; fill-opacity:0.0; 
stroke:#000000; stroke-width:59.0551; stroke-opacity:1; 
stroke-linecap:round; stroke-linejoin:round;">
<path d="M33562 78117
L33586 78093
L33635 78069
L33757 78069
L33805 78093
L33830 78117
L33854 78166
L33854 78215
L33830 78288
L33537 78580
L33854 78580
" />
</g>
<g style="fill:#000000; fill-opacity:0.0; 
stroke:#000000; stroke-width:39.3701; stroke-opacity:1; 
stroke-linecap:round; stroke-linejoin:round;">
</g>
<g style="fill:#000000; fill-opacity:0.0; 
stroke:#000000; stroke-width:59.0551; stroke-opacity:1; 
stroke-linecap:round; stroke-linejoin:round;">
<path d="M53222 78069
L53539 78069
L53368 78263
L53442 78263
L53490 78288
L53515 78312
L53539 78361
L53539 78483
L53515 78532
L53490 78556
L53442 78580
L53295 78580
L53247 78556
L53222 78532
" />
</g>
<g style="fill:#000000; fill-opacity:0.0; 
stroke:#000000; stroke-width:39.3701; stroke-opacity:1; 
stroke-linecap:round; stroke-linejoin:round;">
</g>
<g style="fill:#000000; fill-opacity:0.0; 
stroke:#000000; stroke-width:59.0551; stroke-opacity:1; 
stroke-linecap:round; stroke-linejoin:round;">
<path d="M73175 78239
L73175 78580
" />
<path d="M73053 78044
L72932 78410
L73248 78410
" />
</g>
<g style="fill:#000000; fill-opacity:0.0; 
stroke:#000000; stroke-width:39.3701; stroke-opacity:1; 
stroke-linecap:round; stroke-linejoin:round;">
</g>
<g style="fill:#000000; fill-opacity:0.0; 
stroke:#000000; stroke-width:59.0551; stroke-opacity:1; 
stroke-linecap:round; stroke-linejoin:round;">
<path d="M92885 78069
L92641 78069
L92617 78312
L92641 78288
L92690 78263
L92812 78263
L92860 78288
L92885 78312
L92909 78361
L92909 78483
L92885 78532
L92860 78556
L92812 78580
L92690 78580
L92641 78556
L92617 78532
" />
</g>
<g style="fill:#000000; fill-opacity:0.0; 
stroke:#000000; stroke-width:39.3701; stroke-opacity:1; 
stroke-linecap:round; stroke-linejoin:round;">
</g>
<g style="fill:#000000; fill-opacity:0.0; 
stroke:#000000; stroke-width:59.0551; stroke-opacity:1; 
stroke-linecap:round; stroke-linejoin:round;">
<path d="M112545 78069
L112448 78069
L112399 78093
L112375 78117
L112326 78190
L112302 78288
L112302 78483
L112326 78532
L112350 78556
L112399 78580
L112497 78580
L112545 78556
L112570 78532
L112594 78483
L112594 78361
L112570 78312
L112545 78288
L112497 78263
L112399 78263
L112350 78288
L112326 78312
L112302 78361
" />
</g>
<g style="fill:#000000; fill-opacity:0.0; 
stroke:#000000; stroke-width:39.3701; stroke-opacity:1; 
stroke-linecap:round; stroke-linejoin:round;">
</g>
<g style="fill:#000000; fill-opacity:0.0; 
stroke:#000000; stroke-width:59.0551; stroke-opacity:1; 
stroke-linecap:round; stroke-linejoin:round;">
<path d="M3937 23622
L4724 23622
" />
</g>
<g style="fill:#000000; fill-opacity:0.0; 
stroke:#000000; stroke-width:39.3701; stroke-opacity:1; 
stroke-linecap:round; stroke-linejoin:round;">
</g>
<g style="fill:#000000; fill-opacity:0.0; 
stroke:#000000; stroke-width:59.0551; stroke-opacity:1; 
stroke-linecap:round; stroke-linejoin:round;">
<path d="M3937 43307
L4724 43307
" />
</g>
<g style="fill:#000000; fill-opacity:0.0; 
stroke:#000000; stroke-width:39.3701; stroke-opacity:1; 
stroke-linecap:round; stroke-linejoin:round;">
</g>
<g style="fill:#000000; fill-opacity:0.0; 
stroke:#000000; stroke-width:59.0551; stroke-opacity:1; 
stroke-linecap:round; stroke-linejoin:round;">
<path d="M3937 62992
L4724 62992
" />
</g>
<g style="fill:#000000; fill-opacity:0.0; 
stroke:#000000; stroke-width:39.3701; stroke-opacity:1; 
stroke-linecap:round; stroke-linejoin:round;">
</g>
<g style="fill:#000000; fill-opacity:0.0; 
stroke:#000000; stroke-width:59.0551; stroke-opacity:1; 
stroke-linecap:round; stroke-linejoin:round;">
<path d="M4208 13864
L4452 13864
" />
<path d="M4160 14011
L4330 13499
L4501 14011
" />
</g>
<g style="fill:#000000; fill-opacity:0.0; 
stroke:#000000; stroke-width:39.3701; stroke-opacity:1; 
stroke-linecap:round; stroke-linejoin:round;">
</g>
<g style="fill:#000000; fill-opacity:0.0; 
stroke:#000000; stroke-width:59.0551; stroke-opacity:1; 
stroke-linecap:round; stroke-linejoin:round;">
<path d="M4367 33428
L4440 33452
L4464 33476
L4489 33525
L4489 33598
L4464 33647
L4440 33671
L4391 33696
L4196 33696
L4196 33184
L4367 33184
L4416 33208
L4440 33233
L4464 33281
L4464 33330
L4440 33379
L4416 33403
L4367 33428
L4196 33428
" />
</g>
<g style="fill:#000000; fill-opacity:0.0; 
stroke:#000000; stroke-width:39.3701; stroke-opacity:1; 
stroke-linecap:round; stroke-linejoin:round;">
</g>
<g style="fill:#000000; fill-opacity:0.0; 
stroke:#000000; stroke-width:59.0551; stroke-opacity:1; 
stroke-linecap:round; stroke-linejoin:round;">
<path d="M4489 53332
L4464 53356
L4391 53381
L4342 53381
L4269 53356
L4221 53308
L4196 53259
L4172 53161
L4172 53088
L4196 52991
L4221 52942
L4269 52893
L4342 52869
L4391 52869
L4464 52893
L4489 52918
" />
</g>
<g style="fill:#000000; fill-opacity:0.0; 
stroke:#000000; stroke-width:39.3701; stroke-opacity:1; 
stroke-linecap:round; stroke-linejoin:round;">
</g>
<g style="fill:#000000; fill-opacity:0.0; 
stroke:#000000; stroke-width:59.0551; stroke-opacity:1; 
stroke-linecap:round; stroke-linejoin:round;">
<path d="M4196 73066
L4196 72554
L4318 72554
L4391 72578
L4440 72627
L4464 72676
L4489 72773
L4489 72846
L4464 72944
L4440 72993
L4391 73041
L4318 73066
L4196 73066
" />
</g>
<g style="fill:#000000; fill-opacity:0.0; 
stroke:#000000; stroke-width:39.3701; stroke-opacity:1; 
stroke-linecap:round; stroke-linejoin:round;">
</g>
<g style="fill:#000000; fill-opacity:0.0; 
stroke:#000000; stroke-width:59.0551; stroke-opacity:1; 
stroke-linecap:round; stroke-linejoin:round;">
<path d="M112992 23622
L112205 23622
" />
</g>
<g style="fill:#000000; fill-opacity:0.0; 
stroke:#000000; stroke-width:39.3701; stroke-opacity:1; 
stroke-linecap:round; stroke-linejoin:round;">
</g>
<g style="fill:#000000; fill-opacity:0.0; 
stroke:#000000; stroke-width:59.0551; stroke-opacity:1; 
stroke-linecap:round; stroke-linejoin:round;">
<path d="M112992 43307
L112205 43307
" />
</g>
<g style="fill:#000000; fill-opacity:0.0; 
stroke:#000000; stroke-width:39.3701; stroke-opacity:1; 
stroke-linecap:round; stroke-linejoin:round;">
</g>
<g style="fill:#000000; fill-opacity:0.0; 
stroke:#000000; stroke-width:59.0551; stroke-opacity:1; 
stroke-linecap:round; stroke-linejoin:round;">
<path d="M112992 62992
L112205 62992
" />
</g>
<g style="fill:#000000; fill-opacity:0.0; 
stroke:#000000; stroke-width:39.3701; stroke-opacity:1; 
stroke-linecap:round; stroke-linejoin:round;">
</g>
<g style="fill:#000000; fill-opacity:0.0; 
stroke:#000000; stroke-width:59.0551; stroke-opacity:1; 
stroke-linecap:round; stroke-linejoin:round;">
<path d="M112477 13864
L112721 13864
" />
<path d="M112428 14011
L112599 13499
L112769 14011
" />
</g>
<g style="fill:#000000; fill-opacity:0.0; 
stroke:#000000; stroke-width:39.3701; stroke-opacity:1; 
stroke-linecap:round; stroke-linejoin:round;">
</g>
<g style="fill:#000000; fill-opacity:0.0; 
stroke:#000000; stroke-width:59.0551; stroke-opacity:1; 
stroke-linecap:round; stroke-linejoin:round;">
<path d="M112635 33428
L112708 33452
L112733 33476
L112757 33525
L112757 33598
L112733 33647
L112708 33671
L112660 33696
L112465 33696
L112465 33184
L112635 33184
L112684 33208
L112708 33233
L112733 33281
L112733 33330
L112708 33379
L112684 33403
L112635 33428
L112465 33428
" />
</g>
<g style="fill:#000000; fill-opacity:0.0; 
stroke:#000000; stroke-width:39.3701; stroke-opacity:1; 
stroke-linecap:round; stroke-linejoin:round;">
</g>
<g style="fill:#000000; fill-opacity:0.0; 
stroke:#000000; stroke-width:59.0551; stroke-opacity:1; 
stroke-linecap:round; stroke-linejoin:round;">
<path d="M112757 53332
L112733 53356
L112660 53381
L112611 53381
L112538 53356
L112489 53308
L112465 53259
L112440 53161
L112440 53088
L112465 52991
L112489 52942
L112538 52893
L112611 52869
L112660 52869
L112733 52893
L112757 52918
" />
</g>
<g style="fill:#000000; fill-opacity:0.0; 
stroke:#000000; stroke-width:39.3701; stroke-opacity:1; 
stroke-linecap:round; stroke-linejoin:round;">
</g>
<g style="fill:#000000; fill-opacity:0.0; 
stroke:#000000; stroke-width:59.0551; stroke-opacity:1; 
stroke-linecap:round; stroke-linejoin:round;">
<path d="M112465 73066
L112465 72554
L112587 72554
L112660 72578
L112708 72627
L112733 72676
L112757 72773
L112757 72846
L112733 72944
L112708 72993
L112660 73041
L112587 73066
L112465 73066
" />
</g>
<g style="fill:#000000; fill-opacity:0.0; 
stroke:#000000; stroke-width:39.3701; stroke-opacity:1; 
stroke-linecap:round; stroke-linejoin:round;">
</g>
<g style="fill:#000000; fill-opacity:0.0; 
stroke:#000000; stroke-width:59.0551; stroke-opacity:1; 
stroke-linecap:round; stroke-linejoin:round;">
<path d="M78881 76293
L78881 75703
L79022 75703
L79106 75731
L79162 75787
L79190 75843
L79219 75956
L79219 76040
L79190 76153
L79162 76209
L79106 76265
L79022 76293
L78881 76293
" />
<path d="M79725 76293
L79725 75984
L79697 75928
L79640 75899
L79528 75899
L79472 75928
" />
<path d="M79725 76265
L79669 76293
L79528 76293
L79472 76265
L79444 76209
L79444 76153
L79472 76096
L79528 76068
L79669 76068
L79725 76040
" />
<path d="M79922 75899
L80147 75899
" />
<path d="M80006 75703
L80006 76209
L80034 76265
L80090 76293
L80147 76293
" />
<path d="M80568 76265
L80512 76293
L80400 76293
L80343 76265
L80315 76209
L80315 75984
L80343 75928
L80400 75899
L80512 75899
L80568 75928
L80597 75984
L80597 76040
L80315 76096
" />
<path d="M80850 76237
L80878 76265
L80850 76293
L80822 76265
L80850 76237
L80850 76293
" />
<path d="M80850 75928
L80878 75956
L80850 75984
L80822 75956
L80850 75928
L80850 75984
" />
</g>
<g style="fill:#000000; fill-opacity:0.0; 
stroke:#000000; stroke-width:39.3701; stroke-opacity:1; 
stroke-linecap:round; stroke-linejoin:round;">
</g>
<g style="fill:#000000; fill-opacity:0.0; 
stroke:#000000; stroke-width:59.0551; stroke-opacity:1; 
stroke-linecap:round; stroke-linejoin:round;">
<path d="M69685 76577
L112205 76577
" />
</g>
<g style="fill:#000000; fill-opacity:0.0; 
stroke:#000000; stroke-width:39.3701; stroke-opacity:1; 
stroke-linecap:round; stroke-linejoin:round;">
</g>
<g style="fill:#000000; fill-opacity:0.0; 
stroke:#000000; stroke-width:59.0551; stroke-opacity:1; 
stroke-linecap:round; stroke-linejoin:round;">
<path d="M70220 77395
L70220 76805
" />
<path d="M70557 77395
L70304 77058
" />
<path d="M70557 76805
L70220 77142
" />
<path d="M70810 77395
L70810 77002
" />
<path d="M70810 76805
L70782 76833
L70810 76861
L70838 76833
L70810 76805
L70810 76861
" />
<path d="M71429 77339
L71401 77367
L71316 77395
L71260 77395
L71176 77367
L71120 77311
L71091 77255
L71063 77142
L71063 77058
L71091 76946
L71120 76889
L71176 76833
L71260 76805
L71316 76805
L71401 76833
L71429 76861
" />
<path d="M71935 77395
L71935 77086
L71907 77030
L71851 77002
L71738 77002
L71682 77030
" />
<path d="M71935 77367
L71879 77395
L71738 77395
L71682 77367
L71654 77311
L71654 77255
L71682 77199
L71738 77171
L71879 77171
L71935 77142
" />
<path d="M72469 77395
L72469 76805
" />
<path d="M72469 77367
L72413 77395
L72301 77395
L72244 77367
L72216 77339
L72188 77283
L72188 77114
L72216 77058
L72244 77030
L72301 77002
L72413 77002
L72469 77030
" />
<path d="M73201 77086
L73397 77086
" />
<path d="M73482 77395
L73201 77395
L73201 76805
L73482 76805
" />
<path d="M73735 77339
L73763 77367
L73735 77395
L73707 77367
L73735 77339
L73735 77395
" />
<path d="M74016 77395
L74016 76805
L74157 76805
L74241 76833
L74297 76889
L74325 76946
L74354 77058
L74354 77142
L74325 77255
L74297 77311
L74241 77367
L74157 77395
L74016 77395
" />
<path d="M74607 77339
L74635 77367
L74607 77395
L74579 77367
L74607 77339
L74607 77395
" />
<path d="M74860 77227
L75141 77227
" />
<path d="M74804 77395
L75000 76805
L75197 77395
" />
<path d="M75394 77339
L75422 77367
L75394 77395
L75366 77367
L75394 77339
L75394 77395
" />
<path d="M76575 77395
L76575 76805
" />
<path d="M76631 77171
L76800 77395
" />
<path d="M76800 77002
L76575 77227
" />
<path d="M77053 77395
L77053 77002
" />
<path d="M77053 76805
L77025 76833
L77053 76861
L77081 76833
L77053 76805
L77053 76861
" />
<path d="M77588 77367
L77531 77395
L77419 77395
L77363 77367
L77334 77339
L77306 77283
L77306 77114
L77334 77058
L77363 77030
L77419 77002
L77531 77002
L77588 77030
" />
<path d="M78094 77395
L78094 77086
L78066 77030
L78009 77002
L77897 77002
L77841 77030
" />
<path d="M78094 77367
L78037 77395
L77897 77395
L77841 77367
L77813 77311
L77813 77255
L77841 77199
L77897 77171
L78037 77171
L78094 77142
" />
<path d="M78628 77395
L78628 76805
" />
<path d="M78628 77367
L78572 77395
L78459 77395
L78403 77367
L78375 77339
L78347 77283
L78347 77114
L78375 77058
L78403 77030
L78459 77002
L78572 77002
L78628 77030
" />
<path d="M79612 77002
L79612 77395
" />
<path d="M79472 76777
L79331 77199
L79697 77199
" />
<path d="M79922 77339
L79950 77367
L79922 77395
L79894 77367
L79922 77339
L79922 77395
" />
<path d="M80315 76805
L80372 76805
L80428 76833
L80456 76861
L80484 76917
L80512 77030
L80512 77171
L80484 77283
L80456 77339
L80428 77367
L80372 77395
L80315 77395
L80259 77367
L80231 77339
L80203 77283
L80175 77171
L80175 77030
L80203 76917
L80231 76861
L80259 76833
L80315 76805
" />
<path d="M80765 77339
L80793 77367
L80765 77395
L80737 77367
L80765 77339
L80765 77395
" />
<path d="M80990 76805
L81384 76805
L81131 77395
" />
</g>
<g style="fill:#000000; fill-opacity:0.0; 
stroke:#000000; stroke-width:39.3701; stroke-opacity:1; 
stroke-linecap:round; stroke-linejoin:round;">
</g>
<g style="fill:#000000; fill-opacity:0.0; 
stroke:#000000; stroke-width:59.0551; stroke-opacity:1; 
stroke-linecap:round; stroke-linejoin:round;">
<path d="M69685 75396
L112205 75396
" />
</g>
<g style="fill:#000000; fill-opacity:0.0; 
stroke:#000000; stroke-width:39.3701; stroke-opacity:1; 
stroke-linecap:round; stroke-linejoin:round;">
</g>
<g style="fill:#000000; fill-opacity:0.0; 
stroke:#000000; stroke-width:118.11; stroke-opacity:1; 
stroke-linecap:round; stroke-linejoin:round;">
<path d="M104022 76293
L103825 76012
" />
<path d="M103684 76293
L103684 75703
L103909 75703
L103965 75731
L103994 75759
L104022 75815
L104022 75899
L103994 75956
L103965 75984
L103909 76012
L103684 76012
" />
<path d="M104500 76265
L104444 76293
L104331 76293
L104275 76265
L104247 76209
L104247 75984
L104275 75928
L104331 75899
L104444 75899
L104500 75928
L104528 75984
L104528 76040
L104247 76096
" />
<path d="M104725 75899
L104865 76293
L105006 75899
" />
<path d="M105231 76237
L105259 76265
L105231 76293
L105203 76265
L105231 76237
L105231 76293
" />
<path d="M105231 75928
L105259 75956
L105231 75984
L105203 75956
L105231 75928
L105231 75984
" />
</g>
<g style="fill:#000000; fill-opacity:0.0; 
stroke:#000000; stroke-width:39.3701; stroke-opacity:1; 
stroke-linecap:round; stroke-linejoin:round;">
</g>
<g style="fill:#000000; fill-opacity:0.0; 
stroke:#000000; stroke-width:59.0551; stroke-opacity:1; 
stroke-linecap:round; stroke-linejoin:round;">
<path d="M70192 76265
L70276 76293
L70417 76293
L70473 76265
L70501 76237
L70529 76181
L70529 76124
L70501 76068
L70473 76040
L70417 76012
L70304 75984
L70248 75956
L70220 75928
L70192 75871
L70192 75815
L70220 75759
L70248 75731
L70304 75703
L70445 75703
L70529 75731
" />
<path d="M70782 76293
L70782 75899
" />
<path d="M70782 75703
L70754 75731
L70782 75759
L70810 75731
L70782 75703
L70782 75759
" />
<path d="M71007 75899
L71316 75899
L71007 76293
L71316 76293
" />
<path d="M71766 76265
L71710 76293
L71598 76293
L71541 76265
L71513 76209
L71513 75984
L71541 75928
L71598 75899
L71710 75899
L71766 75928
L71795 75984
L71795 76040
L71513 76096
" />
<path d="M72048 76237
L72076 76265
L72048 76293
L72019 76265
L72048 76237
L72048 76293
" />
<path d="M72048 75928
L72076 75956
L72048 75984
L72019 75956
L72048 75928
L72048 75984
" />
<path d="M72751 76124
L73032 76124
" />
<path d="M72694 76293
L72891 75703
L73088 76293
" />
<path d="M73538 75899
L73538 76293
" />
<path d="M73397 75674
L73257 76096
L73622 76096
" />
</g>
<g style="fill:#000000; fill-opacity:0.0; 
stroke:#000000; stroke-width:39.3701; stroke-opacity:1; 
stroke-linecap:round; stroke-linejoin:round;">
</g>
<g style="fill:#000000; fill-opacity:0.0; 
stroke:#000000; stroke-width:59.0551; stroke-opacity:1; 
stroke-linecap:round; stroke-linejoin:round;">
<path d="M103684 77395
L103684 76805
" />
<path d="M104219 77395
L104219 76805
" />
<path d="M104219 77367
L104162 77395
L104050 77395
L103994 77367
L103965 77339
L103937 77283
L103937 77114
L103965 77058
L103994 77030
L104050 77002
L104162 77002
L104219 77030
" />
<path d="M104500 77339
L104528 77367
L104500 77395
L104472 77367
L104500 77339
L104500 77395
" />
<path d="M104500 77030
L104528 77058
L104500 77086
L104472 77058
L104500 77030
L104500 77086
" />
<path d="M105540 77395
L105203 77395
" />
<path d="M105372 77395
L105372 76805
L105315 76889
L105259 76946
L105203 76974
" />
<path d="M106215 76777
L105709 77536
" />
<path d="M106721 77395
L106384 77395
" />
<path d="M106553 77395
L106553 76805
L106496 76889
L106440 76946
L106384 76974
" />
</g>
<g style="fill:#000000; fill-opacity:0.0; 
stroke:#000000; stroke-width:39.3701; stroke-opacity:1; 
stroke-linecap:round; stroke-linejoin:round;">
</g>
<g style="fill:#000000; fill-opacity:0.0; 
stroke:#000000; stroke-width:59.0551; stroke-opacity:1; 
stroke-linecap:round; stroke-linejoin:round;">
<path d="M69685 73821
L112205 73821
" />
</g>
<g style="fill:#000000; fill-opacity:0.0; 
stroke:#000000; stroke-width:39.3701; stroke-opacity:1; 
stroke-linecap:round; stroke-linejoin:round;">
</g>
<g style="fill:#000000; fill-opacity:0.0; 
stroke:#000000; stroke-width:157.48; stroke-opacity:1; 
stroke-linecap:round; stroke-linejoin:round;">
<path d="M70257 74099
L70707 74099
" />
<path d="M70384 74886
L70482 74099
" />
<path d="M70871 74886
L70937 74361
" />
<path d="M70970 74099
L70927 74136
L70960 74174
L71002 74136
L70970 74099
L70960 74174
" />
<path d="M71199 74361
L71499 74361
" />
<path d="M71345 74099
L71260 74774
L71288 74849
L71359 74886
L71434 74886
" />
<path d="M71809 74886
L71738 74849
L71710 74774
L71795 74099
" />
<path d="M72413 74849
L72334 74886
L72184 74886
L72113 74849
L72085 74774
L72123 74474
L72169 74399
L72249 74361
L72399 74361
L72469 74399
L72498 74474
L72488 74549
L72104 74624
" />
<path d="M72793 74811
L72826 74849
L72783 74886
L72751 74849
L72793 74811
L72783 74886
" />
<path d="M72844 74399
L72877 74436
L72835 74474
L72802 74436
L72844 74399
L72835 74474
" />
</g>
<g style="fill:#000000; fill-opacity:0.0; 
stroke:#000000; stroke-width:39.3701; stroke-opacity:1; 
stroke-linecap:round; stroke-linejoin:round;">
</g>
<g style="fill:#000000; fill-opacity:0.0; 
stroke:#000000; stroke-width:59.0551; stroke-opacity:1; 
stroke-linecap:round; stroke-linejoin:round;">
<path d="M70417 73070
L70220 73070
" />
<path d="M70220 73380
L70220 72789
L70501 72789
" />
<path d="M70726 73380
L70726 72986
" />
<path d="M70726 72789
L70698 72817
L70726 72845
L70754 72817
L70726 72789
L70726 72845
" />
<path d="M71091 73380
L71035 73352
L71007 73295
L71007 72789
" />
<path d="M71541 73352
L71485 73380
L71373 73380
L71316 73352
L71288 73295
L71288 73070
L71316 73014
L71373 72986
L71485 72986
L71541 73014
L71570 73070
L71570 73127
L71288 73183
" />
<path d="M71823 73323
L71851 73352
L71823 73380
L71795 73352
L71823 73323
L71823 73380
" />
<path d="M71823 73014
L71851 73042
L71823 73070
L71795 73042
L71823 73014
L71823 73070
" />
<path d="M72554 72986
L72554 73577
" />
<path d="M72554 73014
L72610 72986
L72723 72986
L72779 73014
L72807 73042
L72835 73099
L72835 73267
L72807 73323
L72779 73352
L72723 73380
L72610 73380
L72554 73352
" />
<path d="M73088 73380
L73088 72986
" />
<path d="M73088 73099
L73116 73042
L73144 73014
L73201 72986
L73257 72986
" />
<path d="M73707 72986
L73707 73380
" />
<path d="M73454 72986
L73454 73295
L73482 73352
L73538 73380
L73622 73380
L73679 73352
L73707 73323
" />
<path d="M74213 73352
L74157 73380
L74044 73380
L73988 73352
L73960 73295
L73960 73070
L73988 73014
L74044 72986
L74157 72986
L74213 73014
L74241 73070
L74241 73127
L73960 73183
" />
<path d="M74494 73380
L74494 72789
" />
<path d="M74494 73014
L74550 72986
L74663 72986
L74719 73014
L74747 73042
L74775 73099
L74775 73267
L74747 73323
L74719 73352
L74663 73380
L74550 73380
L74494 73352
" />
<path d="M75282 73380
L75282 73070
L75253 73014
L75197 72986
L75085 72986
L75028 73014
" />
<path d="M75282 73352
L75225 73380
L75085 73380
L75028 73352
L75000 73295
L75000 73239
L75028 73183
L75085 73155
L75225 73155
L75282 73127
" />
<path d="M75563 73323
L75591 73352
L75563 73380
L75535 73352
L75563 73323
L75563 73380
" />
<path d="M75844 73380
L75844 72789
" />
<path d="M75900 73155
L76069 73380
" />
<path d="M76069 72986
L75844 73211
" />
<path d="M76322 73380
L76322 72986
" />
<path d="M76322 72789
L76294 72817
L76322 72845
L76350 72817
L76322 72789
L76322 72845
" />
<path d="M76856 73352
L76800 73380
L76688 73380
L76631 73352
L76603 73323
L76575 73267
L76575 73099
L76603 73042
L76631 73014
L76688 72986
L76800 72986
L76856 73014
" />
<path d="M77363 73380
L77363 73070
L77334 73014
L77278 72986
L77166 72986
L77109 73014
" />
<path d="M77363 73352
L77306 73380
L77166 73380
L77109 73352
L77081 73295
L77081 73239
L77109 73183
L77166 73155
L77306 73155
L77363 73127
" />
<path d="M77897 73380
L77897 72789
" />
<path d="M77897 73352
L77841 73380
L77728 73380
L77672 73352
L77644 73323
L77616 73267
L77616 73099
L77644 73042
L77672 73014
L77728 72986
L77841 72986
L77897 73014
" />
<path d="M78037 73436
L78487 73436
" />
<path d="M78628 72986
L78628 73577
" />
<path d="M78628 73014
L78684 72986
L78797 72986
L78853 73014
L78881 73042
L78909 73099
L78909 73267
L78881 73323
L78853 73352
L78797 73380
L78684 73380
L78628 73352
" />
<path d="M79415 73352
L79359 73380
L79247 73380
L79190 73352
L79162 73323
L79134 73267
L79134 73099
L79162 73042
L79190 73014
L79247 72986
L79359 72986
L79415 73014
" />
<path d="M79669 73380
L79669 72789
" />
<path d="M79669 73014
L79725 72986
L79837 72986
L79894 73014
L79922 73042
L79950 73099
L79950 73267
L79922 73323
L79894 73352
L79837 73380
L79725 73380
L79669 73352
" />
</g>
<g style="fill:#000000; fill-opacity:0.0; 
stroke:#000000; stroke-width:39.3701; stroke-opacity:1; 
stroke-linecap:round; stroke-linejoin:round;">
</g>
<g style="fill:#000000; fill-opacity:0.0; 
stroke:#000000; stroke-width:59.0551; stroke-opacity:1; 
stroke-linecap:round; stroke-linejoin:round;">
<path d="M69685 71459
L112205 71459
" />
</g>
<g style="fill:#000000; fill-opacity:0.0; 
stroke:#000000; stroke-width:39.3701; stroke-opacity:1; 
stroke-linecap:round; stroke-linejoin:round;">
</g>
<g style="fill:#000000; fill-opacity:0.0; 
stroke:#000000; stroke-width:59.0551; stroke-opacity:1; 
stroke-linecap:round; stroke-linejoin:round;">
<path d="M70192 72289
L70276 72317
L70417 72317
L70473 72289
L70501 72260
L70529 72204
L70529 72148
L70501 72092
L70473 72064
L70417 72036
L70304 72007
L70248 71979
L70220 71951
L70192 71895
L70192 71839
L70220 71782
L70248 71754
L70304 71726
L70445 71726
L70529 71754
" />
<path d="M70782 72317
L70782 71726
" />
<path d="M71035 72317
L71035 72007
L71007 71951
L70951 71923
L70867 71923
L70810 71951
L70782 71979
" />
<path d="M71541 72289
L71485 72317
L71373 72317
L71316 72289
L71288 72232
L71288 72007
L71316 71951
L71373 71923
L71485 71923
L71541 71951
L71570 72007
L71570 72064
L71288 72120
" />
<path d="M72048 72289
L71991 72317
L71879 72317
L71823 72289
L71795 72232
L71795 72007
L71823 71951
L71879 71923
L71991 71923
L72048 71951
L72076 72007
L72076 72064
L71795 72120
" />
<path d="M72244 71923
L72469 71923
" />
<path d="M72329 71726
L72329 72232
L72357 72289
L72413 72317
L72469 72317
" />
<path d="M72666 72260
L72694 72289
L72666 72317
L72638 72289
L72666 72260
L72666 72317
" />
<path d="M72666 71951
L72694 71979
L72666 72007
L72638 71979
L72666 71951
L72666 72007
" />
</g>
<g style="fill:#000000; fill-opacity:0.0; 
stroke:#000000; stroke-width:39.3701; stroke-opacity:1; 
stroke-linecap:round; stroke-linejoin:round;">
</g>
<g style="fill:#000000; fill-opacity:0.0; 
stroke:#000000; stroke-width:59.0551; stroke-opacity:1; 
stroke-linecap:round; stroke-linejoin:round;">
<path d="M77559 75396
L77559 76577
" />
</g>
<g style="fill:#000000; fill-opacity:0.0; 
stroke:#000000; stroke-width:39.3701; stroke-opacity:1; 
stroke-linecap:round; stroke-linejoin:round;">
</g>
<g style="fill:#000000; fill-opacity:0.0; 
stroke:#000000; stroke-width:59.0551; stroke-opacity:1; 
stroke-linecap:round; stroke-linejoin:round;">
<path d="M102756 75396
L102756 77955
" />
</g>
<g style="fill:#C2C200; fill-opacity:0.0; 
stroke:#C2C200; stroke-width:59.0551; stroke-opacity:1; 
stroke-linecap:round; stroke-linejoin:round;">
<path d="M41500 54000
L64500 54000
" />
<path d="M41500 18500
L41500 54000
" />
<path d="M42000 18500
L41500 18500
" />
<path d="M64500 18500
L42000 18500
" />
<path d="M64500 54000
L64500 18500
" />
</g>
<g style="fill:#840000; fill-opacity:0.0; 
stroke:#840000; stroke-width:59.0551; stroke-opacity:1; 
stroke-linecap:round; stroke-linejoin:round;">
</g>
<g style="fill:#840000; fill-opacity:1.0; 
stroke:#840000; stroke-width:0; stroke-opacity:1; 
stroke-linecap:round; stroke-linejoin:round;">
<polyline style="fill-rule:evenodd;"
points="50954,53295
50954,53374
50949,53374
50938,53373
50927,53372
50917,53370
50906,53368
50896,53365
50885,53362
50875,53358
50865,53353
50856,53349
50846,53343
50837,53337
50828,53331
50820,53324
50812,53317
50804,53309
50797,53301
50790,53293
50784,53284
50778,53275
50773,53265
50768,53256
50763,53246
50759,53236
50756,53226
50753,53215
50751,53205
50749,53194
50748,53183
50748,53172
50748,53167
50748,53088
50748,53083
50748,53072
50749,53061
50751,53050
50753,53040
50756,53029
50759,53019
50763,53009
50768,52999
50773,52989
50778,52980
50784,52971
50790,52962
50797,52954
50804,52946
50812,52938
50820,52931
50828,52924
50837,52918
50846,52912
50856,52906
50865,52901
50875,52897
50885,52893
50896,52890
50906,52887
50917,52885
50927,52883
50938,52882
50949,52881
50954,52881
50954,52960
50951,52960
50944,52960
50938,52961
50931,52962
50924,52964
50918,52965
50912,52967
50905,52970
50899,52973
50893,52976
50887,52979
50882,52983
50876,52987
50871,52991
50866,52995
50861,53000
50857,53005
50853,53010
50849,53016
50845,53021
50842,53027
50839,53033
50836,53039
50834,53045
50832,53052
50830,53058
50828,53065
50827,53071
50827,53078
50826,53085
50826,53088
50826,53167
50826,53170
50827,53177
50827,53184
50828,53190
50830,53197
50832,53203
50834,53210
50836,53216
50839,53222
50842,53228
50845,53234
50849,53239
50853,53245
50857,53250
50861,53255
50866,53260
50871,53264
50876,53268
50882,53272
50887,53276
50893,53279
50899,53282
50905,53285
50911,53287
50918,53290
50924,53291
50931,53293
50938,53294
50944,53294
50951,53295
" /> 
<polyline style="fill-rule:evenodd;"
points="50954,52960
50954,52881
50960,52881
50970,52882
50981,52883
50992,52885
51002,52887
51013,52890
51023,52893
51033,52897
51043,52901
51053,52906
51062,52912
51071,52918
51080,52924
51089,52931
51097,52938
51104,52946
51111,52954
51118,52962
51125,52971
51131,52980
51136,52989
51141,52999
51145,53009
51149,53019
51152,53029
51155,53040
51158,53050
51159,53061
51160,53072
51161,53083
51161,53088
51161,53167
51161,53172
51160,53183
51159,53194
51158,53205
51155,53215
51152,53226
51149,53236
51145,53246
51141,53256
51136,53265
51131,53275
51125,53284
51118,53293
51111,53301
51104,53309
51097,53317
51089,53324
51080,53331
51071,53337
51062,53343
51053,53349
51043,53353
51033,53358
51023,53362
51013,53365
51002,53368
50992,53370
50981,53372
50970,53373
50960,53374
50954,53374
50954,53295
50958,53295
50964,53294
50971,53294
50978,53293
50984,53291
50991,53290
50997,53287
51003,53285
51009,53282
51015,53279
51021,53276
51027,53272
51032,53268
51037,53264
51042,53260
51047,53255
51052,53250
51056,53245
51060,53239
51063,53234
51067,53228
51070,53222
51072,53216
51075,53210
51077,53203
51079,53197
51080,53190
51081,53184
51082,53177
51082,53170
51082,53167
51082,53088
51082,53085
51082,53078
51081,53071
51080,53065
51079,53058
51077,53052
51075,53045
51072,53039
51070,53033
51067,53027
51063,53021
51060,53016
51056,53010
51052,53005
51047,53000
51042,52995
51037,52991
51032,52987
51027,52983
51021,52979
51015,52976
51009,52973
51003,52970
50997,52967
50991,52965
50984,52964
50978,52962
50971,52961
50964,52960
50958,52960
" /> 
<polyline style="fill-rule:evenodd;"
points="49045,53295
49045,53374
49039,53374
49029,53373
49018,53372
49007,53370
48997,53368
48986,53365
48976,53362
48966,53358
48956,53353
48946,53349
48937,53343
48928,53337
48919,53331
48910,53324
48902,53317
48895,53309
48888,53301
48881,53293
48874,53284
48868,53275
48863,53265
48858,53256
48854,53246
48850,53236
48847,53226
48844,53215
48841,53205
48840,53194
48839,53183
48838,53172
48838,53167
48838,53088
48838,53083
48839,53072
48840,53061
48841,53050
48844,53040
48847,53029
48850,53019
48854,53009
48858,52999
48863,52989
48868,52980
48874,52971
48881,52962
48888,52954
48895,52946
48902,52938
48910,52931
48919,52924
48928,52918
48937,52912
48946,52906
48956,52901
48966,52897
48976,52893
48986,52890
48997,52887
49007,52885
49018,52883
49029,52882
49039,52881
49045,52881
49045,52960
49041,52960
49035,52960
49028,52961
49021,52962
49015,52964
49008,52965
49002,52967
48996,52970
48990,52973
48984,52976
48978,52979
48972,52983
48967,52987
48962,52991
48957,52995
48952,53000
48947,53005
48943,53010
48939,53016
48936,53021
48932,53027
48929,53033
48927,53039
48924,53045
48922,53052
48920,53058
48919,53065
48918,53071
48917,53078
48917,53085
48917,53088
48917,53167
48917,53170
48917,53177
48918,53184
48919,53190
48920,53197
48922,53203
48924,53210
48927,53216
48929,53222
48932,53228
48936,53234
48939,53239
48943,53245
48947,53250
48952,53255
48957,53260
48962,53264
48967,53268
48972,53272
48978,53276
48984,53279
48990,53282
48996,53285
49002,53287
49008,53290
49015,53291
49021,53293
49028,53294
49035,53294
49041,53295
" /> 
<polyline style="fill-rule:evenodd;"
points="49045,52960
49045,52881
49050,52881
49061,52882
49072,52883
49082,52885
49093,52887
49104,52890
49114,52893
49124,52897
49134,52901
49143,52906
49153,52912
49162,52918
49171,52924
49179,52931
49187,52938
49195,52946
49202,52954
49209,52962
49215,52971
49221,52980
49226,52989
49231,52999
49236,53009
49240,53019
49243,53029
49246,53040
49248,53050
49250,53061
49251,53072
49251,53083
49251,53088
49251,53167
49251,53172
49251,53183
49250,53194
49248,53205
49246,53215
49243,53226
49240,53236
49236,53246
49231,53256
49226,53265
49221,53275
49215,53284
49209,53293
49202,53301
49195,53309
49187,53317
49179,53324
49171,53331
49162,53337
49153,53343
49143,53349
49134,53353
49124,53358
49114,53362
49104,53365
49093,53368
49082,53370
49072,53372
49061,53373
49050,53374
49045,53374
49045,53295
49048,53295
49055,53294
49061,53294
49068,53293
49075,53291
49081,53290
49088,53287
49094,53285
49100,53282
49106,53279
49112,53276
49117,53272
49123,53268
49128,53264
49133,53260
49138,53255
49142,53250
49146,53245
49150,53239
49154,53234
49157,53228
49160,53222
49163,53216
49165,53210
49168,53203
49169,53197
49171,53190
49172,53184
49172,53177
49173,53170
49173,53167
49173,53088
49173,53085
49172,53078
49172,53071
49171,53065
49169,53058
49168,53052
49165,53045
49163,53039
49160,53033
49157,53027
49154,53021
49150,53016
49146,53010
49142,53005
49138,53000
49133,52995
49128,52991
49123,52987
49117,52983
49112,52979
49106,52976
49100,52973
49094,52970
49088,52967
49081,52965
49075,52964
49068,52962
49061,52961
49055,52960
49048,52960
" /> 
<polyline style="fill-rule:evenodd;"
points="51023,52320
51653,52320
51658,52320
51668,52320
51679,52319
51689,52317
51699,52315
51709,52312
51719,52309
51728,52305
51738,52301
51747,52297
51756,52291
51765,52286
51773,52280
51781,52273
51789,52266
51796,52259
51803,52251
51809,52243
51815,52235
51821,52226
51826,52217
51831,52208
51835,52199
51839,52189
51842,52179
51845,52169
51847,52159
51848,52149
51849,52139
51850,52129
51850,52124
51850,51946
51545,51946
51545,52124
51545,52127
51544,52133
51544,52139
51543,52145
51542,52151
51540,52157
51538,52163
51536,52169
51533,52174
51531,52180
51527,52185
51524,52190
51520,52195
51517,52200
51512,52205
51508,52209
51503,52213
51499,52217
51494,52221
51488,52224
51483,52227
51478,52230
51472,52233
51466,52235
51460,52237
51454,52238
51448,52240
51442,52241
51436,52241
51430,52242
51427,52242
51338,52242
51335,52242
51329,52241
51323,52241
51317,52240
51311,52238
51305,52237
51299,52235
51293,52233
51287,52230
51282,52227
51276,52224
51271,52221
51266,52217
51261,52213
51257,52209
51252,52205
51248,52200
51244,52195
51241,52190
51237,52185
51234,52180
51231,52174
51229,52169
51227,52163
51225,52157
51223,52151
51222,52145
51221,52139
51220,52133
51220,52127
51220,52124
51220,51946
51023,51946
" /> 
<polyline style="fill-rule:evenodd;"
points="48976,51572
48346,51572
48341,51572
48331,51573
48320,51574
48310,51576
48300,51578
48290,51580
48280,51584
48271,51587
48261,51591
48252,51596
48243,51601
48234,51607
48226,51613
48218,51619
48210,51626
48203,51634
48196,51641
48190,51649
48184,51658
48178,51666
48173,51675
48168,51684
48164,51694
48160,51703
48157,51713
48154,51723
48152,51733
48151,51743
48150,51754
48149,51764
48149,51769
48149,51946
48454,51946
48454,51769
48454,51766
48455,51760
48455,51754
48456,51748
48457,51742
48459,51736
48461,51730
48463,51724
48466,51718
48469,51713
48472,51707
48475,51702
48479,51697
48482,51692
48487,51688
48491,51683
48496,51679
48500,51675
48505,51672
48511,51668
48516,51665
48521,51663
48527,51660
48533,51658
48539,51656
48545,51654
48551,51653
48557,51652
48563,51651
48569,51651
48572,51651
48661,51651
48664,51651
48670,51651
48676,51652
48682,51653
48689,51654
48694,51656
48700,51658
48706,51660
48712,51663
48717,51665
48723,51668
48728,51672
48733,51675
48738,51679
48742,51683
48747,51688
48751,51692
48755,51697
48758,51702
48762,51707
48765,51713
48768,51718
48770,51724
48772,51730
48774,51736
48776,51742
48777,51748
48778,51754
48779,51760
48779,51766
48779,51769
48779,51946
48976,51946
" /> 
<polyline style="fill-rule:evenodd;"
points="51220,51946
51023,51946
51023,51572
51653,51572
51658,51572
51668,51573
51679,51574
51689,51576
51699,51578
51709,51580
51719,51584
51728,51587
51738,51591
51747,51596
51756,51601
51765,51607
51773,51613
51781,51619
51789,51626
51796,51634
51803,51641
51809,51649
51815,51658
51821,51666
51826,51675
51831,51684
51835,51694
51839,51703
51842,51713
51845,51723
51847,51733
51848,51743
51849,51754
51850,51764
51850,51769
51850,51946
51545,51946
51545,51759
51545,51757
51544,51751
51544,51745
51543,51740
51542,51734
51540,51729
51539,51723
51537,51718
51534,51713
51532,51708
51529,51703
51526,51698
51522,51693
51519,51689
51515,51685
51511,51681
51507,51677
51502,51673
51498,51670
51493,51667
51488,51664
51483,51662
51478,51659
51473,51657
51467,51655
51462,51654
51456,51653
51451,51652
51445,51651
51439,51651
51437,51651
51338,51651
51335,51651
51329,51651
51323,51652
51317,51653
51311,51654
51305,51656
51299,51658
51293,51660
51287,51663
51282,51665
51276,51668
51271,51672
51266,51675
51261,51679
51257,51683
51252,51688
51248,51692
51244,51697
51241,51702
51237,51707
51234,51713
51231,51718
51229,51724
51227,51730
51225,51736
51223,51742
51222,51748
51221,51754
51220,51760
51220,51766
51220,51769
" /> 
<polyline style="fill-rule:evenodd;"
points="48779,51946
48976,51946
48976,52320
48346,52320
48341,52320
48331,52320
48320,52319
48310,52317
48300,52315
48290,52312
48280,52309
48271,52305
48261,52301
48252,52297
48243,52291
48234,52286
48226,52280
48218,52273
48210,52266
48203,52259
48196,52251
48190,52243
48184,52235
48178,52226
48173,52217
48168,52208
48164,52199
48160,52189
48157,52179
48154,52169
48152,52159
48151,52149
48150,52139
48149,52129
48149,52124
48149,51946
48454,51946
48454,52133
48454,52136
48455,52142
48455,52147
48456,52153
48457,52159
48459,52164
48460,52170
48462,52175
48465,52180
48467,52185
48470,52190
48473,52195
48477,52199
48480,52204
48484,52208
48488,52212
48492,52216
48497,52219
48501,52223
48506,52226
48511,52229
48516,52231
48521,52233
48526,52235
48532,52237
48537,52239
48543,52240
48548,52241
48554,52241
48560,52242
48562,52242
48661,52242
48664,52242
48670,52241
48676,52241
48682,52240
48689,52238
48694,52237
48700,52235
48706,52233
48712,52230
48717,52227
48723,52224
48728,52221
48733,52217
48738,52213
48742,52209
48747,52205
48751,52200
48755,52195
48758,52190
48762,52185
48765,52180
48768,52174
48770,52169
48772,52163
48774,52157
48776,52151
48777,52145
48778,52139
48779,52133
48779,52127
48779,52124
" /> 
<polyline style="fill-rule:evenodd;"
points="60830,37068
60830,36931
60948,36931
60948,37068
60830,37068
" /> 
<polyline style="fill-rule:evenodd;"
points="61051,37068
61051,36931
61169,36931
61169,37068
61051,37068
" /> 
<polyline style="fill-rule:evenodd;"
points="60842,37584
60842,37415
60952,37415
60952,37584
60842,37584
" /> 
<polyline style="fill-rule:evenodd;"
points="61047,37584
61047,37415
61157,37415
61157,37584
61047,37584
" /> 
<polyline style="fill-rule:evenodd;"
points="60842,38584
60842,38415
60952,38415
60952,38584
60842,38584
" /> 
<polyline style="fill-rule:evenodd;"
points="61047,38584
61047,38415
61157,38415
61157,38584
61047,38584
" /> 
<polyline style="fill-rule:evenodd;"
points="61169,38931
61169,39068
61051,39068
61051,38931
61169,38931
" /> 
<polyline style="fill-rule:evenodd;"
points="60948,38931
60948,39068
60830,39068
60830,38931
60948,38931
" /> 
<polyline style="fill-rule:evenodd;"
points="62381,36952
63366,36952
63366,37188
62381,37188
62381,36952
" /> 
<polyline style="fill-rule:evenodd;"
points="62381,37346
63366,37346
63366,37582
62381,37582
62381,37346
" /> 
<polyline style="fill-rule:evenodd;"
points="62381,37740
63366,37740
63366,37976
62381,37976
62381,37740
" /> 
<polyline style="fill-rule:evenodd;"
points="62381,38133
63366,38133
63366,38370
62381,38370
62381,38133
" /> 
<polyline style="fill-rule:evenodd;"
points="62381,38527
63366,38527
63366,38763
62381,38763
62381,38527
" /> 
<polyline style="fill-rule:evenodd;"
points="62381,38921
63366,38921
63366,39157
62381,39157
62381,38921
" /> 
<polyline style="fill-rule:evenodd;"
points="62381,39314
63366,39314
63366,39551
62381,39551
62381,39314
" /> 
<polyline style="fill-rule:evenodd;"
points="62381,39708
63366,39708
63366,39944
62381,39944
62381,39708
" /> 
<polyline style="fill-rule:evenodd;"
points="43618,42047
42633,42047
42633,41811
43618,41811
43618,42047
" /> 
<polyline style="fill-rule:evenodd;"
points="43618,41653
42633,41653
42633,41417
43618,41417
43618,41653
" /> 
<polyline style="fill-rule:evenodd;"
points="43618,41259
42633,41259
42633,41023
43618,41023
43618,41259
" /> 
<polyline style="fill-rule:evenodd;"
points="43618,40866
42633,40866
42633,40629
43618,40629
43618,40866
" /> 
<polyline style="fill-rule:evenodd;"
points="43618,40472
42633,40472
42633,40236
43618,40236
43618,40472
" /> 
<polyline style="fill-rule:evenodd;"
points="43618,40078
42633,40078
42633,39842
43618,39842
43618,40078
" /> 
<polyline style="fill-rule:evenodd;"
points="43618,39685
42633,39685
42633,39448
43618,39448
43618,39685
" /> 
<polyline style="fill-rule:evenodd;"
points="43618,39291
42633,39291
42633,39055
43618,39055
43618,39291
" /> 
<polyline style="fill-rule:evenodd;"
points="44431,39830
44568,39830
44568,39948
44431,39948
44431,39830
" /> 
<polyline style="fill-rule:evenodd;"
points="44431,40051
44568,40051
44568,40169
44431,40169
44431,40051
" /> 
<polyline style="fill-rule:evenodd;"
points="45330,40068
45330,39931
45448,39931
45448,40068
45330,40068
" /> 
<polyline style="fill-rule:evenodd;"
points="45551,40068
45551,39931
45669,39931
45669,40068
45551,40068
" /> 
<polyline style="fill-rule:evenodd;"
points="44342,42584
44342,42415
44452,42415
44452,42584
44342,42584
" /> 
<polyline style="fill-rule:evenodd;"
points="44547,42584
44547,42415
44657,42415
44657,42584
44547,42584
" /> 
<polyline style="fill-rule:evenodd;"
points="44584,41157
44415,41157
44415,41047
44584,41047
44584,41157
" /> 
<polyline style="fill-rule:evenodd;"
points="44584,40952
44415,40952
44415,40842
44584,40842
44584,40952
" /> 
<polyline style="fill-rule:evenodd;"
points="59834,53407
59665,53407
59665,53297
59834,53297
59834,53407
" /> 
<polyline style="fill-rule:evenodd;"
points="59834,53202
59665,53202
59665,53092
59834,53092
59834,53202
" /> 
<polyline style="fill-rule:evenodd;"
points="61529,52181
61379,52181
61379,51964
61529,51964
61529,52181
" /> 
<polyline style="fill-rule:evenodd;"
points="61529,52535
61379,52535
61379,52318
61529,52318
61529,52535
" /> 
<polyline style="fill-rule:evenodd;"
points="61281,52525
60809,52525
60809,51974
61281,51974
61281,52525
" /> 
<polyline style="fill-rule:evenodd;"
points="53830,49568
53830,49431
53948,49431
53948,49568
53830,49568
" /> 
<polyline style="fill-rule:evenodd;"
points="54051,49568
54051,49431
54169,49431
54169,49568
54051,49568
" /> 
<polyline style="fill-rule:evenodd;"
points="56169,48931
56169,49068
56051,49068
56051,48931
56169,48931
" /> 
<polyline style="fill-rule:evenodd;"
points="55948,48931
55948,49068
55830,49068
55830,48931
55948,48931
" /> 
<polyline style="fill-rule:evenodd;"
points="56169,49431
56169,49568
56051,49568
56051,49431
56169,49431
" /> 
<polyline style="fill-rule:evenodd;"
points="55948,49431
55948,49568
55830,49568
55830,49431
55948,49431
" /> 
<polyline style="fill-rule:evenodd;"
points="49830,22068
49830,21931
49948,21931
49948,22068
49830,22068
" /> 
<polyline style="fill-rule:evenodd;"
points="50051,22068
50051,21931
50169,21931
50169,22068
50051,22068
" /> 
<polyline style="fill-rule:evenodd;"
points="51830,22068
51830,21931
51948,21931
51948,22068
51830,22068
" /> 
<polyline style="fill-rule:evenodd;"
points="52051,22068
52051,21931
52169,21931
52169,22068
52051,22068
" /> 
<polyline style="fill-rule:evenodd;"
points="52568,50169
52431,50169
52431,50051
52568,50051
52568,50169
" /> 
<polyline style="fill-rule:evenodd;"
points="52568,49948
52431,49948
52431,49830
52568,49830
52568,49948
" /> 
<polyline style="fill-rule:evenodd;"
points="51568,50169
51431,50169
51431,50051
51568,50051
51568,50169
" /> 
<polyline style="fill-rule:evenodd;"
points="51568,49948
51431,49948
51431,49830
51568,49830
51568,49948
" /> 
<polyline style="fill-rule:evenodd;"
points="53169,46931
53169,47068
53051,47068
53051,46931
53169,46931
" /> 
<polyline style="fill-rule:evenodd;"
points="52948,46931
52948,47068
52830,47068
52830,46931
52948,46931
" /> 
<polyline style="fill-rule:evenodd;"
points="51830,47068
51830,46931
51948,46931
51948,47068
51830,47068
" /> 
<polyline style="fill-rule:evenodd;"
points="52051,47068
52051,46931
52169,46931
52169,47068
52051,47068
" /> 
<polyline style="fill-rule:evenodd;"
points="51830,46568
51830,46431
51948,46431
51948,46568
51830,46568
" /> 
<polyline style="fill-rule:evenodd;"
points="52051,46568
52051,46431
52169,46431
52169,46568
52051,46568
" /> 
<polyline style="fill-rule:evenodd;"
points="46330,49568
46330,49431
46448,49431
46448,49568
46330,49568
" /> 
<polyline style="fill-rule:evenodd;"
points="46551,49568
46551,49431
46669,49431
46669,49568
46551,49568
" /> 
<polyline style="fill-rule:evenodd;"
points="48830,48068
48830,47931
48948,47931
48948,48068
48830,48068
" /> 
<polyline style="fill-rule:evenodd;"
points="49051,48068
49051,47931
49169,47931
49169,48068
49051,48068
" /> 
<polyline style="fill-rule:evenodd;"
points="47669,49431
47669,49568
47551,49568
47551,49431
47669,49431
" /> 
<polyline style="fill-rule:evenodd;"
points="47448,49431
47448,49568
47330,49568
47330,49431
47448,49431
" /> 
<polyline style="fill-rule:evenodd;"
points="55330,43068
55330,42931
55448,42931
55448,43068
55330,43068
" /> 
<polyline style="fill-rule:evenodd;"
points="55551,43068
55551,42931
55669,42931
55669,43068
55551,43068
" /> 
<polyline style="fill-rule:evenodd;"
points="52330,41068
52330,40931
52448,40931
52448,41068
52330,41068
" /> 
<polyline style="fill-rule:evenodd;"
points="52551,41068
52551,40931
52669,40931
52669,41068
52551,41068
" /> 
<polyline style="fill-rule:evenodd;"
points="57830,43068
57830,42931
57948,42931
57948,43068
57830,43068
" /> 
<polyline style="fill-rule:evenodd;"
points="58051,43068
58051,42931
58169,42931
58169,43068
58051,43068
" /> 
<polyline style="fill-rule:evenodd;"
points="52657,53452
52342,53452
52342,53216
52657,53216
52657,53452
" /> 
<polyline style="fill-rule:evenodd;"
points="52657,52783
52342,52783
52342,52547
52657,52547
52657,52783
" /> 
<polyline style="fill-rule:evenodd;"
points="50047,48657
50047,48342
50283,48342
50283,48657
50047,48657
" /> 
<polyline style="fill-rule:evenodd;"
points="50716,48657
50716,48342
50952,48342
50952,48657
50716,48657
" /> 
<polyline style="fill-rule:evenodd;"
points="61529,47181
61379,47181
61379,46964
61529,46964
61529,47181
" /> 
<polyline style="fill-rule:evenodd;"
points="61529,47535
61379,47535
61379,47318
61529,47318
61529,47535
" /> 
<polyline style="fill-rule:evenodd;"
points="61281,47525
60809,47525
60809,46974
61281,46974
61281,47525
" /> 
<polyline style="fill-rule:evenodd;"
points="61529,44681
61379,44681
61379,44464
61529,44464
61529,44681
" /> 
<polyline style="fill-rule:evenodd;"
points="61529,45035
61379,45035
61379,44818
61529,44818
61529,45035
" /> 
<polyline style="fill-rule:evenodd;"
points="61281,45025
60809,45025
60809,44474
61281,44474
61281,45025
" /> 
<polyline style="fill-rule:evenodd;"
points="61529,42181
61379,42181
61379,41964
61529,41964
61529,42181
" /> 
<polyline style="fill-rule:evenodd;"
points="61529,42535
61379,42535
61379,42318
61529,42318
61529,42535
" /> 
<polyline style="fill-rule:evenodd;"
points="61281,42525
60809,42525
60809,41974
61281,41974
61281,42525
" /> 
<polyline style="fill-rule:evenodd;"
points="61529,49681
61379,49681
61379,49464
61529,49464
61529,49681
" /> 
<polyline style="fill-rule:evenodd;"
points="61529,50035
61379,50035
61379,49818
61529,49818
61529,50035
" /> 
<polyline style="fill-rule:evenodd;"
points="61281,50025
60809,50025
60809,49474
61281,49474
61281,50025
" /> 
<polyline style="fill-rule:evenodd;"
points="52303,50948
52696,50948
52696,51381
52303,51381
52303,50948
" /> 
<polyline style="fill-rule:evenodd;"
points="52303,51618
52696,51618
52696,52051
52303,52051
52303,51618
" /> 
<polyline style="fill-rule:evenodd;"
points="55084,46657
54915,46657
54915,46547
55084,46547
55084,46657
" /> 
<polyline style="fill-rule:evenodd;"
points="55084,46452
54915,46452
54915,46342
55084,46342
55084,46452
" /> 
<polyline style="fill-rule:evenodd;"
points="56342,48084
56342,47915
56452,47915
56452,48084
56342,48084
" /> 
<polyline style="fill-rule:evenodd;"
points="56547,48084
56547,47915
56657,47915
56657,48084
56547,48084
" /> 
<polyline style="fill-rule:evenodd;"
points="56342,47584
56342,47415
56452,47415
56452,47584
56342,47584
" /> 
<polyline style="fill-rule:evenodd;"
points="56547,47584
56547,47415
56657,47415
56657,47584
56547,47584
" /> 
<polyline style="fill-rule:evenodd;"
points="55157,49415
55157,49584
55047,49584
55047,49415
55157,49415
" /> 
<polyline style="fill-rule:evenodd;"
points="54952,49415
54952,49584
54842,49584
54842,49415
54952,49415
" /> 
<polyline style="fill-rule:evenodd;"
points="48842,22084
48842,21915
48952,21915
48952,22084
48842,22084
" /> 
<polyline style="fill-rule:evenodd;"
points="49047,22084
49047,21915
49157,21915
49157,22084
49047,22084
" /> 
<polyline style="fill-rule:evenodd;"
points="50842,22084
50842,21915
50952,21915
50952,22084
50842,22084
" /> 
<polyline style="fill-rule:evenodd;"
points="51047,22084
51047,21915
51157,21915
51157,22084
51047,22084
" /> 
<polyline style="fill-rule:evenodd;"
points="48584,48657
48415,48657
48415,48547
48584,48547
48584,48657
" /> 
<polyline style="fill-rule:evenodd;"
points="48584,48452
48415,48452
48415,48342
48584,48342
48584,48452
" /> 
<polyline style="fill-rule:evenodd;"
points="48842,49584
48842,49415
48952,49415
48952,49584
48842,49584
" /> 
<polyline style="fill-rule:evenodd;"
points="49047,49584
49047,49415
49157,49415
49157,49584
49047,49584
" /> 
<polyline style="fill-rule:evenodd;"
points="55584,37157
55415,37157
55415,37047
55584,37047
55584,37157
" /> 
<polyline style="fill-rule:evenodd;"
points="55584,36952
55415,36952
55415,36842
55584,36842
55584,36952
" /> 
<polyline style="fill-rule:evenodd;"
points="55084,37157
54915,37157
54915,37047
55084,37047
55084,37157
" /> 
<polyline style="fill-rule:evenodd;"
points="55084,36952
54915,36952
54915,36842
55084,36842
55084,36952
" /> 
<polyline style="fill-rule:evenodd;"
points="63084,24157
62915,24157
62915,24047
63084,24047
63084,24157
" /> 
<polyline style="fill-rule:evenodd;"
points="63084,23952
62915,23952
62915,23842
63084,23842
63084,23952
" /> 
<polyline style="fill-rule:evenodd;"
points="59084,24157
58915,24157
58915,24047
59084,24047
59084,24157
" /> 
<polyline style="fill-rule:evenodd;"
points="59084,23952
58915,23952
58915,23842
59084,23842
59084,23952
" /> 
<polyline style="fill-rule:evenodd;"
points="59834,48407
59665,48407
59665,48297
59834,48297
59834,48407
" /> 
<polyline style="fill-rule:evenodd;"
points="59834,48202
59665,48202
59665,48092
59834,48092
59834,48202
" /> 
<polyline style="fill-rule:evenodd;"
points="59834,45907
59665,45907
59665,45797
59834,45797
59834,45907
" /> 
<polyline style="fill-rule:evenodd;"
points="59834,45702
59665,45702
59665,45592
59834,45592
59834,45702
" /> 
<polyline style="fill-rule:evenodd;"
points="59834,43407
59665,43407
59665,43297
59834,43297
59834,43407
" /> 
<polyline style="fill-rule:evenodd;"
points="59834,43202
59665,43202
59665,43092
59834,43092
59834,43202
" /> 
<polyline style="fill-rule:evenodd;"
points="59834,50907
59665,50907
59665,50797
59834,50797
59834,50907
" /> 
<polyline style="fill-rule:evenodd;"
points="59834,50702
59665,50702
59665,50592
59834,50592
59834,50702
" /> 
<polyline style="fill-rule:evenodd;"
points="51342,42084
51342,41915
51452,41915
51452,42084
51342,42084
" /> 
<polyline style="fill-rule:evenodd;"
points="51547,42084
51547,41915
51657,41915
51657,42084
51547,42084
" /> 
<polyline style="fill-rule:evenodd;"
points="56584,43157
56415,43157
56415,43047
56584,43047
56584,43157
" /> 
<polyline style="fill-rule:evenodd;"
points="56584,42952
56415,42952
56415,42842
56584,42842
56584,42952
" /> 
<polyline style="fill-rule:evenodd;"
points="57084,43157
56915,43157
56915,43047
57084,43047
57084,43157
" /> 
<polyline style="fill-rule:evenodd;"
points="57084,42952
56915,42952
56915,42842
57084,42842
57084,42952
" /> 
<polyline style="fill-rule:evenodd;"
points="48560,37910
48560,37770
49140,37770
49140,37910
48560,37910
" /> 
<polyline style="fill-rule:evenodd;"
points="48560,38160
48560,38020
49140,38020
49140,38160
48560,38160
" /> 
<polyline style="fill-rule:evenodd;"
points="48560,38420
48560,38280
49140,38280
49140,38420
48560,38420
" /> 
<polyline style="fill-rule:evenodd;"
points="48560,38670
48560,38530
49140,38530
49140,38670
48560,38670
" /> 
<polyline style="fill-rule:evenodd;"
points="48560,38930
48560,38790
49140,38790
49140,38930
48560,38930
" /> 
<polyline style="fill-rule:evenodd;"
points="48560,39190
48560,39050
49140,39050
49140,39190
48560,39190
" /> 
<polyline style="fill-rule:evenodd;"
points="48560,39440
48560,39300
49140,39300
49140,39440
48560,39440
" /> 
<polyline style="fill-rule:evenodd;"
points="48560,39700
48560,39560
49140,39560
49140,39700
48560,39700
" /> 
<polyline style="fill-rule:evenodd;"
points="48560,39950
48560,39810
49140,39810
49140,39950
48560,39950
" /> 
<polyline style="fill-rule:evenodd;"
points="48560,40210
48560,40070
49140,40070
49140,40210
48560,40210
" /> 
<polyline style="fill-rule:evenodd;"
points="48560,40470
48560,40330
49140,40330
49140,40470
48560,40470
" /> 
<polyline style="fill-rule:evenodd;"
points="48560,40720
48560,40580
49140,40580
49140,40720
48560,40720
" /> 
<polyline style="fill-rule:evenodd;"
points="48560,40980
48560,40840
49140,40840
49140,40980
48560,40980
" /> 
<polyline style="fill-rule:evenodd;"
points="48560,41230
48560,41090
49140,41090
49140,41230
48560,41230
" /> 
<polyline style="fill-rule:evenodd;"
points="50860,41230
50860,41090
51440,41090
51440,41230
50860,41230
" /> 
<polyline style="fill-rule:evenodd;"
points="50860,40980
50860,40840
51440,40840
51440,40980
50860,40980
" /> 
<polyline style="fill-rule:evenodd;"
points="50860,40720
50860,40580
51440,40580
51440,40720
50860,40720
" /> 
<polyline style="fill-rule:evenodd;"
points="50860,40470
50860,40330
51440,40330
51440,40470
50860,40470
" /> 
<polyline style="fill-rule:evenodd;"
points="50860,40210
50860,40070
51440,40070
51440,40210
50860,40210
" /> 
<polyline style="fill-rule:evenodd;"
points="50860,39950
50860,39810
51440,39810
51440,39950
50860,39950
" /> 
<polyline style="fill-rule:evenodd;"
points="50860,39700
50860,39560
51440,39560
51440,39700
50860,39700
" /> 
<polyline style="fill-rule:evenodd;"
points="50860,39440
50860,39300
51440,39300
51440,39440
50860,39440
" /> 
<polyline style="fill-rule:evenodd;"
points="50860,39190
50860,39050
51440,39050
51440,39190
50860,39190
" /> 
<polyline style="fill-rule:evenodd;"
points="50860,38930
50860,38790
51440,38790
51440,38930
50860,38930
" /> 
<polyline style="fill-rule:evenodd;"
points="50860,38670
50860,38530
51440,38530
51440,38670
50860,38670
" /> 
<polyline style="fill-rule:evenodd;"
points="50860,38420
50860,38280
51440,38280
51440,38420
50860,38420
" /> 
<polyline style="fill-rule:evenodd;"
points="50860,38160
50860,38020
51440,38020
51440,38160
50860,38160
" /> 
<polyline style="fill-rule:evenodd;"
points="50860,37910
50860,37770
51440,37770
51440,37910
50860,37910
" /> 
<polyline style="fill-rule:evenodd;"
points="56446,23021
56053,23021
56053,22037
56446,22037
56446,23021
" /> 
<polyline style="fill-rule:evenodd;"
points="56446,20462
56053,20462
56053,19478
56446,19478
56446,20462
" /> 
<polyline style="fill-rule:evenodd;"
points="57446,23021
57053,23021
57053,22037
57446,22037
57446,23021
" /> 
<polyline style="fill-rule:evenodd;"
points="57446,20462
57053,20462
57053,19478
57446,19478
57446,20462
" /> 
<polyline style="fill-rule:evenodd;"
points="58446,23021
58053,23021
58053,22037
58446,22037
58446,23021
" /> 
<polyline style="fill-rule:evenodd;"
points="58446,20462
58053,20462
58053,19478
58446,19478
58446,20462
" /> 
<polyline style="fill-rule:evenodd;"
points="60446,23021
60053,23021
60053,22037
60446,22037
60446,23021
" /> 
<polyline style="fill-rule:evenodd;"
points="60446,20462
60053,20462
60053,19478
60446,19478
60446,20462
" /> 
<polyline style="fill-rule:evenodd;"
points="61446,23021
61053,23021
61053,22037
61446,22037
61446,23021
" /> 
<polyline style="fill-rule:evenodd;"
points="61446,20462
61053,20462
61053,19478
61446,19478
61446,20462
" /> 
<polyline style="fill-rule:evenodd;"
points="62446,23021
62053,23021
62053,22037
62446,22037
62446,23021
" /> 
<polyline style="fill-rule:evenodd;"
points="62446,20462
62053,20462
62053,19478
62446,19478
62446,20462
" /> 
<polyline style="fill-rule:evenodd;"
points="54415,47675
54415,47537
54620,47537
54620,47675
54415,47675
" /> 
<polyline style="fill-rule:evenodd;"
points="54415,47872
54415,47734
54620,47734
54620,47872
54415,47872
" /> 
<polyline style="fill-rule:evenodd;"
points="54415,48068
54415,47931
54620,47931
54620,48068
54415,48068
" /> 
<polyline style="fill-rule:evenodd;"
points="54415,48265
54415,48127
54620,48127
54620,48265
54415,48265
" /> 
<polyline style="fill-rule:evenodd;"
points="54415,48462
54415,48324
54620,48324
54620,48462
54415,48462
" /> 
<polyline style="fill-rule:evenodd;"
points="54872,48584
54734,48584
54734,48379
54872,48379
54872,48584
" /> 
<polyline style="fill-rule:evenodd;"
points="55068,48584
54931,48584
54931,48379
55068,48379
55068,48584
" /> 
<polyline style="fill-rule:evenodd;"
points="55265,48584
55127,48584
55127,48379
55265,48379
55265,48584
" /> 
<polyline style="fill-rule:evenodd;"
points="55584,48324
55584,48462
55379,48462
55379,48324
55584,48324
" /> 
<polyline style="fill-rule:evenodd;"
points="55584,48127
55584,48265
55379,48265
55379,48127
55584,48127
" /> 
<polyline style="fill-rule:evenodd;"
points="55584,47931
55584,48068
55379,48068
55379,47931
55584,47931
" /> 
<polyline style="fill-rule:evenodd;"
points="55584,47734
55584,47872
55379,47872
55379,47734
55584,47734
" /> 
<polyline style="fill-rule:evenodd;"
points="55584,47537
55584,47675
55379,47675
55379,47537
55584,47537
" /> 
<polyline style="fill-rule:evenodd;"
points="55265,47620
55127,47620
55127,47415
55265,47415
55265,47620
" /> 
<polyline style="fill-rule:evenodd;"
points="55068,47620
54931,47620
54931,47415
55068,47415
55068,47620
" /> 
<polyline style="fill-rule:evenodd;"
points="54872,47620
54734,47620
54734,47415
54872,47415
54872,47620
" /> 
<polyline style="fill-rule:evenodd;"
points="48952,21118
48952,20133
49188,20133
49188,21118
48952,21118
" /> 
<polyline style="fill-rule:evenodd;"
points="49346,21118
49346,20133
49582,20133
49582,21118
49346,21118
" /> 
<polyline style="fill-rule:evenodd;"
points="49740,21118
49740,20133
49976,20133
49976,21118
49740,21118
" /> 
<polyline style="fill-rule:evenodd;"
points="50133,21118
50133,20133
50370,20133
50370,21118
50133,21118
" /> 
<polyline style="fill-rule:evenodd;"
points="50527,21118
50527,20133
50763,20133
50763,21118
50527,21118
" /> 
<polyline style="fill-rule:evenodd;"
points="50921,21118
50921,20133
51157,20133
51157,21118
50921,21118
" /> 
<polyline style="fill-rule:evenodd;"
points="51314,21118
51314,20133
51551,20133
51551,21118
51314,21118
" /> 
<polyline style="fill-rule:evenodd;"
points="51708,21118
51708,20133
51944,20133
51944,21118
51708,21118
" /> 
<polyline style="fill-rule:evenodd;"
points="52007,49232
52007,48685
52244,48685
52244,49232
52007,49232
" /> 
<polyline style="fill-rule:evenodd;"
points="52381,49232
52381,48685
52618,48685
52618,49232
52381,49232
" /> 
<polyline style="fill-rule:evenodd;"
points="52755,49232
52755,48685
52992,48685
52992,49232
52755,49232
" /> 
<polyline style="fill-rule:evenodd;"
points="52755,48314
52755,47767
52992,47767
52992,48314
52755,48314
" /> 
<polyline style="fill-rule:evenodd;"
points="52007,48314
52007,47767
52244,47767
52244,48314
52007,48314
" /> 
<polyline style="fill-rule:evenodd;"
points="47760,48765
47760,48975
47400,48975
47400,48765
47760,48765
" /> 
<polyline style="fill-rule:evenodd;"
points="47760,48395
47760,48605
47400,48605
47400,48395
47760,48395
" /> 
<polyline style="fill-rule:evenodd;"
points="47760,48025
47760,48235
47400,48235
47400,48025
47760,48025
" /> 
<polyline style="fill-rule:evenodd;"
points="46600,48025
46600,48235
46240,48235
46240,48025
46600,48025
" /> 
<polyline style="fill-rule:evenodd;"
points="46600,48765
46600,48975
46240,48975
46240,48765
46600,48765
" /> 
<polyline style="fill-rule:evenodd;"
points="54072,42521
53974,42521
53974,41942
54072,41942
54072,42521
" /> 
<polyline style="fill-rule:evenodd;"
points="54269,42521
54171,42521
54171,41942
54269,41942
54269,42521
" /> 
<polyline style="fill-rule:evenodd;"
points="54466,42521
54368,42521
54368,41942
54466,41942
54466,42521
" /> 
<polyline style="fill-rule:evenodd;"
points="54663,42521
54564,42521
54564,41942
54663,41942
54663,42521
" /> 
<polyline style="fill-rule:evenodd;"
points="54860,42521
54761,42521
54761,41942
54860,41942
54860,42521
" /> 
<polyline style="fill-rule:evenodd;"
points="55057,42521
54958,42521
54958,41942
55057,41942
55057,42521
" /> 
<polyline style="fill-rule:evenodd;"
points="55253,42521
55155,42521
55155,41942
55253,41942
55253,42521
" /> 
<polyline style="fill-rule:evenodd;"
points="55450,42521
55352,42521
55352,41942
55450,41942
55450,42521
" /> 
<polyline style="fill-rule:evenodd;"
points="55647,42521
55549,42521
55549,41942
55647,41942
55647,42521
" /> 
<polyline style="fill-rule:evenodd;"
points="55844,42521
55746,42521
55746,41942
55844,41942
55844,42521
" /> 
<polyline style="fill-rule:evenodd;"
points="56041,42521
55942,42521
55942,41942
56041,41942
56041,42521
" /> 
<polyline style="fill-rule:evenodd;"
points="56238,42521
56139,42521
56139,41942
56238,41942
56238,42521
" /> 
<polyline style="fill-rule:evenodd;"
points="56435,42521
56336,42521
56336,41942
56435,41942
56435,42521
" /> 
<polyline style="fill-rule:evenodd;"
points="56631,42521
56533,42521
56533,41942
56631,41942
56631,42521
" /> 
<polyline style="fill-rule:evenodd;"
points="56828,42521
56730,42521
56730,41942
56828,41942
56828,42521
" /> 
<polyline style="fill-rule:evenodd;"
points="57025,42521
56927,42521
56927,41942
57025,41942
57025,42521
" /> 
<polyline style="fill-rule:evenodd;"
points="57025,38057
56927,38057
56927,37478
57025,37478
57025,38057
" /> 
<polyline style="fill-rule:evenodd;"
points="56828,38057
56730,38057
56730,37478
56828,37478
56828,38057
" /> 
<polyline style="fill-rule:evenodd;"
points="56631,38057
56533,38057
56533,37478
56631,37478
56631,38057
" /> 
<polyline style="fill-rule:evenodd;"
points="56435,38057
56336,38057
56336,37478
56435,37478
56435,38057
" /> 
<polyline style="fill-rule:evenodd;"
points="56238,38057
56139,38057
56139,37478
56238,37478
56238,38057
" /> 
<polyline style="fill-rule:evenodd;"
points="56041,38057
55942,38057
55942,37478
56041,37478
56041,38057
" /> 
<polyline style="fill-rule:evenodd;"
points="55844,38057
55746,38057
55746,37478
55844,37478
55844,38057
" /> 
<polyline style="fill-rule:evenodd;"
points="55647,38057
55549,38057
55549,37478
55647,37478
55647,38057
" /> 
<polyline style="fill-rule:evenodd;"
points="55450,38057
55352,38057
55352,37478
55450,37478
55450,38057
" /> 
<polyline style="fill-rule:evenodd;"
points="55253,38057
55155,38057
55155,37478
55253,37478
55253,38057
" /> 
<polyline style="fill-rule:evenodd;"
points="55057,38057
54958,38057
54958,37478
55057,37478
55057,38057
" /> 
<polyline style="fill-rule:evenodd;"
points="54860,38057
54761,38057
54761,37478
54860,37478
54860,38057
" /> 
<polyline style="fill-rule:evenodd;"
points="54663,38057
54564,38057
54564,37478
54663,37478
54663,38057
" /> 
<polyline style="fill-rule:evenodd;"
points="54466,38057
54368,38057
54368,37478
54466,37478
54466,38057
" /> 
<polyline style="fill-rule:evenodd;"
points="54269,38057
54171,38057
54171,37478
54269,37478
54269,38057
" /> 
<polyline style="fill-rule:evenodd;"
points="54072,38057
53974,38057
53974,37478
54072,37478
54072,38057
" /> 
<polyline style="fill-rule:evenodd;"
points="52978,38572
52978,38474
53557,38474
53557,38572
52978,38572
" /> 
<polyline style="fill-rule:evenodd;"
points="52978,38769
52978,38671
53557,38671
53557,38769
52978,38769
" /> 
<polyline style="fill-rule:evenodd;"
points="52978,38966
52978,38868
53557,38868
53557,38966
52978,38966
" /> 
<polyline style="fill-rule:evenodd;"
points="52978,39163
52978,39064
53557,39064
53557,39163
52978,39163
" /> 
<polyline style="fill-rule:evenodd;"
points="52978,39360
52978,39261
53557,39261
53557,39360
52978,39360
" /> 
<polyline style="fill-rule:evenodd;"
points="52978,39557
52978,39458
53557,39458
53557,39557
52978,39557
" /> 
<polyline style="fill-rule:evenodd;"
points="52978,39753
52978,39655
53557,39655
53557,39753
52978,39753
" /> 
<polyline style="fill-rule:evenodd;"
points="52978,39950
52978,39852
53557,39852
53557,39950
52978,39950
" /> 
<polyline style="fill-rule:evenodd;"
points="52978,40147
52978,40049
53557,40049
53557,40147
52978,40147
" /> 
<polyline style="fill-rule:evenodd;"
points="52978,40344
52978,40246
53557,40246
53557,40344
52978,40344
" /> 
<polyline style="fill-rule:evenodd;"
points="52978,40541
52978,40442
53557,40442
53557,40541
52978,40541
" /> 
<polyline style="fill-rule:evenodd;"
points="52978,40738
52978,40639
53557,40639
53557,40738
52978,40738
" /> 
<polyline style="fill-rule:evenodd;"
points="52978,40935
52978,40836
53557,40836
53557,40935
52978,40935
" /> 
<polyline style="fill-rule:evenodd;"
points="52978,41131
52978,41033
53557,41033
53557,41131
52978,41131
" /> 
<polyline style="fill-rule:evenodd;"
points="52978,41328
52978,41230
53557,41230
53557,41328
52978,41328
" /> 
<polyline style="fill-rule:evenodd;"
points="52978,41525
52978,41427
53557,41427
53557,41525
52978,41525
" /> 
<polyline style="fill-rule:evenodd;"
points="57442,41525
57442,41427
58021,41427
58021,41525
57442,41525
" /> 
<polyline style="fill-rule:evenodd;"
points="57442,41328
57442,41230
58021,41230
58021,41328
57442,41328
" /> 
<polyline style="fill-rule:evenodd;"
points="57442,41131
57442,41033
58021,41033
58021,41131
57442,41131
" /> 
<polyline style="fill-rule:evenodd;"
points="57442,40935
57442,40836
58021,40836
58021,40935
57442,40935
" /> 
<polyline style="fill-rule:evenodd;"
points="57442,40738
57442,40639
58021,40639
58021,40738
57442,40738
" /> 
<polyline style="fill-rule:evenodd;"
points="57442,40541
57442,40442
58021,40442
58021,40541
57442,40541
" /> 
<polyline style="fill-rule:evenodd;"
points="57442,40344
57442,40246
58021,40246
58021,40344
57442,40344
" /> 
<polyline style="fill-rule:evenodd;"
points="57442,40147
57442,40049
58021,40049
58021,40147
57442,40147
" /> 
<polyline style="fill-rule:evenodd;"
points="57442,39950
57442,39852
58021,39852
58021,39950
57442,39950
" /> 
<polyline style="fill-rule:evenodd;"
points="57442,39753
57442,39655
58021,39655
58021,39753
57442,39753
" /> 
<polyline style="fill-rule:evenodd;"
points="57442,39557
57442,39458
58021,39458
58021,39557
57442,39557
" /> 
<polyline style="fill-rule:evenodd;"
points="57442,39360
57442,39261
58021,39261
58021,39360
57442,39360
" /> 
<polyline style="fill-rule:evenodd;"
points="57442,39163
57442,39064
58021,39064
58021,39163
57442,39163
" /> 
<polyline style="fill-rule:evenodd;"
points="57442,38966
57442,38868
58021,38868
58021,38966
57442,38966
" /> 
<polyline style="fill-rule:evenodd;"
points="57442,38769
57442,38671
58021,38671
58021,38769
57442,38769
" /> 
<polyline style="fill-rule:evenodd;"
points="57442,38572
57442,38474
58021,38474
58021,38572
57442,38572
" /> 
<polyline style="fill-rule:evenodd;"
points="50078,52734
50078,53265
49921,53265
49921,52734
50078,52734
" /> 
<polyline style="fill-rule:evenodd;"
points="50334,52734
50334,53265
50177,53265
50177,52734
50334,52734
" /> 
<polyline style="fill-rule:evenodd;"
points="49822,52734
49822,53265
49665,53265
49665,52734
49822,52734
" /> 
<polyline style="fill-rule:evenodd;"
points="50590,52734
50590,53265
50433,53265
50433,52734
50590,52734
" /> 
<polyline style="fill-rule:evenodd;"
points="49566,52734
49566,53265
49409,53265
49409,52734
49566,52734
" /> 
<polyline style="fill-rule:evenodd;"
points="50807,51572
50807,52320
50098,52320
50098,51572
50807,51572
" /> 
<polyline style="fill-rule:evenodd;"
points="49901,51572
49901,52320
49192,52320
49192,51572
49901,51572
" /> 
<polyline style="fill-rule:evenodd;"
points="50974,53314
50974,53354
50935,53354
50935,53314
50974,53314
" /> 
<polyline style="fill-rule:evenodd;"
points="49064,53310
49064,53349
49025,53349
49025,53310
49064,53310
" /> 
<polyline style="fill-rule:evenodd;"
points="51796,51912
51796,51951
51756,51951
51756,51912
51796,51912
" /> 
<polyline style="fill-rule:evenodd;"
points="48243,51922
48243,51961
48203,51961
48203,51922
48243,51922
" /> 
</g> 
</svg>
