M48
;DRILL file {KiCad 4.0.7} date 06/29/18 09:04:34
;FORMAT={-:-/ absolute / inch / decimal}
FMAT,2
INCH,TZ
T1C0.016
T2C0.031
T3C0.040
T4C0.016
T5C0.024
T6C0.126
%
G90
G05
M72
T1
X3.6Y-2.22
X3.8035Y-3.9148
X3.8049Y-3.9533
X3.86Y-3.64
X4.18Y-3.68
X4.38Y-4.06
X4.58Y-4.3
X4.6032Y-5.3839
X4.62Y-4.2
X4.6732Y-4.0133
X4.7Y-4.42
X4.8Y-4.28
X4.84Y-3.6
X4.84Y-3.88
X4.86Y-4.62
X4.8754Y-4.2323
X4.9Y-3.64
X4.9Y-3.82
X4.94Y-4.52
X4.94Y-4.78
X4.96Y-4.62
X4.98Y-3.82
X4.98Y-4.44
X5.Y-4.32
X5.Y-4.72
X5.0065Y-4.5536
X5.02Y-3.2
X5.0389Y-4.6165
X5.04Y-4.24
X5.04Y-4.28
X5.04Y-4.52
X5.0898Y-4.9719
X5.0987Y-3.5964
X5.1Y-2.54
X5.12Y-3.62
X5.1375Y-3.8664
X5.1458Y-4.1575
X5.16Y-3.66
X5.18Y-3.58
X5.2Y-3.76
X5.22Y-4.7
X5.24Y-3.26
X5.24Y-3.48
X5.26Y-2.38
X5.26Y-4.74
X5.28Y-4.4
X5.28Y-4.44
X5.3Y-3.56
X5.3Y-3.72
X5.3048Y-1.9566
X5.32Y-3.66
X5.3431Y-4.7885
X5.36Y-3.46
X5.36Y-3.62
X5.431Y-1.9606
X5.56Y-4.46
X5.64Y-4.34
X5.66Y-4.04
X5.72Y-4.08
X5.72Y-4.3
X5.86Y-3.58
X5.86Y-3.8
X5.88Y-4.22
X5.9Y-4.18
X5.9Y-4.54
X5.92Y-3.88
X5.94Y-3.66
X5.94Y-4.12
X5.96Y-3.08
X5.96Y-4.3
X5.98Y-4.06
X6.0009Y-3.9533
X6.02Y-4.54
X6.06Y-3.56
X6.08Y-4.36
X6.1Y-4.16
X6.1Y-4.68
X6.1Y-4.86
X6.1157Y-3.4204
X6.1159Y-3.2523
X6.16Y-3.02
X6.18Y-4.46
X6.3Y-4.36
X6.32Y-2.56
X6.3388Y-4.0133
X6.46Y-3.38
X6.46Y-3.62
X6.46Y-5.22
X6.48Y-4.5
X6.5Y-4.46
X6.52Y-2.54
X6.54Y-4.82
X6.6Y-2.46
X6.62Y-4.72
X6.6298Y-3.4204
X6.66Y-4.96
X6.66Y-5.22
T2
X5.66Y-4.94
X5.66Y-5.04
X5.96Y-4.94
X5.96Y-5.04
T3
X3.76Y-1.92
X3.76Y-2.02
X3.76Y-2.12
X3.76Y-2.22
X3.76Y-2.32
X3.76Y-2.42
X3.76Y-2.52
X3.76Y-2.62
X3.76Y-2.72
X3.76Y-2.82
X3.76Y-2.92
X3.76Y-3.02
X3.76Y-3.12
X3.76Y-3.22
X3.76Y-3.32
X4.66Y-1.92
X4.66Y-2.02
X4.66Y-2.12
X4.66Y-2.22
X4.66Y-2.32
X4.66Y-2.42
X4.66Y-2.52
X4.66Y-2.62
X4.66Y-2.72
X4.66Y-2.82
X4.66Y-2.92
X4.66Y-3.02
X4.66Y-3.12
X4.66Y-3.22
X4.66Y-3.32
T4
X4.8645Y-5.5728
X5.0555Y-5.5728
T5
X4.8217Y-5.4547
X5.0983Y-5.4547
T6
X3.7939Y-1.7696
X3.7939Y-3.4873
X4.6285Y-1.7696
X4.6305Y-3.4873
T0
M30
